<svg xmlns="http://www.w3.org/2000/svg" width="38" height="24" aria-labelledby="pi-aramex"><title id="pi-aramex">Aramex</title><path d="M35 0H3C1.3 0 0 1.3 0 3v18c0 1.7 1.4 3 3 3h32c1.7 0 3-1.3 3-3V3c0-1.7-1.4-3-3-3z" fill="#010101" isolation="isolate" opacity=".07"/><path d="M35 1c1.1 0 2 .9 2 2v18c0 1.1-.9 2-2 2H3c-1.1 0-2-.9-2-2V3c0-1.1.9-2 2-2h32" fill="#fff"/><path d="M6.83 9.23c-.21-.23-.46-.39-.71-.5-.25-.12-.54-.17-.83-.17-.64 0-1.18.25-1.62.73-.44.5-.67 1.12-.67 1.89s.23 1.35.69 1.85c.46.5 1 .75 1.64.75.29 0 .54-.06.79-.15.23-.1.48-.27.71-.5v.52h1.23V8.7H6.83v.54zm-.33 2.99c-.25.27-.58.4-.96.4s-.69-.13-.94-.42c-.25-.27-.39-.64-.39-1.06s.13-.77.39-1.04.56-.4.94-.4.71.13.96.4.33.58.33 1c.02.44-.06.85-.33 1.12zm8.63-2.99c-.21-.23-.46-.39-.71-.5-.25-.12-.54-.17-.83-.17-.64 0-1.18.25-1.62.73-.44.48-.67 1.12-.67 1.87s.23 1.35.69 1.85c.46.5 1 .75 1.64.75.29 0 .54-.06.79-.15.23-.1.48-.27.71-.5v.52h1.23V8.7h-1.23v.54zm-.33 2.99c-.25.27-.58.4-.96.4s-.69-.13-.94-.42c-.25-.27-.39-.64-.39-1.06s.13-.77.39-1.04.56-.4.94-.4.71.13.96.4.33.58.33 1c.02.44-.06.85-.33 1.12zm8.98-3.41c-.27-.17-.58-.25-.92-.25s-.66.08-.92.23c-.29.15-.52.37-.71.67-.15-.29-.35-.52-.6-.67-.25-.15-.52-.23-.83-.23s-.58.06-.85.17c-.25.12-.48.29-.69.52v-.58h-1.23v4.95h1.23v-2.2c0-.48.04-.83.12-1.04s.21-.39.39-.52c.17-.12.35-.19.56-.19.19 0 .35.06.46.15.13.1.23.25.29.44s.1.52.1.96v2.39h1.23v-2.23c0-.46.04-.81.12-1.02s.21-.39.37-.5c.17-.12.37-.17.58-.17.27 0 .48.1.62.29s.21.58.21 1.14v2.5h1.23v-2.89c0-.6-.06-1.02-.17-1.29-.1-.25-.29-.46-.56-.64zm5.05 3.37c-.33.33-.73.5-1.18.5-.39 0-.69-.12-.94-.31-.25-.21-.4-.5-.46-.85h3.95v-.23c0-.81-.25-1.46-.73-1.97s-1.12-.75-1.89-.75-1.33.25-1.81.75-.73 1.12-.73 1.89.25 1.35.73 1.85c.48.48 1.12.73 1.87.73.5 0 .92-.1 1.29-.27s.67-.44.92-.83l-1.02-.52zm-2.06-2.27c.25-.19.56-.29.91-.29.31 0 .6.08.83.25s.4.39.48.66h-2.68c.13-.29.29-.5.46-.62zm6.36 1.12l1.68-2.33H33.4l-.96 1.35-.96-1.35h-1.43l1.68 2.35-1.87 2.6h1.41l1.16-1.62 1.16 1.62h1.43l-1.87-2.62zm-22.1-2.49c-.23 0-.42.04-.6.13-.17.08-.35.23-.56.46v-.42H8.69v4.95h1.23v-2.58c0-.94.25-1.41.89-1.41.12 0 .21.02.33.06.19-.35.44-.66.69-.94-.27-.17-.54-.25-.81-.25z" fill="#e3201b"/><path d="M4.77 16.86h-.12l-.06-.12c-.12.1-.25.15-.39.15-.17 0-.33-.06-.42-.15-.13-.12-.19-.31-.19-.56 0-.48.19-.71.6-.71.13 0 .27.04.4.13-.02-.04-.02-.08-.02-.12v-.6h.19v1.97zm-.21-.27v-.83a.517.517 0 00-.19-.08c-.08-.02-.13-.04-.19-.04-.13 0-.23.04-.31.13-.06.1-.1.23-.1.42 0 .37.13.56.42.56.12-.02.23-.08.37-.17zM6.26 16.25h-1c0 .17.04.29.1.37s.17.12.33.12c.19 0 .31-.06.39-.19l.17.08c-.1.19-.27.29-.56.29-.21 0-.39-.06-.48-.17-.1-.12-.15-.29-.15-.54 0-.23.04-.4.13-.52.1-.12.27-.19.5-.19s.39.08.48.21c.06.1.1.27.1.5v.06zm-.19-.17c0-.15-.02-.25-.08-.33s-.15-.12-.29-.12-.23.04-.31.1c-.08.08-.12.19-.12.35h.79zM7.03 16.88h-.1c-.19 0-.31-.12-.31-.33v-1.48h-.21v-.17h.4v1.66c0 .1.04.15.12.15h.1v.17zM7.74 16.88h-.1c-.19 0-.29-.12-.29-.33v-.79s0-.06.02-.1h-.23v-.17h.4v1.04c0 .1.04.15.1.15h.1v.19zm-.19-1.75s0 .02 0 0l-.23.02s-.02 0-.02-.02v-.19s0-.02.02-.02h.21s.02 0 .02.02v.19zM9.07 15.51l-.5 1.35h-.23l-.5-1.35h.21l.37 1s.04.12.04.21c0-.04.02-.12.06-.21l.37-1h.19zM10.4 16.25h-1c0 .17.04.29.1.37s.17.12.33.12c.19 0 .31-.06.39-.19l.17.08c-.1.19-.27.29-.56.29-.21 0-.39-.06-.48-.17-.1-.12-.15-.29-.15-.54 0-.23.04-.4.13-.52.1-.12.27-.19.5-.19s.39.08.48.21c.06.1.1.27.1.5v.06zm-.21-.17c0-.15-.02-.25-.08-.33-.06-.08-.15-.12-.29-.12s-.23.04-.31.1c-.08.08-.12.19-.12.35h.79zM11.36 15.67s-.08-.02-.12-.02c-.12 0-.21.04-.29.12l-.08.06v1.02h-.19V15.5h.15l.04.13.12-.1c.08-.06.15-.08.25-.08.04 0 .08 0 .12.02v.19zM12.75 15.51l-.64 1.7c-.04.1-.08.15-.13.19s-.15.06-.27.06h-.17v-.17h.17c.08 0 .13-.02.15-.04.02-.02.06-.06.08-.13l.1-.23-.52-1.39h.21l.37 1s.02.08.04.17c.02-.08.04-.13.04-.17l.37-1 .21.02zM14.71 16.86h-.15l-.04-.15-.1.06c-.13.1-.25.13-.35.13-.15 0-.27-.04-.35-.12-.1-.1-.13-.23-.13-.4v-.87h.19v.87c0 .25.1.37.29.37.1 0 .19-.04.31-.12l.13-.1v-1.02h.19v1.35zM16.2 16.86h-.19v-.87c0-.23-.1-.37-.29-.37-.1 0-.19.04-.31.12l-.13.1v1.02h-.19v-1.35h.15l.04.15.1-.06c.13-.1.25-.13.35-.13.15 0 .25.04.35.12.1.1.13.21.13.4v.87zM16.99 16.88h-.1c-.19 0-.31-.12-.31-.33v-1.48h-.21v-.17h.4v1.66c0 .1.04.15.12.15h.1v.17zM17.72 16.88h-.1c-.19 0-.29-.12-.29-.33v-.79s0-.06.02-.1h-.23v-.17h.4v1.04c0 .1.04.15.1.15h.1v.19zm-.21-1.75s0 .02 0 0l-.23.02s-.02 0-.02-.02v-.19s0-.02.02-.02h.21s.02 0 .02.02v.19zM19.82 16.86h-.19v-.87c0-.25-.08-.37-.21-.37-.1 0-.19.04-.33.13l-.1.06s.02.1.02.17v.87h-.19v-.87c0-.25-.08-.37-.23-.37-.08 0-.19.04-.31.13l-.12.08v1.02h-.19v-1.35h.15l.04.15.1-.06c.13-.1.25-.13.33-.13.17 0 .29.08.37.21l.1-.08c.08-.06.13-.1.17-.1.06-.02.13-.04.21-.04.27 0 .42.17.42.54v.85h-.04zM20.65 16.88h-.1c-.19 0-.29-.12-.29-.33v-.79s0-.06.02-.1h-.23v-.17h.4v1.04c0 .1.04.15.1.15h.1v.19zm-.19-1.75s0 .02 0 0l-.23.02s-.02 0-.02-.02v-.19s0-.02.02-.02h.21s.02 0 .02.02v.19zM21.76 16.79c-.1.08-.23.12-.4.12-.23 0-.35-.12-.35-.37v-.75s0-.06.02-.1h-.25v-.17h.23v-.46l.19-.06v.52h.48l-.06.17h-.42v.85c0 .08.02.13.06.17.04.04.1.04.17.04s.13-.02.21-.08l.12.12zM23.11 16.25h-1c0 .17.04.29.1.37s.17.12.33.12c.19 0 .31-.06.39-.19l.17.08c-.1.19-.27.29-.56.29-.21 0-.39-.06-.48-.17-.1-.12-.15-.29-.15-.54 0-.23.04-.4.13-.52.1-.12.27-.19.5-.19s.39.08.48.21c.06.1.1.27.1.5v.06zm-.21-.17c0-.15-.02-.25-.08-.33s-.15-.12-.29-.12-.23.04-.31.1c-.08.08-.12.19-.12.35h.79zM24.54 16.86h-.12l-.06-.12c-.12.1-.25.15-.39.15-.17 0-.33-.06-.42-.15-.13-.12-.19-.31-.19-.56 0-.48.19-.71.6-.71.13 0 .27.04.4.13-.02-.04-.02-.08-.02-.12v-.6h.19v1.97zm-.19-.27v-.83a.517.517 0 00-.19-.08c-.08-.02-.13-.04-.19-.04-.13 0-.23.04-.31.13-.06.1-.1.23-.1.42 0 .37.13.56.42.56.1-.02.21-.08.37-.17z"/></svg>