<svg xmlns="http://www.w3.org/2000/svg" width="38" height="24" aria-labelledby="pi-bpost"><title id="pi-bpost">Bpost</title><defs><clipPath id="clippath"><path d="M25.55 4c-2.89 6.35-9.69 12.86-15.18 14.53-3.75 1.13-5.9-.29-5.94-3.39v-.13c.02-1.38.45-3.08 1.36-5.02l1.9-.59c-1.92 4.18-.59 6.69 3.01 5.61s8.04-5.36 9.96-9.51l4.9-1.49z" fill="none" stroke-width="0"/></clipPath><clipPath id="clippath-1"><path d="M15.16 7.14c-.97 2.12-3.25 4.29-5.08 4.86-1.83.54-2.53-.72-1.54-2.85l6.62-2.01z" fill="none" stroke-width="0"/></clipPath></defs><path d="M35 0H3C1.3 0 0 1.3 0 3v18c0 1.7 1.4 3 3 3h32c1.7 0 3-1.3 3-3V3c0-1.7-1.4-3-3-3z" fill="#010101" isolation="isolate" opacity=".07"/><path d="M35 1c1.1 0 2 .9 2 2v18c0 1.1-.9 2-2 2H3c-1.1 0-2-.9-2-2V3c0-1.1.9-2 2-2h32" fill="#fff"/><path d="M21.69 17.42c0 .91-.59 1.47-1.67 1.47-.52 0-.97-.09-1.22-.2v-3.84h.84V16c.11-.02.29-.05.47-.05 1.04 0 1.58.59 1.58 1.47zm-.86 0c0-.54-.27-.93-.79-.93-.16 0-.34.02-.41.05v1.72c.07.05.22.07.38.07.52 0 .81-.34.81-.91zm12.22 1.47c-.66 0-.95-.29-.95-.91v-1.45h-.43v-.54h.43v-.63l.84-.2V16h.63v.54h-.63v1.4c0 .25.16.32.38.32.09 0 .18-.02.25-.04v.61c-.11.02-.32.07-.52.07zm-3.07.02c-.41 0-.84-.09-1.08-.2l.29-.54c.16.09.52.18.77.18.32 0 .5-.13.5-.32 0-.2-.2-.29-.5-.38-.43-.14-.97-.32-.97-.86s.45-.86 1.24-.86c.43 0 .77.09 1.02.22l-.25.47a1.79 1.79 0 00-.68-.16c-.29 0-.47.14-.47.29 0 .22.23.32.52.4.45.14.99.29.99.86s-.47.88-1.38.88zm-2.91 0c-.97 0-1.51-.63-1.51-1.49s.54-1.49 1.51-1.49 1.51.63 1.51 1.49-.54 1.49-1.51 1.49zm0-2.42c-.45 0-.68.36-.68.93s.22.91.68.91.68-.34.68-.91-.23-.93-.68-.93zm-3.5 2.4c-.18 0-.38-.05-.5-.07V20h-.84v-3.84c.25-.11.72-.22 1.22-.22 1.08 0 1.67.56 1.67 1.49s-.54 1.47-1.56 1.47zm-.09-2.4c-.16 0-.32.02-.41.07v1.72c.07.02.25.05.41.05.52 0 .79-.36.79-.91 0-.59-.27-.93-.79-.93z" fill="#7c7d82"/><g clip-path="url(#clippath)"><path fill="#c12619" fill-rule="evenodd" d="M4.43 16.31l2.34 3.35H4.43v-3.35zM4.43 15.76l2.73 3.9h-.39l-2.34-3.35v-.55z"/><path fill="#c2261a" fill-rule="evenodd" d="M4.43 15.21l3.12 4.45h-.39l-2.73-3.9v-.55z"/><path fill="#c3271a" fill-rule="evenodd" d="M4.43 14.66l3.5 5h-.38l-3.12-4.45v-.55z"/><path fill="#c4271b" fill-rule="evenodd" d="M4.43 14.1l3.89 5.56h-.39l-3.5-5v-.56z"/><path fill="#c5281c" fill-rule="evenodd" d="M4.43 13.55l4.28 6.11h-.39L4.43 14.1v-.55z"/><path fill="#c6281d" fill-rule="evenodd" d="M4.43 13l4.66 6.66h-.38l-4.28-6.11V13z"/><path fill="#c7291d" fill-rule="evenodd" d="M4.43 12.45l5.05 7.21h-.39L4.43 13v-.55z"/><path fill="#c8291e" fill-rule="evenodd" d="M4.43 11.9l5.44 7.76h-.39l-5.05-7.21v-.55z"/><path fill="#c92a1f" fill-rule="evenodd" d="M4.43 11.35l5.82 8.31h-.38L4.43 11.9v-.55z"/><path fill="#ca2a20" fill-rule="evenodd" d="M4.43 10.79l6.21 8.87h-.39l-5.82-8.31v-.56z"/><path fill="#cb2a20" fill-rule="evenodd" d="M4.43 10.24l6.6 9.42h-.39l-6.21-8.87v-.55z"/><path fill="#cc2b21" fill-rule="evenodd" d="M4.43 9.69l6.98 9.97h-.38l-6.6-9.42v-.55z"/><path fill="#cd2b22" fill-rule="evenodd" d="M4.43 9.14l7.37 10.52h-.39L4.43 9.69v-.55z"/><path fill="#ce2c23" fill-rule="evenodd" d="M4.43 8.59l7.76 11.07h-.39L4.43 9.14v-.55z"/><path fill="#cf2c23" fill-rule="evenodd" d="M4.43 8.04l8.14 11.62h-.38L4.43 8.59v-.55z"/><path fill="#d02d24" fill-rule="evenodd" d="M4.43 7.51l.01-.01 8.52 12.16h-.39L4.43 8.04v-.53z"/><path fill="#d12d25" fill-rule="evenodd" d="M4.44 7.5l.26-.18 8.65 12.34h-.39L4.44 7.5z"/><path fill="#d22e26" fill-rule="evenodd" d="M4.7 7.32l.26-.18 8.77 12.52h-.38L4.7 7.32z"/><path fill="#d32e26" fill-rule="evenodd" d="M4.96 7.14l.26-.18 8.9 12.7h-.39L4.96 7.14z"/><path fill="#d42e27" fill-rule="evenodd" d="M5.22 6.96l.26-.18 9.03 12.88h-.39l-8.9-12.7z"/><path fill="#d52f28" fill-rule="evenodd" d="M5.48 6.78l.26-.18 9.15 13.06h-.38L5.48 6.78z"/><path fill="#d62f28" fill-rule="evenodd" d="M5.74 6.6L6 6.41l9.28 13.25h-.39L5.74 6.6z"/><path fill="#d73029" fill-rule="evenodd" d="M6 6.41l.25-.18 9.42 13.43h-.39L6 6.41z"/><path fill="#d8302a" fill-rule="evenodd" d="M6.25 6.23l.26-.18 9.54 13.61h-.38L6.25 6.23z"/><path fill="#d9312b" fill-rule="evenodd" d="M6.51 6.05l.26-.18 9.67 13.79h-.39L6.51 6.05z"/><path fill="#da312b" fill-rule="evenodd" d="M6.77 5.87l.26-.18 9.77 13.93-.05.04h-.31L6.77 5.87z"/><path fill="#db322c" d="M7.03 5.681l.263-.183 9.77 13.937-.263.183z"/><path fill="#dc322d" d="M7.29 5.505l.262-.184 9.77 13.937-.262.184z"/><path fill="#dd322e" d="M7.55 5.318l.262-.184 9.77 13.937-.262.184z"/><path fill="#de332e" d="M7.81 5.142l.262-.184 9.77 13.937-.263.183z"/><path fill="#df332f" d="M8.08 4.955l.261-.184 9.77 13.937-.262.184z"/><path fill="#e13430" d="M8.33 4.784l.263-.184 9.77 13.937-.263.184z"/><path fill="#e23431" d="M8.584 4.59l.262-.185 9.77 13.937-.262.184z"/><path fill="#e33531" d="M8.844 4.413l.262-.184 9.77 13.937-.262.183z"/><path fill="#e43532" d="M9.104 4.236l.262-.184 9.77 13.937-.263.184z"/><path fill="#e53533" fill-rule="evenodd" d="M9.37 4.05L9.44 4h.28l9.67 13.81-.26.18L9.37 4.05z"/><path fill="#e63634" fill-rule="evenodd" d="M10.1 4l9.55 13.63-.26.18L9.72 4h.38z"/><path fill="#e73634" fill-rule="evenodd" d="M10.49 4l9.42 13.44-.26.19L10.1 4h.39z"/><path fill="#e83735" fill-rule="evenodd" d="M10.88 4l9.29 13.26-.26.18L10.49 4h.39z"/><path fill="#e93736" fill-rule="evenodd" d="M11.26 4l9.17 13.08-.26.18L10.88 4h.38z"/><path fill="#ea3837" fill-rule="evenodd" d="M11.65 4l9.04 12.9-.26.18L11.26 4h.39z"/><path fill="#eb3837" fill-rule="evenodd" d="M12.04 4l8.91 12.72-.26.18L11.65 4h.39z"/><path fill="#ec3938" fill-rule="evenodd" d="M12.42 4l8.79 12.54-.26.18L12.04 4h.38z"/><path fill="#ed3939" fill-rule="evenodd" d="M12.81 4l8.66 12.35-.26.19L12.42 4h.39z"/><path fill="#ee3939" fill-rule="evenodd" d="M13.2 4l8.53 12.17-.26.18L12.81 4h.39z"/><path fill="#ef3a3a" fill-rule="evenodd" d="M13.58 4l8.41 11.99-.26.18L13.2 4h.38z"/><path fill="#f03a3b" fill-rule="evenodd" d="M13.97 4l8.28 11.81-.26.18L13.58 4h.39z"/><path fill="#f13b3c" fill-rule="evenodd" d="M14.36 4l8.15 11.63-.26.18L13.97 4h.39z"/><path fill="#f23b3c" fill-rule="evenodd" d="M14.74 4l8.02 11.44-.25.19L14.36 4h.38z"/><path fill="#f33c3d" fill-rule="evenodd" d="M15.13 4l7.89 11.26-.26.18L14.74 4h.39z"/><path fill="#f43c3e" fill-rule="evenodd" d="M15.52 4l7.76 11.08-.26.18L15.13 4h.39z"/><path fill="#f53d3f" fill-rule="evenodd" d="M15.9 4l7.64 10.9-.26.18L15.52 4h.38z"/><path fill="#f63d3f" fill-rule="evenodd" d="M16.29 4l7.51 10.72-.26.18L15.9 4h.39z"/><path fill="#f73d40" fill-rule="evenodd" d="M16.68 4l7.38 10.54-.26.18L16.29 4h.39z"/><path fill="#f83e41" fill-rule="evenodd" d="M17.06 4l7.26 10.35-.26.19L16.68 4h.38z"/><path fill="#f93e42" fill-rule="evenodd" d="M17.45 4l7.13 10.17-.26.18L17.06 4h.39z"/><path fill="#fa3f42" fill-rule="evenodd" d="M17.84 4l7 9.99-.26.18L17.45 4h.39z"/><path fill="#fb3f43" fill-rule="evenodd" d="M18.22 4l6.88 9.81-.26.18-7-9.99h.38z"/><path fill="#fc4044" fill-rule="evenodd" d="M18.61 4l6.75 9.63-.26.18L18.22 4h.39z"/><path fill="#fd4045" fill-rule="evenodd" d="M19 4l6.55 9.36v.13l-.19.14L18.61 4H19z"/><path fill="#fe4145" fill-rule="evenodd" d="M19.38 4l6.17 8.8v.56L19 4h.38z"/><path fill="#ff4146" fill-rule="evenodd" d="M19.77 4l5.78 8.25v.55L19.38 4h.39z"/><path fill="#ff4146" fill-rule="evenodd" d="M25.55 12.25L19.77 4h5.78v8.25z"/></g><g clip-path="url(#clippath-1)" fill-rule="evenodd"><path fill="#c12619" d="M7.54 9.57l2.08 2.97H7.54V9.57z"/><path fill="#c12619" d="M7.54 9.4l2.2 3.14h-.12L7.54 9.57V9.4z"/><path fill="#c2261a" d="M7.54 9.23l2.33 3.31h-.13L7.54 9.4v-.17z"/><path fill="#c3271a" d="M7.54 9.06l2.45 3.48h-.12L7.54 9.23v-.17z"/><path fill="#c4271b" d="M7.54 8.89l2.57 3.65h-.12L7.54 9.06v-.17z"/><path fill="#c5281c" d="M7.54 8.71l2.69 3.83h-.12L7.54 8.89v-.18z"/><path fill="#c6281d" d="M7.54 8.54l2.81 4h-.12L7.54 8.71v-.17z"/><path fill="#c7291d" d="M7.54 8.37l2.93 4.17h-.12l-2.81-4v-.17z"/><path fill="#c8291e" d="M7.54 8.2l3.05 4.34h-.12L7.54 8.37V8.2z"/><path fill="#c92a1f" d="M7.54 8.03l3.17 4.51h-.12L7.54 8.2v-.17z"/><path fill="#ca2a20" d="M7.54 7.85l3.29 4.69h-.12L7.54 8.03v-.18z"/><path fill="#cb2a20" d="M7.54 7.68l3.41 4.86h-.12L7.54 7.85v-.17z"/><path fill="#cc2b21" d="M7.54 7.51l3.53 5.03h-.12L7.54 7.68v-.17z"/><path fill="#cd2b22" d="M7.54 7.34l3.65 5.2h-.12L7.54 7.51v-.17z"/><path fill="#ce2c23" d="M7.54 7.17l3.77 5.37h-.12l-3.65-5.2v-.17z"/><path fill="#cf2c23" d="M7.65 7.14l3.78 5.4h-.12L7.54 7.17v-.03h.11z"/><path fill="#d02d24" d="M7.77 7.14l3.78 5.4h-.12l-3.78-5.4h.12z"/><path fill="#d12d25" d="M7.89 7.14l3.78 5.4h-.12l-3.78-5.4h.12z"/><path fill="#d22e26" d="M8.01 7.14l3.78 5.4h-.12l-3.78-5.4h.12z"/><path fill="#d32e26" d="M8.13 7.14l3.78 5.4h-.12l-3.78-5.4h.12z"/><path fill="#d42e27" d="M8.25 7.14l3.78 5.4h-.12l-3.78-5.4h.12z"/><path fill="#d52f28" d="M8.37 7.14l3.78 5.4h-.12l-3.78-5.4h.12z"/><path fill="#d62f28" d="M8.49 7.14l3.78 5.4h-.12l-3.78-5.4h.12z"/><path fill="#d73029" d="M8.61 7.14l3.78 5.4h-.12l-3.78-5.4h.12z"/><path fill="#d8302a" d="M8.73 7.14l3.78 5.4h-.12l-3.78-5.4h.12z"/><path fill="#d9312b" d="M8.85 7.14l3.78 5.4h-.12l-3.78-5.4h.12z"/><path fill="#da312b" d="M8.97 7.14l3.78 5.4h-.12l-3.78-5.4h.12z"/><path fill="#db322c" d="M9.09 7.14l3.78 5.4h-.12l-3.78-5.4h.12z"/><path fill="#dc322d" d="M9.21 7.14l3.78 5.4h-.12l-3.78-5.4h.12z"/><path fill="#dd322e" d="M9.33 7.14l3.78 5.4h-.12l-3.78-5.4h.12z"/><path fill="#de332e" d="M9.45 7.14l3.78 5.4h-.12l-3.78-5.4h.12z"/><path fill="#df332f" d="M9.57 7.14l3.78 5.4h-.12l-3.78-5.4h.12z"/><path fill="#e13430" d="M9.69 7.14l3.79 5.4h-.13l-3.78-5.4h.12z"/><path fill="#e23431" d="M9.81 7.14l3.79 5.4h-.12l-3.79-5.4h.12z"/><path fill="#e33531" d="M9.93 7.14l3.79 5.4h-.12l-3.79-5.4h.12z"/><path fill="#e43532" d="M10.05 7.14l3.79 5.4h-.12l-3.79-5.4h.12z"/><path fill="#e53533" d="M10.17 7.14l3.79 5.4h-.12l-3.79-5.4h.12z"/><path fill="#e63634" d="M10.29 7.14l3.79 5.4h-.12l-3.79-5.4h.12z"/><path fill="#e73634" d="M10.42 7.14l3.78 5.4h-.12l-3.79-5.4h.13z"/><path fill="#e83735" d="M10.54 7.14l3.78 5.4h-.12l-3.78-5.4h.12z"/><path fill="#e93736" d="M10.66 7.14l3.78 5.4h-.12l-3.78-5.4h.12z"/><path fill="#ea3837" d="M10.78 7.14l3.78 5.4h-.12l-3.78-5.4h.12z"/><path fill="#eb3837" d="M10.9 7.14l3.78 5.4h-.12l-3.78-5.4h.12z"/><path fill="#ec3938" d="M11.02 7.14l3.78 5.4h-.12l-3.78-5.4h.12z"/><path fill="#ed3939" d="M11.14 7.14l3.78 5.4h-.12l-3.78-5.4h.12z"/><path fill="#ee3939" d="M11.26 7.14l3.78 5.4h-.12l-3.78-5.4h.12z"/><path fill="#ef3a3a" d="M11.38 7.14l3.78 5.4h-.12l-3.78-5.4h.12z"/><path fill="#f03a3b" d="M11.5 7.14l3.66 5.23v.17l-3.78-5.4h.12z"/><path fill="#f13b3c" d="M11.62 7.14l3.54 5.06v.17L11.5 7.14h.12z"/><path fill="#f23b3c" d="M11.74 7.14l3.42 4.89v.17l-3.54-5.06h.12z"/><path fill="#f33c3d" d="M11.86 7.14l3.3 4.72v.17l-3.42-4.89h.12z"/><path fill="#f43c3e" d="M11.98 7.14l3.18 4.54v.18l-3.3-4.72h.12z"/><path fill="#f53d3f" d="M12.1 7.14l3.06 4.37v.17l-3.18-4.54h.12z"/><path fill="#f63d3f" d="M12.22 7.14l2.94 4.2v.17L12.1 7.14h.12z"/><path fill="#f73d40" d="M12.34 7.14l2.82 4.03v.17l-2.94-4.2h.12z"/><path fill="#f83e41" d="M12.46 7.14l2.7 3.86v.17l-2.82-4.03h.12z"/><path fill="#f93e42" d="M12.58 7.14l2.58 3.68V11l-2.7-3.86h.12z"/><path fill="#fa3f42" d="M12.7 7.14l2.46 3.51v.17l-2.58-3.68h.12z"/><path fill="#fb3f43" d="M12.82 7.14l2.34 3.34v.17L12.7 7.14h.12z"/><path fill="#fc4044" d="M12.94 7.14l2.22 3.17v.17l-2.34-3.34h.12z"/><path fill="#fd4045" d="M13.06 7.14l2.1 3v.17l-2.22-3.17h.12z"/><path fill="#fe4145" d="M13.18 7.14l1.98 2.83v.17l-2.1-3h.12z"/><path fill="#ff4146" d="M13.3 7.14l1.86 2.65v.18l-1.98-2.83h.12zM15.16 9.79L13.3 7.14h1.86v2.65z"/></g></svg>