<svg xmlns="http://www.w3.org/2000/svg" width="38" height="24" aria-labelledby="pi-budbee"><title id="pi-budbee">Budbee</title><path d="M35 0H3C1.3 0 0 1.3 0 3v18c0 1.7 1.4 3 3 3h32c1.7 0 3-1.3 3-3V3c0-1.7-1.4-3-3-3z" fill="#010101" isolation="isolate" opacity=".07"/><path d="M35 1c1.1 0 2 .9 2 2v18c0 1.1-.9 2-2 2H3c-1.1 0-2-.9-2-2V3c0-1.1.9-2 2-2h32" fill="#fff"/><g fill="#59ba9d" fill-rule="evenodd"><path d="M5.58 10.72c1.41 0 2.58 1.07 2.58 2.63s-1.17 2.63-2.58 2.63c-.55 0-1.09-.23-1.41-.55l-.05-.05-.05-.08v.57H3V8h1.07v3.39l.05-.08.05-.05c.34-.34.89-.55 1.41-.55m-.05 4.27c1.02 0 1.56-.73 1.56-1.67s-.55-1.67-1.56-1.67c-.91 0-1.56.76-1.56 1.67s.65 1.67 1.56 1.67M12.07 13.87l.03-3.07h1.07v5.03H12.1v-.57l-.05.08-.05.08c-.23.34-.76.55-1.2.55-1.3 0-2.06-.86-2.06-2.03v-3.1h1.07v3.1c0 .68.34 1.07 1.07 1.07.63 0 1.17-.5 1.2-1.12zM29.66 13.28v.39h-3.78c0 .73.55 1.38 1.46 1.38.65 0 1.09-.34 1.25-.76l.91.42c-.44.73-1.2 1.28-2.21 1.28-1.33 0-2.48-1.07-2.48-2.63s1.07-2.63 2.48-2.63c1.3 0 2.37 1.02 2.37 2.55zm-3.73-.63h2.61c-.05-.57-.6-.99-1.25-.99-.76 0-1.2.44-1.36.99zm9.07.63v.39h-3.78c0 .73.55 1.38 1.46 1.38.65 0 1.09-.34 1.25-.76l.91.42c-.44.73-1.2 1.28-2.21 1.28-1.33 0-2.48-1.07-2.48-2.63s1.07-2.63 2.48-2.63c1.3 0 2.37 1.02 2.37 2.55zm-3.73-.63h2.61c-.05-.57-.6-.99-1.25-.99-.76 0-1.2.44-1.36.99zM21.88 10.72c1.41 0 2.58 1.07 2.58 2.63s-1.17 2.63-2.58 2.63c-.55 0-1.09-.23-1.41-.55l-.05-.05-.05-.08v.57H19.3V8h1.07v3.39l.05-.08.05-.05c.34-.34.89-.55 1.41-.55m-.05 4.27c1.04 0 1.56-.73 1.56-1.67s-.55-1.67-1.56-1.67c-.91 0-1.56.76-1.56 1.67s.65 1.67 1.56 1.67M13.56 13.35c0-1.56 1.2-2.63 2.61-2.66.52 0 1.09.23 1.41.55l.03.08.05.08V8.01h1.07v7.87h-1.07v-.57l-.05.08-.05.05c-.34.34-.86.55-1.41.55-1.38 0-2.58-1.07-2.58-2.63m1.09 0c0 .91.55 1.64 1.56 1.67.91 0 1.56-.76 1.56-1.67s-.65-1.67-1.56-1.67c-1.02 0-1.56.76-1.56 1.67"/></g></svg>