<svg xmlns="http://www.w3.org/2000/svg" width="38" height="24" aria-labelledby="pi-canadapost_symbol"><title id="pi-canadapost_symbol">Canada Post</title><path d="M35 0H3C1.3 0 0 1.3 0 3v18c0 1.7 1.4 3 3 3h32c1.7 0 3-1.3 3-3V3c0-1.7-1.4-3-3-3z" style="isolation:isolate" fill="#010101" opacity=".07"/><path d="M35 1c1.1 0 2 .9 2 2v18c0 1.1-.9 2-2 2H3c-1.1 0-2-.9-2-2V3c0-1.1.9-2 2-2h32" fill="#fff"/><path id="path2446" d="M27.25 12c0 4.56-3.69 8.25-8.25 8.25s-8.25-3.69-8.25-8.25S14.44 3.75 19 3.75s8.25 3.69 8.25 8.25z" fill="#e4042c" stroke-width="0"/><path id="path2448" d="M16.39 13.07l.58-.58 6.54-.29.29-.29h-6.44l-3.51-4.1 11.71 3.9-3.9 3.9h-7.8l.78-.78 6.53-.29.29-.29h-6.24l.59-.59 6.53-.29.29-.29h-6.24z" fill="#fff" stroke-width="0"/></svg>