<svg xmlns="http://www.w3.org/2000/svg" width="38" height="24" aria-labelledby="pi-canadapost"><title id="pi-canadapost">Canada Post</title><path d="M35 0H3C1.3 0 0 1.3 0 3v18c0 1.7 1.4 3 3 3h32c1.7 0 3-1.3 3-3V3c0-1.7-1.4-3-3-3z" style="isolation:isolate" fill="#010101" opacity=".07"/><path d="M35 1c1.1 0 2 .9 2 2v18c0 1.1-.9 2-2 2H3c-1.1 0-2-.9-2-2V3c0-1.1.9-2 2-2h32" fill="#1c468f"/><path id="path2442" d="M15.31 12.01v-.12H1v.21h14.31v-.09z" fill="#fff" stroke-width="0"/><path id="path2444" d="M22.68 11.9v.21H37v-.21H22.68z" fill="#fff" stroke-width="0"/><path id="path2446" d="M25.96 12c0 3.84-3.11 6.96-6.96 6.96s-6.96-3.11-6.96-6.96S15.15 5.04 19 5.04s6.96 3.11 6.96 6.96z" fill="#e4042c" stroke-width="0"/><path id="path2448" d="M16.8 12.91l.49-.49 5.51-.25.25-.25h-5.43l-2.96-3.46 9.87 3.29-3.29 3.29h-6.58l.66-.66 5.51-.25.24-.25h-5.26l.49-.49 5.51-.25.25-.25H16.8z" fill="#fff" stroke-width="0"/><path id="path2496" d="M25.78 3.79c-.1.02-.21.04-.32.04-.46 0-.77-.23-.77-.7s.29-.75.77-.75c.09 0 .22.02.32.06l-.02.24a.572.572 0 00-.3-.07c-.29 0-.47.22-.47.51s.18.5.48.5c.11 0 .24-.02.31-.06v.24z" fill="#fff" stroke-width="0"/><path id="path2498" d="M26.9 2.41h.32l.55 1.41h-.31l-.12-.32h-.57l-.12.32h-.29l.55-1.41zm.15.28l-.2.58h.41l-.2-.58z" fill="#fff" stroke-width="0"/><path id="path2500" d="M28.44 2.41h.35l.54 1.05V2.41h.27v1.41h-.34l-.54-1.05v1.05h-.27V2.41z" fill="#fff" stroke-width="0"/><path id="path2502" d="M30.81 2.41h.32l.55 1.41h-.31l-.12-.32h-.57l-.12.32h-.29l.55-1.41zm.16.28l-.2.58h.41l-.2-.58z" fill="#fff" stroke-width="0"/><path id="path2504" d="M32.37 2.41h.38c.43 0 .81.14.81.7s-.38.7-.81.7h-.38V2.4zm.28 1.18h.16c.24 0 .46-.18.46-.48s-.23-.48-.46-.48h-.16v.96z" fill="#fff" stroke-width="0"/><path id="path2506" d="M34.73 2.41h.32l.55 1.41h-.31l-.12-.32h-.57l-.12.32h-.29l.55-1.41zm.16.28l-.2.58h.41l-.2-.58z" fill="#fff" stroke-width="0"/><path id="path2508" d="M29.14 20.19h.36c.31 0 .59.09.59.43s-.24.45-.54.45h-.12v.53h-.28v-1.41zm.28.66h.1c.14 0 .27-.05.27-.21s-.12-.22-.27-.22h-.1v.43z" fill="#fff" stroke-width="0"/><path id="path2510" d="M31.41 20.17c.44 0 .69.3.69.72s-.24.73-.69.73-.69-.3-.69-.73.24-.72.69-.72zm0 1.23c.29 0 .39-.26.39-.51s-.11-.5-.39-.5-.39.25-.39.5.11.51.39.51z" fill="#fff" stroke-width="0"/><path id="path2512" d="M33.61 20.45c-.09-.04-.19-.06-.29-.06s-.22.04-.22.2c0 .24.62.14.62.61 0 .31-.24.43-.53.43-.15 0-.22-.02-.36-.05l.03-.25c.1.05.21.09.32.09s.25-.05.25-.18c0-.27-.62-.16-.62-.62 0-.31.24-.43.49-.43.12 0 .23.02.34.05l-.03.23z" fill="#fff" stroke-width="0"/><path id="path2514" d="M34.81 20.42h-.47v-.22h1.27v.22h-.47v1.19h-.33v-1.19z" fill="#fff" stroke-width="0"/><path id="path2516" d="M2.4 2.4h.36c.31 0 .59.09.59.43s-.24.45-.54.45h-.12v.53h-.28V2.4zm.28.65h.1c.14 0 .27-.05.27-.21s-.12-.22-.27-.22h-.1v.43z" fill="#fff" stroke-width="0"/><path id="path2518" d="M4.67 2.37c.44 0 .69.3.69.72s-.24.73-.69.73-.69-.3-.69-.73.24-.72.69-.72zm0 1.24c.29 0 .39-.26.39-.51s-.11-.5-.39-.5-.39.25-.39.5.11.51.39.51z" fill="#fff" stroke-width="0"/><path id="path2520" d="M6.87 2.66c-.09-.04-.19-.06-.29-.06s-.22.04-.22.2c0 .24.62.14.62.61 0 .31-.24.43-.53.43-.15 0-.22-.02-.36-.05l.03-.25c.1.05.21.09.32.09s.25-.05.25-.18c0-.27-.62-.16-.62-.62 0-.31.24-.43.49-.43.12 0 .23.02.34.05l-.03.23z" fill="#fff" stroke-width="0"/><path id="path2522" d="M8 2.62h-.4V2.4h1.09v.22h-.4V3.8h-.28V2.62z" fill="#fff" stroke-width="0"/><path id="path2524" d="M9.37 2.4h.83v.22h-.55v.35h.5v.22h-.5v.39h.55v.22h-.83V2.39z" fill="#fff" stroke-width="0"/><path id="path2526" d="M11.75 2.66c-.09-.04-.19-.06-.29-.06s-.22.04-.22.2c0 .24.62.14.62.61 0 .31-.24.43-.53.43-.15 0-.22-.02-.36-.05l.03-.25c.1.05.21.09.32.09s.25-.05.25-.18c0-.27-.62-.16-.62-.62 0-.31.24-.43.49-.43.12 0 .23.02.34.05l-.03.23z" fill="#fff" stroke-width="0"/><path id="path2528" d="M3.49 21.58c-.1.02-.21.04-.32.04-.46 0-.77-.23-.77-.7s.29-.75.77-.75c.09 0 .22.02.32.06l-.02.24a.572.572 0 00-.3-.07c-.29 0-.47.22-.47.51s.18.5.48.5c.11 0 .24-.02.31-.06v.24z" fill="#fff" stroke-width="0"/><path id="path2530" d="M4.6 20.19h.32l.55 1.41h-.31l-.12-.32h-.57l-.12.32h-.29l.55-1.41zm.16.29l-.2.58h.41l-.2-.58z" fill="#fff" stroke-width="0"/><path id="path2532" d="M6.15 20.19h.35l.54 1.05v-1.05h.27v1.41h-.34l-.54-1.05v1.05h-.27v-1.41z" fill="#fff" stroke-width="0"/><path id="path2534" d="M8.52 20.19h.32l.55 1.41h-.31l-.12-.32h-.57l-.12.32h-.29l.55-1.41zm.16.29l-.2.58h.41l-.2-.58z" fill="#fff" stroke-width="0"/><path id="path2536" d="M10.08 20.19h.39c.43 0 .81.15.81.7s-.38.7-.81.7h-.39v-1.41zm.28 1.19h.16c.24 0 .46-.18.46-.48s-.23-.48-.46-.48h-.16v.96z" fill="#fff" stroke-width="0"/><path id="path2538" d="M12.44 20.19h.32l.55 1.41H13l-.12-.32h-.57l-.12.32h-.29l.55-1.41zm.16.29l-.2.58h.41l-.2-.58z" fill="#fff" stroke-width="0"/></svg>