<svg xmlns="http://www.w3.org/2000/svg" role="img" viewBox="0 0 38 24" width="38" height="24" aria-labelledby="pi-canadapost"><title id="pi-canadapost">CanadaPost</title><style type="text/css">.st1{fill:#fff}</style><g id="layer1" transform="translate(332.587 42.224)"><path id="path2440" d="M-294.59-42.22h-38v24h38v-24z" fill="#1c468f"/><path id="path2442" class="st1" d="M-317.28-30.21v-.13h-15.31v.22h15.31v-.09z"/><path id="path2444" class="st1" d="M-309.91-30.34v.23h15.32v-.22h-15.32z"/><path id="path2446" d="M-306.63-30.22c0 3.84-3.11 6.96-6.96 6.96-3.84 0-6.96-3.11-6.96-6.96 0-3.84 3.11-6.96 6.96-6.96s6.96 3.11 6.96 6.96z" fill="#e52332"/><path id="path2448" class="st1" d="M-315.79-29.32l.49-.49 5.51-.25.25-.25h-5.43l-2.96-3.46 9.87 3.29-3.29 3.29h-6.58l.66-.66 5.51-.25.24-.25h-5.26l.49-.49 5.51-.25.25-.25h-5.26z"/><path id="path2496" class="st1" d="M-306.96-39.03c-.11.03-.23.05-.35.05-.49 0-.84-.25-.84-.76 0-.52.32-.82.84-.82.1 0 .23.02.35.06l-.02.26a.596.596 0 00-.33-.08c-.32 0-.51.24-.51.55 0 .31.19.55.52.55.12 0 .26-.03.33-.06l.01.25z"/><path id="path2498" class="st1" d="M-305.74-40.53h.35l.6 1.53h-.34l-.13-.35h-.62l-.13.35h-.32l.59-1.53zm.16.3l-.23.63h.45l-.22-.63z"/><path id="path2500" class="st1" d="M-304.07-40.53h.38l.58 1.14v-1.14h.29V-39h-.37l-.58-1.14V-39h-.29v-1.53z"/><path id="path2502" class="st1" d="M-301.49-40.53h.35l.6 1.53h-.34l-.13-.35h-.62l-.13.35h-.32l.59-1.53zm.17.3l-.23.63h.45l-.22-.63z"/><path id="path2504" class="st1" d="M-299.8-40.53h.42c.47 0 .88.16.88.76 0 .61-.41.76-.88.76h-.42v-1.52zm.31 1.28h.17c.26 0 .5-.19.5-.52a.5.5 0 00-.5-.52h-.17v1.04z"/><path id="path2506" class="st1" d="M-297.23-40.53h.35l.6 1.53h-.34l-.13-.35h-.62l-.13.35h-.32l.59-1.53zm.17.3l-.23.63h.45l-.22-.63z"/><path id="path2508" class="st1" d="M-303.31-21.47h.39c.33 0 .64.1.64.46s-.26.49-.59.49h-.13v.58h-.31v-1.53zm.31.71h.11c.15 0 .29-.05.29-.23s-.13-.24-.29-.24h-.11v.47z"/><path id="path2510" class="st1" d="M-300.84-21.49c.48 0 .75.32.75.79 0 .46-.26.79-.75.79s-.75-.33-.75-.79c0-.48.26-.79.75-.79zm0 1.34c.31 0 .43-.28.43-.55s-.12-.55-.43-.55-.43.28-.43.55.11.55.43.55z"/><path id="path2512" class="st1" d="M-298.45-21.19c-.1-.04-.2-.07-.31-.07-.11 0-.24.05-.24.21 0 .26.67.15.67.67 0 .33-.27.46-.57.46-.17 0-.24-.02-.39-.06l.03-.28c.11.06.23.09.35.09.12 0 .27-.06.27-.2 0-.29-.67-.17-.67-.68 0-.34.27-.47.53-.47.13 0 .25.02.37.05l-.04.28z"/><path id="path2514" class="st1" d="M-297.15-21.23h-.51v-.24h1.38v.24h-.51v1.29h-.36v-1.29z"/><g><path id="path2516" class="st1" d="M-330.86-40.53h.39c.33 0 .64.1.64.46s-.26.49-.59.49h-.13v.58h-.31v-1.53zm.31.7h.11c.15 0 .29-.05.29-.23s-.13-.24-.29-.24h-.11v.47z"/><path id="path2518" class="st1" d="M-328.4-40.56c.48 0 .75.32.75.79 0 .46-.26.79-.75.79s-.75-.33-.75-.79c.01-.47.27-.79.75-.79zm0 1.34c.31 0 .43-.28.43-.55s-.12-.54-.43-.54c-.3 0-.43.28-.43.54.01.27.12.55.43.55z"/><path id="path2520" class="st1" d="M-326-40.25c-.1-.04-.2-.07-.31-.07-.11 0-.24.05-.24.21 0 .26.67.15.67.67 0 .33-.26.46-.57.46-.17 0-.24-.02-.39-.06l.03-.28c.11.06.23.09.35.09.12 0 .27-.06.27-.2 0-.29-.67-.17-.67-.68 0-.34.26-.47.53-.47.13 0 .25.02.37.05l-.04.28z"/><path id="path2522" class="st1" d="M-324.78-40.29h-.44v-.24h1.18v.24h-.44V-39h-.31v-1.29z"/><path id="path2524" class="st1" d="M-323.29-40.53h.9v.24h-.6v.38h.54v.24h-.54v.43h.6v.24h-.91v-1.53z"/><path id="path2526" class="st1" d="M-320.7-40.25c-.1-.04-.2-.07-.31-.07-.1 0-.24.05-.24.21 0 .26.67.15.67.67 0 .33-.26.46-.57.46-.17 0-.24-.02-.39-.06l.03-.28c.11.06.23.09.35.09.12 0 .27-.06.27-.2 0-.29-.67-.17-.67-.68 0-.34.26-.47.53-.47.13 0 .25.02.37.05l-.04.28z"/></g><g><path id="path2528" class="st1" d="M-329.67-19.99c-.11.03-.23.05-.35.05-.49 0-.84-.25-.84-.76 0-.52.32-.82.84-.82.1 0 .23.02.35.06l-.02.26a.596.596 0 00-.33-.08c-.32 0-.51.24-.51.55 0 .31.19.54.52.54.12 0 .26-.03.33-.06l.01.26z"/><path id="path2530" class="st1" d="M-328.46-21.49h.35l.6 1.53h-.34l-.13-.35h-.62l-.13.35h-.32l.59-1.53zm.17.3l-.23.63h.45l-.22-.63z"/><path id="path2532" class="st1" d="M-326.79-21.49h.38l.58 1.14v-1.14h.29v1.53h-.37l-.58-1.14v1.14h-.29v-1.53z"/><path id="path2534" class="st1" d="M-324.21-21.49h.35l.6 1.53h-.34l-.13-.35h-.62l-.13.35h-.32l.59-1.53zm.17.3l-.23.63h.45l-.22-.63z"/><path id="path2536" class="st1" d="M-322.51-21.49h.42c.47 0 .88.16.88.76 0 .61-.41.76-.88.76h-.42v-1.52zm.3 1.28h.17c.26 0 .5-.19.5-.52a.5.5 0 00-.5-.52h-.17v1.04z"/><path id="path2538" class="st1" d="M-319.95-21.49h.35l.6 1.53h-.34l-.13-.35h-.62l-.13.35h-.32l.59-1.53zm.17.3l-.23.63h.45l-.22-.63z"/></g></g></svg>