<svg xmlns="http://www.w3.org/2000/svg" width="38" height="24" aria-labelledby="pi-chronopost_symbol"><title id="pi-chronopost_symbol">Chronopost</title><defs><linearGradient id="Dégradé_sans_nom_25" x1="25.25" y1="6.85" x2="12.28" y2="17.21" gradientUnits="userSpaceOnUse"><stop offset="0" stop-color="#449ed7"/><stop offset="1" stop-color="#1e6bab"/></linearGradient></defs><path d="M35 0H3C1.3 0 0 1.3 0 3v18c0 1.7 1.4 3 3 3h32c1.7 0 3-1.3 3-3V3c0-1.7-1.4-3-3-3z" style="isolation:isolate" fill="#010101" opacity=".07"/><path d="M35 1c1.1 0 2 .9 2 2v18c0 1.1-.9 2-2 2H3c-1.1 0-2-.9-2-2V3c0-1.1.9-2 2-2h32" fill="#fff"/><path d="M12.06 7.18c.62-.34 1.2-.65 1.79-.97 1.57-.86 3.15-1.71 4.72-2.57.31-.17.55-.17.86 0 2.11 1.17 4.23 2.31 6.35 3.46.04.02.08.05.15.09-.47.27-.92.54-1.37.8-1.08.63-2.16 1.26-3.24 1.88-.35.2-.34.8 0 1.04.28.2.51.2.82.02 1.32-.8 2.67-1.56 4-2.34.05-.03.09-.07.15-.06.04.07.02.15.02.23v7.06c0 .32-.11.54-.39.7-.97.56-1.93 1.15-2.91 1.7-.75.42-1.46.89-2.21 1.31-.51.29-1.01.58-1.51.89-.21.13-.39.12-.6 0-1.66-.98-3.32-1.95-4.98-2.93l-1.68-.99c-.22-.13-.34-.31-.34-.56V8.62c0-.02 0-.05.02-.1l1.22.7 5.16 3c.18.1.26.22.25.43v5.27c0 .42.5.71.87.54.33-.15.44-.35.44-.71-.02-1.92-.01-3.85 0-5.77 0-.27-.09-.41-.32-.55-2.38-1.37-4.75-2.75-7.12-4.13-.04-.02-.08-.05-.16-.1z" fill="url(#Dégradé_sans_nom_25)"/></svg>