<svg xmlns="http://www.w3.org/2000/svg" width="38" height="24" aria-labelledby="pi-chronopost"><title id="pi-chronopost">Chronopost</title><defs><linearGradient id="Dégradé_sans_nom_25" x1="22.96" y1="5.25" x2="14.74" y2="11.82" gradientUnits="userSpaceOnUse"><stop offset="0" stop-color="#449ed7"/><stop offset="1" stop-color="#1e6bab"/></linearGradient></defs><path d="M35 0H3C1.3 0 0 1.3 0 3v18c0 1.7 1.4 3 3 3h32c1.7 0 3-1.3 3-3V3c0-1.7-1.4-3-3-3z" style="isolation:isolate" fill="#010101" opacity=".07"/><path d="M35 1c1.1 0 2 .9 2 2v18c0 1.1-.9 2-2 2H3c-1.1 0-2-.9-2-2V3c0-1.1.9-2 2-2h32" fill="#fff"/><path d="M14.6 5.46c.39-.21.76-.42 1.13-.62 1-.54 2-1.08 2.99-1.63.19-.11.35-.11.54 0 1.34.74 2.68 1.47 4.03 2.2.03.01.05.03.09.06-.3.17-.58.34-.87.51-.69.4-1.37.8-2.06 1.19-.22.13-.22.51 0 .66.18.13.32.13.52.01.84-.5 1.69-.99 2.54-1.48.03-.02.06-.04.1-.04.03.05.01.1.01.15v4.48c0 .2-.07.34-.25.44-.62.36-1.22.73-1.84 1.08-.47.27-.93.56-1.4.83-.32.18-.64.37-.96.56-.13.08-.24.07-.38 0-1.05-.62-2.1-1.24-3.16-1.86-.36-.21-.71-.42-1.07-.63a.38.38 0 01-.21-.36V6.37c0-.01 0-.03.01-.07.26.15.52.3.77.45 1.09.63 2.18 1.27 3.27 1.9.11.07.16.14.16.27v3.34c0 .26.32.45.55.34.21-.09.28-.22.28-.45-.01-1.22 0-2.44 0-3.66 0-.17-.06-.26-.2-.35-1.51-.87-3.01-1.74-4.51-2.62-.03-.02-.05-.03-.1-.06z" fill="url(#Dégradé_sans_nom_25)"/><path d="M22.69 18.65v-2.09c0-.08.02-.13.1-.15.65-.22 1.31-.32 1.99-.14.69.18 1.12.72 1.15 1.44.02.41-.04.81-.26 1.17-.28.45-.71.65-1.22.72-.12.02-.37 0-.37 0s-.03-.48-.02-.72c.09-.02.21-.06.32-.09.48-.13.68-.53.64-1.01-.04-.5-.36-.79-.88-.8-.15 0-.3.02-.44.04-.1.02-.13.06-.13.16v3.55c0 .12-.03.15-.15.14h-.64c-.1 0-.12-.03-.12-.12v-2.1zM6.14 17.16v-2.27c0-.11.03-.13.13-.13h.65c.09 0 .11.03.11.12v1.34c0 .08.01.11.1.08.33-.11.67-.14 1.02-.08.56.09.91.46.95 1.03.03.37 0 .74.01 1.11v1.09c0 .09-.03.11-.11.11h-.68c-.1 0-.12-.03-.12-.12v-1.86c0-.39-.17-.57-.56-.58-.17 0-.35.02-.52.06-.09.02-.11.06-.11.15v2.23c0 .11-.03.13-.14.13h-.65c-.09 0-.11-.03-.11-.11v-2.28zM29.76 17.9c0 1.01-.72 1.72-1.72 1.72s-1.72-.72-1.72-1.71c0-1.01.72-1.72 1.73-1.72 1 0 1.72.71 1.72 1.71zm-.89-.02c0-.06-.01-.14-.03-.22-.07-.4-.35-.66-.74-.7a.78.78 0 00-.81.53c-.09.26-.09.53 0 .8.11.35.39.55.75.56.36 0 .64-.19.77-.54.05-.13.06-.27.07-.43zM22.31 17.9c0 1-.72 1.72-1.73 1.72-1 0-1.72-.72-1.72-1.72s.71-1.71 1.72-1.72c1.01 0 1.73.71 1.73 1.72zm-2.55.02c0 .1.01.21.04.32.1.38.4.61.78.61s.68-.23.78-.61c.05-.19.06-.39.02-.58-.06-.31-.22-.55-.53-.66-.3-.1-.57-.05-.81.16-.22.2-.28.47-.28.76zM15.11 17.9c0 1.01-.72 1.72-1.73 1.72-1 0-1.72-.72-1.72-1.73 0-1 .72-1.71 1.73-1.7 1 0 1.72.72 1.72 1.72zm-1.74.95c.36 0 .65-.19.77-.53.08-.21.09-.43.05-.65-.07-.41-.35-.67-.75-.71-.37-.03-.7.2-.82.58-.08.26-.08.52.01.77.11.33.39.53.74.54zM15.52 18.01V16.6c0-.09.02-.13.11-.16.6-.19 1.21-.3 1.84-.22.64.08 1.02.48 1.03 1.13.01.7 0 1.41 0 2.11 0 .07-.02.09-.09.09h-.7c-.08 0-.11-.02-.1-.11v-1.78-.1c0-.39-.2-.58-.59-.57-.17 0-.35.03-.52.07-.08.02-.1.05-.1.13v2.24c0 .1-.02.13-.12.13h-.64c-.1 0-.14-.02-.13-.13v-1.41zM32.91 16.85v-1.69c0-.09.02-.12.11-.12h.68c.09 0 .12.02.11.11v.99c0 .1.03.12.12.12h.93c.08 0 .11.02.11.11v.52c0 .09-.02.12-.11.11h-.94c-.09 0-.1.03-.1.11v1.18c0 .36.19.54.54.55.19 0 .38-.01.57-.07.07-.02.1 0 .1.07v.65c0 .06-.01.08-.07.09-.41.06-.81.09-1.22-.02-.47-.12-.75-.46-.79-.96-.04-.48 0-.97-.02-1.45v-.31zM32.26 17.19c-.31-.2-.62-.33-.97-.32-.08 0-.15.01-.22.04-.09.04-.15.11-.16.21 0 .11.04.19.13.24.11.06.24.09.36.12.19.04.38.09.56.18.37.18.51.48.51.88 0 .39-.15.7-.51.88-.41.2-.85.19-1.28.11-.18-.03-.34-.09-.5-.17-.04-.02-.08-.04-.08-.1v-.76c.27.19.55.31.86.35.14.02.27.02.4-.01.12-.03.22-.1.23-.24.01-.13-.05-.22-.19-.28-.14-.06-.29-.08-.44-.12-.09-.02-.19-.05-.28-.08-.44-.16-.64-.44-.64-.9 0-.47.21-.81.63-.96.52-.19 1.03-.15 1.52.09.05.02.08.05.08.11v.72zM5.7 18.54v.79c0 .04-.02.06-.05.08-.68.38-2.12.34-2.54-.83-.26-.74-.06-1.58.5-2.02.52-.42 1.39-.49 1.97-.17.04.02.09.04.09.11v.76c-.06 0-.09-.05-.13-.07-.33-.21-.69-.26-1.06-.15-.27.08-.46.27-.53.54-.21.77.28 1.35 1.08 1.26.25-.03.46-.13.68-.28zM9.62 18.33c.01-.32-.03-.72.02-1.11.07-.58.39-.91.96-1 .35-.06.69-.04 1.04.01.06 0 .08.03.08.09v.66c0 .07-.02.08-.09.06a1.68 1.68 0 00-.67-.05c-.26.03-.41.18-.43.43-.03.27 0 .55-.01.83v1.18c0 .08-.02.11-.1.11h-.69c-.09 0-.11-.03-.11-.12v-1.1z" fill="#444244"/></svg>