<svg xmlns="http://www.w3.org/2000/svg" width="38" height="24" aria-labelledby="pi-colissimo"><title id="pi-colissimo">Colissimo</title><defs><linearGradient id="Dégradé_sans_nom_26" x1="14.48" y1="14.78" x2="23.38" y2="20.3" gradientTransform="matrix(1 0 0 -1 0 26)" gradientUnits="userSpaceOnUse"><stop offset="0" stop-color="#ec670d"/><stop offset=".17" stop-color="#ed6d0b"/><stop offset=".39" stop-color="#ef7b0f"/><stop offset=".64" stop-color="#f3920b"/><stop offset=".9" stop-color="#f9af0d"/><stop offset="1" stop-color="#fbba13"/></linearGradient></defs><path d="M35 0H3C1.3 0 0 1.3 0 3v18c0 1.7 1.4 3 3 3h32c1.7 0 3-1.3 3-3V3c0-1.7-1.4-3-3-3z" style="isolation:isolate" fill="#010101" opacity=".07"/><path d="M35 1c1.1 0 2 .9 2 2v18c0 1.1-.9 2-2 2H3c-1.1 0-2-.9-2-2V3c0-1.1.9-2 2-2h32" fill="#fff"/><path d="M20.8 7.94s-.11.02-.15 0l-.25-.15s-.04-.03-.05-.06c-.02-.03-.03-.05-.03-.08v-.29s.02-.11.07-.13l3.01-1.75-4.22-2.3s-.11-.04-.17-.04-.12.01-.17.04l-4.22 2.3 4.73 2.75s.08.08.08.13v4.02c0 .05-.04.11-.08.13l-.25.14s-.05.02-.08.02-.06 0-.08-.02l-.26-.14s-.08-.08-.08-.13V8.8s-.02-.06-.04-.07L14.39 6.3v4.75c0 .11.08.24.17.29l4.29 2.53s.11.04.17.04c.06 0 .12-.01.17-.04l4.29-2.53c.09-.05.17-.18.17-.29V6.3l-2.83 1.65z" fill="url(#Dégradé_sans_nom_26)"/><path d="M8.94 16.43c-.28-.17-.56-.24-.94-.24-1 0-1.73.69-1.73 1.72s.68 1.71 1.74 1.71c.34 0 .66-.07.96-.24v-.83c-.25.19-.52.29-.83.29-.6 0-.97-.38-.97-.94 0-.59.39-.93.94-.93.3 0 .57.08.84.3v-.84zM14.35 18.8c-.32-.03-.49-.21-.49-.55v-3.48h-.88v3.53c0 .96.54 1.28 1.38 1.28v-.79zM10.92 16.19c-.98 0-1.72.69-1.72 1.72s.74 1.72 1.72 1.72 1.72-.69 1.72-1.72-.74-1.72-1.72-1.72zm0 2.67c-.48 0-.83-.36-.83-.95s.35-.95.83-.95.83.36.83.95-.35.95-.83.95zM16.2 19.32c.27.17.67.27 1.07.27.77 0 1.3-.32 1.3-1.04 0-.59-.29-.91-1.14-1.07-.31-.07-.43-.16-.43-.33 0-.15.13-.28.42-.28.34 0 .63.11.94.32v-.79c-.29-.16-.58-.24-.97-.24-.71 0-1.25.33-1.25 1.05 0 .6.31.89 1.05 1.03.36.07.5.15.5.35s-.18.29-.46.29c-.32 0-.74-.14-1.05-.37v.82zM14.76 19.55h.89v-3.3h-.89v3.3zM15.21 14.94c-.24 0-.44.2-.44.44s.2.44.44.44.44-.2.44-.44-.2-.44-.44-.44M30 16.19c-.98 0-1.72.69-1.72 1.72s.74 1.72 1.72 1.72 1.72-.69 1.72-1.72-.74-1.72-1.72-1.72zm0 2.67c-.48 0-.83-.36-.83-.95s.35-.95.83-.95.83.36.83.95-.35.95-.83.95zM18.87 19.32c.27.17.67.27 1.07.27.77 0 1.3-.32 1.3-1.04 0-.59-.29-.91-1.13-1.07-.31-.07-.43-.16-.43-.33 0-.15.13-.28.42-.28.34 0 .63.11.94.32v-.79c-.29-.16-.58-.24-.97-.24-.71 0-1.25.33-1.25 1.05 0 .6.31.89 1.05 1.03.36.07.5.15.5.35s-.18.29-.46.29c-.32 0-.74-.14-1.05-.37v.82zM21.62 19.55h.89v-3.3h-.89v3.3zM22.06 14.94c-.24 0-.44.2-.44.44s.2.44.44.44.44-.2.44-.44-.2-.44-.44-.44M27.03 17.49c0-.35-.15-.52-.5-.52-.24 0-.47.05-.62.13.03.07.07.18.07.34v2.11h-.89V17.5c0-.35-.16-.52-.5-.52-.21 0-.38.03-.55.08v2.5h-.88v-3.07c.46-.18.99-.29 1.48-.29.38 0 .71.1.91.26.29-.13.63-.26 1.11-.26.78 0 1.27.3 1.27 1.27v2.09h-.89V17.5z" fill="#444244"/></svg>