<svg xmlns="http://www.w3.org/2000/svg" width="38" height="24" aria-labelledby="pi-colissimo_symbol"><title id="pi-colissimo_symbol">Colissimo</title><defs><linearGradient id="Dégradé_sans_nom_26" x1="11.87" y1="9.73" x2="25.91" y2="18.44" gradientTransform="matrix(1 0 0 -1 0 26)" gradientUnits="userSpaceOnUse"><stop offset="0" stop-color="#ec670d"/><stop offset=".17" stop-color="#ed6d0b"/><stop offset=".39" stop-color="#ef7b0f"/><stop offset=".64" stop-color="#f3920b"/><stop offset=".9" stop-color="#f9af0d"/><stop offset="1" stop-color="#fbba13"/></linearGradient></defs><path d="M35 0H3C1.3 0 0 1.3 0 3v18c0 1.7 1.4 3 3 3h32c1.7 0 3-1.3 3-3V3c0-1.7-1.4-3-3-3z" style="isolation:isolate" fill="#010101" opacity=".07"/><path d="M35 1c1.1 0 2 .9 2 2v18c0 1.1-.9 2-2 2H3c-1.1 0-2-.9-2-2V3c0-1.1.9-2 2-2h32" fill="#fff"/><path d="M21.84 11.09c-.07.04-.18.04-.24 0l-.4-.23s-.06-.05-.08-.09a.192.192 0 01-.04-.12v-.46c-.01-.08.04-.17.11-.21l4.74-2.76-6.66-3.63c-.07-.04-.17-.06-.27-.06s-.19.02-.27.06l-6.66 3.63 7.46 4.34c.07.04.12.13.12.21v6.34c0 .08-.06.17-.13.21l-.4.22s-.08.03-.12.03-.09 0-.13-.03l-.4-.22a.257.257 0 01-.12-.21v-5.65s-.03-.09-.07-.11l-6.57-3.83v7.49c0 .17.12.38.26.46l6.77 3.99c.07.04.17.06.26.06s.19-.02.26-.06l6.77-3.99c.14-.09.26-.29.26-.46V8.52l-4.46 2.6z" fill="url(#Dégradé_sans_nom_26)"/></svg>