<svg xmlns="http://www.w3.org/2000/svg" width="38" height="24" aria-labelledby="pi-correos"><title id="pi-correos">Correos</title><path d="M35 0H3C1.3 0 0 1.3 0 3v18c0 1.7 1.4 3 3 3h32c1.7 0 3-1.3 3-3V3c0-1.7-1.4-3-3-3z" style="isolation:isolate" fill="#010101" opacity=".07"/><path d="M35 1c1.1 0 2 .9 2 2v18c0 1.1-.9 2-2 2H3c-1.1 0-2-.9-2-2V3c0-1.1.9-2 2-2h32" fill="#ffd401"/><path id="path891" d="M10.49 18.69c-.6.36-1.32.64-1.89.66-.62.03-1.3-.08-1.49-.7-.28-.91.28-2.07 1.01-2.46 1.01-.54 1.85-.25 2.14.05l.21-1.09c-.43-.19-1.01-.27-1.23-.27-1.52 0-2.26.74-2.72 1.36-.51.69-1.2 2.44.08 3.65.38.36 1.08.58 1.73.54 1.04-.07 1.68-.37 2.28-.81.03.07.07.13.1.18.27.38.75.57 1.45.57 1.16 0 1.93-.46 2.17-1.77l.07-.44s.02-.09.02-.14c.02-.13.03-.28.03-.41 0-.99-.61-1.43-1.68-1.43-1.15 0-1.9.45-2.16 1.77.63-.41 1.25-.84 2.06-.84.45 0 .58.18.58.51 0 .11 0 .22-.04.4v.04l-.08.43c-.14.7-.33.95-.88.95-.41 0-.57-.14-.57-.5 0-.12.02-.36.04-.45l.13-.6s-.75.42-1.35.78" fill="#0a457e" stroke-width="0"/><path id="path895" d="M17.69 16.22c-.43 0-.95.07-1.4.43l.06-.33h-1.12l-.7 3.96h1.22l.51-2.87c.33-.1.82-.18 1.26-.18l.18-1.02z" fill="#0a457e" stroke-width="0"/><path id="path899" d="M20.52 16.22c-.43 0-.94.07-1.4.43l.06-.33h-1.12l-.7 3.96h1.22l.51-2.87c.33-.1.82-.18 1.26-.18l.17-1.02z" fill="#0a457e" stroke-width="0"/><path id="path903" d="M30.74 17.03c.3 0 .78.03 1.27.08l.12-.73c-.3-.08-.82-.16-1.42-.16-.93 0-1.82.2-1.82 1.24 0 .58.33.92.93 1.16l.3.12c.43.18.52.24.52.43 0 .34-.32.41-.7.41-.59 0-.82-.05-1.34-.07l-.12.73c.21.06.84.15 1.4.15 1.13 0 1.99-.34 1.99-1.37 0-.55-.28-.86-.97-1.13l-.33-.13c-.33-.14-.46-.2-.46-.37 0-.34.35-.35.64-.35" fill="#0a457e" stroke-width="0"/><path id="path907" d="M27.16 18.09l-.09.43c-.14.7-.33.95-.87.95-.41 0-.58-.14-.58-.5 0-.14 0-.28.04-.45l.09-.43c.13-.7.33-.95.86-.95.45 0 .58.18.58.51 0 .12 0 .24-.04.44m-.42-1.87c-1.16 0-1.9.45-2.16 1.76l-.08.38c-.05.24-.05.42-.05.61 0 .95.57 1.42 1.67 1.42 1.17 0 1.93-.46 2.17-1.77l.07-.44c.02-.15.06-.38.06-.55 0-.99-.61-1.42-1.68-1.42" fill="#0a457e" stroke-width="0"/><path id="path911" d="M22.96 17.97h-1.43l.02-.06c.07-.43.25-.84.85-.84.47 0 .6.23.6.53 0 .09-.02.22-.04.36m-.45-1.74c-1.16 0-1.98.48-2.21 1.87l-.03.21c-.04.24-.07.47-.07.66 0 1 .61 1.43 1.75 1.43.71 0 1.29-.1 1.61-.17l.13-.8c-.75.05-1.09.07-1.51.07-.64 0-.82-.16-.82-.48 0-.09.02-.2.05-.38h2.61c.08-.41.12-.68.12-.96 0-.86-.47-1.45-1.64-1.45" fill="#0a457e" stroke-width="0"/><path fill="#0a457e" d="M21.07 7.95h-4.14v-.69h4.14v.69zM20.72 4.68c-.25 0-.49.07-.69.19-.2-.12-.44-.19-.69-.19-.12 0-.24.02-.35.05a1.27 1.27 0 00-.34-.05c-.25 0-.48.07-.69.19-.2-.12-.44-.19-.69-.19-.76 0-1.38.62-1.38 1.38v.69h.69v-.69c0-.38.31-.69.69-.69.06 0 .12.01.18.02-.11.2-.18.42-.18.66v.69h.69v-.69c0-.38.31-.69.69-.69v1.38h.69V5.36c.38 0 .69.31.69.69v.69h.67v-.69c0-.24-.07-.46-.18-.66.06-.02.12-.02.18-.02.38 0 .69.31.69.69v.69h.69v-.7c0-.76-.62-1.38-1.38-1.38zM19.15 3.88v-.32h-.3v.32h-.32v.3h.32v.33h.3v-.33h.33v-.3h-.33zM22.45 8.47c0 .82-.28 1.56-.76 2.15A2.748 2.748 0 0019 8.47c-.82 0-1.56.36-2.07.94v-.94h-3.45c0 3.05 2.47 5.52 5.51 5.52s5.51-2.47 5.51-5.51h-2.07zm-8.22.69h2.01v2.07c0 .54.16 1.04.42 1.47a4.847 4.847 0 01-2.44-3.54zM19 13.29c-1.14 0-2.07-.93-2.07-2.07s.93-2.07 2.07-2.07 2.07.93 2.07 2.06c-.23.18-.49.32-.76.44.04-.14.08-.28.08-.43 0-.78-.62-1.38-1.38-1.38s-1.38.61-1.38 1.38.61 1.38 1.38 1.38a4.14 4.14 0 004.08-3.44h.7a4.82 4.82 0 01-4.78 4.13zm.69-2.07c0 .38-.31.69-.69.69s-.69-.31-.69-.69.31-.69.69-.69.69.31.69.69z"/></svg>