<svg xmlns="http://www.w3.org/2000/svg" width="38" height="24" aria-labelledby="pi-correos_symbol"><title id="pi-correos_symbol">Correos</title><path d="M35 0H3C1.3 0 0 1.3 0 3v18c0 1.7 1.4 3 3 3h32c1.7 0 3-1.3 3-3V3c0-1.7-1.4-3-3-3z" style="isolation:isolate" fill="#010101" opacity=".07"/><path d="M35 1c1.1 0 2 .9 2 2v18c0 1.1-.9 2-2 2H3c-1.1 0-2-.9-2-2V3c0-1.1.9-2 2-2h32" fill="#ffd401"/><path fill="#0a457e" d="M22.19 10.74h-6.37V9.68h6.37v1.06zM21.65 5.69c-.39 0-.75.11-1.07.29a2.103 2.103 0 00-1.6-.22c-.17-.04-.34-.07-.52-.07-.39 0-.74.11-1.06.29a2.123 2.123 0 00-3.19 1.84v1.07h1.07V7.82c0-.59.47-1.07 1.07-1.07.09 0 .19.02.27.04-.17.31-.27.65-.27 1.02v1.07h1.07V7.82c0-.59.47-1.07 1.07-1.07v2.13h1.07V6.75c.59 0 1.07.47 1.07 1.07v1.07h1.04V7.82c0-.37-.11-.72-.27-1.02.09-.02.18-.04.27-.04.59 0 1.07.47 1.07 1.07V8.9h1.07V7.83c0-1.18-.95-2.13-2.13-2.13zM19.23 4.46v-.5h-.46v.5h-.5v.47h.5v.5h.46v-.5h.51v-.47h-.51zM24.32 11.53c0 1.26-.44 2.41-1.17 3.32a4.246 4.246 0 00-4.14-3.32c-1.27 0-2.41.56-3.19 1.45v-1.45H10.5c0 4.7 3.81 8.51 8.5 8.51s8.5-3.81 8.5-8.5h-3.18zM11.65 12.6h3.1v3.19c0 .83.24 1.6.65 2.26a7.472 7.472 0 01-3.76-5.45zM19 18.97a3.184 3.184 0 110-6.37c1.76 0 3.18 1.43 3.18 3.18-.36.27-.75.5-1.18.67.07-.21.12-.43.12-.67 0-1.2-.95-2.13-2.13-2.13s-2.12.95-2.12 2.13.95 2.13 2.12 2.13c3.16 0 5.78-2.3 6.29-5.31h1.08a7.449 7.449 0 01-7.37 6.38zm1.07-3.19c0 .59-.47 1.06-1.06 1.06s-1.06-.47-1.06-1.06.47-1.06 1.06-1.06 1.06.47 1.06 1.06z"/></svg>