<svg xmlns="http://www.w3.org/2000/svg" width="38" height="24" aria-labelledby="pi-dao"><title id="pi-dao">DAO Distribution</title><path d="M35 0H3C1.3 0 0 1.3 0 3v18c0 1.7 1.4 3 3 3h32c1.7 0 3-1.3 3-3V3c0-1.7-1.4-3-3-3z" fill="#010101" isolation="isolate" opacity=".07"/><path d="M35 1c1.1 0 2 .9 2 2v18c0 1.1-.9 2-2 2H3c-1.1 0-2-.9-2-2V3c0-1.1.9-2 2-2h32" fill="#fff"/><g fill="#e30613"><path d="M9.78 10.14V7.7c0-.76-.11-1.62.09-2.36.16-.57.57-1.14 1.17-1.29.62-.08 1.55-.04 2.26-.04V15.91c0 1.24-.4 2.42-1.33 3.23-.88.77-2.1.79-3.21.8-1.15.01-2.56.12-3.58-.51-.95-.57-1.44-1.62-1.62-2.68-.2-1.15-.2-2.46.02-3.61.24-1.23.96-2.46 2.23-2.83 1.27-.27 2.66-.19 3.96-.19zm0 4.87c0-.52.06-1.15-.17-1.63-.22-.48-.75-.49-1.22-.49-.44 0-.96 0-1.21.42-.24.42-.21 1.01-.21 1.48 0 .57-.06 1.21.13 1.76.2.56.7.61 1.23.61.48 0 1.02 0 1.26-.48.24-.5.18-1.13.18-1.67zM23.9 19.95c-.72 0-1.68.16-2.36-.09-.76-.28-.88-.91-1.17-1.56-.25.98-.89 1.6-1.93 1.65-1.01.04-2.14-.06-2.96-.7-1.62-1.27-1.64-3.9-1.37-5.76.14-.97.5-1.94 1.27-2.6.85-.73 1.97-.72 3.03-.74 1.94-.04 4.54-.33 5.33 1.95.2.57.14 1.17.14 1.76v6.08zM17.57 15c0 .54-.06 1.19.18 1.68.23.49.81.49 1.29.48.52 0 1.01-.05 1.2-.6.18-.51.15-1.12.14-1.66 0-.49.04-1.11-.2-1.56-.23-.44-.73-.45-1.18-.46-.47 0-1 0-1.25.46-.25.48-.19 1.12-.19 1.64zM29.63 19.95c-1.09 0-2.38.06-3.32-.59-.84-.58-1.28-1.52-1.47-2.5-.36-1.86-.36-4.59 1.19-5.95.85-.75 1.99-.77 3.07-.8 1.07-.03 2.35-.11 3.37.31 2.09.86 2.2 3.62 2.07 5.53-.08 1.18-.4 2.41-1.33 3.21-.98.85-2.37.76-3.58.79zm-1.39-4.94c-.01.53-.05 1.16.17 1.66.22.5.79.5 1.27.5.52 0 1.02-.04 1.22-.58.19-.5.15-1.09.15-1.62 0-.52.06-1.19-.21-1.66-.24-.4-.73-.41-1.15-.41-.47 0-1.01 0-1.25.46-.26.48-.19 1.13-.19 1.66z"/></g></svg>