<svg xmlns="http://www.w3.org/2000/svg" width="38" height="24" aria-labelledby="pi-dhl"><title id="pi-dhl">DHL</title><path d="M35 0H3C1.3 0 0 1.3 0 3v18c0 1.7 1.4 3 3 3h32c1.7 0 3-1.3 3-3V3c0-1.7-1.4-3-3-3z" style="isolation:isolate" fill="#010101" opacity=".07"/><path d="M35 1c1.1 0 2 .9 2 2v18c0 1.1-.9 2-2 2H3c-1.1 0-2-.9-2-2V3c0-1.1.9-2 2-2h32" fill="#ffcc07"/><path d="M7.33 9.45l-1.15 1.56h6.27c.32 0 .31.12.16.33-.16.21-.42.58-.58.8-.08.11-.23.31.26.31h2.56s.41-.56.76-1.03c.47-.64.04-1.97-1.64-1.97H7.34z" fill="#d21130"/><path d="M5.72 14.55l2.31-3.14h2.87c.32 0 .31.12.16.33-.16.21-.42.58-.59.8-.08.11-.23.31.26.31h3.84c-.32.44-1.36 1.7-3.22 1.7H5.72zM18.95 12.84l-1.25 1.7h-3.3l1.25-1.7h3.3zM24.01 12.46h-8.08l2.21-3.01h3.3l-1.27 1.73h1.48l1.26-1.73h3.31l-2.21 3.01zM23.72 12.84l-1.25 1.7h-3.3l1.25-1.7h3.3zM1 13.51h4.87l-.27.37H1v-.37zM1 12.84h5.36l-.26.36H1v-.36zM1 14.19h4.37l-.26.36H1v-.36zM37 13.88h-4.85l.27-.37H37v.37zM37 14.55h-5.34l.26-.36H37v.36zM32.91 12.84H37v.36h-4.36l.27-.36zM30.79 9.45l-2.21 3h-3.5l2.21-3h3.5zM24.8 12.84s-.24.33-.36.49c-.42.56-.05 1.21 1.31 1.21h5.31l1.25-1.7H24.8z" fill="#d21130"/></svg>