<svg xmlns="http://www.w3.org/2000/svg" role="img" viewBox="0 0 38 24" width="38" height="24" aria-labelledby="pi-dpd"><title id="pi-dpd">Dpd</title><style type="text/css">.st8{fill:#444244}</style><path fill="#fff" d="M0 0h38v24H0z"/><linearGradient id="SVGID_1_" gradientUnits="userSpaceOnUse" x1="14.481" y1="67.434" x2="23.383" y2="72.96" gradientTransform="matrix(1 0 0 -1 0 78.658)"><stop offset="0" stop-color="#aa1e3c"/><stop offset=".046" stop-color="#ae1e38"/><stop offset=".198" stop-color="#ba1d2e"/><stop offset=".361" stop-color="#c41c24"/><stop offset=".537" stop-color="#cb1a1e"/><stop offset=".735" stop-color="#d01919"/><stop offset="1" stop-color="#d11917"/></linearGradient><path d="M20.8 7.94c-.04.03-.11.02-.15 0l-.25-.16a.102.102 0 01-.05-.06c-.02-.03-.03-.05-.03-.08l-.01-.29c0-.05.03-.11.07-.13l3.01-1.75-4.22-2.3c-.05-.03-.11-.05-.17-.05s-.12.01-.17.04l-4.22 2.3 4.73 2.75c.04.02.08.08.08.13v4.02c0 .05-.04.11-.08.13l-.25.14c-.02.01-.05.02-.08.02H19c-.03 0-.06-.01-.08-.02l-.26-.14a.165.165 0 01-.08-.13V8.79c0-.03-.02-.06-.04-.07l-4.17-2.43v4.75c0 .11.08.24.17.29l4.29 2.53c.05.03.11.04.17.04.06 0 .12-.01.17-.04l4.29-2.53c.09-.05.17-.18.17-.29V6.29L20.8 7.94z" fill="url(#SVGID_1_)"/><path class="st8" d="M23.37 16.28v-1.51h.88v4.69c-.07.02-.14.03-.2.05-.43.08-.86.12-1.29.1-.29-.01-.57-.07-.83-.19a1.47 1.47 0 01-.86-1.1c-.07-.34-.06-.67.04-1 .18-.57.57-.93 1.15-1.08.32-.08.64-.08.96-.01.04.01.09.03.15.05zm0 1.66v-.81c0-.07.02-.07-.07-.1-.24-.08-.48-.1-.73-.05-.33.07-.54.27-.62.6-.06.22-.05.43.02.65.07.23.21.4.42.51.09.05.19.08.3.1.18.03.35.02.53.01.04 0 .08-.01.12-.02.02 0 .03-.01.03-.03v-.04-.82zM16.1 16.28v-1.51h.87c.01.04.02 4.58 0 4.69-.05.01-.1.03-.15.04-.22.05-.45.08-.68.1-.22.02-.44.03-.66.02-.31-.01-.61-.07-.89-.21-.41-.2-.67-.53-.78-.96-.1-.37-.1-.74.02-1.11.18-.57.56-.93 1.14-1.08.32-.08.64-.08.96-.01.06-.01.11.01.17.03zm0 1.66v-.82c0-.06 0-.06-.05-.08-.01 0-.02-.01-.02-.01-.23-.08-.47-.1-.72-.05-.3.06-.51.24-.61.54-.07.21-.07.42-.02.63.07.3.25.51.54.63.2.08.41.08.61.07l.23-.03c.02 0 .03-.01.03-.04v-.04c.01-.26.01-.53.01-.8zM18.38 20.87h-.89v-4.41c.01-.01.03-.01.05-.02.26-.1.52-.16.79-.21.17-.03.34-.04.5-.05.33-.01.65.03.96.16.51.22.81.59.91 1.13.06.35.04.7-.07 1.04-.16.52-.51.85-1.03 1.01-.23.07-.47.1-.71.1h-.03s-.01 0-.01-.01v-.76c.03 0 .06-.01.08-.01.12-.01.24-.03.35-.08.25-.1.41-.28.49-.53.06-.2.07-.41.03-.61-.07-.32-.27-.52-.58-.61-.13-.04-.27-.05-.41-.04-.12.01-.25.02-.37.06-.02.01-.04.01-.07.02.01 1.28.01 2.55.01 3.82z"/></svg>