<svg xmlns="http://www.w3.org/2000/svg" width="38" height="24" aria-labelledby="pi-dpd"><title id="pi-dpd">DPD</title><defs><linearGradient id="Dégradé_sans_nom_86" x1="4.49" y1="10.5" x2="15.98" y2="17.63" gradientTransform="matrix(1 0 0 -1 0 26)" gradientUnits="userSpaceOnUse"><stop offset="0" stop-color="#aa1e3c"/><stop offset=".11" stop-color="#b41c32"/><stop offset=".36" stop-color="#c41a22"/><stop offset=".63" stop-color="#ce1919"/><stop offset="1" stop-color="#d11917"/></linearGradient></defs><path d="M35 0H3C1.3 0 0 1.3 0 3v18c0 1.7 1.4 3 3 3h32c1.7 0 3-1.3 3-3V3c0-1.7-1.4-3-3-3z" style="isolation:isolate" fill="#010101" opacity=".07"/><path d="M35 1c1.1 0 2 .9 2 2v18c0 1.1-.9 2-2 2H3c-1.1 0-2-.9-2-2V3c0-1.1.9-2 2-2h32" fill="#fff"/><path d="M12.65 11.25c-.06.03-.14.03-.2 0l-.32-.19s-.05-.04-.07-.07a.193.193 0 01-.03-.1v-.38c0-.06.03-.14.09-.17L16 8.08l-5.45-2.97a.51.51 0 00-.44 0L4.66 8.08l6.1 3.55c.06.03.1.11.1.17v5.18c0 .07-.05.14-.1.17l-.33.18s-.06.02-.1.02-.08 0-.11-.02l-.33-.18a.206.206 0 01-.1-.17v-4.62s-.03-.08-.05-.09L4.36 9.14v6.13c0 .14.1.31.22.38l5.54 3.27a.51.51 0 00.44 0l5.54-3.27c.12-.07.22-.24.22-.38V9.14l-3.65 2.12z" fill="url(#Dégradé_sans_nom_86)"/><path d="M32.44 9.89V7.82h1.2v6.42l-.28.06c-.58.11-1.17.16-1.77.14-.39-.01-.78-.09-1.14-.26-.65-.3-1.04-.81-1.18-1.5-.09-.46-.08-.92.06-1.37.24-.78.77-1.27 1.57-1.48.43-.11.87-.11 1.31-.02.07.02.14.04.22.07zm0 2.28v-1.1c0-.1.02-.09-.09-.13-.32-.11-.66-.14-.99-.07-.45.1-.74.37-.85.82-.08.3-.07.59.02.88.09.31.29.55.58.7.13.07.26.11.4.13.24.04.48.03.73 0 .06 0 .11-.02.17-.02.03 0 .04-.02.04-.05v-.06-1.11zM22.5 9.89V7.82h1.19c.01.05.02 6.26 0 6.42-.06.02-.13.03-.2.05-.31.06-.62.11-.93.13-.3.03-.6.04-.9.02-.43-.02-.84-.1-1.22-.29-.55-.28-.92-.72-1.07-1.32-.13-.51-.13-1.02.02-1.52.24-.79.77-1.28 1.57-1.48.43-.11.87-.11 1.31-.02.07.02.14.04.23.07zm0 2.28v-1.13q0-.08-.07-.11s-.02 0-.03-.01c-.32-.11-.65-.13-.98-.06-.41.09-.7.33-.83.74-.09.28-.09.57-.03.86.09.41.34.7.74.86.27.1.56.12.84.1.11 0 .21-.02.32-.04.03 0 .05-.02.04-.05V12.17zM25.61 16.17H24.4v-6.04l.06-.03c.35-.14.71-.22 1.08-.28.23-.04.46-.06.69-.06.45-.01.89.04 1.31.22.69.29 1.11.81 1.25 1.55.09.48.06.95-.09 1.42-.22.71-.7 1.16-1.41 1.38-.31.1-.64.13-.97.13h-.03-.02v-1.04h.11c.16 0 .32-.04.48-.1.34-.14.56-.38.67-.72.08-.28.1-.56.04-.84-.1-.44-.37-.71-.8-.83-.18-.05-.37-.06-.56-.05-.17.01-.34.03-.5.08-.03 0-.06.02-.09.03v5.21z" fill="#444244"/></svg>