<svg xmlns="http://www.w3.org/2000/svg" width="38" height="24" aria-labelledby="pi-evri"><title id="pi-evri">Evri</title><path d="M35 0H3C1.3 0 0 1.3 0 3v18c0 1.7 1.4 3 3 3h32c1.7 0 3-1.3 3-3V3c0-1.7-1.4-3-3-3z" style="isolation:isolate" fill="#010101" opacity=".07"/><path d="M35 1c1.1 0 2 .9 2 2v18c0 1.1-.9 2-2 2H3c-1.1 0-2-.9-2-2V3c0-1.1.9-2 2-2h32" fill="#fff"/><path d="M31.81 7.82a1.016 1.016 0 11-.052 2.032 1.016 1.016 0 01.052-2.032zm-20.09.06v2.19h-1.41v-.89H6.94v2.19h3.07v1.24H6.94v2.21h3.37v-.89h1.4v2.19H4.64v-1.31h.78V9.16h-.78v-1.3h7.08zm4.95 5.83l2.26-5.83h.86l-3.28 8.3h-.91l-3.3-8.3h2.11l2.25 5.83zm4.92-1.85V8.89H26c.74 0 1.16.12 1.45.39.26.23.4.57.4 1.03s-.13.85-.39 1.12c-.27.28-.67.43-1.43.43h-4.44zm8.24 4.28l-2.92-3.37c1.24-.13 2.18-1.03 2.18-2.48 0-.74-.22-1.3-.64-1.69-.51-.48-1.26-.71-2.45-.71h-5.62v8.25h1.2v-3.27h3.98l2.78 3.27h1.48zm2.88-1.11c0 .48.2.68.65.91v.21h-3.01v-.21c.45-.22.65-.42.65-.91v-3.16c0-.43-.08-.66-.65-1.04v-.21h2.37v4.41z" fill="#107bc0"/></svg>