<svg xmlns="http://www.w3.org/2000/svg" role="img" viewBox="0 0 38 24" width="38" height="24" aria-labelledby="pi-evri"><title id="pi-evri">Evri</title><style type="text/css"></style><path fill="#fff" d="M0 0h38v24H0z"/><path d="M32.44 7.62c.59.01 1.05.5 1.04 1.09a1.065 1.065 0 01-2.13-.03c0-.6.49-1.06 1.09-1.06zm-21.08.06v2.3H9.88v-.94H6.34v2.3h3.22v1.31H6.34v2.32h3.54v-.93h1.47v2.3H3.93v-1.37h.82V9.04h-.82V7.68h7.43zm5.19 6.11l2.37-6.12h.91l-3.44 8.71h-.95l-3.46-8.71h2.22l2.35 6.12zm5.16-1.94V8.73h4.63c.78 0 1.22.13 1.52.41.27.25.42.6.42 1.08 0 .49-.13.89-.41 1.18-.28.3-.71.46-1.5.46l-4.66-.01zm8.65 4.49L27.3 12.8c1.3-.13 2.29-1.08 2.29-2.6 0-.77-.23-1.36-.67-1.78-.54-.51-1.32-.75-2.57-.75h-5.9v8.66h1.26v-3.44h4.18l2.92 3.44h1.55v.01zm3.03-1.16c0 .51.21.71.68.95v.22H30.9v-.22c.47-.23.68-.44.68-.95v-3.32c0-.45-.08-.7-.68-1.09v-.22h2.48l.01 4.63z" fill="#107bc0"/></svg>