<svg xmlns="http://www.w3.org/2000/svg" role="img" viewBox="0 0 38 24" width="38" height="24" aria-labelledby="pi-fedex"><title id="pi-fedex">Fedex</title><style type="text/css">.st1{fill:#fff}.st2{fill:#c7bcaf}.st4{fill-rule:evenodd;clip-rule:evenodd;fill:#254f9e}.st6{fill:#193d6b}.st8{fill:#444244}.st12{fill:#34434f}.st13{fill:none}.st19{fill:#eb5c1d}.st20{fill:#2e276d}</style><path fill="#ce0f4c" d="M-130.36-1.06h38v24h-38z"/><g id="layer1_00000016058516515497884960000011840437279808027565_" transform="translate(-118.697 430.82)"><g id="g407_00000000182892630254610670000002300159625675005867_" transform="matrix(8.24357 0 0 -8.24357 -1244.409 955.761)"><g id="g82_00000018221882978879569850000016670259953534003084_" transform="translate(205.709 145.925)"><path id="path84_00000155141259680972332900000005320443188935704997_" class="st1" d="M-53.71 21.46c-.17.03-.28-.06-.28-.2v-.48l-.26.16v.32c0 .29.2.49.54.45v-.25z"/></g><path id="path86_00000170990349620832951790000005240831799944701598_" class="st2" d="M152.31 167.39h-.25v.25h.25v-.25z"/><g id="g88_00000046298974921464860650000016564216670696041913_" transform="translate(176.258 105.289)"><path id="path90_00000049944809506721803980000013137132378849850005_" class="st1" d="M-25.48 60.42h.12v.31c0 .03.01.06.03.08.02.02.05.03.08.03s.06-.01.06-.01v.12s-.04.01-.07.01c-.14 0-.22-.1-.22-.22v-.32z"/></g><g id="g92_00000019659382629291702590000004306208564390617008_" transform="translate(186.079 106.444)"><path id="path94_00000015340440874244629460000016184742186979466640_" class="st1" d="M-34.89 59.31c-.03.03-.04.07-.04.12v.18c0 .05.01.09.04.12s.07.05.13.05h.19v-.12h-.19c-.02 0-.03 0-.04-.01-.01-.01-.01-.02-.01-.04v-.04h.2v-.11h-.2v-.04c0-.02 0-.04.01-.04.01-.01.02-.01.04-.01h.19v-.12h-.19c-.06.01-.11.03-.13.06"/></g><g id="g96_00000135673527831585109900000000407859377973560485_" transform="translate(197.21 106.426)"><path id="path98_00000137103362719887628430000008661553258032115862_" class="st1" d="M-45.57 59.33c-.03.03-.04.07-.04.12v.36h.12v-.36c0-.02 0-.04.01-.04.01-.01.02-.01.04-.01h.16l-.04-.12h-.12c-.05 0-.1.02-.13.05"/></g><g id="g100_00000031205005827231928270000000186348603031944358_" transform="translate(220.745 105.297)"><path id="path102_00000127025610868348814590000004631065276895583105_" class="st1" d="M-68.13 60.41v.2l-.18.33h.13l.1-.2.1.2h.13l-.18-.33v-.2h-.1z"/></g><g id="g104_00000080198467804403077340000002054758184732654465_" transform="translate(209.99 110.425)"><path id="path106_00000113350112510275712760000012190675848932390561_" class="st1" d="M-57.82 55.5l.06.18.06-.18h-.12zm.16.24c-.03.07-.06.07-.08.07h-.03c-.02 0-.06 0-.08-.07l-.16-.45h.12l.03.1h.19l.03-.1h.12l-.14.45z"/></g><g id="g108_00000166655477965163433130000002592869509933960875_" transform="translate(217.78 122.517)"><path id="path110_00000076577268825807843930000008263842789264076723_" class="st1" d="M-65.28 43.9l.02.07.02-.07h-.04zm.05.09c-.01.03-.02.03-.03.03h-.01c-.01 0-.02 0-.03-.03a2.71 2.71 0 00-.06-.17h.05l.01.04h.07l.01-.04h.05l-.06.17z"/></g><g id="g112_00000065072231771533360690000018399392079663161996_" transform="translate(181.968 120.737)"><path id="path114_00000159454680986699762670000014934202193417304971_" class="st1" d="M-30.95 45.61zm-.04 0v.13c0 .02-.01.03-.03.03-.02 0-.03-.01-.03-.03v-.13h-.04v.13c0 .02-.01.03-.03.03-.02 0-.03-.01-.03-.03v-.13h-.04v.13c0 .04.03.07.07.07.02 0 .04-.01.05-.02.01.01.03.02.05.02.04 0 .07-.03.07-.07v-.12h-.04z"/></g><g id="g116_00000040576047667492074580000016078001796207984781_" transform="translate(187.272 122.999)"><path id="path118_00000049903675101063767560000004133077179278759841_" class="st1" d="M-36.04 43.44c0-.03.02-.06.05-.06.03 0 .05.03.05.06s-.02.06-.05.06c-.03 0-.05-.03-.05-.06m-.04 0c0 .06.04.1.09.1.05 0 .09-.04.09-.1 0-.06-.04-.1-.09-.1-.05 0-.09.05-.09.1"/></g><g id="g120_00000111175719210095336630000017878696911607290778_" transform="translate(197.978 124.939)"><path id="path122_00000038378230444515941140000006028021720307100852_" class="st1" d="M-46.3 41.58c.01-.01.02-.03.02-.05v-.13h-.04v.13c0 .02-.01.03-.03.03-.02 0-.03-.01-.03-.03v-.13h-.04v.13c0 .02.01.04.02.05.01.01.03.02.05.02.02 0 .04 0 .05-.02"/></g><g id="g124_00000078725658421606539490000006880983297436262294_" transform="translate(204.742 124.335)"><path id="path126_00000028300640212829730980000007301948899301675654_" class="st1" d="M-52.79 42.16h-.03v-.11h.03c.04 0 .04.03.04.06.01.02 0 .05-.04.05m0-.15h-.07v.19h.07c.03 0 .05-.01.06-.03.02-.02.02-.04.02-.07 0-.03-.01-.05-.02-.07-.01-.01-.03-.02-.06-.02"/></g><path id="path128_00000057134592625616729580000016305896194725223845_" class="st1" d="M152.21 166.54h.04v-.19h-.04v.19z"/><g id="g130_00000004515366896298760490000016413652656818304438_" transform="translate(225.774 120.644)"><path id="path132_00000000931881459355269740000000114039229560980352_" class="st1" d="M-72.95 45.7c-.02 0-.04.01-.05.02-.01.01-.02.03-.02.05v.13h.04v-.13c0-.02 0-.02.02-.02h.06v-.05h-.05z"/></g><g id="g134_00000084492137544010166130000014406987187520371643_" transform="translate(203.571 158.067)"><path id="path136_00000024001214703888120100000006261008464594304390_" class="st2" d="M-51.66 9.82c0-.08-.07-.15-.15-.15-.08 0-.15.07-.15.15 0 .08.07.15.15.15.08.01.15-.06.15-.15"/></g></g></g><g id="layer1_00000116934061140431816060000017640252691864470956_" transform="translate(40.766 -34.512)"><path id="rect4496_00000064352081565794465880000017894333062974929305_" fill="#efdc00" d="M-129.54 33.45h38v24h-38z"/><g id="g10_00000121253781250393989380000014037348107639833998_" transform="matrix(.28624 0 0 -.28573 -35.053 71.3)"><g id="g12_00000177468398261489384080000003790365480703376516_" transform="scale(.1)"><path id="path16_00000056414082321037811980000008781128170649986185_" class="st4" d="M-2732.41 876.58c-.19-12.74 3.14-23.73 17.06-23.73 10.39 0 16.86 4.91 18.24 14.12h34.52c-1.18-12.75-9.22-21.97-18.63-27.46-8.63-5.49-19.61-7.65-31.18-7.65-39.42 0-55.1 16.87-55.1 55.5 0 31.18 23.33 48.83 52.95 48.83 40.01 0 52.75-22.95 52.75-59.62h-70.61zm35.3 20.01c0 5.3-1.58 10.59-4.51 14.7-2.94 4.12-7.26 6.67-12.94 6.27-12.94-.58-16.08-9.8-17.06-20.98h34.51"/><path id="path18_00000060030693301905777940000000400060633445964715_" class="st4" d="M-3199.73 834.82v141.59h65.11c34.71 0 57.46-11.18 57.46-45.49 0-34.32-22.75-45.5-57.46-45.5h-25.89v-50.59h-39.22zm59.43 78.05c15.49.59 21.97 7.65 21.97 18.05 0 10.39-6.47 17.45-21.97 18.04h-20.2v-36.08h20.2"/><path id="path20_00000045608266648831835590000005366347320964208038_" class="st4" d="M-2961.31 884.04c0-36.27-26.48-52.16-57.27-52.16-30.78 0-57.26 15.89-57.26 52.16 0 36.28 26.48 52.17 57.26 52.17 30.8-.01 57.27-15.89 57.27-52.17zm-57.27-30.59c15.7 0 19.03 16.67 19.03 30.59s-3.33 30.59-19.03 30.59c-15.68 0-19.02-16.67-19.02-30.59s3.34-30.59 19.02-30.59"/><path id="path22_00000109734349863609127890000011480745410273988017_" class="st4" d="M-2896.39 902.87c0 3.33-.59 6.27-2.35 8.23-1.96 2.16-5.1 3.53-10.2 3.53-5.49 0-8.82-3.13-8.82-8.83 0-7.25 15.1-6.86 38.44-14.12 11.77-3.72 19.81-10.98 19.81-27.06 0-26.08-24.52-32.75-47.07-32.75-24.12 0-47.65 4.9-47.46 34.91h35.3c-.59-2.94.4-6.28 2.55-8.82 2.16-2.55 5.29-4.51 8.82-4.51 7.26 0 12.55 2.74 12.55 9.02 0 17.46-58.24 7.06-58.24 42.75 0 24.31 25.89 30.98 45.49 30.98 23.34 0 44.91-6.08 46.48-33.33h-35.3"/><path id="path24_00000165209849851072714320000018355308450009911204_" class="st4" d="M-2834.98 933.27v14.91l37.25 14.12v-29.03h21.58v-23.53h-21.58v-39.02c0-2.55-1.56-15.3 7.07-15.3 4.9 0 10 0 14.31.59v-22.15c-8.43-1.58-14.51-1.97-20.01-1.97-25.29 0-40.59 3.53-38.63 33.73v44.13h-19.22v23.53h19.23"/><path id="path26_00000150070673707294285250000008596900839106459816_" class="st4" d="M-2645.73 934.26h18.69V835.5h-18.69v98.76zm-1.77 43.28h22.23v-20.27h-22.23v20.27"/><path id="path28_00000114760759299016439540000000156814336578862742_" class="st4" d="M-2597.06 934.26v21.05l18.68 5.9v-26.95l22.83.59v-13.97l-22.83.2v-63.75c0-7.07 5.52-10.42 12.2-10.42 2.96 0 6.88.38 9.84 1.17v-14.36c-4.33-.2-8.46-1.19-12.79-1.19-4.52 0-8.06.2-12.59.99-2.94.59-7.86 2.17-11.01 6.49-3.34 4.72-4.32 5.11-4.32 18.29v62.77l-16.92-.2v13.97l16.91-.58"/><path id="path30_00000095325794945928686560000010286884801251051188_" class="st4" d="M-2482.18 896.48c0 17.12-.98 27.16-20.85 27.16-9.44 0-18.29-5.52-18.49-15.75h-19.68c.98 21.64 17.9 29.32 37.37 29.32 20.27 0 40.33-6.1 40.33-33.64v-47.22c0-4.32.2-12.59.79-20.85h-12.59c-1.78 0-5.12-.98-5.31 1.38-.39 4.52-.79 8.85-.99 13.38h-.4c-6.09-12.4-17.11-17.72-30.68-17.72-17.12 0-34.43 8.86-34.43 28.13 0 27.75 24.6 35.81 48 35.81h16.93zm-18.68-12.98c-11.42-.59-26.57-4.72-26.57-19.08 0-12.2 8.46-18.29 19.47-18.29 22.04 0 26.17 19.08 25.77 37.38h-18.67"/><path id="path32_00000007421325813408048360000003639923396103119032_" class="st4" d="M-2444.9 977.54h18.68V835.5h-18.68v142.04"/><path id="path34_00000072260051480160240330000008289062386281041326_" class="st4" d="M-2402.98 934.26h18.7V835.5h-18.7v98.76zm-1.77 43.28h22.23v-20.27h-22.23v20.27"/><path id="path36_00000181087535107199673950000001827276020567800719_" class="st4" d="M-2302.5 896.48c0 17.12-.98 27.16-20.85 27.16-9.44 0-18.29-5.52-18.49-15.75h-19.68c.99 21.64 17.91 29.32 37.38 29.32 20.26 0 40.33-6.1 40.33-33.64v-47.22c0-4.32.19-12.59.79-20.85h-12.59c-1.77 0-5.12-.98-5.31 1.38-.39 4.52-.78 8.85-.98 13.38h-.4c-6.09-12.4-17.11-17.72-30.69-17.72-17.11 0-34.42 8.86-34.42 28.13 0 27.75 24.59 35.81 48 35.81h16.91zm-18.69-12.98c-11.41-.59-26.56-4.72-26.56-19.08 0-12.2 8.46-18.29 19.48-18.29 22.03 0 26.16 19.08 25.77 37.38h-18.69"/><path id="path38_00000083808632289792779960000016122181154904333459_" class="st4" d="M-2246.18 919.69h.39c6.3 12.39 20.07 17.52 29.9 17.52 6.88 0 37.38-1.77 37.38-33.45V835.5h-18.69v62.16c0 16.33-6.88 25.19-22.62 25.19-.01 0-10.24.59-18.11-7.28-2.75-2.75-7.87-7.09-7.87-26.36V835.5h-18.68v98.76h18.29v-14.57"/><path id="path40_00000088841479654250627940000010508807974215132830_" class="st4" d="M-2144.05 881.33c-1.38-17.31 5.71-35.21 24.79-35.21 14.55 0 21.84 5.7 24 20.07h19.67c-2.95-22.43-20.26-33.65-43.87-33.65-31.67 0-44.26 22.43-44.26 51.54 0 28.93 14.55 53.13 45.83 53.13 29.51-.6 43.48-19.28 43.48-46.63v-9.25h-69.64zm49.97 12.99c.4 16.53-7.08 29.32-25.18 29.32-15.54 0-24.79-13.19-24.79-29.32h49.97"/></g></g></g><path fill="#fdcd00" d="M-88.77-27.39h38v24h-38z"/><g id="layer1_00000093856258748047536340000013126458632190656415_"><g transform="translate(-22.745 -140.772)"><path id="path849_00000091006760309363514570000011194915468429874600_" class="st6" d="M-47.68 124.37c0 .36.29.65.65.65s.65-.29.65-.65c0-.36-.29-.65-.65-.65s-.65.29-.65.65m4.52-1.96a3.796 3.796 0 01-2.17 2.92c-.48.22-1.01.34-1.57.34h-.13c-.72 0-1.3-.58-1.3-1.3 0-.72.58-1.3 1.3-1.3.72 0 1.3.58 1.3 1.3 0 .16-.03.31-.08.46.26-.1.51-.23.73-.39v-.07c0-1.08-.87-1.96-1.95-1.96s-1.95.88-1.95 1.96.87 1.96 1.95 1.96a4.55 4.55 0 004.5-3.91l-.63-.01zm-6.47 0h-1.9a4.577 4.577 0 002.3 3.34c-.25-.4-.4-.88-.4-1.39v-1.95zm7.81-.65c0 2.88-2.33 5.21-5.2 5.21s-5.2-2.33-5.2-5.21h3.25v.88a2.597 2.597 0 014.5 1.22c.43-.53.69-1.2.7-1.93v-.17h1.95z"/><path id="path853_00000057839467264371654810000001447576829397078445_" class="st6" d="M-47.02 119.71h-.33v-1.21a.649.649 0 00-.33 1.21h-.84c-.08-.17-.13-.36-.13-.56 0-.23.06-.44.16-.63a.649.649 0 00-.49 1.19h-.84a1.297 1.297 0 011.17-1.86c.24 0 .46.06.65.17.19-.11.41-.17.65-.17.11 0 .22.01.33.04.1-.03.21-.04.32-.04.24 0 .46.06.65.17.19-.11.41-.17.65-.17a1.297 1.297 0 011.17 1.86h-.84a.649.649 0 00-.49-1.19c.1.19.16.4.16.63 0 .2-.05.39-.13.56h-.84a.649.649 0 00-.33-1.21v1.21h-.32z"/><path id="path857_00000125584007942190374750000004017544429720090245_" class="st6" d="M-49.83 120.28a.39.39 0 11.39.39.384.384 0 01-.39-.39"/><path id="path861_00000170959039503179811370000006248939609962081958_" class="st6" d="M-45.01 120.28a.39.39 0 11.39.39.384.384 0 01-.39-.39"/><path id="path865_00000057141968613423140790000009546657122577858746_" class="st6" d="M-46.21 120.28c0-.22.18-.39.39-.39s.39.18.39.39a.39.39 0 01-.78 0"/><path id="path869_00000103237718480607720960000018148134172183335310_" class="st6" d="M-47.42 120.28a.39.39 0 11.39.39.384.384 0 01-.39-.39"/><path id="path873_00000015318280650842030120000013330418688093670289_" class="st6" d="M-48.62 120.28a.39.39 0 11.39.39.378.378 0 01-.39-.39"/><path id="path875_00000022530118156132085490000003385613077440647813_" class="st6" d="M-48.98 120.89h3.9v.65h-3.9v-.65z"/><path id="path887_00000062175864713632521140000016847083525355946903_" class="st6" d="M-47.13 117.14v-.15h-.22v-.22h.22v-.22h.22v.22h.22v.22h-.22v.15c.13.04.22.17.22.31 0 .18-.15.33-.33.33-.18 0-.33-.15-.33-.33 0-.15.09-.27.22-.31"/></g><g transform="translate(-22.745 -140.772)"><path id="path891_00000139999301312534647520000000448747231383152520_" class="st6" d="M-55.53 132.46c-.6.36-1.32.64-1.89.66-.62.03-1.3-.08-1.49-.7-.28-.91.28-2.07 1.01-2.46 1.01-.54 1.85-.25 2.14.05l.21-1.09c-.43-.19-1.01-.27-1.23-.27-1.52 0-2.26.74-2.72 1.36-.51.69-1.2 2.44.08 3.65.38.36 1.08.58 1.73.54 1.04-.07 1.68-.37 2.28-.81.03.07.07.13.1.18.27.38.75.57 1.45.57 1.16 0 1.93-.46 2.17-1.77l.07-.44a.59.59 0 00.02-.14c.02-.13.03-.28.03-.41 0-.99-.61-1.43-1.68-1.43-1.15 0-1.9.45-2.16 1.77.63-.41 1.25-.84 2.06-.84.45 0 .58.18.58.51 0 .11-.01.22-.04.4 0 .01 0 .03-.01.04l-.08.43c-.14.7-.33.95-.88.95-.41 0-.57-.14-.57-.5-.01-.12.02-.36.04-.45l.13-.6s-.75.44-1.35.8"/><path id="path895_00000038404815906448625600000016312698406442933123_" class="st6" d="M-48.33 129.99c-.43 0-.95.07-1.4.43l.06-.33h-1.12l-.7 3.96h1.22l.51-2.87c.33-.1.82-.18 1.26-.18l.17-1.01z"/><path id="path899_00000084506815603257188090000002200523170562853044_" class="st6" d="M-45.51 129.99c-.43 0-.94.07-1.4.43l.06-.33h-1.12l-.7 3.96h1.22l.51-2.87c.33-.1.82-.18 1.26-.18l.17-1.01z"/><path id="path903_00000151534024050035106290000010415733939882981280_" class="st6" d="M-35.29 130.8c.3 0 .78.03 1.27.08l.12-.73c-.3-.08-.82-.16-1.42-.16-.93 0-1.82.2-1.82 1.24 0 .58.33.92.93 1.16l.3.12c.43.18.52.24.52.43 0 .34-.32.41-.7.41-.59 0-.82-.05-1.34-.07l-.12.73c.21.06.84.15 1.4.15 1.13 0 1.99-.34 1.99-1.37 0-.55-.28-.86-.97-1.13l-.33-.13c-.33-.14-.46-.2-.46-.37-.01-.35.34-.36.63-.36"/><path id="path907_00000128461344468524798770000011364175674462663339_" class="st6" d="M-38.86 131.86l-.09.43c-.14.7-.33.95-.87.95-.41 0-.57-.14-.57-.5 0-.14.01-.28.04-.45l.09-.43c.13-.7.33-.95.86-.95.45 0 .57.18.57.51 0 .12 0 .24-.03.44m-.44-1.87c-1.16 0-1.9.45-2.16 1.76l-.08.38c-.05.24-.05.42-.05.61 0 .95.57 1.42 1.67 1.42 1.17 0 1.93-.46 2.17-1.77l.07-.44c.02-.15.06-.38.06-.55 0-.98-.6-1.41-1.68-1.41"/><path id="path911_00000152265561980552304610000000370786408395931553_" class="st6" d="M-43.06 131.74h-1.43l.02-.06c.07-.43.25-.84.85-.84.47 0 .6.23.6.53 0 .1-.02.22-.04.37m-.45-1.75c-1.16 0-1.98.48-2.21 1.87l-.03.21c-.04.24-.07.47-.07.66 0 1 .61 1.43 1.75 1.43.71 0 1.29-.1 1.61-.17l.13-.8c-.75.05-1.09.07-1.51.07-.64 0-.82-.16-.82-.48 0-.09.02-.2.05-.38H-42c.08-.41.12-.68.12-.96.01-.86-.46-1.45-1.63-1.45"/></g></g><path class="st1" d="M0-27.39h38v24H0zM43.94-27.39h38v24h-38zM-45.17-27.39h38v24h-38zM0 0h38v24H0zM-130.36-27.39h38v24h-38z"/><linearGradient id="SVGID_1_" gradientUnits="userSpaceOnUse" x1="-107.397" y1="-22.142" x2="-115.624" y2="-15.571"><stop offset="0" stop-color="#449ed7"/><stop offset="1" stop-color="#1e6bab"/></linearGradient><path d="M-115.76-21.94c.39-.21.76-.42 1.13-.62 1-.54 2-1.08 2.99-1.63.19-.11.35-.11.54 0 1.34.74 2.68 1.47 4.03 2.2.03.01.05.03.09.06-.3.17-.58.34-.87.51-.69.4-1.37.8-2.06 1.19-.22.13-.22.51-.01.66.18.13.32.13.52.01.84-.5 1.69-.99 2.54-1.48.03-.02.06-.04.1-.04.03.05.01.1.01.15v4.48c0 .2-.07.34-.25.44-.62.36-1.22.73-1.84 1.08-.47.27-.93.56-1.4.83-.32.18-.64.37-.96.56-.13.08-.24.07-.38-.01-1.05-.62-2.1-1.24-3.16-1.86-.36-.21-.71-.42-1.07-.63a.38.38 0 01-.21-.36v-4.64c0-.01 0-.03.01-.07.26.15.52.3.77.45 1.09.63 2.18 1.27 3.27 1.9.11.07.16.14.16.27-.01 1.11 0 2.23 0 3.34 0 .26.31.45.55.34.21-.09.28-.22.28-.45-.01-1.22-.01-2.44 0-3.66 0-.17-.06-.26-.2-.35-1.51-.87-3.01-1.74-4.51-2.62.01 0-.02-.01-.07-.05z" fill="url(#SVGID_1_)"/><path class="st8" d="M-107.67-8.74v-2.09c0-.08.02-.13.1-.15.65-.22 1.31-.32 1.99-.14.69.18 1.12.72 1.15 1.44.02.41-.04.81-.26 1.17-.28.45-.71.65-1.22.72-.12.02-.37 0-.37 0s-.03-.48-.02-.72c.09-.02.21-.06.32-.09.48-.13.68-.53.64-1.01-.04-.5-.36-.79-.88-.8-.15 0-.3.02-.44.04-.1.02-.13.06-.13.16 0 1.18 0 2.37.01 3.55 0 .12-.03.15-.15.14a6.83 6.83 0 00-.64 0c-.1 0-.12-.03-.12-.12.02-.7.02-1.4.02-2.1zM-124.22-10.23v-2.27c0-.11.03-.13.13-.13.22.01.43.01.65 0 .09 0 .11.03.11.12v1.34c0 .08.01.11.1.08.33-.11.67-.14 1.02-.08.56.09.91.46.95 1.03.03.37.01.74.01 1.11v1.09c0 .09-.03.11-.11.11a7.71 7.71 0 00-.68 0c-.1 0-.12-.03-.12-.12v-1.86c0-.39-.17-.57-.56-.58-.17 0-.35.02-.52.06-.09.02-.11.06-.11.15v2.23c0 .11-.03.13-.14.13-.22-.01-.43-.01-.65 0-.09 0-.11-.03-.11-.11.03-.78.03-1.54.03-2.3zM-100.6-9.49c0 1.01-.72 1.72-1.72 1.72s-1.72-.72-1.72-1.71c0-1.01.72-1.72 1.73-1.72 1 0 1.71.71 1.71 1.71zm-.9-.02c-.01-.06-.01-.14-.03-.22-.07-.4-.35-.66-.74-.7a.78.78 0 00-.81.53c-.09.26-.09.53-.01.8.11.35.39.55.75.56.36 0 .64-.19.77-.54.05-.13.07-.27.07-.43zM-108.05-9.49c0 1-.72 1.72-1.73 1.72-1 0-1.72-.72-1.72-1.72s.71-1.71 1.72-1.72c1.01.01 1.73.72 1.73 1.72zm-2.55.02c.01.1.01.21.04.32.1.38.4.61.78.61s.68-.23.78-.61c.05-.19.06-.39.02-.58-.06-.31-.22-.55-.53-.66-.3-.1-.57-.05-.81.16-.21.2-.27.47-.28.76zM-115.25-9.49c0 1.01-.72 1.72-1.73 1.72-1 0-1.72-.72-1.72-1.73 0-1 .72-1.71 1.73-1.7 1.01 0 1.72.71 1.72 1.71zm-1.74.95c.36.01.65-.19.77-.53.08-.21.09-.43.05-.65-.07-.41-.35-.67-.75-.71-.37-.03-.7.2-.82.58-.08.26-.08.52.01.77.12.33.39.53.74.54zM-114.84-9.38v-1.41c0-.09.02-.13.11-.16.6-.19 1.21-.3 1.84-.22.64.08 1.02.48 1.03 1.13.01.7 0 1.41.01 2.11 0 .07-.02.09-.09.09-.23 0-.47-.01-.7 0-.08 0-.11-.02-.1-.11v-1.78-.1c0-.38-.2-.58-.59-.57-.17 0-.35.03-.52.07-.08.02-.1.05-.1.13v2.24c0 .1-.02.13-.12.13a6.83 6.83 0 00-.64 0c-.1 0-.14-.02-.13-.13v-1.42zM-97.45-10.54v-1.69c0-.09.02-.12.11-.12.23.01.45.01.68 0 .09 0 .12.02.11.11-.01.33 0 .66 0 .99 0 .1.03.12.12.12.31-.01.62 0 .93 0 .08 0 .11.02.11.11-.01.17-.01.35 0 .52 0 .09-.02.12-.11.11-.31-.01-.63 0-.94 0-.09 0-.1.03-.1.11v1.18c0 .36.19.54.54.55.19 0 .38-.01.57-.07.07-.02.1 0 .1.07v.65c0 .06-.01.08-.07.09-.41.06-.81.09-1.22-.02-.47-.12-.75-.46-.79-.96-.04-.48-.01-.97-.02-1.45-.02-.1-.02-.2-.02-.3zM-98.1-10.2c-.31-.2-.62-.33-.97-.32-.08 0-.15.01-.22.04-.09.04-.15.11-.16.21-.01.11.04.19.13.24.11.06.24.09.36.12.19.04.38.09.56.18.37.18.51.48.51.88 0 .39-.15.7-.51.88-.41.2-.85.19-1.28.11-.18-.03-.34-.09-.5-.17-.04-.02-.08-.04-.08-.1v-.76c.27.19.55.31.86.35.14.02.27.02.4-.01.12-.03.22-.1.23-.24.01-.13-.05-.22-.19-.28-.14-.06-.29-.08-.44-.12-.09-.02-.19-.05-.28-.08-.44-.16-.64-.44-.64-.9 0-.47.21-.81.63-.96.52-.19 1.03-.15 1.52.09.05.02.08.05.08.11-.01.24-.01.47-.01.73zM-124.66-8.85v.79c0 .04-.02.06-.05.08-.68.38-2.12.34-2.54-.83-.26-.74-.06-1.58.5-2.02.52-.42 1.39-.49 1.97-.17.04.02.09.04.09.11v.76c-.06 0-.09-.05-.13-.07-.33-.21-.69-.26-1.06-.15-.27.08-.46.27-.53.54-.21.77.28 1.35 1.08 1.26.23-.04.45-.15.67-.3zM-120.74-9.06c.01-.32-.03-.72.02-1.11.07-.58.39-.91.96-1 .35-.06.69-.04 1.04.01.06.01.08.03.08.09v.66c0 .07-.02.08-.09.06a1.68 1.68 0 00-.67-.05c-.26.03-.41.18-.43.43-.03.27-.01.55-.01.83v1.18c0 .08-.02.11-.1.11-.23-.01-.46-.01-.69 0-.09 0-.11-.03-.11-.12.01-.33 0-.67 0-1.09z"/><linearGradient id="SVGID_00000015315937489208194520000005134370310194426522_" gradientUnits="userSpaceOnUse" x1="-198.71" y1="-43.11" x2="-205.632" y2="-37.582"><stop offset="0" stop-color="#449ed7"/><stop offset="1" stop-color="#1e6bab"/></linearGradient><path d="M-205.75-42.94l.95-.52c.84-.46 1.68-.91 2.52-1.37.16-.09.29-.09.46 0 1.13.62 2.26 1.23 3.39 1.85.02.01.04.03.08.05-.25.15-.49.29-.73.43-.58.34-1.15.67-1.73 1.01-.19.11-.18.43-.01.55.15.11.27.11.44.01.71-.42 1.42-.83 2.13-1.25.02-.01.05-.04.08-.03.02.04.01.08.01.12v3.77c0 .17-.06.29-.21.37-.52.3-1.03.61-1.55.91-.4.22-.78.47-1.18.7-.27.15-.54.31-.8.47-.11.07-.21.06-.32 0-.88-.52-1.77-1.04-2.66-1.56-.3-.18-.6-.35-.9-.53-.12-.07-.18-.16-.18-.3v-3.91c0-.01 0-.02.01-.06.22.13.44.25.65.38.92.53 1.84 1.07 2.75 1.6.1.06.14.12.14.23v2.81c0 .22.26.38.47.29.17-.08.24-.18.23-.38-.01-1.03-.01-2.05 0-3.08 0-.14-.05-.22-.17-.29-1.27-.73-2.53-1.47-3.8-2.2 0-.03-.02-.04-.07-.07z" fill="url(#SVGID_00000015315937489208194520000005134370310194426522_)"/><path class="st8" d="M-176.02-39.05v-2.09c0-.08.02-.13.1-.15.65-.22 1.31-.32 1.99-.14.69.18 1.12.72 1.15 1.44.02.41-.04.81-.26 1.17-.28.45-.71.65-1.22.72-.12.02-.37 0-.37 0s-.03-.48-.02-.72c.09-.02.21-.06.32-.09.48-.13.68-.53.64-1.01-.04-.5-.36-.79-.88-.8-.15 0-.3.02-.44.04-.1.02-.13.06-.13.16 0 1.18 0 2.37.01 3.55 0 .12-.03.15-.15.14a6.83 6.83 0 00-.64 0c-.1 0-.12-.03-.12-.12.02-.7.02-1.4.02-2.1zM-192.57-40.55v-2.27c0-.11.03-.13.13-.13.22.01.43.01.65 0 .09 0 .11.03.11.12v1.34c0 .08.01.11.1.08.33-.11.67-.14 1.02-.08.56.09.91.46.95 1.03.03.37.01.74.01 1.11v1.09c0 .09-.03.11-.11.11a7.71 7.71 0 00-.68 0c-.1 0-.12-.03-.12-.12v-1.86c0-.39-.17-.57-.56-.58-.17 0-.35.02-.52.06-.09.02-.11.06-.11.15v2.23c0 .11-.03.13-.14.13-.22-.01-.43-.01-.65 0-.09 0-.11-.03-.11-.11.03-.78.03-1.54.03-2.3zM-168.95-39.81c0 1.01-.72 1.72-1.72 1.72s-1.72-.72-1.72-1.71c0-1.01.72-1.72 1.73-1.72 1 0 1.71.72 1.71 1.71zm-.89-.02c-.01-.06-.01-.14-.03-.22-.07-.4-.35-.66-.74-.7a.78.78 0 00-.81.53c-.09.26-.09.53-.01.8.11.35.39.55.75.56.36 0 .64-.19.77-.54.04-.13.06-.27.07-.43zM-176.4-39.8c0 1-.72 1.72-1.73 1.72-1 0-1.72-.72-1.72-1.72s.71-1.71 1.72-1.72c1.01 0 1.73.71 1.73 1.72zm-2.55.02c.01.1.01.21.04.32.1.38.4.61.78.61s.68-.23.78-.61c.05-.19.06-.39.02-.58-.06-.31-.22-.55-.53-.66-.3-.1-.57-.05-.81.16-.21.2-.27.46-.28.76zM-183.6-39.8c0 1.01-.72 1.72-1.73 1.72-1 0-1.72-.72-1.72-1.73 0-1 .72-1.71 1.73-1.7 1.01-.01 1.72.71 1.72 1.71zm-1.74.94c.36.01.65-.19.77-.53.08-.21.09-.43.05-.65-.07-.41-.35-.67-.75-.71-.37-.03-.7.2-.82.58-.08.26-.08.52.01.77.12.34.39.53.74.54zM-183.19-39.7v-1.41c0-.09.02-.13.11-.16.6-.19 1.21-.3 1.84-.22.64.08 1.02.48 1.03 1.13.01.7 0 1.41.01 2.11 0 .07-.02.09-.09.09-.23 0-.47-.01-.7 0-.08 0-.11-.02-.1-.11v-1.78-.1c0-.38-.2-.58-.59-.57-.17 0-.35.03-.52.07-.08.02-.1.05-.1.13v2.24c0 .1-.02.13-.12.13a6.83 6.83 0 00-.64 0c-.1 0-.14-.02-.13-.13v-1.42zM-165.8-40.85v-1.69c0-.09.02-.12.11-.12.23.01.45.01.68 0 .09 0 .12.02.11.11-.01.33 0 .66 0 .99 0 .1.03.12.12.12.31-.01.62 0 .93 0 .08 0 .11.02.11.11-.01.17-.01.35 0 .52 0 .09-.02.12-.11.11-.31-.01-.63 0-.94 0-.09 0-.1.03-.1.11v1.18c0 .36.19.54.54.55.19 0 .38-.01.57-.07.07-.02.1 0 .1.07v.65c0 .06-.01.08-.07.09-.41.06-.81.09-1.22-.02-.47-.12-.75-.46-.79-.96-.04-.48-.01-.97-.02-1.45-.02-.1-.02-.2-.02-.3zM-166.45-40.52c-.31-.2-.62-.33-.97-.32-.08 0-.15.01-.22.04-.09.04-.15.11-.16.21-.01.11.04.19.13.24.11.06.24.09.36.12.19.04.38.09.56.18.37.18.51.48.51.88 0 .39-.15.7-.51.88-.41.2-.85.19-1.28.11-.18-.03-.34-.09-.5-.17-.04-.02-.08-.04-.08-.1v-.76c.27.19.55.31.86.35.14.02.27.02.4-.01.12-.03.22-.1.23-.24.01-.13-.05-.22-.19-.28-.14-.06-.29-.08-.44-.12-.09-.02-.19-.05-.28-.08-.44-.16-.64-.44-.64-.9 0-.47.21-.81.63-.96.52-.19 1.03-.15 1.52.09.05.02.08.05.08.11-.01.25-.01.48-.01.73zM-193.01-39.16v.79c0 .04-.02.06-.05.08-.68.38-2.12.34-2.54-.83-.26-.74-.06-1.58.5-2.02.52-.42 1.39-.49 1.97-.17.04.02.09.04.09.11v.76c-.06 0-.09-.05-.13-.07-.33-.21-.69-.26-1.06-.15-.27.08-.46.27-.53.54-.21.77.28 1.35 1.08 1.26.23-.05.45-.15.67-.3zM-189.09-39.37c.01-.32-.03-.72.02-1.11.07-.58.39-.91.96-1 .35-.06.69-.04 1.04.01.06.01.08.03.08.09v.66c0 .07-.02.08-.09.06a1.68 1.68 0 00-.67-.05c-.26.03-.41.18-.43.43-.03.27-.01.55-.01.83v1.18c0 .08-.02.11-.1.11-.23-.01-.46-.01-.69 0-.09 0-.11-.03-.11-.12.01-.33 0-.68 0-1.09z"/><g id="Canvas_00000016765736509532049770000014814593815227038646_"><g id="Group_3_00000095334845687600140590000007771026571175757445_"><g id="logo-chevron_00000101800458923040502370000013252643540262169473_"><path d="M75.56-17.34l1.62 2.81-1.62 2.81h1.98l1.62-2.81-1.62-2.81h-1.98z" fill="#ec691d"/><path d="M75.56-17.34l1.62 2.81h1.98l-1.62-2.81h-1.98z" fill="#f28d47"/></g><g id="logo-text_00000132781083485435018790000014796753384960508039_"><path class="st12" d="M71.82-15.21c.13-.53.67-.96 1.27-.96s1.14.42 1.27.96h-2.54zm4.21.73c0-1.68-1.25-3.09-2.96-3.09-1.37 0-2.44.96-2.84 2.23v-3.34a.509.509 0 00-.5-.53h-1.1v7.48h1.07c.31 0 .54-.31.54-.62v-1.45c.4 1.26 1.5 2.23 2.87 2.23 1.26 0 2.26-.82 2.74-1.89h-1.71c-.27.27-.57.52-1.02.52-.65 0-1.21-.39-1.31-1.06H76c.02-.16.03-.32.03-.48zM64.97-13.17c-.84 0-1.4-.63-1.4-1.44s.61-1.4 1.42-1.4c.81 0 1.41.6 1.41 1.4 0 .83-.6 1.44-1.43 1.44zm-12.3-2.04c.13-.53.67-.96 1.27-.96s1.14.42 1.27.96h-2.54zm13.67-3.47v1.77c-.53-.46-1.02-.67-1.66-.67-1.42 0-2.42.96-2.7 2.23 0-.64-.13-1.31-.65-1.74-.36-.3-.96-.48-1.43-.48-.67 0-1.17.23-1.53.76h-.05a.51.51 0 00-.53-.53h-.93v2.1c-.4-1.33-1.45-2.33-2.9-2.33-1.64 0-2.95 1.38-2.95 3v.18c-.7-.95-2.55-.76-2.55-1.47 0-.25.25-.34.47-.34.29 0 .51.06.52.46h1.64c-.11-1.2-1.03-1.83-2.14-1.83-1.08 0-2.17.69-2.17 1.86 0 .78.67 1.21 1.33 1.45.24.09.48.17.72.25.3.12.75.24.75.64 0 .29-.33.43-.58.43-.33 0-.58-.12-.64-.52H46.7c.13 1.34 1.11 1.89 2.27 1.89 1.09 0 2.18-.62 2.27-1.78.47 1.02 1.5 1.78 2.7 1.78 1.26 0 2.24-.82 2.73-1.89h-1.71c-.27.27-.57.52-1.02.52-.65 0-1.21-.39-1.31-1.06h4.21v2.27h1.6v-3.1c0-.67.2-1.17.98-1.17.75 0 .89.53.89 1.16v2.49c0 .31.22.62.53.62h1.07v-2.11c.27 1.28 1.3 2.27 2.74 2.27.64 0 1.31-.15 1.67-.79v.04c0 .29.29.59.6.59h1v-7.47h-1.08c-.28-.01-.49.21-.5.52z"/></g></g></g><path class="st13" d="M47-19.8h31.88v8.81H47z"/><linearGradient id="SVGID_00000012449625432339888290000003995023625529560232_" gradientUnits="userSpaceOnUse" x1="-30.686" y1="40.042" x2="-21.784" y2="45.568" gradientTransform="matrix(1 0 0 -1 0 23.876)"><stop offset="0" stop-color="#ec670d"/><stop offset=".168" stop-color="#ed6d0b"/><stop offset=".388" stop-color="#ef7b0f"/><stop offset=".636" stop-color="#f3920b"/><stop offset=".903" stop-color="#f9af0d"/><stop offset="1" stop-color="#fbba13"/></linearGradient><path d="M-24.37-19.46c-.04.03-.11.02-.15 0l-.25-.15a.102.102 0 01-.05-.06c-.02-.03-.03-.05-.03-.08l-.01-.29c0-.05.03-.11.07-.13l3.01-1.75-4.22-2.3c-.05-.03-.11-.04-.17-.04s-.12.01-.17.04l-4.22 2.3 4.73 2.75c.04.02.08.08.08.13v4.02c0 .05-.04.11-.08.13l-.25.14c-.02.01-.05.02-.08.02h-.01c-.03 0-.06-.01-.08-.02l-.26-.14a.165.165 0 01-.08-.13v-3.58c0-.03-.02-.06-.04-.07l-4.17-2.43v4.75c0 .11.08.24.17.29l4.29 2.53c.05.03.11.04.17.04.06 0 .12-.01.17-.04l4.29-2.53c.09-.05.17-.18.17-.29v-4.75l-2.83 1.64z" fill="url(#SVGID_00000012449625432339888290000003995023625529560232_)"/><linearGradient id="SVGID_00000142872125933576343870000006393945091328369543_" gradientUnits="userSpaceOnUse" x1="14.481" y1="40.042" x2="23.383" y2="45.568" gradientTransform="matrix(1 0 0 -1 0 23.876)"><stop offset="0" stop-color="#aa1e3c"/><stop offset=".046" stop-color="#ae1e38"/><stop offset=".198" stop-color="#ba1d2e"/><stop offset=".361" stop-color="#c41c24"/><stop offset=".537" stop-color="#cb1a1e"/><stop offset=".735" stop-color="#d01919"/><stop offset="1" stop-color="#d11917"/></linearGradient><path d="M20.8-19.46c-.04.03-.11.02-.15 0l-.25-.15a.102.102 0 01-.05-.06c-.02-.03-.03-.05-.03-.08l-.01-.29c0-.05.03-.11.07-.13l3.01-1.75-4.22-2.3c-.05-.03-.11-.04-.17-.04s-.12.01-.17.04l-4.22 2.3 4.73 2.75c.04.02.08.08.08.13v4.02c0 .05-.04.11-.08.13l-.25.14c-.02.01-.05.02-.08.02H19c-.03 0-.06-.01-.08-.02l-.26-.14a.165.165 0 01-.08-.13v-3.58c0-.03-.02-.06-.04-.07l-4.17-2.43v4.75c0 .11.08.24.17.29l4.29 2.53c.05.03.11.04.17.04.06 0 .12-.01.17-.04l4.29-2.53c.09-.05.17-.18.17-.29v-4.75l-2.83 1.64z" fill="url(#SVGID_00000142872125933576343870000006393945091328369543_)"/><g><path class="st8" d="M-36.23-10.96c-.28-.17-.56-.24-.94-.24-1 0-1.73.69-1.73 1.72s.68 1.71 1.74 1.71c.34 0 .66-.07.96-.24v-.83c-.25.19-.52.29-.83.29-.6 0-.97-.38-.97-.94 0-.59.39-.93.94-.93.3 0 .57.08.84.3l-.01-.84zM-30.81-8.6c-.33-.03-.49-.21-.49-.55v-3.48h-.88v3.53c0 .96.54 1.28 1.38 1.28l-.01-.78zM-34.25-11.2c-.98 0-1.72.69-1.72 1.72s.74 1.72 1.72 1.72 1.72-.69 1.72-1.72-.74-1.72-1.72-1.72zm0 2.67c-.48 0-.83-.36-.83-.95s.35-.95.83-.95.83.36.83.95c-.01.58-.35.95-.83.95zM-28.97-8.07c.26.17.67.27 1.07.27.77 0 1.3-.32 1.3-1.04 0-.59-.29-.91-1.14-1.07-.31-.07-.43-.16-.43-.33 0-.15.13-.28.42-.28.34 0 .63.11.94.32v-.8c-.29-.16-.58-.24-.97-.24-.71 0-1.25.33-1.25 1.05 0 .6.31.89 1.05 1.03.36.07.5.15.5.35 0 .21-.18.29-.46.29-.32 0-.74-.14-1.05-.37l.02.82zM-30.4-7.84h.88v-3.3h-.88zM-29.96-12.45c-.24 0-.44.2-.44.44s.2.44.44.44.44-.2.44-.44-.2-.44-.44-.44M-15.16-11.2c-.98 0-1.72.69-1.72 1.72s.74 1.72 1.72 1.72 1.72-.69 1.72-1.72-.74-1.72-1.72-1.72zm0 2.67c-.48 0-.83-.36-.83-.95s.35-.95.83-.95.83.36.83.95c-.01.58-.35.95-.83.95zM-26.3-8.07c.27.17.67.27 1.07.27.77 0 1.3-.32 1.3-1.04 0-.59-.29-.91-1.14-1.07-.31-.07-.43-.16-.43-.33 0-.15.13-.28.42-.28.34 0 .63.11.94.32v-.8c-.29-.16-.58-.24-.97-.24-.71 0-1.25.33-1.25 1.05 0 .6.31.89 1.05 1.03.36.07.5.15.5.35 0 .21-.18.29-.46.29-.32 0-.74-.14-1.05-.37l.02.82zM-23.55-7.84h.89v-3.3h-.89zM-23.11-12.45c-.24 0-.44.2-.44.44s.2.44.44.44.44-.2.44-.44a.431.431 0 00-.44-.44M-18.13-9.9c0-.35-.15-.52-.5-.52-.24 0-.47.05-.62.13.03.07.07.18.07.34v2.11h-.89V-9.9c0-.35-.16-.52-.5-.52-.21 0-.38.03-.55.08v2.5H-22v-3.07c.46-.18.99-.29 1.48-.29.38 0 .71.1.91.26.29-.13.63-.26 1.11-.26.78 0 1.27.3 1.27 1.27v2.09h-.89l-.01-2.06z"/></g><g><path class="st8" d="M23.37-11.11v-1.51h.88v4.69c-.07.02-.14.03-.2.05-.43.08-.86.12-1.29.1-.29-.01-.57-.07-.83-.19a1.47 1.47 0 01-.86-1.1c-.07-.34-.06-.67.04-1 .18-.57.57-.93 1.15-1.08.32-.08.64-.08.96-.01.04.01.09.03.15.05zm0 1.66v-.81c0-.07.02-.07-.07-.1-.24-.08-.48-.1-.73-.05-.33.07-.54.27-.62.6-.06.22-.05.43.02.65.07.23.21.4.42.51.09.05.19.08.3.1.18.03.35.02.53.01.04 0 .08-.01.12-.02.02 0 .03-.01.03-.03v-.04-.82zM16.1-11.11v-1.51h.87c.01.04.02 4.58 0 4.69-.05.01-.1.03-.15.04-.22.05-.45.08-.68.1-.22.02-.44.03-.66.02-.31-.01-.61-.07-.89-.21-.41-.2-.67-.53-.78-.96-.1-.37-.1-.74.02-1.11.18-.57.56-.93 1.14-1.08.32-.08.64-.08.96-.01.06-.01.11.01.17.03zm0 1.66v-.82c0-.06 0-.06-.05-.08-.01 0-.02-.01-.02-.01-.23-.08-.47-.1-.72-.05-.3.06-.51.24-.61.54-.07.21-.07.42-.02.63.07.3.25.51.54.63.2.08.41.08.61.07l.23-.03c.02 0 .03-.01.03-.04v-.04c.01-.26.01-.53.01-.8zM18.38-6.52h-.89v-4.41c.01-.01.03-.01.05-.02.26-.1.52-.16.79-.21.17-.03.34-.04.5-.05.33-.01.65.03.96.16.51.22.81.59.91 1.13.06.35.04.7-.07 1.04-.16.52-.51.85-1.03 1.01-.23.07-.47.1-.71.1h-.03s-.01 0-.01-.01v-.76c.03 0 .06-.01.08-.01.12-.01.24-.03.35-.08.25-.1.41-.28.49-.53.06-.2.07-.41.03-.61-.07-.32-.27-.52-.58-.61-.13-.04-.27-.05-.41-.04-.12.01-.25.02-.37.06-.02.01-.04.01-.07.02.01 1.28.01 2.55.01 3.82z"/></g><path class="st1" d="M86.42-27.39h38v24h-38z"/><path class="st13" d="M89.48-10.99v-8.81"/><path d="M118.86-19.77c.59.01 1.05.5 1.04 1.09a1.065 1.065 0 01-2.13-.03c0-.6.49-1.06 1.09-1.06zm-21.08.05v2.3h-1.47v-.93h-3.54v2.3h3.22v1.31h-3.22v2.32h3.54v-.93h1.47v2.3h-7.42v-1.37h.82v-5.93h-.82v-1.37h7.42zm5.19 6.12l2.37-6.12h.91l-3.44 8.71h-.95l-3.46-8.71h2.22l2.35 6.12zm5.17-1.94v-3.11h4.63c.78 0 1.22.13 1.52.41.27.25.42.6.42 1.08 0 .49-.13.89-.41 1.18-.28.3-.71.46-1.5.46l-4.66-.02zm8.65 4.49l-3.06-3.54c1.3-.13 2.29-1.08 2.29-2.6 0-.77-.23-1.36-.67-1.78-.54-.51-1.32-.75-2.57-.75h-5.9v8.66h1.26v-3.44h4.18l2.92 3.44h1.55v.01zm3.02-1.17c0 .51.21.71.68.95v.22h-3.16v-.22c.47-.23.68-.44.68-.95v-3.32c0-.45-.08-.7-.68-1.09v-.22h2.48v4.63z" fill="#107bc0"/><path class="st13" d="M-42.11 16.4V7.6"/><g id="layer1_00000144311973165461303450000003517536939460171692_" transform="translate(332.587 42.224)"><path id="path2440_00000152963932189052983440000007115183960531839654_" d="M-339.75-42.22h-38v24h38v-24z" fill="#1c468f"/><path id="path2442_00000161617853027013670610000006627595664832709045_" class="st1" d="M-362.44-30.21v-.13h-15.31v.22h15.31v-.09z"/><path id="path2444_00000153681108501299150170000012228158414375386499_" class="st1" d="M-355.08-30.34v.23h15.32v-.22h-15.32z"/><path id="path2446_00000130623840669562022040000016719447734659762070_" d="M-351.8-30.22c0 3.84-3.11 6.96-6.96 6.96-3.84 0-6.96-3.11-6.96-6.96 0-3.84 3.11-6.96 6.96-6.96s6.96 3.11 6.96 6.96z" fill="#e52332"/><path id="path2448_00000122678253265385174680000006363732532635436166_" class="st1" d="M-360.96-29.32l.49-.49 5.51-.25.25-.25h-5.43l-2.96-3.46 9.87 3.29-3.29 3.29h-6.58l.66-.66 5.51-.25.24-.25h-5.26l.49-.49 5.51-.25.25-.25h-5.26z"/><path id="path2496_00000124142266004888119670000013354640224258484374_" class="st1" d="M-352.12-39.03c-.11.03-.23.05-.35.05-.49 0-.84-.25-.84-.76 0-.52.32-.82.84-.82.1 0 .23.02.35.06l-.02.26a.596.596 0 00-.33-.08c-.32 0-.51.24-.51.55 0 .31.19.55.52.55.12 0 .26-.03.33-.06l.01.25z"/><path id="path2498_00000122712395068997143910000016473450638435837364_" class="st1" d="M-350.91-40.53h.35l.6 1.53h-.34l-.13-.35h-.62l-.13.35h-.32l.59-1.53zm.17.3l-.23.63h.45l-.22-.63z"/><path id="path2500_00000029044642255691106110000013288987086526587324_" class="st1" d="M-349.24-40.53h.38l.58 1.14v-1.14h.29V-39h-.37l-.58-1.14V-39h-.29v-1.53z"/><path id="path2502_00000160182709937906280160000012432409458455287462_" class="st1" d="M-346.66-40.53h.35l.6 1.53h-.34l-.13-.35h-.62l-.13.35h-.32l.59-1.53zm.17.3l-.23.63h.45l-.22-.63z"/><path id="path2504_00000064341003945296288580000018302388678937602696_" class="st1" d="M-344.97-40.53h.42c.47 0 .88.16.88.76 0 .61-.41.76-.88.76h-.42v-1.52zm.31 1.28h.17c.26 0 .5-.19.5-.52a.5.5 0 00-.5-.52h-.17v1.04z"/><path id="path2506_00000176042671029366991800000004253719755588187525_" class="st1" d="M-342.4-40.53h.35l.6 1.53h-.34l-.13-.35h-.62l-.13.35h-.32l.59-1.53zm.17.3l-.23.63h.45l-.22-.63z"/><g><path id="path2508_00000047021949433774272500000002608876192746335627_" class="st1" d="M-348.48-21.47h.39c.33 0 .64.1.64.46s-.26.49-.59.49h-.13v.58h-.31v-1.53zm.31.71h.11c.15 0 .29-.05.29-.23s-.13-.24-.29-.24h-.11v.47z"/><path id="path2510_00000138568965798934338030000006476913282811705263_" class="st1" d="M-346.01-21.49c.48 0 .75.32.75.79 0 .46-.26.79-.75.79s-.75-.33-.75-.79c0-.48.26-.79.75-.79zm0 1.34c.31 0 .43-.28.43-.55s-.12-.55-.43-.55c-.3 0-.43.28-.43.55s.12.55.43.55z"/><path id="path2512_00000181807824138035577210000008785345665328175024_" class="st1" d="M-343.61-21.19c-.1-.04-.2-.07-.31-.07-.11 0-.24.05-.24.21 0 .26.67.15.67.67 0 .33-.27.46-.57.46-.17 0-.24-.02-.39-.06l.03-.28c.11.06.23.09.35.09.12 0 .27-.06.27-.2 0-.29-.67-.17-.67-.68 0-.34.27-.47.53-.47.13 0 .25.02.37.05l-.04.28z"/><path id="path2514_00000023275410815459539430000010476445235922873483_" class="st1" d="M-342.32-21.23h-.51v-.24h1.38v.24h-.51v1.29h-.36v-1.29z"/></g><g><path id="path2516_00000110468052215200942930000001730579384227949223_" class="st1" d="M-376.03-40.53h.39c.33 0 .64.1.64.46s-.26.49-.59.49h-.13v.58h-.31v-1.53zm.31.7h.11c.15 0 .29-.05.29-.23s-.13-.24-.29-.24h-.11v.47z"/><path id="path2518_00000153707511900058343200000016605295591218125982_" class="st1" d="M-373.56-40.56c.48 0 .75.32.75.79 0 .46-.26.79-.75.79s-.75-.33-.75-.79c0-.47.26-.79.75-.79zm0 1.34c.31 0 .43-.28.43-.55s-.12-.54-.43-.54c-.3 0-.43.28-.43.54 0 .27.11.55.43.55z"/><path id="path2520_00000167370435760421211660000015163949256717923460_" class="st1" d="M-371.17-40.25c-.1-.04-.2-.07-.31-.07-.11 0-.24.05-.24.21 0 .26.67.15.67.67 0 .33-.26.46-.57.46-.17 0-.24-.02-.39-.06l.03-.28c.11.06.23.09.35.09.12 0 .27-.06.27-.2 0-.29-.67-.17-.67-.68 0-.34.26-.47.53-.47.13 0 .25.02.37.05l-.04.28z"/><path id="path2522_00000044865632220519801170000010088427112682513852_" class="st1" d="M-369.94-40.29h-.44v-.24h1.18v.24h-.44V-39h-.31v-1.29z"/><path id="path2524_00000072968958095622800910000011668375762538204554_" class="st1" d="M-368.46-40.53h.9v.24h-.6v.38h.54v.24h-.54v.43h.6v.24h-.91v-1.53z"/><path id="path2526_00000119828698156053474580000011974815725112099753_" class="st1" d="M-365.87-40.25c-.1-.04-.2-.07-.31-.07-.1 0-.24.05-.24.21 0 .26.67.15.67.67 0 .33-.26.46-.57.46-.17 0-.24-.02-.39-.06l.03-.28c.11.06.23.09.35.09.12 0 .27-.06.27-.2 0-.29-.67-.17-.67-.68 0-.34.26-.47.53-.47.13 0 .25.02.37.05l-.04.28z"/></g><g><path id="path2528_00000162330467511541573910000014012268321529697934_" class="st1" d="M-374.84-19.99c-.11.03-.23.05-.35.05-.49 0-.84-.25-.84-.76 0-.52.32-.82.84-.82.1 0 .23.02.35.06l-.02.26a.596.596 0 00-.33-.08c-.32 0-.51.24-.51.55 0 .31.19.54.52.54.12 0 .26-.03.33-.06l.01.26z"/><path id="path2530_00000104705976327617586400000012678322862197409200_" class="st1" d="M-373.63-21.49h.35l.6 1.53h-.34l-.13-.35h-.62l-.13.35h-.32l.59-1.53zm.17.3l-.23.63h.45l-.22-.63z"/><path id="path2532_00000069358540594803814780000008052477524467621537_" class="st1" d="M-371.95-21.49h.38l.58 1.14v-1.14h.29v1.53h-.37l-.58-1.14v1.14h-.29v-1.53z"/><path id="path2534_00000032630549845372660430000017351985652212743816_" class="st1" d="M-369.37-21.49h.35l.6 1.53h-.34l-.13-.35h-.62l-.13.35h-.32l.59-1.53zm.17.3l-.23.63h.45l-.22-.63z"/><path id="path2536_00000075135864589057247010000005060052103990652323_" class="st1" d="M-367.68-21.49h.42c.47 0 .88.16.88.76 0 .61-.41.76-.88.76h-.42v-1.52zm.3 1.28h.17c.26 0 .5-.19.5-.52a.5.5 0 00-.5-.52h-.17v1.04z"/><path id="path2538_00000009571721395271280210000017457474274776230811_" class="st1" d="M-365.12-21.49h.35l.6 1.53h-.34l-.13-.35h-.62l-.13.35h-.32l.59-1.53zm.17.3l-.23.63h.45l-.22-.63z"/></g></g><g id="g6" transform="translate(-.81 -.354)"><path id="polygon10" class="st19" d="M28.3 9.93l1.11 1.22 1.07-1.22h2.28l-2.23 2.51 2.26 2.52h-2.37l-1.1-1.23-1.09 1.23h-2.29l2.24-2.51-2.24-2.52z"/><path id="polygon12" class="st19" d="M25.94 9.93v1.7H23.4v1.56h2.54v1.77h-4.41V7.03h4.41V8.8H23.4v1.13z"/><path id="path14" class="st20" d="M19.68 7.03v3.25h-.02c-.41-.47-.92-.64-1.52-.64-1.22 0-2.14.83-2.46 1.93-.37-1.21-1.32-1.95-2.73-1.95-1.14 0-2.05.51-2.52 1.35V9.93H8.07V8.8h2.58V7.03H5.96v7.93h2.11v-3.33h2.1c-.06.24-.1.51-.1.78 0 1.65 1.26 2.82 2.88 2.82 1.36 0 2.25-.64 2.72-1.8h-1.81c-.24.35-.43.45-.92.45-.57 0-1.05-.49-1.05-1.08h3.68c.16 1.31 1.18 2.45 2.59 2.45.61 0 1.16-.3 1.5-.8h.02v.51h1.86V7.03h-1.86zm-7.73 4.62c.12-.5.51-.83 1-.83.54 0 .91.32 1.01.83h-2.01zm6.6 2.11c-.68 0-1.11-.64-1.11-1.3 0-.71.37-1.4 1.11-1.4.77 0 1.07.68 1.07 1.4 0 .67-.32 1.3-1.07 1.3z"/><path id="path16" class="st20" d="M21.53 18.93v-2.84h1.57v.21h-1.31v1.05h1.26v.21h-1.26v1.16h1.37v.21h-1.63z"/><path id="path18" class="st20" d="M23.35 18.93l.77-1.02-.73-.97h.29l.59.79.58-.79h.29l-.74.97.77 1.02h-.3l-.64-.84-.6.84h-.28z"/><path id="path20" class="st20" d="M25.68 19.67h-.24v-2.14c0-.2 0-.4-.01-.59h.24l.01.3c.15-.24.35-.35.64-.35.61 0 .87.51.87 1.04s-.26 1.04-.87 1.04c-.28 0-.49-.11-.63-.33-.01 0-.01 1.03-.01 1.03zm1.25-1.73c0-.42-.18-.84-.65-.84-.44 0-.6.37-.6.84 0 .48.16.84.6.84.48 0 .65-.42.65-.84z"/><path id="path22" class="st20" d="M28.42 17.13c-.4 0-.53.33-.53.68v1.12h-.24v-1.4c0-.19 0-.39-.01-.58h.24l.02.29c.1-.24.3-.34.56-.34.04 0 .07 0 .11.01v.24c-.05-.01-.09-.02-.15-.02z"/><path id="path24" class="st20" d="M28.87 17.98c0 .45.21.82.65.82.34 0 .49-.22.55-.45h.23c-.11.42-.36.63-.81.63-.6 0-.87-.45-.87-1 0-.57.28-1.08.9-1.08.63 0 .8.55.8 1.08h-1.45zm0-.18h1.19c0-.39-.18-.72-.56-.72-.34 0-.58.26-.63.72z"/><path id="path26" class="st20" d="M31.25 18.98c-.41 0-.71-.19-.71-.63h.24c0 .3.2.45.49.45.27 0 .48-.13.48-.4 0-.24-.25-.3-.51-.38-.31-.09-.66-.19-.66-.57 0-.43.36-.55.69-.55.38 0 .67.15.68.56h-.24c-.01-.24-.18-.37-.44-.37-.2 0-.44.08-.44.34 0 .24.24.3.5.37.31.09.66.18.66.57.01.44-.34.61-.74.61z"/><path id="path28" class="st20" d="M32.91 18.98c-.41 0-.71-.19-.71-.63h.24c0 .3.2.45.49.45.27 0 .48-.13.48-.4 0-.24-.25-.3-.51-.38-.31-.09-.66-.19-.66-.57 0-.43.36-.55.69-.55.38 0 .67.15.68.56h-.24c-.01-.24-.18-.37-.44-.37-.2 0-.44.08-.44.34 0 .24.24.3.5.37.31.09.66.18.66.57.01.44-.34.61-.74.61z"/></g></svg>