<svg xmlns="http://www.w3.org/2000/svg" width="38" height="24" aria-labelledby="pi-fedex"><title id="pi-fedex">Fedex</title><path d="M35 0H3C1.3 0 0 1.3 0 3v18c0 1.7 1.4 3 3 3h32c1.7 0 3-1.3 3-3V3c0-1.7-1.4-3-3-3z" style="isolation:isolate" fill="#010101" opacity=".07"/><path d="M35 1c1.1 0 2 .9 2 2v18c0 1.1-.9 2-2 2H3c-1.1 0-2-.9-2-2V3c0-1.1.9-2 2-2h32" fill="#fff"/><g id="g6" stroke-width="0"><path id="polygon10" fill="#ec641c" d="M28.86 10.66l1.23 1.35 1.18-1.35h2.52l-2.46 2.77 2.5 2.79H31.2l-1.21-1.36-1.2 1.36h-2.54l2.48-2.78-2.48-2.78h2.61z"/><path id="polygon12" fill="#ec641c" d="M26.25 10.66v1.88h-2.8v1.72h2.8v1.96h-4.86V7.46h4.86v1.95h-2.8v1.25h2.8z"/><path id="path14" d="M19.33 7.46v3.59h-.02c-.45-.52-1.02-.7-1.68-.7-1.35 0-2.37.92-2.72 2.13-.41-1.34-1.46-2.16-3.01-2.16-1.26 0-2.26.57-2.78 1.49v-1.15H6.51V9.41h2.85V7.46H4.18v8.77h2.33v-3.68h2.32c-.07.27-.11.56-.11.87 0 1.83 1.4 3.11 3.18 3.11 1.5 0 2.49-.7 3.01-1.99h-2c-.27.39-.47.5-1.01.5-.63 0-1.17-.55-1.17-1.19h4.06c.18 1.45 1.31 2.7 2.86 2.7.67 0 1.28-.33 1.66-.89h.02v.57h2.05V7.46h-2.05zm-8.53 5.1c.13-.56.56-.92 1.1-.92.59 0 1 .35 1.11.92H10.8zm7.29 2.33c-.76 0-1.23-.71-1.23-1.44 0-.79.41-1.54 1.23-1.54s1.19.76 1.19 1.54c0 .75-.36 1.44-1.19 1.44z" fill="#4f2583"/></g></svg>