<svg xmlns="http://www.w3.org/2000/svg" width="38" height="24" aria-labelledby="pi-gls"><title id="pi-gls">General Logistics Systems</title><path d="M35 0H3C1.3 0 0 1.3 0 3v18c0 1.7 1.4 3 3 3h32c1.7 0 3-1.3 3-3V3c0-1.7-1.4-3-3-3z" fill="#010101" isolation="isolate" opacity=".07"/><path d="M35 1c1.1 0 2 .9 2 2v18c0 1.1-.9 2-2 2H3c-1.1 0-2-.9-2-2V3c0-1.1.9-2 2-2h32" fill="#fff"/><path d="M33.25 17.3c.97 0 1.76-.79 1.75-1.77s-.79-1.76-1.77-1.75c-.97 0-1.75.79-1.75 1.76s.79 1.76 1.77 1.76z" fill="#ffd100"/><path d="M8.08 11.63v2.3H10c-.28.44-.91.67-1.34.67-1.45 0-2.17-.82-2.17-2.48 0-1.83.95-2.77 2.85-2.77.75 0 1.74.19 2.79.52V7.12c-.3-.13-.77-.23-1.36-.33-.53-.09-1.07-.14-1.61-.14-1.88 0-3.37.5-4.49 1.51-1.11 1.01-1.68 2.37-1.68 4.08 0 1.57.43 2.81 1.3 3.72.87.92 2.04 1.38 3.52 1.38s2.84-.77 3.28-1.74v1.57h2.13v-5.54H8.06zm6.23 5.54V6.82h3.33v7.66h3.63v2.7h-6.96zm8.17-.26v-2.83c.56.17 1.14.31 1.72.4.56.11 1.12.16 1.69.17.81 0 1.23-.2 1.23-.56 0-.23-.13-.35-.72-.48l-1.16-.26c-1.98-.45-2.91-1.44-2.91-3.13 0-1.11.39-1.99 1.16-2.64.77-.64 1.84-.95 3.18-.95.93 0 2.34.19 3.21.4v2.7c-.45-.12-.98-.23-1.63-.33-.51-.09-1.02-.13-1.53-.14-.71 0-1.11.2-1.11.56 0 .22.19.36.58.46l1.35.32c1.97.46 2.88 1.47 2.88 3.19 0 1.1-.41 1.96-1.2 2.6s-1.9.95-3.3.95c-1.33 0-2.68-.19-3.43-.43z" fill="#061ab1"/></svg>