<svg xmlns="http://www.w3.org/2000/svg" width="38" height="24" aria-labelledby="pi-helthjem"><title id="pi-helthjem">Helthjem</title><path d="M35 0H3C1.3 0 0 1.3 0 3v18c0 1.7 1.4 3 3 3h32c1.7 0 3-1.3 3-3V3c0-1.7-1.4-3-3-3z" fill="#010101" isolation="isolate" opacity=".07"/><path d="M35 1c1.1 0 2 .9 2 2v18c0 1.1-.9 2-2 2H3c-1.1 0-2-.9-2-2V3c0-1.1.9-2 2-2h32" fill="#fff"/><path d="M11.49 9.76h.56v2.2h.01c.07-.16.19-.28.37-.38.17-.1.37-.15.6-.15a1.14 1.14 0 01.75.27c.1.09.17.21.23.35.06.14.09.31.09.51v1.89h-.56v-1.74c0-.14-.02-.25-.06-.35a.704.704 0 00-.15-.24.571.571 0 00-.21-.13.69.69 0 00-.25-.04.83.83 0 00-.32.06c-.1.04-.19.1-.26.18-.07.08-.13.18-.17.31-.04.12-.06.27-.06.44v1.51h-.56V9.76zM17.12 12.74a.934.934 0 00-.22-.61.677.677 0 00-.26-.18c-.11-.04-.23-.07-.37-.07a.957.957 0 00-.67.28.75.75 0 00-.18.28c-.04.1-.07.2-.07.3h1.76zm-1.76.45a.784.784 0 00.3.62 1.148 1.148 0 00.69.23c.17 0 .32-.04.45-.12.13-.08.25-.19.35-.32l.42.32c-.31.4-.74.6-1.3.6-.23 0-.44-.04-.63-.12a1.37 1.37 0 01-.48-.33c-.13-.14-.23-.3-.3-.49a1.739 1.739 0 010-1.22c.08-.19.18-.35.32-.49.13-.14.29-.25.48-.33.19-.08.39-.12.61-.12.26 0 .48.05.66.14.18.09.33.21.44.36.12.15.2.31.25.5.05.18.08.37.08.56v.2h-2.36zM18.43 9.76h.56v4.69h-.56V9.76zM21.45 11.99h-.8v1.58c0 .08.02.15.05.22.03.06.07.12.12.16.06.04.14.06.25.06.07 0 .13 0 .2-.02.07-.01.13-.04.19-.07v.51c-.07.04-.15.06-.26.08-.11.01-.19.02-.25.02-.22 0-.38-.03-.5-.09a.655.655 0 01-.26-.23c-.06-.1-.09-.2-.1-.32-.01-.12-.02-.24-.02-.36V12h-.65v-.48h.65v-.82h.56v.82h.8V12z" fill="#4d4c4c"/><path d="M22.17 9.76h.56v2.2h.01c.07-.16.19-.28.37-.38.17-.1.37-.15.6-.15.14 0 .28.02.41.07a.9.9 0 01.34.2c.1.09.17.21.23.35.06.14.09.31.09.51v1.89h-.56v-1.74c0-.14-.02-.25-.06-.35a.704.704 0 00-.15-.24.571.571 0 00-.21-.13.69.69 0 00-.25-.04.83.83 0 00-.32.06c-.1.04-.19.1-.26.18-.07.08-.13.18-.17.31-.04.12-.06.27-.06.44v1.51h-.56V9.76zM25.53 10.46a.4.4 0 01.12-.29c.08-.08.18-.12.29-.12s.21.04.29.12c.08.08.12.18.12.29s-.04.21-.12.29c-.08.08-.18.12-.29.12s-.21-.04-.29-.12a.4.4 0 01-.12-.29zm.69 1.05v3.36c0 .07 0 .17-.02.29-.01.12-.04.24-.1.35-.06.11-.14.21-.27.29-.12.08-.29.12-.52.12-.06 0-.12 0-.18-.01-.06 0-.12-.02-.18-.04l.06-.51.11.03c.04.01.08.02.12.02.15 0 .26-.05.32-.15.06-.1.09-.24.09-.42V11.5h.56z" fill="#fbb800"/><g fill="#fbb800"><path d="M29.29 12.74a.934.934 0 00-.22-.61.677.677 0 00-.26-.18c-.11-.04-.23-.07-.37-.07a.957.957 0 00-.67.28.75.75 0 00-.18.28c-.04.1-.07.2-.07.3h1.76zm-1.76.45a.784.784 0 00.3.62 1.148 1.148 0 00.69.23c.17 0 .32-.04.45-.12.13-.08.25-.19.35-.32l.42.32c-.31.4-.74.6-1.3.6-.23 0-.44-.04-.63-.12a1.37 1.37 0 01-.48-.33c-.13-.14-.23-.3-.3-.49a1.739 1.739 0 010-1.22c.08-.19.18-.35.32-.49.13-.14.29-.25.48-.33.19-.08.39-.12.61-.12.26 0 .48.05.66.14.18.09.33.21.44.36.12.15.2.31.25.5.05.18.08.37.08.56v.2h-2.36zM30.56 11.51h.52v.46h.01s.04-.09.1-.16c.05-.06.12-.12.2-.18.08-.06.18-.1.29-.14.11-.04.23-.06.36-.06.22 0 .4.05.55.14.15.09.27.23.37.41.1-.18.23-.32.4-.41.17-.09.35-.14.53-.14.23 0 .41.04.56.11.14.07.26.17.34.29.08.12.14.26.17.42.03.16.05.32.05.48v1.71h-.56V12.8c0-.11 0-.22-.02-.32a.618.618 0 00-.09-.27.575.575 0 00-.19-.19.623.623 0 00-.33-.07c-.27 0-.46.08-.58.25-.12.17-.17.38-.17.64v1.61h-.56v-1.54c0-.14 0-.27-.02-.38a.663.663 0 00-.09-.3.52.52 0 00-.19-.2.623.623 0 00-.33-.07.717.717 0 00-.54.24c-.07.08-.13.18-.17.3-.04.12-.06.27-.06.43v1.53h-.56v-2.94z"/></g><path d="M6.18 11.41l-2.99-1.19c-.09-.03-.19.03-.19.13v2.15c0 .06.03.11.09.13l2.99 1.18c.09.04.19-.03.19-.13v-2.14c0-.06-.03-.11-.09-.13zM6.18 14.06l-1.72-.68c-.09-.04-.19.03-.19.13v1.32c0 .06.03.11.09.13l1.72.66c.09.03.19-.03.19-.13v-1.3c0-.06-.03-.11-.09-.13zM3.97 13.19l-.78-.31c-.09-.04-.19.03-.19.13v1.32c0 .06.03.11.09.13l.78.31c.09.03.19-.03.19-.13v-1.32c0-.06-.03-.11-.09-.13z" fill="#fbb800"/><path d="M8.61 10.34l-2.05 1.1s-.07.07-.07.12v3.94c0 .11.11.17.2.12l2.05-1.1s.07-.07.07-.12v-3.94c0-.1-.11-.17-.2-.12zM7.79 9.13L4.84 8.08c-.06-.02-.12 0-.16.04L3.22 9.83c-.05.06-.04.17.06.21l2.99 1.2c.06.03.13 0 .16-.04l1.42-1.86c.06-.08.02-.18-.06-.21z" fill="#4d4c4c"/></svg>