<svg xmlns="http://www.w3.org/2000/svg" width="38" height="24" aria-labelledby="pi-instabox"><title id="pi-instabox">Instabox</title><path d="M35 0H3C1.3 0 0 1.3 0 3v18c0 1.7 1.4 3 3 3h32c1.7 0 3-1.3 3-3V3c0-1.7-1.4-3-3-3z" fill="#010101" isolation="isolate" opacity=".07"/><path d="M35 1c1.1 0 2 .9 2 2v18c0 1.1-.9 2-2 2H3c-1.1 0-2-.9-2-2V3c0-1.1.9-2 2-2h32" fill="#fff"/><g fill="#ff3e3e" fill-rule="evenodd"><path d="M33.49 12.92L35 15.19h-1.62l-.73-1.15-.73 1.15h-1.55l1.5-2.26-1.43-2.18h1.61l.67 1.07.68-1.07h1.55l-1.44 2.17"/><path d="M28.31 11.93c-.46 0-.72.43-.72 1.05s.26 1.04.72 1.04.73-.42.73-1.04-.26-1.05-.73-1.05zm0 3.36c-1.3 0-2.19-.95-2.19-2.32s.9-2.32 2.19-2.32 2.19.95 2.19 2.32-.89 2.32-2.19 2.32zm-5.43-1.74a.7.7 0 00.66.41c.52 0 .82-.42.82-1s-.31-1.01-.82-1.01c-.29 0-.54.18-.66.41v1.17zm0 1.64h-1.5V8.78h1.5v2.33c.2-.24.62-.45 1.06-.45 1.24 0 1.92 1.04 1.92 2.32s-.68 2.32-1.92 2.32c-.44 0-.86-.22-1.06-.45v.36zm-3.6-1.5c-.1-.19-.33-.31-.6-.31-.3 0-.59.13-.59.42s.3.43.59.43c.27 0 .51-.12.6-.3v-.26zm0-1.17c0-.35-.31-.59-.92-.59-.41 0-.83.11-1.17.32v-1.24c.35-.2.93-.35 1.54-.35 1.27 0 1.99.62 1.99 1.8v2.74h-1.44v-.23c-.14.15-.55.31-1.01.31-.85 0-1.57-.49-1.57-1.43 0-.86.73-1.41 1.65-1.41.36 0 .76.12.93.25v-.16zm-3.43 2.67h-1.49v-3.24h-.74v-1.2h.74V9.53h1.49v1.22h.84v1.2h-.84v3.24m-5.84-1.63c.41.35 1.08.56 1.52.56.3 0 .49-.07.49-.27 0-.18-.13-.25-.39-.31l-.33-.09c-.79-.18-1.3-.56-1.3-1.36 0-.93.74-1.45 1.76-1.45.61 0 1.08.13 1.5.39v1.27c-.41-.31-.87-.51-1.35-.51-.26 0-.43.09-.43.27 0 .17.12.23.33.29l.39.12c.93.26 1.31.65 1.31 1.4 0 .95-.79 1.41-1.85 1.41-.6 0-1.23-.15-1.63-.42v-1.3M5.3 10.75h1.5v.38c.24-.28.66-.48 1.15-.48.95 0 1.52.64 1.52 1.63v2.91H7.98v-2.54c0-.37-.18-.63-.56-.63-.3 0-.54.18-.62.48v2.68H5.3v-4.44m-2.19 4.44h1.5v-4.44h-1.5v4.44zm.75-4.82c-.46 0-.85-.33-.85-.83 0-.51.39-.84.85-.84s.85.33.85.84-.39.83-.85.83z"/></g></svg>