<svg xmlns="http://www.w3.org/2000/svg" width="38" height="24" aria-labelledby="pi-israelpost"><title id="pi-israelpost">Israel Post</title><path d="M35 0H3C1.3 0 0 1.3 0 3v18c0 1.7 1.4 3 3 3h32c1.7 0 3-1.3 3-3V3c0-1.7-1.4-3-3-3z" fill="#010101" isolation="isolate" opacity=".07"/><path d="M35 1c1.1 0 2 .9 2 2v18c0 1.1-.9 2-2 2H3c-1.1 0-2-.9-2-2V3c0-1.1.9-2 2-2h32" fill="#fff"/><g id="surface1" fill="#cf2028" stroke-width="0"><path d="M19.03 5.36c.67.84 1.68 1 2.58 1.36 1.11.45 2.05 1.12 2.81 2.05.14.17.37.27.58.36.55.23 1.11.42 1.66.67.16.07.38.26.37.39 0 .17-.2.78-1.47.78-.9 0-1.8-.07-2.67-.1.2-.39.44-.75.58-1.15.2-.56-.06-.9-.65-.9-.35 0-.7.07-1.05.04a1.33 1.33 0 01-.63-.25c.58.11 1.19-.14 1.59-.1.46.04.61.16.44-.09-.98-1.2-1.54-1.06-2.5-.85-.57.12-1.08 0-1.5-.4.9.34 1.17.04 1.59.03.13 0 .12-.11.05-.14-.89-.47-1.64-.64-1.77-1.68M24.47 12.81c.1-.37.2-.8.31-1.11h.56c2.72.05 7.05.92 9.67 2.45-3.4-1.11-6.92-1.33-10.53-1.35M12.72 14.17c-.12.44-.24.97-.37 1.3-.39.05-4.77 1.14-6.88 2.03-.84.35-1.65.77-2.48 1.14 2.88-2.22 6.17-3.53 9.72-4.47M10.08 11.52h.46v.02c-.19.65-.38 1.31-.53 1.81H9.58M22.62 14.65h-.95c.02-.07.04-.13.06-.19.02-.07.05-.14.07-.22h2.29l-.02.09c-.02.09-.05.2-.09.33h-.9v.03c-.14.48-.29.98-.41 1.38H22.24M19.47 13.35c-.2 0-.39-.01-.46-.11-.05-.06-.05-.16 0-.3.01-.04.04-.15.08-.28.07-.27.17-.64.21-.78.11-.36.22-.36 1.09-.36h1.35l-.06.21-.06.23H19.69c-.06.02-.1.07-.1.14 0 .08.06.14.14.14h1.81c-.02.06-.03.12-.04.18-.02.07-.03.13-.05.2h-1.93a.15.15 0 00-.1.14c0 .08.06.14.14.14h1.81l-.06.21-.06.23M16.91 14.65c-.28 0-.54.01-.59.19-.02.07-.07.25-.11.38-.02.07-.03.12-.04.14-.03.09-.02.15.01.2.05.07.16.08.27.08h.58c.43 0 .52 0 .59-.21.02-.07.07-.25.1-.38.02-.07.03-.12.04-.14.02-.08.02-.14-.01-.18-.05-.06-.15-.06-.28-.06H16.9m-.79 1.42c-.2 0-.39-.01-.46-.11-.05-.06-.05-.16 0-.3.01-.04.04-.14.07-.27.07-.28.17-.65.21-.79.11-.36.22-.36 1.09-.36h.79c.2 0 .39.01.46.11.05.06.05.16 0 .3-.01.04-.04.15-.07.28-.07.28-.17.65-.21.78-.11.36-.23.36-1.09.36M22.31 13.35c-.2 0-.44-.02-.53-.14-.05-.06-.06-.16-.03-.28l.16-.59s.14-.53.22-.82h.46l-.04.15c-.11.38-.21.73-.3 1.06s0 .02 0 .02v.02c0 .08.06.14.14.14h1.81c-.02.06-.03.12-.05.19v.02c-.03.08-.05.16-.07.23M10.59 13.35c.02-.08.09-.33.12-.42h2.02c.08 0 .15-.06.15-.14 0-.07-.04-.12-.1-.14s-.02 0-.02 0H11.2c-.33 0-.48-.24-.48-.48 0-.32.26-.64.76-.64H13.45l-.11.42h-2.06a.15.15 0 00-.1.14c0 .08.06.14.14.14h1.44c.26 0 .43.12.47.25.03.08.07.4-.1.63-.11.16-.3.25-.55.25M18.53 16.07c.02-.08.09-.33.12-.42h2.02c.08 0 .15-.06.15-.14 0-.07-.04-.12-.1-.14s-.02 0-.02 0h-1.56c-.33 0-.48-.24-.48-.48 0-.32.26-.64.76-.64H21.39l-.11.42h-2.06a.15.15 0 00-.1.14c0 .08.06.14.14.14h1.44c.26 0 .43.12.47.25.03.08.07.4-.1.63-.11.16-.3.25-.55.25M15.04 14.64h-1.53l-.09.33h1.66c.08 0 .15-.09.15-.16a.19.19 0 00-.1-.16h-.08zm-1.89-.41h1.83c.44 0 .59.27.59.52 0 .29-.21.6-.55.6h-1.73v.03c-.08.25-.15.48-.21.68H12.65M15.84 11.93H14.3l-.09.33h1.66c.08 0 .15-.09.15-.16a.19.19 0 00-.1-.16h-.07zm.04 1.42h-.33c-.06-.21-.13-.44-.2-.68v-.03H14.1v.03c-.08.25-.15.48-.21.68H13.46l.49-1.83h1.83c.44 0 .59.27.59.52 0 .29-.21.6-.55.61h-.05l.19.71M17.8 11.99l-.2.23-.02.02c-.08.1-.17.19-.25.28l-.06.07h.76l-.19-.66-.05.06zm-1.59 1.36c.22-.26 1.28-1.53 1.43-1.71.09-.11.22-.18.35-.18s.21.06.24.16c.1.35.34 1.24.44 1.61l.03.11h-.43l-.13-.38h-1.17l-.3.38"/></g></svg>