<svg xmlns="http://www.w3.org/2000/svg" width="38" height="24" aria-labelledby="pi-laposte"><title id="pi-laposte">La Poste</title><path d="M35 0H3C1.3 0 0 1.3 0 3v18c0 1.7 1.4 3 3 3h32c1.7 0 3-1.3 3-3V3c0-1.7-1.4-3-3-3z" fill="#010101" isolation="isolate" opacity=".07"/><path d="M35 1c1.1 0 2 .9 2 2v18c0 1.1-.9 2-2 2H3c-1.1 0-2-.9-2-2V3c0-1.1.9-2 2-2h32" fill="#ffcf19"/><g fill="#003da5"><path d="M12.44 4.3l5.23 2.37h8l.66-1.15c.41-.68-.06-1.51-.79-1.51H12.51c-.19 0-.23.21-.06.3M17.66 7.69h13.03c.15 0 .3.13.3.3 0 .15-.11.26-.21.28l-23.59 6.4a.148.148 0 01-.13-.26l10.6-6.72zM11.07 14.67l8.55-.15c.83-.02 1.81-.49 2.24-1.26l1.02-1.79-11.82 3.2zM11.99 16.97h-.62l-1.54 2.99h.64l.28-.55h1.86l.19.36c.09.17.17.19.41.19h.34l-1.56-2.99zm-.96 1.9l.66-1.3.66 1.3h-1.32zM15.32 19.06v.87h-.6v-2.94c.32 0 .75-.02 1.09-.02.68 0 1.13.11 1.41.36.17.17.26.41.23.64 0 .85-.66 1.09-1.62 1.09h-.51m0-.55h.47c.38 0 .73-.02.92-.19.09-.09.13-.21.13-.32s-.04-.19-.11-.28c-.19-.19-.47-.19-.94-.19h-.47v.98zM21.35 18.46c0 .85-.66 1.54-1.79 1.54s-1.79-.68-1.79-1.54.66-1.54 1.79-1.54 1.79.68 1.79 1.54m-1.79-1c-.68 0-1.15.38-1.15 1s.49 1 1.15 1 1.15-.38 1.15-1c.02-.6-.47-1-1.15-1zM24.38 17.27c-.32-.19-.85-.34-1.26-.34-.75 0-1.34.38-1.34.94 0 1.02 2.03.64 2.03 1.26 0 .26-.36.36-.68.36-.43 0-.83-.13-1.19-.36l-.3.45c.36.26.96.43 1.45.43.75 0 1.37-.34 1.37-.92 0-1.05-2.03-.73-2.03-1.3 0-.23.34-.34.7-.34.34 0 .68.11.98.3l.28-.47zM27.52 16.99h-2.86v.56h1.11v2.39h.6v-2.39h1.15v-.56zM27.88 16.99v2.73c0 .13.09.21.21.21h2.41v-.55h-2.03v-.68h1.81v-.55h-1.81v-.62h1.96v-.55h-2.56V17zM8.08 16.99h-.6v2.73c0 .13.09.21.21.21h1.79l.28-.55H8.07v-2.39z"/></g></svg>