<svg xmlns="http://www.w3.org/2000/svg" width="38" height="24" aria-labelledby="pi-mondialrelay"><title id="pi-mondialrelay">Mondial Relay</title><path d="M35 0H3C1.3 0 0 1.3 0 3v18c0 1.7 1.4 3 3 3h32c1.7 0 3-1.3 3-3V3c0-1.7-1.4-3-3-3z" style="isolation:isolate" fill="#010101" opacity=".07"/><path d="M35 1c1.1 0 2 .9 2 2v18c0 1.1-.9 2-2 2H3c-1.1 0-2-.9-2-2V3c0-1.1.9-2 2-2h32" fill="#fff"/><path d="M3.35 15.59c.01.34.14.67.35.93.22.27.51.45.85.54.45.11 2.75.36 4.12.36s3.67-.25 4.12-.36a1.582 1.582 0 001.2-1.47V8.4c-.01-.34-.14-.67-.35-.93-.22-.27-.51-.45-.85-.54-.45-.11-2.75-.36-4.12-.36s-3.67.25-4.12.36a1.582 1.582 0 00-1.2 1.47v7.19z" fill="#96154a"/><path d="M9.48 11.81c-.91-.16-1.52.32-1.52 1.11v1.8l-1.44.91v-2.71c0-1.57 1.1-2.67 2.96-2.45v1.34zM9 9.1c0 .16-.05.32-.14.45a.838.838 0 01-1.27.13.83.83 0 01-.23-.42.76.76 0 01.05-.47c.06-.15.17-.28.3-.37a.825.825 0 011.04.1c.15.15.24.36.24.58z" fill="#fff"/><path d="M9.83 11.71s.02.1.05.14.07.07.12.08c.2.03.4.05.6.05.2 0 .4-.02.6-.05a.2.2 0 00.12-.08c.03-.04.05-.09.05-.14v-1.05s-.02-.1-.05-.14a.2.2 0 00-.12-.08c-.2-.03-.4-.05-.6-.05-.2 0-.4.02-.6.05a.2.2 0 00-.12.08c-.03.04-.05.09-.05.14v1.05z" fill="#f4aab6"/><path d="M25.12 9.47c.19.18.29.46.29.83v1.45h-.59v-1.37a.75.75 0 00-.16-.5c-.06-.06-.13-.1-.21-.13s-.16-.04-.24-.04c-.1 0-.19 0-.28.04s-.17.09-.24.15a.74.74 0 00-.19.56v1.28h-.59V9.22h.56v.33c.1-.12.23-.21.37-.26.16-.06.33-.09.51-.09.14 0 .28.01.41.06.13.05.25.12.36.21M21.3 11.8c-.26 0-.52-.07-.75-.21a1.306 1.306 0 01-.58-1.35c.05-.26.17-.49.36-.68.19-.19.42-.31.68-.37.26-.05.53-.03.77.07s.45.27.6.49a1.3 1.3 0 01-.15 1.66c-.25.25-.58.39-.93.39zm.02-2.04a.754.754 0 00-.7.45c-.06.13-.07.28-.05.43.03.14.1.28.2.38.1.1.24.17.38.2s.29.02.43-.04.25-.15.33-.27c.08-.12.13-.26.13-.41 0-.19-.08-.38-.21-.52a.726.726 0 00-.52-.22zM27.09 15.58v-2.52h-.57v.24c-.19-.15-.43-.24-.67-.27a1.346 1.346 0 00-1.25.61 1.29 1.29 0 00.54 1.86c.22.11.47.15.71.13.24-.02.48-.12.67-.27v.23h.57zm-1.37-.48c-.15 0-.31-.05-.43-.13a.819.819 0 01-.29-.35.768.768 0 01-.04-.45c.03-.15.1-.29.21-.4.11-.11.25-.18.4-.21a.86.86 0 01.45.04c.14.06.27.16.35.29.09.13.13.28.13.43 0 .21-.08.4-.23.55a.78.78 0 01-.55.23M31.91 9.22v.25c-.19-.15-.43-.24-.67-.27a1.346 1.346 0 00-1.25.61 1.29 1.29 0 00.54 1.86c.22.11.47.15.71.13.24-.02.48-.12.67-.27v.21h.57V9.22h-.57zm-.8 2.06c-.15 0-.31-.05-.43-.13a.819.819 0 01-.29-.35.696.696 0 01-.04-.45c.03-.15.1-.29.21-.4.11-.11.25-.18.4-.21a.86.86 0 01.45.04c.14.06.27.16.35.29.09.13.13.28.13.43 0 .21-.08.4-.23.55a.78.78 0 01-.55.23zM21.51 15.09c-.15.03-.31.02-.46-.03a.778.778 0 01-.37-.27h.03l1.94-.65c-.05-.26-.16-.49-.32-.7-.14-.17-.33-.3-.54-.37-.22-.07-.46-.09-.7-.05-.23.04-.45.13-.64.26-.18.13-.32.32-.4.53-.08.22-.11.45-.07.68.02.12.05.24.1.36.24.54.84.85 1.47.76h.06c.22-.05.43-.15.61-.29.17-.14.31-.33.39-.54l-.48-.18c-.05.13-.14.24-.25.32a.89.89 0 01-.37.17zm-.95-.7a.808.808 0 01.12-.6.703.703 0 01.5-.29.8.8 0 01.48.07c.14.07.25.19.31.33l-1.41.49z" fill="#96154a"/><path d="M22.91 14.62c0 .19.06.38.16.54.11.16.25.29.43.37.18.08.37.11.56.09.19-.02.37-.1.52-.22l-.37-.45c-.08.06-.18.1-.28.1a.423.423 0 01-.43-.42v-2.5h-.59v2.5zM34.28 11.09c-.08.06-.18.1-.28.1-.06 0-.11 0-.16-.03a.42.42 0 01-.14-.09.42.42 0 01-.12-.3V8.34l-.59.38v2.05c0 .19.06.38.16.54s.25.29.43.37c.18.08.37.11.56.09.19-.02.37-.1.52-.22l-.38-.45zM19.07 11.74h.62V8.58c0-.06-.02-.12-.06-.17a.327.327 0 00-.15-.11.308.308 0 00-.19 0c-.06.02-.11.06-.15.11l-.93 1.29-.93-1.29a.327.327 0 00-.15-.11.308.308 0 00-.19 0c-.06.02-.11.06-.15.11-.04.05-.06.11-.06.17v3.16h.62V9.65l.04.05c.24.3.6.75.62.76.05.05.12.07.19.07s.14-.03.19-.07c.02-.02.38-.47.62-.76l.04-.05v2.09zM29.5 9.39h-.59v2.36h.59V9.39zM29.58 8.66a.36.36 0 00-.06-.2.39.39 0 00-.17-.14.307.307 0 00-.21-.02c-.07.01-.14.05-.19.1-.05.05-.09.12-.1.19-.01.07 0 .15.02.21.03.07.08.12.14.17.06.04.13.06.21.06.1 0 .19-.04.26-.11s.11-.16.11-.26zM29.58 13.06v1.23c0 .42-.3.74-.7.74s-.7-.31-.7-.74v-1.23h-.59v1.23c0 .17.03.34.09.5a1.33 1.33 0 00.7.72 1.26 1.26 0 001.2-.12v.32c0 .64-.52 1.14-1.21 1.14-.82 0-1.22-.46-1.28-.88h-.57c.07.85.83 1.46 1.84 1.46.47 0 .92-.17 1.27-.48.17-.16.31-.35.4-.56.09-.21.14-.44.14-.67v-2.65h-.59zM27.82 8.32v1.15c-.19-.15-.43-.24-.67-.27a1.346 1.346 0 00-1.25.61 1.29 1.29 0 00.54 1.86c.22.11.47.15.71.13.24-.02.48-.12.67-.27v.21h.59V8.32h-.59zm-.8 2.96c-.15 0-.31-.05-.43-.13a.819.819 0 01-.29-.35.768.768 0 01-.04-.45c.03-.15.1-.29.21-.4.11-.11.25-.18.4-.21a.86.86 0 01.45.04c.14.06.27.16.35.29.09.13.13.28.13.43 0 .21-.08.4-.23.55a.78.78 0 01-.55.23M19.23 15.58H20l-.87-1.22h.02a1.198 1.198 0 00.58-.91 1.287 1.287 0 00-.31-.94 1.162 1.162 0 00-.89-.39h-1.09a.703.703 0 00-.7.71v2.75h.62v-1.05h1.11l.75 1.05zm-1.84-1.67h-.02v-.96c0-.05.02-.1.06-.14.04-.04.09-.06.14-.06h.94c.15 0 .3.05.42.15.11.1.18.25.19.4 0 .15-.04.3-.15.42-.1.11-.25.19-.4.2h-1.18z" fill="#96154a"/></svg>