<svg xmlns="http://www.w3.org/2000/svg" width="38" height="24" aria-labelledby="pi-mondialrelay_symbol"><title id="pi-mondialrelay_symbol">Mondial Relay</title><path d="M35 0H3C1.3 0 0 1.3 0 3v18c0 1.7 1.4 3 3 3h32c1.7 0 3-1.3 3-3V3c0-1.7-1.4-3-3-3z" style="isolation:isolate" fill="#010101" opacity=".07"/><path d="M35 1c1.1 0 2 .9 2 2v18c0 1.1-.9 2-2 2H3c-1.1 0-2-.9-2-2V3c0-1.1.9-2 2-2h32" fill="#fff"/><path d="M11 17.3c.02.5.2.99.53 1.38.33.39.77.67 1.27.79.67.16 4.14.53 6.2.53s5.52-.37 6.2-.53c.5-.12.95-.4 1.27-.79.33-.39.51-.87.53-1.38V6.7c-.02-.5-.2-.99-.53-1.38-.33-.39-.77-.67-1.27-.79C24.53 4.37 21.06 4 19 4s-5.52.37-6.2.53c-.5.12-.95.4-1.27.79-.33.39-.51.87-.53 1.38v10.6z" fill="#96154a"/><path d="M20.23 11.73c-1.37-.24-2.29.48-2.29 1.64v2.65l-2.16 1.34v-4c0-2.32 1.65-3.94 4.45-3.61v1.97zM19.5 7.72c0 .24-.07.47-.21.67-.14.2-.33.35-.56.44-.23.09-.48.12-.72.07a1.226 1.226 0 01-.97-.95c-.05-.23-.02-.48.07-.7.09-.22.25-.41.46-.54.2-.13.44-.2.69-.2.33 0 .64.13.88.35.23.23.36.53.36.85z" fill="#fff"/><path d="M20.75 11.57c0 .07.03.14.08.2s.11.1.19.12c.3.05.6.07.9.08.3 0 .61-.03.91-.08.07-.02.14-.06.19-.12.05-.06.07-.13.08-.2v-1.55c0-.07-.03-.14-.08-.2a.347.347 0 00-.19-.12c-.3-.05-.6-.07-.91-.08-.3 0-.61.03-.9.08-.07.02-.14.06-.19.12-.05.06-.07.13-.08.2v1.55z" fill="#f4aab6"/></svg>