<svg xmlns="http://www.w3.org/2000/svg" role="img" viewBox="0 0 38 24" width="38" height="24" aria-labelledby="pi-mondial-relay"><title id="pi-mondial-relay">MondialRelay</title><style type="text/css">.st1{fill:#fff}.st2{fill:#c7bcaf}</style><path fill="#ce0f4c" d="M0 0h38v24H0z"/><g id="layer1_00000016058516515497884960000011840437279808027565_" transform="translate(-118.697 430.82)"><g id="g407_00000000182892630254610670000002300159625675005867_" transform="matrix(8.24357 0 0 -8.24357 -1244.409 955.761)"><g id="g82_00000018221882978879569850000016670259953534003084_" transform="translate(205.709 145.925)"><path id="path84_00000155141259680972332900000005320443188935704997_" class="st1" d="M-37.92 21.28c-.15.03-.25-.05-.25-.18v-.42l-.23.14v.29c0 .26.18.44.48.4v-.23z"/></g><path id="path86_00000170990349620832951790000005240831799944701598_" class="st2" d="M168.07 167.2h-.22v.22h.22v-.22z"/><g id="g88_00000046298974921464860650000016564216670696041913_" transform="translate(176.258 105.289)"><path id="path90_00000049944809506721803980000013137132378849850005_" class="st1" d="M-9.55 60.42h.1v.27c0 .03.01.05.03.07.02.02.04.03.07.03.02 0 .05-.01.05-.01v.1s-.04.01-.06.01c-.12 0-.19-.09-.19-.2v-.27z"/></g><g id="g92_00000019659382629291702590000004306208564390617008_" transform="translate(186.079 106.444)"><path id="path94_00000015340440874244629460000016184742186979466640_" class="st1" d="M-19.01 59.31a.15.15 0 00-.04.11v.16c0 .04.01.08.04.11s.06.04.11.04h.17v-.1h-.17c-.02 0-.03 0-.04-.01-.01-.01-.01-.02-.01-.04v-.03h.18v-.1h-.18v-.03c0-.02 0-.03.01-.04.01-.01.02-.01.04-.01h.17v-.1h-.17a.15.15 0 00-.11.04"/></g><g id="g96_00000135673527831585109900000000407859377973560485_" transform="translate(197.21 106.426)"><path id="path98_00000137103362719887628430000008661553258032115862_" class="st1" d="M-29.73 59.33c-.03.03-.04.06-.04.11v.32h.1v-.32c0-.02 0-.03.01-.04.01-.01.02-.01.04-.01h.14l-.04-.1h-.11c-.04-.01-.07.01-.1.04"/></g><g id="g100_00000031205005827231928270000000186348603031944358_" transform="translate(220.745 105.297)"><path id="path102_00000127025610868348814590000004631065276895583105_" class="st1" d="M-52.4 60.41v.18l-.16.29h.12l.09-.18.09.18h.12l-.16-.29v-.18h-.1z"/></g><g id="g104_00000080198467804403077340000002054758184732654465_" transform="translate(209.99 110.425)"><path id="path106_00000113350112510275712760000012190675848932390561_" class="st1" d="M-42.04 55.47l.05.16.05-.16h-.1zm.14.22c-.02.07-.06.07-.07.07H-42c-.02 0-.05 0-.07-.07-.03-.1-.14-.4-.14-.4h.11l.03.09h.17l.03-.09h.11l-.14.4z"/></g><g id="g108_00000166655477965163433130000002592869509933960875_" transform="translate(217.78 122.517)"><path id="path110_00000076577268825807843930000008263842789264076723_" class="st1" d="M-49.54 43.83l.02.06.02-.06h-.04zm.05.07c-.01.02-.02.02-.03.02h-.01c-.01 0-.02 0-.03-.02-.01-.04-.05-.15-.05-.15h.04l.01.03h.06l.01-.03h.04l-.04.15z"/></g><g id="g112_00000065072231771533360690000018399392079663161996_" transform="translate(181.968 120.737)"><path id="path114_00000159454680986699762670000014934202193417304971_" class="st1" d="M-15.05 45.54zm-.03 0v.11c0 .01-.01.02-.03.02-.02 0-.02-.01-.02-.02v-.11h-.04v.11c0 .01-.01.02-.02.02-.02 0-.02-.01-.03-.02v-.11h-.04v.11c0 .03.03.06.06.06.02 0 .03-.01.04-.02.01.01.03.02.04.02.04 0 .06-.03.06-.06v-.11h-.02z"/></g><g id="g116_00000040576047667492074580000016078001796207984781_" transform="translate(187.272 122.999)"><path id="path118_00000049903675101063767560000004133077179278759841_" class="st1" d="M-20.16 43.36c0-.03.02-.05.05-.05.02 0 .05.02.05.05 0 .03-.02.05-.05.05-.03 0-.05-.02-.05-.05m-.03 0c0 .05.04.09.08.09.05 0 .08-.04.08-.09 0-.05-.04-.09-.08-.09-.05 0-.08.04-.08.09"/></g><g id="g120_00000111175719210095336630000017878696911607290778_" transform="translate(197.978 124.939)"><path id="path122_00000038378230444515941140000006028021720307100852_" class="st1" d="M-30.47 41.49c.01-.01.02-.03.02-.05v-.11h-.04v.11c0 .02-.01.02-.03.02-.02 0-.02-.01-.02-.02v-.11h-.04v.11c0 .02.01.03.02.05.01.01.03.02.05.02.01 0 .03-.01.04-.02"/></g><g id="g124_00000078725658421606539490000006880983297436262294_" transform="translate(204.742 124.335)"><path id="path126_00000028300640212829730980000007301948899301675654_" class="st1" d="M-36.98 42.07h-.03v-.1h.03c.03 0 .04.03.04.05-.01.03-.01.05-.04.05m0-.13h-.06v.17h.06c.02 0 .04-.01.06-.02.01-.01.02-.04.02-.06 0-.03-.01-.05-.02-.06-.02-.02-.04-.03-.06-.03"/></g><path id="path128_00000057134592625616729580000016305896194725223845_" class="st1" d="M167.98 166.45h.04v-.17h-.04v.17z"/><g id="g130_00000004515366896298760490000016413652656818304438_" transform="translate(225.774 120.644)"><path id="path132_00000000931881459355269740000000114039229560980352_" class="st1" d="M-57.24 45.63c-.02 0-.03.01-.04.02-.01.01-.01.02-.01.04v.12h.04v-.12c0-.01 0-.02.02-.02h.05v-.04h-.06z"/></g><g id="g134_00000084492137544010166130000014406987187520371643_" transform="translate(203.571 158.067)"><path id="path136_00000024001214703888120100000006261008464594304390_" class="st2" d="M-35.86 9.58c0-.07-.06-.13-.13-.13s-.13.06-.13.13.06.13.13.13.13-.05.13-.13"/></g></g></g></svg>