<svg xmlns="http://www.w3.org/2000/svg" width="38" height="24" aria-labelledby="pi-naqelexpress"><title id="pi-naqelexpress">Naqel Express</title><path d="M35 0H3C1.3 0 0 1.3 0 3v18c0 1.7 1.4 3 3 3h32c1.7 0 3-1.3 3-3V3c0-1.7-1.4-3-3-3z" fill="#010101" isolation="isolate" opacity=".07"/><path d="M35 1c1.1 0 2 .9 2 2v18c0 1.1-.9 2-2 2H3c-1.1 0-2-.9-2-2V3c0-1.1.9-2 2-2h32" fill="#fff"/><path fill="#dc3545" d="M7.82 16.18h-.96l-.13.64h1.09l-.09.49H6.06l.51-2.68h1.61l-.1.5H7.06l-.11.57h.97l-.1.48z"/><path d="M9.37 17.31l-.19-.54c-.05-.16-.1-.29-.14-.45-.09.15-.16.29-.28.47l-.33.52h-.7l1.02-1.37-.47-1.31h.61l.17.51c.05.17.09.29.13.44h.01c.1-.18.18-.31.26-.45l.31-.5h.69l-.99 1.31.52 1.36h-.62zM10.62 14.68c.18-.04.45-.07.71-.07.25 0 .53.04.73.18.19.12.29.31.29.57 0 .33-.16.59-.37.75-.22.17-.54.25-.87.25-.1 0-.18-.01-.24-.02l-.19.96h-.57l.51-2.62zm.34 1.19c.06.01.12.02.22.02.35 0 .58-.22.58-.49s-.19-.34-.41-.34c-.11 0-.19 0-.24.02l-.15.78zM12.74 14.68c.18-.04.46-.07.73-.07s.52.04.71.15c.18.1.3.27.3.52 0 .39-.27.65-.62.76.16.09.23.26.26.5.04.3.06.65.11.76h-.6c-.03-.07-.05-.3-.07-.63-.03-.33-.14-.42-.37-.42h-.18l-.2 1.06h-.58l.51-2.62zm.36 1.14h.24c.31 0 .54-.19.54-.45 0-.22-.18-.31-.42-.31-.11 0-.18.01-.22.02l-.14.74zM16.19 16.18h-.96l-.13.64h1.09l-.09.49h-1.68l.52-2.68h1.61l-.09.5h-1.03l-.12.57h.98l-.1.48zM16.47 16.69c.16.1.39.17.64.17.22 0 .43-.1.43-.31 0-.15-.12-.25-.37-.38-.29-.15-.56-.36-.56-.7 0-.54.47-.87 1.07-.87.33 0 .52.07.64.13l-.18.47c-.09-.05-.28-.12-.51-.12-.27 0-.42.13-.42.28 0 .15.17.26.39.38.33.17.54.38.54.7 0 .59-.5.9-1.1.9-.38 0-.65-.1-.78-.19l.2-.47zM18.37 16.69c.16.1.39.17.64.17.22 0 .43-.1.43-.31 0-.15-.12-.25-.37-.38-.29-.15-.56-.36-.56-.7 0-.54.47-.87 1.07-.87.33 0 .52.07.64.13l-.18.47c-.09-.05-.28-.12-.51-.12-.27 0-.42.13-.42.28 0 .15.17.26.39.38.33.17.54.38.54.7 0 .59-.5.9-1.1.9-.38 0-.65-.1-.78-.19l.2-.47zM3 14.63v2.68h2.47l.52-2.68H3z" fill="#dc3545"/><path fill="#06205c" d="M26.42 12.58v-1.47h3.01V9.83h-3.01V8.36h3.22l.01-1.43h-4.92v7.08h4.92l-.01-1.43h-3.22z"/><path d="M19.7 13.97s.06.01.07.01c.05 0 .1.01.14.02h.04s.1 0 .15.01h.39c.05 0 .11-.01.16-.02h.03c.05 0 .11-.02.17-.02h.02c.05-.01.11-.02.17-.03h.02c.05-.01.11-.03.17-.04.12-.03.24-.07.36-.12 0 0 .22-.1.28-.13 0 0 .02 0 .02-.01.14-.06.21.04.3.12.08.07.13.12.23.21.92.82 3.2 2.71 5.71 3.2 3.19.62 5.26.22 5.26.22s-4.28-.41-6.69-1.83c-1.57-.93-3.02-1.99-3.63-2.53-.03-.02-.14-.1-.06-.23l.02-.02c.5-.55.83-1.25.93-2.05.25-2.05-1.21-3.93-3.26-4.18s-3.93 1.21-4.18 3.26a3.734 3.734 0 003.17 4.17m-1.65-3.97a2.22 2.22 0 012.46-1.93 2.22 2.22 0 011.93 2.46 2.22 2.22 0 01-2.46 1.93 2.206 2.206 0 01-1.93-2.46" fill="#dc3545"/><path fill="#06205c" d="M31.98 12.58V6.93h-1.69v7.08H35v-1.43h-3.02zM7.99 6.93v4.62L4.98 6.93H3v7.08h1.55V9.39l3 4.62h1.98V6.93H7.99zM14.38 6.93h-1.82L9.8 14.01h1.51l.63-1.61h3.07l.65 1.61h1.55l-2.83-7.08zm-1.88 4.03l.95-2.43.99 2.43H12.5z"/></svg>