<svg xmlns="http://www.w3.org/2000/svg" width="38" height="24" aria-labelledby="pi-porterbuddy"><title id="pi-porterbuddy">Porterbuddy</title><path d="M35 0H3C1.3 0 0 1.3 0 3v18c0 1.7 1.4 3 3 3h32c1.7 0 3-1.3 3-3V3c0-1.7-1.4-3-3-3z" fill="#010101" isolation="isolate" opacity=".07"/><path d="M35 1c1.1 0 2 .9 2 2v18c0 1.1-.9 2-2 2H3c-1.1 0-2-.9-2-2V3c0-1.1.9-2 2-2h32" fill="#fff"/><path d="M33.23 15.96H3.52c-.29 0-.52-.24-.52-.53V8.56c0-.29.23-.53.52-.53h29.71c.22 0 .42.14.49.35l1.25 3.44c.04.12.04.25 0 .36l-1.25 3.44c-.07.2-.27.34-.49.34z" fill="#661aff"/><path d="M8.29 12.18c0-.89.49-1.46 1.23-1.46s1.23.57 1.23 1.46-.49 1.46-1.23 1.46-1.23-.57-1.23-1.46zm1.9 0c0-.57-.27-.92-.67-.92s-.67.35-.67.92.28.92.67.92.67-.35.67-.92zM13.68 13.06c-.12 0-.2-.09-.2-.22v-1.55h.58v-.52h-.58v-.55l-.56.26v.3h-.7c-.27 0-.47.17-.55.45l-.04-.45h-.48v2.8h.55v-1.47c0-.5.18-.82.55-.82h.67v1.63c0 .4.25.66.62.66h.51l.06-.52h-.43zM16.76 12.71c-.1.58-.59.92-1.16.92-.78 0-1.29-.64-1.29-1.46s.49-1.46 1.24-1.46c.8 0 1.28.68 1.15 1.56h-1.83c.02.48.3.83.73.83.32 0 .56-.19.63-.49l.53.1zm-1.86-.92h1.25c-.02-.32-.26-.55-.57-.55s-.57.19-.67.55zM18.52 11.29h-.27c-.37 0-.55.32-.55.82v1.47h-.55v-2.81h.48l.04.45c.08-.27.28-.45.55-.45h.31v.52zM21.28 12.18c0 .89-.47 1.46-1.14 1.46-.33 0-.62-.19-.78-.5l-.04.45h-.49v-3.36h.55v.96c.17-.29.44-.46.76-.46.67 0 1.14.58 1.14 1.46zm-.55 0c0-.57-.28-.92-.68-.92s-.65.36-.65.92.27.92.65.92.68-.36.68-.92zM23.86 10.77v2.8h-.48l-.04-.48c-.15.35-.42.55-.78.55-.57 0-.95-.4-.95-1.04v-1.82h.55v1.7c0 .39.22.62.55.62.37 0 .59-.32.59-.73v-1.59h.55zM26.61 10.22v3.36h-.49l-.04-.45c-.16.32-.46.51-.79.51-.66 0-1.14-.57-1.14-1.46s.47-1.46 1.14-1.46c.31 0 .6.17.76.46v-.96h.55zm-.55 1.96c0-.56-.27-.93-.66-.93s-.68.36-.68.93.28.92.68.92.66-.36.66-.92zM29.41 10.22v3.36h-.49l-.04-.45c-.16.32-.46.51-.79.51-.66 0-1.14-.57-1.14-1.46s.47-1.46 1.14-1.46c.31 0 .6.17.76.46v-.96h.55zm-.55 1.96c0-.56-.27-.93-.66-.93s-.68.36-.68.93.28.92.68.92.66-.36.66-.92zM32.07 10.77l-.96 2.65c-.2.57-.3.66-.96.66v-.52c.52 0 .47-.4.47-.4l-.81-2.4h.6l.51 1.68.57-1.68h.59zM8.07 11.35c0 .71-.35 1.14-1.19 1.14h-.47v1.09h-.57v-3.35h.99c.84 0 1.25.42 1.25 1.12zm-.54 0c0-.37-.22-.59-.71-.59h-.41v1.18h.42c.49 0 .7-.2.7-.59z" fill="#fff"/></svg>