<svg xmlns="http://www.w3.org/2000/svg" width="38" height="24" aria-labelledby="pi-postnl"><title id="pi-postnl">PostNL</title><path d="M35 0H3C1.3 0 0 1.3 0 3v18c0 1.7 1.4 3 3 3h32c1.7 0 3-1.3 3-3V3c0-1.7-1.4-3-3-3z" fill="#010101" isolation="isolate" opacity=".07"/><path d="M35 1c1.1 0 2 .9 2 2v18c0 1.1-.9 2-2 2H3c-1.1 0-2-.9-2-2V3c0-1.1.9-2 2-2h32" fill="#fff"/><g fill="#f56900"><path d="M21.59 6.37c-2.08-1.15-5.21-2.38-7.16-2.38-.51 0-.92.08-1.22.25-.73.4-1.34 1.48-1.76 3.13-.35 1.37-.55 3.05-.55 4.62 0 3.12.72 6.87 2.31 7.75.33.18.76.27 1.29.27 2.01 0 5.07-1.3 7.09-2.41 2.22-1.22 5.51-3.73 5.52-5.62 0-1.78-3.23-4.35-5.52-5.62m-.26 10.84c-3.19 1.76-6.59 2.77-7.83 2.09-1.37-.76-2.06-4.38-2.06-7.26 0-2.86.73-6.53 2.06-7.26 1.17-.64 4.71.37 7.83 2.09 2.7 1.49 5.24 3.83 5.24 5.18 0 1.42-2.5 3.66-5.24 5.18"/><path d="M22.89 11.12c-.13 0-.29.03-.44.09-.07.03-.17.08-.24.14h-.02s0 .02-.01.02-.02 0-.02-.02v-.17s0-.01-.01-.01h-.55s-.06.03-.07.06v2.16s0 .01.01.01h.6s.01 0 .01-.01v-1.52s0-.02.02-.03c.03-.02.11-.07.21-.12.1-.06.2-.09.29-.09.24 0 .34.13.34.43v1.34s0 .01.01.01h.6s.01 0 .01-.01v-1.45c0-.53-.26-.81-.75-.81m1.72-.73c-.11-.12-.44-.33-.48-.33-.02 0-.02 0-.02.02v3.3s0 .01.01.01h.6s.01 0 .01-.01v-2.66a.46.46 0 00-.13-.33m-8.27.72c-.65 0-1.17.36-1.17 1.17s.52 1.17 1.17 1.17 1.17-.38 1.17-1.17c0-.81-.52-1.17-1.17-1.17m0 1.78c-.29 0-.51-.22-.51-.61 0-.43.22-.61.51-.61s.5.19.5.61c0 .39-.22.61-.5.61m4.79-.02s-.17.06-.26.06c-.2 0-.32-.09-.32-.41v-.82s0-.02.02-.02h.54s.02 0 .02-.02v-.42s-.03-.07-.07-.07h-.49s-.02 0-.02-.02v-.58s0-.02-.03-.02c-.04 0-.38.22-.48.33-.08.09-.13.21-.13.33v1.43c0 .62.36.82.75.82.22 0 .37-.03.46-.08.02-.01.04-.04.04-.06v-.41s0-.02-.02-.02m-7.47-1.72h-.85s-.07.03-.07.07v2.61c0 .12.05.24.13.33.11.12.44.33.49.33.02 0 .03 0 .03-.02v-1.05s0-.02.02-.02h.25c.8 0 1.28-.45 1.28-1.1 0-.65-.43-1.15-1.27-1.15m0 1.67h-.26s-.02 0-.02-.02V11.8s0-.02.02-.02h.25c.47 0 .65.26.65.54 0 .16-.08.55-.64.55m5.65-.64c-.13-.09-.29-.12-.45-.16-.03 0-.13-.03-.15-.04-.19-.04-.34-.08-.34-.2 0-.11.1-.18.26-.18.2 0 .48.04.78.15.02 0 .04 0 .04-.02v-.44s-.02-.06-.05-.07c-.11-.03-.42-.12-.69-.12-.3 0-.55.07-.72.19a.64.64 0 00-.26.53c0 .5.41.59.79.68.06.01.05.01.07.02.18.04.36.08.36.22 0 .04-.02.08-.05.11-.05.05-.12.07-.27.07-.25 0-.7-.11-.85-.16-.01 0-.03.01-.03.03v.44s.02.06.05.07c0 0 .41.13.79.13.66 0 1.01-.26 1.01-.73 0-.24-.09-.41-.27-.53m-3-3.94s.03.01.04.01.03 0 .04-.01c.09-.07.17-.15.24-.25.01-.02.02-.04 0-.06-.07-.1-.16-.18-.26-.26h-.02-.02c-.1.07-.18.16-.26.26-.02.03 0 .05 0 .06.07.09.15.17.24.25m-1.02 2v.24c0 .06.02.09.08.09h1.97c.05 0 .08-.03.08-.09v-.24a.1.1 0 00-.1-.1h-1.92a.1.1 0 00-.1.1m.93-.35h.27l.05-.05c0-.01.01-1.14.02-1.29 0-.01 0-.04-.02-.05 0 0-.02-.01-.03-.01h-.3c-.01 0-.02 0-.03.01-.02.02-.02.04-.02.05 0 .15.02 1.28.02 1.29 0 0 0 .05.05.05m1.31-1.2c-.07-.03-.14-.05-.21-.07-.09-.03-.17-.05-.24-.06s-.03 0-.04 0c-.07 0-.11.05-.12.08-.08.17-.13.33-.19.53v.04s.02.01.03.01h.21s.04-.01.05-.03c.03-.12.06-.19.1-.29 0-.01.02-.02.04-.02h.02l.11.04s.06.07.04.11c0 0-.22.61-.28.81v.05s.02.02.04.02h.26s.05-.01.06-.04c0-.03.02-.06.04-.11.08-.21.2-.56.23-.66.04-.16.05-.31-.17-.4M15.3 9.9s.03.04.06.04h.26s.03 0 .04-.02v-.05c-.06-.2-.28-.8-.28-.81-.01-.04 0-.09.04-.11l.11-.04h.02c.02 0 .03.01.04.02.04.1.07.17.1.29 0 .02.02.03.05.03h.21s.03 0 .03-.01V9.2c-.05-.2-.11-.35-.19-.53a.127.127 0 00-.12-.08h-.04c-.07.02-.15.04-.24.06-.07.02-.14.04-.21.07-.22.08-.21.24-.17.4.03.1.15.45.23.66.02.04.03.08.04.11"/></g></svg>