<svg xmlns="http://www.w3.org/2000/svg" role="img" viewBox="0 0 38 24" width="38" height="24" aria-labelledby="pi-poste-italiane"><title id="pi-poste-italiane">PosteItaliane</title><style type="text/css">.st4{fill-rule:evenodd;clip-rule:evenodd;fill:#254f9e}</style><g id="layer1_00000148643587365501448870000016268537436849381284_" transform="translate(40.766 -34.512)"><path id="rect4496" fill="#efdc00" d="M-40.77 34.51h38v24h-38z"/><g id="g10" transform="matrix(.28624 0 0 -.28573 -35.053 71.3)"><g id="g12" transform="scale(.1)"><path id="path16" class="st4" d="M375.46 841.36c-.18-11.86 2.92-22.08 15.88-22.08 9.67 0 15.69 4.57 16.97 13.15h32.12c-1.1-11.87-8.59-20.44-17.34-25.55-8.03-5.11-18.26-7.12-29.02-7.12-36.68 0-51.29 15.7-51.29 51.65 0 29.02 21.72 45.45 49.28 45.45 37.24 0 49.1-21.36 49.1-55.49l-65.7-.01zm32.85 18.62c0 4.93-1.47 9.86-4.2 13.69-2.74 3.83-6.75 6.21-12.05 5.84-12.05-.54-14.96-9.12-15.88-19.52h32.13"/><path id="path18" class="st4" d="M-59.48 802.49v131.78h60.6c32.3 0 53.48-10.41 53.48-42.34 0-31.94-21.18-42.35-53.48-42.35h-24.09v-47.09h-36.51zm55.31 72.64c14.42.55 20.44 7.12 20.44 16.8 0 9.67-6.02 16.24-20.44 16.79h-18.8v-33.58h18.8"/><path id="path20" class="st4" d="M162.42 848.3c0-33.76-24.64-48.55-53.3-48.55-28.65 0-53.29 14.79-53.29 48.55 0 33.77 24.64 48.55 53.29 48.55 28.66 0 53.3-14.78 53.3-48.55zm-53.3-28.47c14.61 0 17.71 15.51 17.71 28.47 0 12.96-3.1 28.47-17.71 28.47-14.6 0-17.7-15.52-17.7-28.47 0-12.96 3.1-28.47 17.7-28.47"/><path id="path22" class="st4" d="M222.84 865.83c0 3.1-.55 5.84-2.19 7.66-1.83 2.01-4.74 3.29-9.49 3.29-5.11 0-8.21-2.92-8.21-8.21 0-6.75 14.05-6.39 35.77-13.14 10.95-3.46 18.43-10.22 18.43-25.19 0-24.28-22.82-30.48-43.81-30.48-22.45 0-44.35 4.56-44.17 32.49h32.85c-.55-2.74.37-5.84 2.37-8.21 2.01-2.37 4.93-4.2 8.21-4.2 6.76 0 11.68 2.55 11.68 8.39 0 16.25-54.21 6.57-54.21 39.79 0 22.63 24.09 28.84 42.34 28.84 21.72 0 41.8-5.66 43.26-31.02l-32.83-.01"/><path id="path24" class="st4" d="M279.99 894.11v13.87l34.67 13.14v-27.01h20.08v-21.9h-20.08v-36.32c0-2.37-1.45-14.24 6.58-14.24 4.56 0 9.31 0 13.32.54v-20.62c-7.85-1.47-13.51-1.83-18.63-1.83-23.54 0-37.78 3.28-35.95 31.39v41.07h-17.89v21.9h17.9"/><path id="path26" class="st4" d="M456.14 895.04h17.39v-91.91h-17.39v91.91zm-1.65 40.28h20.69v-18.86h-20.69v18.86"/><path id="path28" class="st4" d="M501.43 895.04v19.59l17.38 5.49v-25.08l21.25.55v-13l-21.25.19v-59.33c0-6.58 5.14-9.7 11.36-9.7 2.75 0 6.41.36 9.16 1.09v-13.36c-4.03-.18-7.88-1.1-11.91-1.1-4.21 0-7.5.19-11.72.92-2.74.54-7.32 2.02-10.25 6.04-3.11 4.39-4.02 4.76-4.02 17.03v58.42l-15.75-.19v13l15.75-.56"/><path id="path30" class="st4" d="M608.35 859.88c0 15.94-.91 25.28-19.41 25.28-8.78 0-17.03-5.14-17.2-14.65h-18.31c.91 20.14 16.66 27.29 34.78 27.29 18.86 0 37.54-5.68 37.54-31.31v-43.95c0-4.02.19-11.72.73-19.41h-11.72c-1.66 0-4.77-.91-4.95 1.28-.36 4.21-.73 8.23-.92 12.45h-.37c-5.67-11.54-15.92-16.49-28.56-16.49-15.93 0-32.04 8.25-32.04 26.18 0 25.82 22.9 33.33 44.68 33.33h15.75zm-17.38-12.09c-10.63-.55-24.73-4.39-24.73-17.76 0-11.35 7.87-17.03 18.12-17.03 20.51 0 24.36 17.76 23.99 34.79h-17.38"/><path id="path32" class="st4" d="M643.05 935.32h17.38v-132.2h-17.38v132.2"/><path id="path34" class="st4" d="M682.06 895.04h17.4v-91.91h-17.4v91.91zm-1.64 40.28h20.69v-18.86h-20.69v18.86"/><path id="path36" class="st4" d="M775.58 859.88c0 15.94-.91 25.28-19.41 25.28-8.79 0-17.03-5.14-17.2-14.65h-18.32c.92 20.14 16.67 27.29 34.79 27.29 18.86 0 37.54-5.68 37.54-31.31v-43.95c0-4.02.18-11.72.73-19.41h-11.72c-1.65 0-4.76-.91-4.95 1.28-.36 4.21-.73 8.23-.91 12.45h-.37c-5.67-11.54-15.92-16.49-28.56-16.49-15.92 0-32.04 8.25-32.04 26.18 0 25.82 22.88 33.33 44.68 33.33h15.74zm-17.4-12.09c-10.62-.55-24.72-4.39-24.72-17.76 0-11.35 7.87-17.03 18.13-17.03 20.51 0 24.35 17.76 23.99 34.79h-17.4"/><path id="path38" class="st4" d="M828 881.48h.36c5.86 11.53 18.68 16.3 27.83 16.3 6.41 0 34.79-1.65 34.79-31.13v-63.53h-17.4v57.85c0 15.2-6.41 23.44-21.05 23.44-.01 0-9.53.55-16.85-6.78-2.56-2.56-7.32-6.6-7.32-24.53v-49.98h-17.39v91.91H828v-13.55"/><path id="path40" class="st4" d="M923.05 845.78c-1.29-16.11 5.31-32.77 23.07-32.77 13.55 0 20.33 5.31 22.34 18.68h18.31c-2.74-20.87-18.86-31.32-40.83-31.32-29.48 0-41.19 20.87-41.19 47.97 0 26.92 13.55 49.45 42.66 49.45 27.47-.55 40.47-17.95 40.47-43.4v-8.61h-64.83zm46.51 12.08c.37 15.38-6.59 27.29-23.44 27.29-14.46 0-23.07-12.27-23.07-27.29h46.51"/></g></g></g></svg>