<svg xmlns="http://www.w3.org/2000/svg" width="38" height="24" aria-labelledby="pi-posten"><title id="pi-posten">Posten</title><path d="M35 0H3C1.3 0 0 1.3 0 3v18c0 1.7 1.4 3 3 3h32c1.7 0 3-1.3 3-3V3c0-1.7-1.4-3-3-3z" fill="#010101" isolation="isolate" opacity=".07"/><path d="M35 1c1.1 0 2 .9 2 2v18c0 1.1-.9 2-2 2H3c-1.1 0-2-.9-2-2V3c0-1.1.9-2 2-2h32" fill="#fff"/><path id="path32" d="M22.35 13.26c-.39-.02-.65-.02-.63-.46 0-.26.07-.44.85-.41.53.02.69.13.69.5h.83c0-.93-.56-1.21-1.53-1.23-1.04-.02-1.72.2-1.74 1.16-.02 1.2.87 1.16 1.74 1.21.45.02.72.03.7.49 0 .28-.1.45-.87.43-.64-.02-.75-.18-.75-.51h-.83c0 .96.61 1.21 1.59 1.23 1.04.02 1.74-.23 1.76-1.19.02-1.24-.91-1.17-1.8-1.23m3.81 1.68c-.44 0-.49-.23-.49-.53v-1.91h1.77v-.78h-1.77v-1.26h-.9v1.26h-.52v.78h.52v1.91c0 .87.52 1.26 1.42 1.26.77 0 1.26-.29 1.26-1.23h-.82c0 .25-.07.5-.47.49m7.33-3.29c-.55 0-.9.18-1.12.37v-.3h-.78v3.88h.9v-1.81c0-.68-.07-1.35.9-1.35.78 0 .71.36.71 1.11v2.05h.9v-2.12c0-.85.06-1.83-1.51-1.83m-4.93 1.62c0-.52.08-.88.87-.88.84 0 .88.32.88.88h-1.75zm.87-1.62c-1.56 0-1.79.89-1.79 2.06s.25 1.96 1.81 1.96c.73 0 1.71-.18 1.71-1.23h-.87c0 .44-.48.49-.8.49-.77 0-.94-.26-.94-.93h2.66c0-1.36-.08-2.35-1.78-2.35M18.7 14.85c-.87 0-.95-.33-.95-1.21s.08-1.21.95-1.21.95.33.95 1.21-.08 1.21-.95 1.21m0-3.22c-.63 0-1.1.11-1.44.44-.34.33-.41.83-.41 1.57s.07 1.24.41 1.57c.33.33.81.44 1.44.44s1.1-.11 1.44-.44c.34-.33.41-.83.41-1.57s-.07-1.24-.41-1.57c-.34-.33-.81-.44-1.44-.44m-3.89 3.22c-.77 0-.99-.23-.99-1.2s.22-1.22.99-1.22c.67 0 .81.31.81 1.22s-.14 1.2-.81 1.2m.14-3.22c-.41 0-.89.09-1.21.37v-.3h-.81v5.14h.9V15.3c.26.28.6.34 1.02.34 1.51 0 1.67-1.06 1.67-2 0-1.24-.18-2-1.57-2.02" fill="#e32d22" stroke-width="0"/><path id="path36" d="M11.46 11.72c-.09 1.14-1.04 2.03-2.2 2.03s-2.11-.89-2.2-2.03H3c.09 2.36 2.03 4.24 4.41 4.24s4.32-1.88 4.41-4.24h-.36z" fill="#e32d22" stroke-width="0"/><path id="path40" d="M7.06 11.37c.09-1.14 1.04-2.03 2.2-2.03s2.11.89 2.2 2.03h.36c-.09-2.36-2.03-4.24-4.41-4.24S3.09 9.01 3 11.37h4.06z" fill="#bcbdbf" stroke-width="0"/></svg>