<svg xmlns="http://www.w3.org/2000/svg" width="38" height="24" aria-labelledby="pi-posteitaliane"><title id="pi-posteitaliane">Poste Italiane</title><path d="M35 0H3C1.3 0 0 1.3 0 3v18c0 1.7 1.4 3 3 3h32c1.7 0 3-1.3 3-3V3c0-1.7-1.4-3-3-3z" style="isolation:isolate" fill="#010101" opacity=".07"/><path d="M35 1c1.1 0 2 .9 2 2v18c0 1.1-.9 2-2 2H3c-1.1 0-2-.9-2-2V3c0-1.1.9-2 2-2h32" fill="#efdc00"/><g id="g10"><g id="g12" fill="#254f9e" fill-rule="evenodd" stroke-width="0"><path id="path16" d="M16.41 12.76c0 .35.09.64.46.64.28 0 .46-.13.5-.38h.94c-.03.35-.25.6-.51.75-.23.15-.53.21-.85.21-1.07 0-1.5-.46-1.5-1.51 0-.85.63-1.33 1.44-1.33 1.09 0 1.43.62 1.43 1.62H16.4zm.96-.54c0-.14-.04-.29-.12-.4a.39.39 0 00-.35-.17c-.35.02-.44.27-.46.57h.94"/><path id="path18" d="M3.7 13.9v-3.84h1.77c.94 0 1.56.3 1.56 1.24s-.62 1.24-1.56 1.24h-.7v1.37H3.7zm1.61-2.12c.42-.02.6-.21.6-.49s-.18-.47-.6-.49h-.55v.98h.55"/><path id="path20" d="M10.18 12.56c0 .98-.72 1.42-1.56 1.42s-1.56-.43-1.56-1.42.72-1.42 1.56-1.42 1.56.43 1.56 1.42zm-1.56.83c.43 0 .52-.45.52-.83s-.09-.83-.52-.83-.52.45-.52.83.09.83.52.83"/><path id="path22" d="M11.95 12.05a.36.36 0 00-.06-.22c-.05-.06-.14-.1-.28-.1-.15 0-.24.09-.24.24 0 .2.41.19 1.05.38.32.1.54.3.54.73 0 .71-.67.89-1.28.89-.66 0-1.3-.13-1.29-.95h.96c-.02.08.01.17.07.24.06.07.14.12.24.12.2 0 .34-.07.34-.24 0-.47-1.58-.19-1.58-1.16 0-.66.7-.84 1.24-.84.63 0 1.22.16 1.26.91h-.96"/><path id="path24" d="M13.62 11.22v-.4l1.01-.38v.79h.59v.64h-.59v1.06c0 .07-.04.42.19.42.13 0 .27 0 .39-.02v.6c-.23.04-.39.05-.54.05-.69 0-1.1-.1-1.05-.92v-1.2h-.52v-.64h.52"/><path id="path26" d="M18.76 11.2h.51v2.68h-.51V11.2zm-.04-1.18h.6v.55h-.6v-.55"/><path id="path28" d="M20.09 11.2v-.57l.51-.16v.73l.62-.02v.38h-.62v1.73c0 .19.15.28.33.28.08 0 .19-.01.27-.03v.39c-.12 0-.23.03-.35.03s-.22 0-.34-.03a.513.513 0 01-.3-.18c-.09-.13-.12-.14-.12-.5v-1.7h-.46v-.37l.46.02"/><path id="path30" d="M23.21 12.22c0-.46-.03-.74-.57-.74-.26 0-.5.15-.5.43h-.54c.03-.59.49-.8 1.02-.8s1.1.17 1.1.91v1.28c0 .12 0 .34.02.57h-.34s-.14.03-.14-.04l-.03-.36h-.01c-.17.34-.47.48-.83.48-.47 0-.94-.24-.94-.76 0-.75.67-.97 1.31-.97h.46zm-.51.36c-.31.02-.72.13-.72.52 0 .33.23.5.53.5.6 0 .71-.52.7-1.01h-.51"/><path id="path32" d="M24.23 10.02h.51v3.86h-.51v-3.86"/><path id="path34" d="M25.37 11.2h.51v2.68h-.51V11.2zm-.05-1.18h.6v.55h-.6v-.55"/><path id="path36" d="M28.1 12.22c0-.46-.03-.74-.57-.74-.26 0-.5.15-.5.43h-.54c.03-.59.49-.8 1.02-.8s1.1.17 1.1.91v1.28c0 .12 0 .34.02.57h-.34s-.14.03-.14-.04l-.03-.36h-.01c-.17.34-.47.48-.83.48-.47 0-.94-.24-.94-.76 0-.75.67-.97 1.31-.97h.46zm-.51.36c-.31.02-.72.13-.72.52 0 .33.23.5.53.5.6 0 .71-.52.7-1.01h-.51"/><path id="path38" d="M29.63 11.59h.01c.17-.34.55-.48.81-.48.19 0 1.02.05 1.02.91v1.85h-.51v-1.69c0-.44-.19-.68-.62-.68 0 0-.28-.02-.49.2-.07.07-.21.19-.21.72v1.46h-.51V11.2h.5v.4"/><path id="path40" d="M32.41 12.63c-.04.47.16.96.67.96.4 0 .59-.15.65-.54h.54c-.08.61-.55.91-1.19.91-.86 0-1.2-.61-1.2-1.4s.4-1.44 1.25-1.44c.8.02 1.18.52 1.18 1.27v.25h-1.89zm1.36-.35c.01-.45-.19-.8-.69-.8-.42 0-.67.36-.67.8h1.36"/></g></g></svg>