<svg xmlns="http://www.w3.org/2000/svg" width="38" height="24" aria-labelledby="pi-postnord"><title id="pi-postnord">Postnord</title><path d="M35 0H3C1.3 0 0 1.3 0 3v18c0 1.7 1.4 3 3 3h32c1.7 0 3-1.3 3-3V3c0-1.7-1.4-3-3-3z" fill="#010101" isolation="isolate" opacity=".07"/><path d="M35 1c1.1 0 2 .9 2 2v18c0 1.1-.9 2-2 2H3c-1.1 0-2-.9-2-2V3c0-1.1.9-2 2-2h32" fill="#fff"/><path d="M3 10.16h1.31c.07 0 .09.03.09.09v.23h.04c.92-.82 2.32-.49 2.76.66.31.82.25 1.62-.34 2.31-.63.73-1.82.77-2.41.29 0 0-.02 0-.05-.02v1.3H3.14c-.09 0-.13-.01-.13-.12v-4.74zm1.36 1.87c0 .45.31.78.76.79.43 0 .76-.31.77-.73 0-.49-.29-.82-.74-.83-.46 0-.78.31-.78.77zM35 13.95c-.39-.03-.78 0-1.17-.01h-.12c-.09.01-.11-.03-.1-.11v-.24c-.08.07-.14.12-.21.18-.65.48-1.69.36-2.24-.24-.69-.75-.69-2.13 0-2.89.62-.69 1.8-.78 2.41-.29 0 0 .02 0 .05.02v-.99c0-.1.04-.13.12-.14.37-.07.74-.14 1.11-.22.02 0 .04 0 .06-.03.09-.02.11.02.11.11v4.85zm-2.88-1.91c0 .46.31.79.75.79.45 0 .77-.32.77-.78 0-.45-.31-.77-.77-.77-.45 0-.75.31-.76.77zM25.3 10.03c.42 0 .78.07 1.12.21.8.34 1.22 1.07 1.15 1.94-.08 1.04-.79 1.64-1.72 1.82-.55.1-1.1.06-1.62-.16-.82-.35-1.19-1.05-1.14-1.89.06-1.2.94-1.76 1.87-1.89.13-.02.26-.02.34-.03zm-.74 2.02c0 .45.33.78.77.78.45 0 .76-.32.76-.77 0-.47-.31-.79-.77-.79-.45 0-.76.32-.76.78zM9.86 10.03c.58.01 1.13.15 1.58.53.38.32.58.74.62 1.23.05.56-.05 1.08-.43 1.52-.32.38-.74.58-1.22.68-.57.12-1.12.08-1.66-.14-.89-.36-1.24-1.15-1.16-2.02.1-.98.79-1.56 1.69-1.74.19-.04.38-.06.57-.06zm-.02 1.23c-.45 0-.77.31-.78.78 0 .44.33.78.77.78s.76-.32.77-.77c0-.45-.31-.79-.76-.79zM20.29 10.46c.46-.45 1-.52 1.58-.36.52.14.77.53.87 1.04.03.14.03.27.03.41v2.25c0 .1-.02.14-.13.14h-1.15c-.1 0-.14-.03-.14-.13v-1.88c0-.06 0-.12-.02-.18-.06-.34-.2-.45-.52-.44-.31.01-.5.18-.53.49-.03.35 0 .7-.01 1.05v.97c0 .09-.03.12-.12.12h-1.17c-.09 0-.11-.02-.11-.11v-3.56c0-.1.03-.11.12-.11h1.15c.11 0 .15.03.14.14 0 .05-.01.1.02.17z" fill="#00a0d6" fill-rule="evenodd"/><path d="M14.24 10.03c.46.02.89.05 1.3.15.09.02.1.05.08.13-.07.28-.14.56-.2.84-.02.11-.06.11-.15.08-.43-.13-.87-.21-1.33-.15-.03 0-.07.02-.1.03-.08.02-.15.07-.15.17s.08.14.16.16c.3.07.61.08.9.16.16.04.32.09.46.16.41.2.6.52.58.97-.02.54-.29.89-.77 1.09-.39.17-.8.21-1.21.22-.52.01-1.03-.06-1.53-.2-.08-.02-.1-.05-.08-.14.08-.29.16-.59.23-.89.02-.1.06-.1.14-.07.46.18.93.28 1.43.24.07 0 .13-.02.19-.04.07-.03.12-.08.12-.16s-.05-.13-.12-.16c-.15-.06-.32-.07-.48-.09-.28-.04-.56-.09-.83-.19-.77-.31-.93-1.29-.3-1.84.35-.3.77-.4 1.2-.44.15-.02.31-.02.43-.03zM16.07 11.62V9.43c0-.1.03-.13.13-.12h1.16c.11 0 .12.03.12.13v.61c0 .09.03.11.12.11h1.05c.09 0 .12.01.07.11-.18.33-.36.66-.54 1-.03.06-.07.08-.14.08h-.44c-.1 0-.13.03-.13.13v2.31q0 .17-.17.17h-1.09c-.11 0-.14-.02-.14-.14v-2.19zM29.3 10.56c.32-.43.74-.49 1.2-.45.08 0 .12.04.12.13l-.03 1.08c0 .09-.03.11-.11.09-.16-.04-.32-.05-.49-.04-.46.04-.69.28-.69.74v1.68c0 .11-.02.15-.14.15h-1.13c-.09 0-.12-.01-.12-.11v-3.56c0-.09.02-.11.11-.11h1.19c.08 0 .11.03.1.11v.3z" fill="#00a0d6" fill-rule="evenodd"/></svg>