<svg xmlns="http://www.w3.org/2000/svg" width="38" height="24" aria-labelledby="pi-royalmail"><title id="pi-royalmail">Royal Mail</title><path d="M35 0H3C1.3 0 0 1.3 0 3v18c0 1.7 1.4 3 3 3h32c1.7 0 3-1.3 3-3V3c0-1.7-1.4-3-3-3z" fill="#010101" isolation="isolate" opacity=".07"/><path d="M35 1c1.1 0 2 .9 2 2v18c0 1.1-.9 2-2 2H3c-1.1 0-2-.9-2-2V3c0-1.1.9-2 2-2h32" fill="#fff"/><g id="g2826" stroke-width="0"><path d="M12.144 13.649a.727.727 0 00-.531.21.76.76 0 00-.224.531c.003.198.08.386.224.532a.73.73 0 00.531.21.74.74 0 00.517-1.273.714.714 0 00-.517-.21z" fill="#ee2722"/><path d="M12.144 13.342c-.584 0-1.054.47-1.049 1.049a.992.992 0 00.308.74c.19.198.455.307.741.308.274-.001.537-.11.74-.308.193-.197.302-.461.308-.74a1.09 1.09 0 00-.308-.742 1.059 1.059 0 00-.74-.307zm0 2.013a.958.958 0 01-.964-.964.927.927 0 01.28-.686.951.951 0 01.684-.279c.252 0 .494.099.67.28a.989.989 0 01.295.685.975.975 0 01-.965.964zM25.55 14.418a.715.715 0 00.209.503.688.688 0 00.502.21c.4.004.722-.317.728-.713v-.713h-.727a.72.72 0 00-.713.713zM28.205 12.559c-.05.001-.088.04-.085.084-.003.052.034.09.085.084.046.005.084-.033.083-.084 0-.044-.037-.082-.083-.084zM16.827 13.916a.706.706 0 000 1.006.683.683 0 00.502.21.703.703 0 00.714-.714v-.713h-.713a.7.7 0 00-.503.21z" fill="#ee2722"/><path d="M23.171 11.38V3.99h-8.343v7.388H7.023v5.896h7.805v2.734h8.343v-2.734h7.806v-5.896h-7.806zm.589 1.04h.237l-.826 1.786-.2.433-.092.199-1.118-2.418h.251l.867 1.901.092-.198.2-.432.589-1.272zm-8.73-8.228h7.94v7.187h-7.94V4.192zm6.633 8.227l-.573 3.173h-.223l.572-3.173h.224zm-2.153 0v3.173h-.222V12.42h.222zm-.307 0v3.173h-.21V12.42h.21zm-1.873.978a1.035 1.035 0 00-1.02 1.022c.006.273.11.528.306.726.19.188.445.293.713.294.277-.001.532-.107.728-.294a1.09 1.09 0 00.209-.322v.769h-.223v-.167a1.219 1.219 0 01-.713.238 1.258 1.258 0 01-.867-.364 1.22 1.22 0 01-.363-.88 1.225 1.225 0 011.23-1.231h1.245v2.404h-.224v-2.195H17.33zm.936.084v.937a.934.934 0 01-.936.937.914.914 0 01-.657-.28.939.939 0 01-.28-.657.952.952 0 01.936-.937h.937zm-4.29-.28h.223v1.217a.5.5 0 00.153.363.52.52 0 00.364.155c.04 0 .075-.017.112-.027a.554.554 0 00.405-.534v-1.173h.224v1.174a.788.788 0 01-.427.697.718.718 0 01-.202.06c-.038.008-.073.026-.112.026a.76.76 0 01-.517-.223.731.731 0 01-.224-.518v-1.216zm-3.747 2.39l-1.118-1.579h.587c.327 0 .505-.327.503-.56a.53.53 0 00-.154-.376.482.482 0 00-.35-.141h-.6v2.657h-.21v-2.88h.81c.194.005.37.076.504.21.139.138.22.335.224.531-.004.324-.257.779-.727.783H9.53l.965 1.355h-.266zm.363.001l-.894-1.27a.794.794 0 00.545-.24.948.948 0 00.265-.629.834.834 0 00-.251-.586.78.78 0 00-.56-.239h-.894v2.964H8.58v-3.173h1.118a.947.947 0 01.713.293.99.99 0 01.307.741 1.101 1.101 0 01-.642 1.007l.796 1.132h-.28zm2.447-.307c-.245.24-.563.372-.895.377a1.313 1.313 0 01-.91-.377 1.274 1.274 0 01.91-2.166c.332.004.65.136.895.377.234.237.366.555.363.895.003.337-.13.656-.363.894zm.643-2.083h.21v1.216a.837.837 0 00.237.573.86.86 0 00.587.251c.039 0 .074-.018.112-.025.069-.011.138-.02.202-.048a.872.872 0 00.427-.415v.657a.734.734 0 01-.428.664.75.75 0 01-.2.053c-.04.006-.073.023-.113.023a.718.718 0 01-.518-.224.658.658 0 01-.195-.335h.223c.03.07.07.131.126.182a.486.486 0 00.364.153c.04 0 .075-.014.112-.022a.5.5 0 00.201-.091.496.496 0 00.204-.404v-.097a1.039 1.039 0 01-.405.125c-.038.004-.074.015-.112.015a1.027 1.027 0 01-.74-.308.995.995 0 01-.294-.727v-1.216zm1.034 3.243a1.043 1.043 0 01-.74-.293 1.07 1.07 0 01-.28-.56h.223c.03.15.105.288.21.406a.877.877 0 00.587.237c.04 0 .074-.017.112-.022.069-.01.139-.015.202-.04.1-.041.193-.1.273-.175a.849.849 0 00.238-.587V13.2h.223v2.21a1.085 1.085 0 01-.307.741 1.036 1.036 0 01-.629.285c-.037.003-.074.01-.112.009zm8.255 3.363H15.03v-2.533h7.94v2.533zm1.39-4.216l-.42-2.334-.77 1.662-.2.432-.092.198-1.062-2.293-.42 2.334h-.223l.545-3.061 1.16 2.503.092-.197.2-.433.868-1.873.545 3.062h-.223zm.306 0l-.559-3.173h.225l.559 3.173h-.225zm2.838 0h-.223v-2.195h-1.02a1.015 1.015 0 00-1.007 1.021.99.99 0 00.294.727c.19.187.446.293.712.294.277-.001.532-.107.727-.294.09-.098.162-.204.21-.322v.769h-.21v-.168a1.292 1.292 0 01-.727.239 1.259 1.259 0 01-.866-.364 1.225 1.225 0 01-.363-.88 1.226 1.226 0 011.23-1.231h1.243v2.404zm-.308-2.11v.936a.932.932 0 01-.936.936.915.915 0 01-.656-.28.877.877 0 01-.266-.656.888.888 0 01.266-.657.944.944 0 01.656-.28h.936zm.966 2.11h-.224v-2.404h.224v2.404zm.294 0h-.21v-2.404h.21v2.404zm-.252-2.67a.269.269 0 01-.28-.28.277.277 0 01.28-.278.281.281 0 01.279.279.273.273 0 01-.279.279zm.95 2.67h-.225v-3.173h.225v3.173zm.293 0h-.21v-3.173h.21v3.173z" fill="#ee2722"/><path d="M28.205 12.364a.277.277 0 00-.28.279.269.269 0 00.28.279.273.273 0 00.279-.28.281.281 0 00-.279-.278zm0 .363c-.05.005-.088-.033-.085-.084-.003-.044.035-.083.085-.084.046.002.084.04.083.084 0 .051-.037.09-.083.084zM12.144 13.118a1.274 1.274 0 00-.909 2.166c.246.241.563.373.91.378.331-.005.65-.137.894-.378.234-.237.366-.556.363-.894a1.253 1.253 0 00-.363-.894 1.296 1.296 0 00-.895-.378zm.74 2.013a1.063 1.063 0 01-.74.308 1.025 1.025 0 01-.74-.308.993.993 0 01-.308-.74 1.042 1.042 0 011.048-1.049c.274 0 .537.11.74.307.193.198.302.461.308.742-.006.279-.115.543-.308.74z" fill="#fddd1c"/><path d="M12.144 13.426a.951.951 0 00-.684.28.928.928 0 00-.28.684.958.958 0 00.965.964.975.975 0 00.964-.963.988.988 0 00-.294-.686.937.937 0 00-.67-.279zm0 1.705a.73.73 0 01-.531-.21.769.769 0 01-.224-.53c.003-.201.08-.387.224-.532a.727.727 0 01.531-.21.714.714 0 01.517.21.74.74 0 01-.517 1.272zM15.457 16.152c.195-.203.303-.464.307-.742v-2.208h-.223v2.209a.848.848 0 01-.238.587.873.873 0 01-.273.174c-.063.025-.133.03-.202.04-.038.006-.073.022-.112.023a.878.878 0 01-.587-.237.868.868 0 01-.21-.406h-.223c.033.208.131.4.28.56.201.19.463.3.74.293.038.001.075-.005.112-.009a1.035 1.035 0 00.628-.285z" fill="#fddd1c"/><path d="M14.716 15.453c.039 0 .075-.01.112-.015a.98.98 0 00.405-.125v.097a.496.496 0 01-.203.404.502.502 0 01-.202.091c-.037.009-.072.023-.112.022a.486.486 0 01-.364-.153.528.528 0 01-.126-.182h-.223c.031.128.096.245.196.335a.718.718 0 00.517.225c.04 0 .074-.018.112-.024a.75.75 0 00.202-.053.734.734 0 00.427-.664v-.657a.918.918 0 01-.168.237.877.877 0 01-.26.178c-.063.029-.132.037-.2.048-.039.007-.074.024-.113.025a.86.86 0 01-.587-.25.837.837 0 01-.237-.574v-1.216h-.21v1.216a.995.995 0 00.294.727c.202.201.463.31.74.308z" fill="#fddd1c"/><path d="M14.716 15.16c.04-.001.074-.02.112-.027a.718.718 0 00.202-.06.788.788 0 00.427-.697v-1.174h-.224v1.174a.555.555 0 01-.405.533c-.037.01-.073.026-.112.026a.52.52 0 01-.363-.154.5.5 0 01-.154-.363v-1.216h-.223v1.216c.002.192.079.378.223.517a.76.76 0 00.517.224zM19.288 12.419h.223v3.173h-.223zM18.993 12.419h.21v3.173h-.21zM28.247 13.188h.21v2.404h-.21zM27.939 13.188h.224v2.404h-.224zM29.239 12.419h.21v3.173h-.21zM28.931 12.419h.225v3.173h-.225zM16.673 13.761a.952.952 0 00-.28.657c.007.25.103.486.28.657.177.181.41.28.657.28.519 0 .938-.42.936-.937v-.937h-.936a.942.942 0 00-.657.28zm1.37.657a.703.703 0 01-.713.713.683.683 0 01-.503-.21.706.706 0 010-1.005.7.7 0 01.502-.211h.714v.713z" fill="#fddd1c"/><path d="M18.575 15.592v-2.404H17.33a1.224 1.224 0 00-1.23 1.23 1.22 1.22 0 00.363.881c.229.23.54.357.866.363a1.22 1.22 0 00.714-.238v.168h.223v-.77c-.048.119-.12.225-.21.323a1.05 1.05 0 01-.727.294c-.268-.001-.523-.107-.713-.294a1.056 1.056 0 01-.307-.727 1.035 1.035 0 011.02-1.021h1.021v2.194h.224zM25.605 13.761a.888.888 0 00-.266.657c-.007.25.09.486.266.657.177.18.412.28.657.28.519 0 .939-.42.936-.937v-.937h-.936a.944.944 0 00-.657.28zm1.384-.056v.713a.721.721 0 01-.728.713.716.716 0 01-.712-.713.72.72 0 01.713-.713h.727z" fill="#fddd1c"/><path d="M25.032 14.418c-.002.332.126.642.363.881.23.23.541.357.866.364.266-.007.513-.086.727-.239v.168h.21v-.77a1.053 1.053 0 01-.21.323c-.194.187-.45.293-.727.294-.266-.001-.522-.107-.712-.294a.99.99 0 01-.294-.727 1.015 1.015 0 011.006-1.021h1.021v2.194h.223v-2.403h-1.244a1.226 1.226 0 00-1.229 1.23zM10.397 14.236c.203-.201.328-.498.321-.783a.99.99 0 00-.307-.74.947.947 0 00-.713-.294H8.58v3.173h.223v-2.964h.895a.781.781 0 01.559.239c.157.15.248.368.25.586a.948.948 0 01-.264.63.794.794 0 01-.545.238l.894 1.271h.28l-.796-1.132c.112-.05.22-.122.32-.224z" fill="#fddd1c"/><path d="M9.698 14.236c.47-.004.724-.459.727-.783a.781.781 0 00-.224-.532.722.722 0 00-.503-.209h-.811v2.88h.21v-2.658h.601c.136 0 .256.05.35.142a.53.53 0 01.153.376c.002.233-.175.56-.503.56h-.587l1.119 1.58h.265l-.965-1.356h.168zM24.108 12.42l.56 3.172h.224l-.56-3.173h-.224zM22.88 14.321l-.868-1.901h-.251l1.118 2.418.092-.199.2-.433.826-1.787h-.237l-.589 1.272-.2.432-.092.198zM21.09 15.592l.573-3.173h-.224l-.572 3.173h.223z" fill="#fddd1c"/><path fill="#fddd1c" d="M23.171 14.403l-.2.432-.092.198-1.16-2.503-.545 3.061h.224l.42-2.334 1.061 2.293.092-.198.2-.432.77-1.662.42 2.334h.223l-.545-3.062-.868 1.873z"/><g><path d="M19.968 8.695l-.048.086c-.013.018-.026.037-.04.054l.04-.054.048-.086zM18.246 9.685l-.006.005-.006.003.006-.003.006-.005zM18.26 9.678c-.006 0-.01 0-.012.006l-.002.002.002-.002.011-.006zM20.012 8.525c-.02-.062-.066-.088-.128-.09.062.002.108.028.128.09l.02.004-.02-.004zM18.933 6.546l-.004-.005.004.005zM17.324 8.434c0 .008 0 .016.007.023.01.026.033.04.05.06-.017-.02-.04-.034-.05-.06-.001-.008.001-.018-.007-.023zM16.221 7.446c.001-.05-.044-.1-.092-.1-.043-.002-.095.047-.096.089 0 .058.038.102.09.103a.097.097 0 00.098-.092zM16.032 6.867l-.016.012-.011.008-.014.03c-.018.04-.01.082.023.116.029.03.08.043.114.025.037-.02.065-.05.066-.097 0-.074-.069-.121-.15-.1l-.005-.006.005.005-.012.007zM17.685 9.65l-.006-.005v-.001.001l.006.006zM18.849 8.56l-.008-.004c-.015-.008-.03-.008-.047-.01.016.002.032.002.047.01l.008.004zM19.17 6.934l-.046.001h.046zM19.691 9.629c-.015-.045-.005-.08.03-.11-.035.03-.045.065-.03.11l.01.01-.01-.01zM17.618 8.89c.026-.024.047-.053.07-.08l.026-.054c-.01.018-.018.036-.026.054-.023.027-.044.056-.07.08zM16.154 7.846c-.02.042-.01.086.025.12.03.03.07.04.103.026.046-.022.076-.067.072-.11-.006-.066-.066-.104-.143-.092l-.013.006-.008.005-.012.009-.005-.006a.314.314 0 00.005.005c-.008.012-.017.024-.024.037zM19.358 6.776l-.151.001.15-.001zM18.876 8.594l-.007-.013c0 .005 0 .01.007.013zM19.573 6.374c.032.012.067.016.095-.008.031-.026.058-.056.045-.103-.017-.066-.066-.097-.139-.085l-.012.007-.02.013c-.004.007-.007.014-.017.014v.002c-.003.026-.018.05-.014.077.005.04.026.07.063.083zM18.236 6.203l-.015.03c-.032.046-.005.1.022.123.038.032.075.043.125.011a.1.1 0 00.02-.157c-.042-.042-.087-.045-.137-.019l-.005-.005a.266.266 0 01.005.005l-.015.012zM20.297 8.518l.005.005-.005-.005zM18.782 6.545l.008.125-.008-.125zM20.92 5.83l-.02.014-.007.005c-.035.08-.033.105.012.15.04.04.1.04.142-.002a.104.104 0 000-.143c-.032-.035-.071-.04-.115-.03a.184.184 0 00-.004-.006l.004.005-.012.007zM17.336 5.87c-.019.054-.018.103.032.143.034.028.077.034.114.011.042-.024.066-.07.057-.11-.017-.074-.073-.105-.15-.083a.327.327 0 00-.009.004l-.02.014-.012.008a.182.182 0 00-.006.006l-.006.007zM18.2 8.372c.001.025-.014.025-.03.02.016.005.031.005.03-.02zM21.41 6.22c.05.001.088-.038.088-.091.007-.056-.047-.092-.095-.095-.043-.003-.087.046-.087.092a.09.09 0 00.094.095zM19.898 8.861c-.02.01-.035.027-.05.043.015-.016.03-.033.05-.043l.042-.08-.042.08zM19.74 8.54h-.002.002zM19.288 6.138l.036.003-.036-.003zM16.426 6.065l-.009.01c-.015.08-.002.117.052.15a.104.104 0 00.112-.01c.031-.026.052-.057.042-.101-.019-.077-.07-.106-.15-.083l-.006-.006.005.006-.008.005-.012.008-.008.005-.007.007-.01.009zM21.66 6.398l-.012.007-.008.005-.012.009-.005-.006.005.006a.153.153 0 00-.005.006l-.014.034c-.015.041 0 .078.027.107.025.027.057.042.096.031.051-.014.093-.072.084-.117a.119.119 0 00-.128-.095l-.014.006c-.005.002-.01.004-.013.007zM16.13 6.424a.392.392 0 01-.006.006c-.02.053-.024.103.026.144.033.027.089.032.12.008.049-.038.063-.086.04-.13-.033-.06-.078-.077-.146-.054h-.001l-.012.008-.005-.006.005.005-.007.006-.007.006-.007.007zM17.872 7.566c0-.014-.013-.019-.02-.028l-.006-.006.006.006c0 .014.003.026.02.028zM20.486 9.224c.022 0 .037-.012.04-.032-.003.02-.017.032-.04.032zM18.79 8.05c-.056-.06-.119-.111-.17-.176.014 0 .027-.003.04-.003l-.04.003c.051.065.114.117.17.177zM21.756 6.886c-.036.08-.032.112.017.154a.105.105 0 00.124.006.107.107 0 00.04-.12c-.026-.065-.082-.086-.155-.06l-.005-.005.005.006-.008.005-.012.008-.005-.006a.278.278 0 01.005.006l-.006.006zM18.923 5.8h.152c0 .052.002.104.001.156V5.8h-.153zM21.795 7.337c-.047-.003-.098.053-.101.106-.003.05.052.102.104.101a.1.1 0 00.1-.102c0-.056-.047-.102-.103-.105zM20.695 8.218v-.01.01zM18.824 7.365c-.005.013.007.024.005.038.002-.014-.01-.025-.005-.038z" fill="none"/><path d="M20.654 9.823h-.689l-.497.002H18.3l-.033-.001h-1.195c-.007 0-.013 0-.017-.007l-.046.007c-.17.029-.25.224-.162.37.036.059.091.092.156.113h4c.006-.008.015-.01.025-.014a.213.213 0 00.1-.062.24.24 0 00.044-.26c-.04-.098-.118-.147-.223-.153-.005.006-.011.007-.018.007l-.277-.002zm-.135.24a.524.524 0 01-.146.03c-.027.001-.055.013-.084-.004-.008-.005-.03.008-.045.014-.038.012-.071.016-.11-.006-.023-.013-.056-.008-.084-.001-.047.01-.092.024-.141.006-.027-.01-.06-.002-.09-.002-.26.026-.52.01-.779.012-.26.003-.52.008-.778-.002-.126-.005-.252-.005-.378-.011-.032-.001-.06.026-.093.008-.024-.013-.049-.022-.075-.004-.005.004-.01 0-.015-.004-.012-.007-.064-.008-.078-.012-.048-.01-.102-.01-.138-.051-.016-.02-.009-.049.012-.06a.213.213 0 01.127-.028.13.13 0 00.092-.026c.015-.013.034-.015.045 0 .015.022.033.014.047.007a.198.198 0 01.09-.017h2.183c.029 0 .057.014.082.016.037.002.077.023.116.001.013-.007.026-.015.037.004.001.003.007.004.011.004a.416.416 0 01.197.043c.017.008.036.017.036.04 0 .025-.022.035-.04.043zM16.2 7.203a.195.195 0 00.114-.224.19.19 0 00-.275-.124l.005.005c.081-.02.15.026.15.101 0 .047-.03.076-.066.096-.034.019-.085.005-.114-.024-.033-.034-.041-.076-.023-.116l.014-.03.01-.008.016-.012.012-.007a.099.099 0 00-.004-.005l-.013.006-.016.011-.011.01c-.037.026-.05.068-.066.107v.067c.011.02.013.044.025.064.053.085.151.12.243.083z" fill="#93aab3"/><path d="M21.176 7.828a5.476 5.476 0 00-.15-.504.246.246 0 00-.172-.161 1.213 1.213 0 00-.632-.026.062.062 0 01-.042-.002 1.774 1.774 0 00-.472-.126 2.844 2.844 0 00-.326-.026l-.036.003c-.005.15-.003.3.006.45.006.06.014.12.017.18 0 .035.013.068.007.102.012.037.006.076.015.114.008.002.017-.002.024.005a.093.093 0 01-.03.032c-.06.072-.13.135-.197.202a.284.284 0 00-.045.055c-.003.033.007.06.037.076.03.015.056.006.082-.014.072-.055.144-.107.22-.164v.735c-.018-.01-.031-.028-.045-.044l-.007-.006c-.004-.004-.012-.005-.007-.014-.005.001-.008 0-.006-.006-.006.002-.007-.001-.006-.007 0 0-.001 0 0 0-.01 0-.015-.004-.014-.013-.006.002-.008-.002-.007-.007-.004 0-.006-.002-.006-.006v-.001c-.005 0-.008-.002-.007-.007-.004 0-.006-.002-.006-.006l-.01-.007c-.032-.024-.055-.058-.094-.075-.07-.03-.13-.006-.145.058 0 .004-.004.007-.006.01a.345.345 0 00.067.223c.017.03.043.052.068.076a.38.38 0 00.185.087.462.462 0 00.445-.179l.039-.054.048-.086c-.034-.018-.058-.042-.059-.084a.08.08 0 01.08-.083l.023-.002c-.02-.063-.066-.09-.128-.091-.063-.002-.105.031-.134.085l-.01.02-.001.001-.012.053a.704.704 0 01-.095-.243.367.367 0 01.016-.193c.051-.136.17-.152.28-.098.035.017.06.046.087.072l.009.008c.005-.006.003-.011 0-.017a1.332 1.332 0 01-.031-.197.491.491 0 01.116-.338.728.728 0 01.164-.164c.01-.019.02-.014.029 0a.717.717 0 01.086.154.409.409 0 01.08.19.58.58 0 01-.043.317c-.01.03-.022.058-.033.087l-.003.01c.005.005.006-.002.009-.004l.015-.01a.31.31 0 01.112-.068c.066-.018.12.005.151.067.007.014.02.024.018.041v.01c-.01.021.008.037.009.057l-.002.018c-.001.02.006.038.004.057a.148.148 0 01-.017.065l-.001.006c0 .004-.001.007-.006.007h.001a.396.396 0 01-.157.213c-.02.015-.026.005-.025-.016a.201.201 0 00-.012-.075c-.023-.073-.073-.094-.141-.061a.175.175 0 00-.045.034l-.014.031c.003.009.01.007.015.007.052.002.084.032.084.081 0 .05-.036.084-.087.086l-.02-.002.006.03.034.06c.008.007.016.014.014.026l.08.074a.378.378 0 00.42.06.276.276 0 00.129-.12l.007-.026c.01-.055-.02-.08-.074-.063-.045.015-.08.046-.12.07v-.001c-.005.009-.013.011-.022.01-.025.005-.018-.01-.014-.023l.087-.33.084-.32.009-.024c.008 0 .011.003.01.01.019.001.02.018.025.03l.048.138c.01.027.024.052.046.071.022.02.046.03.076.018.038-.029.038-.067.026-.108l-.083-.262c-.008-.022-.028-.05-.01-.068.015-.016.043.003.065.008.015-.036.029-.072.045-.106a.101.101 0 00.009-.051z" fill="#cf2236"/><path d="M16.836 6.756c-.037.011-.048.048-.063.076-.017.031-.016.068-.029.1a.636.636 0 01.077-.15c.006-.009.015-.015.015-.026zM16.855 6.72c-.01.01-.023.018-.019.036.025-.023.048-.048.073-.069-.017.014-.038.015-.054.032z" fill="#d1993e"/><path d="M16.832 6.319a.774.774 0 01.426-.098c.13.008.254.042.373.093.12.052.24.107.36.16.113.048.227.092.342.137.082.032.168.057.248.094.032.015.045.052.033.095-.007.025-.033.037-.068.03l-.448-.091c-.134-.029-.263-.072-.395-.106-.098-.025-.193-.06-.293-.075a.613.613 0 00-.49.123.578.578 0 01.435-.115c.158.017.305.071.455.12.262.085.53.15.8.203l.039.007c.004-.04-.008-.08-.007-.12-.003-.034-.01-.067-.007-.102l-.017-.001a8.552 8.552 0 01-.56-.188c-.152-.058-.295-.134-.446-.193a.995.995 0 00-.5-.079.807.807 0 00-.59.377c-.032.048-.037.102-.059.152a.917.917 0 01.094-.182.807.807 0 01.276-.241zM21.392 8.086a.925.925 0 01-.179-.047c-.036-.014-.073-.026-.11-.038-.008-.003-.018-.007-.025 0-.006.007 0 .015.003.022l.035.108c.02.07.053.136.06.21.003.03.003.064-.033.08-.034.033-.093.013-.125-.028-.034-.043-.042-.097-.062-.145-.011-.029-.023-.057-.027-.088l-.009-.002c-.002.095-.034.185-.058.276l-.105.402h.018c0-.013.009-.02.017-.027a.346.346 0 01.092-.054c.067-.024.1-.007.104.067.007.094-.039.163-.121.209a.407.407 0 01-.206.051c-.037.004-.035.029-.033.056.002.038 0 .076 0 .114 0 .015-.002.027-.021.025-.089-.009-.176.012-.263.016-.096.004-.192.002-.288.007-.148.007-.296.002-.444.003-.057-.008-.115.005-.172-.006-.027-.005-.053.01-.08.005-.062-.009-.125.005-.188-.004-.023-.004-.048.003-.072.003-.079-.002-.157 0-.235 0-.04-.001-.079.009-.119-.003-.027-.008-.057.004-.086.005-.04.001-.079-.011-.118 0-.144 0-.287.005-.43-.001a5.797 5.797 0 00-.323-.004c-.058 0-.115.005-.172 0a6.204 6.204 0 01-.155-.016c-.021-.002-.045-.049-.034-.066.006-.01.014-.006.023 0 .023.013.044.035.075.027.002-.009-.014-.018.001-.026.004-.021-.016-.052.024-.058a.048.048 0 01.02-.033c.074-.055.146-.112.209-.18l.068-.075c.018-.02.035-.02.055-.003.071.062.145.12.222.175.038.028.078.052.117.077.014.009.03.016.032.035.029.005.028.028.032.049h.009c.019-.038.014-.05-.02-.071-.077-.05-.148-.108-.22-.166-.038-.03-.076-.063-.114-.095a.157.157 0 01-.059-.082.05.05 0 00-.028-.035h.124c.016 0 .031 0 .043-.013-.002-.013-.01-.026-.007-.04l-.006-.007c-.027.003-.054.012-.082.006-.029.012-.06.011-.09.014l-.135.01-.007.031c.01.022-.012.04-.009.06h.067c.01 0 .027-.008.028.005 0 .014.009.026-.004.044a1.16 1.16 0 01-.25.24c-.02.015-.043.027-.066.039-.014.008-.025-.007-.042-.004-.022.003-.01-.021-.012-.033-.002-.013 0-.025-.014-.032-.063.006-.125.012-.186-.006a.294.294 0 01-.183-.127c-.02-.031-.038-.066-.024-.106l.001-.033c-.001-.004 0-.007.004-.008.005-.045.027-.06.07-.048.037.01.07.029.102.051.008.006.016.012.015.024.006 0 .011 0 .013.007a.212.212 0 01.007.007l.007.008.01.002-.145-.554a.447.447 0 01-.017-.14c-.004-.005-.006-.004-.009.001-.022.068-.042.137-.07.204-.026.064-.089.102-.144.07-.039-.023-.053-.081-.028-.114 0-.005-.005-.011.004-.014.006-.063.035-.119.052-.178.009-.033.021-.065.032-.098.002-.007.007-.016 0-.022-.007-.007-.016-.003-.025 0l-.144.05c-.009.003-.025.018-.03-.002-.005-.015.014-.012.023-.016l.13-.047c-.015-.05-.043-.096-.055-.148a1.95 1.95 0 01-.112-.405 1.15 1.15 0 01-.013-.295c.004-.047.016-.09.028-.135-.017.058-.045.113-.05.175-.004.049-.013.098-.011.147.003.115.015.23.033.344.01.062.018.124.032.185.002.011.001.023 0 .034 0 .019-.007.036-.026.042-.016.006-.028-.006-.04-.017-.05-.044-.072-.108-.104-.164a1.675 1.675 0 01-.118-.277 1.014 1.014 0 01-.058-.41c-.013.104-.016.21.002.319.04.241.125.468.235.686.024.005.043-.012.065-.016.007 0 .015-.008.018.004.003.01-.002.015-.01.017-.035.006-.068.018-.104.017-.016.01-.001.02.002.028l.181.39c.06-.02.077-.014.113.04.034.05.05.106.058.164.006.046-.011.072-.05.086.052.129.089.262.11.4h.129c-.063.04-.124.022-.181.025-.017.021-.023.039-.01.07.01.023.013.05.04.051.044.004.046.032.047.064l.003.057c.03-.046.077-.022.116-.024a.23.23 0 01.064.01l-.24.087c.006.02-.015.026-.02.04l.108-.001.204-.077c.009-.004.02-.008.029-.001-.007-.01-.003-.013.007-.014-.001-.005 0-.008.007-.006-.002-.006 0-.008.006-.007 0-.006.001-.008.007-.007-.001-.006 0-.008.007-.007-.002-.005 0-.007.006-.006-.002-.007.002-.01.007-.01s.005.005.005.01c.006.004.007.01.007.017 0 .083 0 .166.008.25.001.022-.008.028-.03.027-.092-.003-.185-.004-.279-.006l.006.078c.004.006.01.008.017.008l.306-.002V9.38c0-.024.01-.028.03-.029.242-.013.483-.002.724-.007.054-.001.108-.01.163-.004l.667-.003.927.002c.013 0 .025 0 .036.006h.49c.071.002.142-.005.212.006.022.003.03.008.028.03-.002.023 0 .047 0 .07h.005c.002-.002.004-.006.006-.006.003 0 .004.004.002.007.007-.003.01 0 .006.007.007-.003.01 0 .007.006.007-.002.01 0 .007.007.007-.002.009 0 .006.007.008-.003.01 0 .007.007.007-.003.01-.001.007.006.008 0 .012.002.007.01a.479.479 0 01.006.01l.013-.008c.022-.008.039.008.057.014.053.018.105.04.157.06h.107l.002-.007c-.073-.074-.18-.076-.27-.126.05.002.096 0 .142-.006.02-.002.027.013.04.02.008-.025.007-.05.008-.076.001-.019.004-.03.029-.033.064-.009.086-.078.044-.127-.059-.001-.12.014-.178-.025h.13c.001-.01 0-.018.002-.027a1.88 1.88 0 01.106-.373c-.028-.003-.044-.021-.046-.048a.297.297 0 01.066-.217c.034-.043.045-.044.1-.023l.192-.415-.03-.008zM19.358 6.776l-.007.12c.113-.018.225-.045.337-.07.26-.056.51-.146.763-.22a.919.919 0 01.294-.044.553.553 0 01.347.125l.017.01c-.003-.032-.031-.04-.051-.053a.616.616 0 00-.42-.09c-.106.012-.206.043-.307.072-.08.022-.158.045-.238.064-.136.033-.273.064-.41.094l-.239.05c-.022.005-.039-.002-.051-.021-.03-.043-.011-.096.04-.115.089-.034.179-.063.266-.098.136-.054.271-.11.406-.168.157-.068.309-.147.477-.187a.797.797 0 01.69.139c.176.13.28.31.325.523a.93.93 0 01-.002.454 1.728 1.728 0 01-.231.53.147.147 0 01-.042.037c-.015.01-.033.009-.04-.014a.163.163 0 01-.007-.065c.018-.153.048-.305.056-.46a1.241 1.241 0 00-.055-.45c-.017-.055-.046-.104-.075-.153-.005-.01-.012-.019-.026-.016a.78.78 0 01.11.243c.025.11.03.22.02.333a1.896 1.896 0 01-.11.456c-.003.01-.001.026-.019.026a.1.1 0 01-.009.051c-.016.035-.03.071-.045.107.08.027.16.054.24.083.02.007.023-.005.03-.018.062-.125.115-.254.156-.387.07-.223.113-.449.077-.684a.916.916 0 00-.209-.478.804.804 0 00-.8-.278 1.575 1.575 0 00-.381.134c-.279.132-.57.23-.865.317-.01.02-.004.042-.006.063-.001.013.004.027-.006.037z" fill="#d1993e"/><path d="M19.43 6c-.002-.014.007-.03-.005-.041-.035.007-.045-.008-.041-.041.002-.022 0-.045 0-.067-.001-.014-.01-.024-.017-.035a.432.432 0 00-.277-.192v.048c.052-.003.067.043.092.072.038.044.054.1.07.154.006.017 0 .041-.009.06.018.001.036 0 .053.002.01 0 .024-.005.025.009 0 .015-.014.01-.023.01h-.196c-.018.002-.026-.004-.026-.023V5.8h-.153c0 .047-.002.095 0 .142 0 .026-.003.043-.035.035-.005-.002-.011 0-.017.001l-.173.001c-.013 0-.025 0-.023-.019h-.1c-.01.04-.007.08-.006.12h.832c.023 0 .03-.008.029-.03 0-.017.007-.034 0-.05z" fill="#f1be3c"/><path d="M18.795 6.552v.023c.012.03.006.063.006.094.007.03 0 .064.015.093.014-.036.005-.074.006-.11.002-.058 0-.059.06-.056.008-.013.013-.027.026-.035l.007-.007.007-.006.007-.007c.051-.04.102-.028.153.001h.03c.021-.003.035.002.032.027-.003.018.004.028.024.026.02-.003.022.01.022.026.002.063-.012.126-.007.189.014-.046.012-.094.016-.14-.007-.024.006-.045.006-.068a.09.09 0 01.005-.05c.056.019.112.005.167.01.002-.015.003-.03.006-.044.006-.028-.001-.04-.033-.045-.05-.007-.1-.02-.156-.033a.44.44 0 00.236-.32h-.019c.001.016-.007.02-.022.02h-.065a.42.42 0 01-.163.176.45.45 0 01-.476.003c-.01-.006-.018-.013-.03-.012a.426.426 0 00.155.134c-.06.012-.113.022-.167.035-.012.002-.036 0-.023.027l.12-.001c.043 0 .052.008.055.05z" fill="#d1993e"/><path d="M18.928 6.386a.434.434 0 00.232-.07.42.42 0 00.164-.175l-.036-.003-.125.002c-.006.029-.032.04-.052.053a.408.408 0 01-.197.079c-.025.002-.045-.01-.066-.017a.457.457 0 01-.166-.101c-.005-.045-.04-.034-.067-.034 0 .03-.023.016-.037.021a.346.346 0 00.076.166c.012-.002.02.005.03.011.076.044.158.07.244.067z" fill="#f1be3c"/><path d="M21.447 6.388a.192.192 0 00.191-.194.196.196 0 00-.191-.194c-.106 0-.198.102-.192.193-.006.106.088.195.192.195zm-.044-.354c.048.003.102.039.095.094 0 .053-.038.093-.088.093a.09.09 0 01-.094-.095c0-.047.044-.095.087-.093zM16.356 7.509c.01-.092-.09-.195-.187-.195a.2.2 0 00-.197.193c0 .104.084.188.185.193.108.005.204-.086.2-.191zm-.323-.074c0-.042.053-.09.096-.09.048.002.093.051.092.101 0 .05-.046.093-.099.092-.052 0-.09-.046-.09-.103zM21.838 7.315a.195.195 0 00-.195.194.19.19 0 00.192.19.192.192 0 00.195-.19.195.195 0 00-.192-.194zm-.04.23c-.052 0-.107-.052-.104-.102.003-.053.054-.109.1-.106.057.003.105.05.104.105a.1.1 0 01-.1.102zM19.716 6.527a.193.193 0 00.122-.233c-.03-.114-.166-.176-.268-.122l-.013.007a.03.03 0 00-.02.013c-.01.004-.02.008-.012.02.01 0 .014-.007.018-.014l.02-.013.012-.007c.072-.012.121.019.139.085.012.047-.014.077-.046.103-.028.024-.063.02-.094.008a.095.095 0 01-.063-.083c-.004-.028.011-.05.013-.077-.012.009-.027.012-.036.027a.19.19 0 00-.015.178c.04.096.145.142.243.108zM16.206 7.784l-.013.007-.008.005-.012.008.005.006.012-.008a.347.347 0 01.008-.006l.012-.006c.077-.012.137.026.144.091.004.044-.026.09-.072.11-.033.016-.073.006-.103-.024-.035-.034-.045-.08-.025-.121.006-.013.016-.024.024-.036a.314.314 0 01-.006-.006c-.045.02-.089.116-.077.18.022.114.122.184.232.162a.192.192 0 00.148-.234c-.024-.11-.157-.187-.269-.128zM21.05 6.18c.1-.022.17-.116.152-.218a.189.189 0 00-.274-.144.184.184 0 00.004.005c.044-.009.083-.004.116.031a.104.104 0 01-.001.144.098.098 0 01-.142 0c-.045-.044-.048-.07-.012-.149a.296.296 0 01.006-.005l.02-.014.013-.007-.004-.005-.014.007a.03.03 0 00-.02.013l-.007.006c-.062.051-.079.118-.062.192.023.101.125.164.224.143zM18.342 6.537a.19.19 0 00.19-.255.176.176 0 00-.13-.118.176.176 0 00-.156.022l.005.005c.05-.026.095-.023.136.02a.1.1 0 01-.02.156c-.05.032-.086.021-.124-.01-.028-.023-.054-.079-.022-.125.006-.009.01-.02.015-.029a1.56 1.56 0 01.015-.012l-.005-.005a.024.024 0 00-.015.01.188.188 0 00-.064.21.197.197 0 00.175.13zM17.94 6.349c.087-.008.157-.077.168-.175A.178.178 0 0018.027 6a.175.175 0 00-.19-.014.836.836 0 01-.012.006.246.246 0 00.004.006l.013-.006c.073-.012.123.019.14.085.008.038-.015.086-.054.11a.093.093 0 01-.109-.01c-.052-.045-.057-.08-.024-.154l.015-.012.007-.006L17.812 6l-.008.006-.015.011a.18.18 0 00-.06.178.19.19 0 00.212.155z" fill="#93aab3"/><path d="M18.683 6.154c0 .003.003.006.005.008a.46.46 0 00.16.093c.021.007.04.02.066.017a.409.409 0 00.197-.079c.02-.013.046-.024.052-.053-.13-.004-.26.007-.394-.007.01-.016.02-.012.027-.012h.464c.011 0 .03-.007.028.017l.036.003.027-.001c-.002-.016.007-.02.021-.02H19.43c.004-.023 0-.047.001-.07.002.022-.006.03-.03.03h-.83c-.002.013-.006.027.004.04h.04c.029 0 .063-.01.069.034zM19.43 6.05V6c.007.016 0 .033 0 .05z" fill="#fddf79"/><path d="M21.977 6.866c-.074-.04-.138-.048-.2-.005l.005.006c.073-.027.13-.006.154.06a.106.106 0 01-.04.12.105.105 0 01-.123-.006c-.05-.042-.053-.074-.017-.155l.006-.005a.278.278 0 00-.005-.006l-.007.006c-.06.049-.077.113-.062.185a.181.181 0 00.16.15.184.184 0 00.184-.078c.057-.076.048-.217-.055-.272zM16.373 6.708a.182.182 0 00.068-.193c-.027-.126-.176-.19-.282-.123l-.013.008.005.006.013-.008h-.001c.069-.023.114-.007.146.053.024.045.01.093-.04.13-.03.025-.087.02-.119-.007-.05-.04-.046-.09-.027-.144l.007-.006.006-.007-.005-.006-.007.007-.007.006a.166.166 0 00-.057.13c0 .078.034.14.103.175a.184.184 0 00.21-.02zM21.816 6.48c.01.045-.033.103-.084.117-.039.011-.071-.004-.096-.03-.028-.03-.042-.066-.027-.108l.014-.034.005-.006-.005-.005a.187.187 0 00-.054.217c.03.073.1.12.184.119a.183.183 0 00.173-.118.187.187 0 00-.039-.207.182.182 0 00-.204-.046l-.014.006a.308.308 0 01.005.006l.013-.006a.119.119 0 01.13.096zM21.686 7.787c.015.001.029.002.044.013.034.024.055.055.054.096a.104.104 0 01-.065.093.095.095 0 01-.11-.015c-.043-.039-.052-.086-.027-.145l.006-.006a.24.24 0 00-.005-.005l-.006.007a.175.175 0 00-.05.177.193.193 0 00.377-.078c-.024-.123-.127-.153-.218-.137zM21.645 7.793c-.011.005-.026-.003-.035.004l.005.006c.01-.005.02-.007.03-.01zM16.68 6.342a.192.192 0 00-.213-.317l.005.006c.08-.023.132.006.15.083.011.044-.01.075-.04.101a.103.103 0 01-.113.01c-.054-.033-.067-.07-.051-.15l.008-.01.011-.01.007-.006-.005-.005-.007.006-.012.009-.009.011a.189.189 0 00.002.254.19.19 0 00.267.018zM20.143 6.341c.085-.027.133-.099.132-.197-.003-.132-.153-.22-.27-.16a.845.845 0 01-.014.007l-.005.006c.003.004.006.002.01-.001a.836.836 0 01.013-.007c.074-.012.136.027.143.09a.103.103 0 01-.055.106c-.038.022-.076.022-.112-.006-.036-.027-.053-.062-.044-.107.003-.011.007-.021.004-.033a.057.057 0 00-.025.018.197.197 0 00-.002.2c.054.08.138.112.225.084zM20.686 6.108a.187.187 0 00.01-.213.185.185 0 00-.235-.075c.053-.002.089.013.117.047a.1.1 0 01.008.115c-.03.046-.076.065-.12.051-.063-.02-.09-.067-.077-.135.002-.008.01-.018 0-.023-.012-.005-.016.009-.021.016a.183.183 0 00-.026.144.184.184 0 00.157.15.18.18 0 00.187-.077zM17.523 6.18a.183.183 0 00.14-.162.178.178 0 00-.079-.18.178.178 0 00-.2-.013l-.01.005a.034.034 0 00-.02.013l-.01.009-.007.006a.238.238 0 00.005.005.182.182 0 01.006-.006l.012-.008.02-.014a.327.327 0 01.008-.004c.078-.022.134.009.15.083.01.04-.014.086-.056.11-.037.023-.08.017-.114-.01-.05-.04-.05-.09-.032-.144l.006-.007-.005-.005-.007.007c-.016.03-.038.058-.046.09a.19.19 0 00.239.225zM17.032 6.178c.09-.022.136-.083.147-.178.016-.142-.136-.242-.257-.189-.011 0-.02.005-.027.013l-.013.007a.378.378 0 01-.008.006c-.031.036-.025.033.005.005l.007-.006.013-.007c.01 0 .02-.005.027-.014.096-.007.133.06.134.117.001.047-.053.097-.1.1-.05.003-.096-.033-.112-.081-.01-.03.005-.057.001-.085-.01.002-.015.01-.02.016a.197.197 0 00-.006.205c.046.073.13.11.21.09z" fill="#93aab3"/><path d="M20.708 9.491c.002-.007 0-.01-.007-.007.003-.007 0-.009-.007-.006.003-.007 0-.01-.006-.007.002-.007 0-.01-.007-.007.002-.007 0-.01-.007-.006.003-.008 0-.01-.006-.007h-.009a.01.01 0 01-.005 0l-.013.261c0 .012-.006.028.013.034l.256-.007c.013 0 .026.004.039.005l.136-.153c-.058 0-.113-.005-.166 0-.084.01-.15-.01-.199-.08a.479.479 0 00-.006-.01c.006-.009.002-.01-.007-.01zM20.68 9.464h.001zM20.707 9.49v.001zM20.694 9.478zM17.357 9.718c-.006-.083-.007-.166-.007-.25 0-.006 0-.013-.007-.017-.004 0-.008.007-.012 0-.006 0-.008.001-.007.007-.005-.002-.007 0-.006.007-.006-.001-.008 0-.007.006-.006 0-.008.001-.007.007-.005-.002-.007 0-.006.007-.01 0-.014.004-.007.013-.017.026-.041.045-.063.066-.016.023-.038.028-.066.028-.079-.002-.158-.001-.245-.001l.132.149.28.005c.02.001.03-.004.028-.027zM17.298 9.485z" fill="#cf2236"/><path d="M19.079 5.378l.018-.007a.068.068 0 01.06-.055c0-.024.021-.04.026-.063a.141.141 0 00-.017-.105c-.006-.01-.016-.018-.016-.032a.071.071 0 01-.054-.053c-.015-.006-.029-.014-.043-.018-.037-.01-.074-.02-.11.005-.011.007-.023.015-.038.012-.005.033-.027.047-.056.054.002.02-.014.032-.02.048-.022.047-.013.092.012.135l.007.017c.034.008.053.027.056.062.02-.001.037.012.055.02.044.018.082.001.12-.02zm-.15-.234c.003-.004.009-.005.014-.007.01.003.017-.003.025-.005.005-.002.006.005.01.005.03-.009.063-.02.089 0a.099.099 0 01.021.13c-.022.034-.054.054-.095.05-.042-.005-.075-.027-.087-.068-.011-.038-.007-.075.022-.106zM18.756 5.958c-.032-.088.044-.174.118-.204.014-.006.026-.001.034.012v-.142a.43.43 0 00-.332.336h.1l.08-.001z" fill="#fddf79"/><path d="M18.795 6.775a36.8 36.8 0 00-.005-.105l-.008-.124c.01.01.002.023.012.03v-.024c-.002-.042-.011-.05-.054-.05h-.12l.014.172c-.002.034.005.068.008.102h.153zM18.828 5.164c.007-.016.023-.028.021-.048a.045.045 0 01-.04-.019c-.017-.021-.037-.04-.056-.06-.009 0-.014.005-.018.013a.32.32 0 00-.01.32c.005.01.01.02.023.02l.02-.016c.025-.022.044-.051.08-.058l-.008-.018c-.024-.043-.034-.087-.012-.134zM19.183 5.253c-.005.022-.025.039-.026.063a.09.09 0 01.034.019c.022.018.039.042.064.057.038-.025.043-.067.052-.105a.302.302 0 00-.047-.243c-.002-.003-.007-.005-.01-.008-.01.01-.023.018-.031.03-.018.023-.036.047-.069.05 0 .014.01.022.016.032a.14.14 0 01.017.105zM19.131 5.51c.014-.007.026-.021.045-.019-.008-.01-.017-.02-.023-.031-.018-.03-.052-.05-.056-.09-.006.003-.013.005-.018.009-.038.02-.076.037-.12.018-.018-.007-.034-.02-.055-.019-.013.041-.05.066-.07.104.023.031.06.044.092.046.068.006.139.015.205-.017z" fill="#f1be3c"/><path d="M21.13 8.532a.297.297 0 00-.066.217c.002.027.018.045.046.048.077-.005.141-.078.14-.164-.027.018-.055.037-.08 0-.014-.019-.017-.038.001-.056.028-.029.054-.017.08.004.007-.03-.013-.05-.021-.072-.055-.02-.066-.02-.1.023zM16.884 8.547c-.036-.054-.053-.06-.113-.04-.015.03-.01.06-.014.09.004-.024.012-.041.038-.042.03 0 .052.022.052.053 0 .026-.022.046-.05.047-.03 0-.04-.017-.041-.046 0 .016-.012.031-.008.048.021.081.074.134.144.14.039-.013.056-.04.05-.086a.364.364 0 00-.058-.164z" fill="#93aab3"/><path d="M19.052 5.045c.015.004.03.012.043.018a.102.102 0 01.029-.057c.016-.016.027-.037.04-.056a.298.298 0 00-.312-.008c-.004.002-.007.007-.01.011l.022.036c.015.024.04.041.04.073.015.003.028-.005.038-.012.036-.025.073-.015.11-.005zM19.205 6.602c.026.02.004.045.004.067l-.002.109.15-.002c.011-.011.006-.025.007-.037.002-.021-.004-.043.006-.064l.007-.114c-.055-.004-.11.01-.167-.009a.09.09 0 00-.005.05z" fill="#f1be3c"/><path d="M20.654 9.746v.077l.277.002c.007 0 .013 0 .018-.007v-.073c-.013-.002-.026-.006-.04-.006l-.255.007zM19.164 4.95a.413.413 0 00.057-.08h-.44a.415.415 0 00.06.083c.004-.004.007-.009.011-.011a.298.298 0 01.312.008zM18.735 5.05c.004-.008.01-.013.018-.014l-.081-.09v.512l.009.006.067-.073c-.013 0-.018-.01-.023-.02a.32.32 0 01.01-.321zM18.909 5.936c0 .009.007.023-.012.025l-.14-.002-.082.001c-.002.018.01.02.024.02l.172-.002c.006 0 .012-.002.017-.001.032.008.035-.009.035-.035-.002-.047 0-.095 0-.142h.153v.156c0 .02.008.025.026.023h.196c.009 0 .024.005.023-.01 0-.014-.016-.009-.025-.01h-.053l-.14.002v-.002c-.02.001-.013-.014-.013-.023v-.144-.12-.048-.051l.122-.002c.017 0 .023-.005.01-.02l-.046-.06c-.019-.002-.03.012-.045.02-.066.032-.137.022-.205.017a.122.122 0 01-.09-.046.4.4 0 00-.067.089c.024 0 .043-.002.062 0 .027.003.055-.008.08.007 0 .016-.002.03-.003.046v.142c0 .056.002.113.001.17zM19.307 5.287c-.009.038-.014.08-.052.105l.074.073v-.518l-.08.09c.004.002.009.004.01.007.05.074.067.157.048.243z" fill="#d1993e"/><path d="M20.786 9.444c.09.05.197.052.27.126l-.001.008.01.002V9.58h.002c.002-.008 0-.013-.01-.009.004-.013-.008-.018-.014-.025-.023-.03-.053-.055-.074-.087-.013-.008-.021-.022-.04-.02a.928.928 0 01-.143.006zM17.146 9.44c-.04.002-.085-.022-.116.024-.018.026-.045.045-.06.073l.24-.087a.23.23 0 00-.064-.01z" fill="#cf2236"/><path d="M17.262 9.499c-.068.025-.136.05-.204.077.008.011.02.006.03.006a.514.514 0 00.14-.019c.022-.02.046-.04.063-.065-.01-.007-.02-.003-.029 0zM20.733 9.503a.167.167 0 00.16.08c.018-.002.038.006.054-.007l-.156-.059c-.018-.006-.035-.022-.057-.014zM21.002 8.326l-.048-.137c-.004-.013-.006-.029-.025-.03.002-.007-.002-.01-.01-.01l.001.01h.009c.003.032.015.06.027.089.02.049.028.102.062.146.032.04.091.06.124.026l-.018-.004c-.03.012-.054.002-.076-.018a.166.166 0 01-.046-.071zM17.13 9.196h-.128a.075.075 0 00-.052.026c.057-.003.118.015.18-.026zM21.05 9.222c-.011-.017-.03-.022-.047-.025h-.13c.057.039.118.023.177.025z" fill="#fddf79"/><path d="M19.425 5.959a.291.291 0 00-.04-.108c0 .022.001.045-.002.066-.003.034.007.049.042.042z" fill="#d1993e"/><path d="M16.702 8.056c-.003-.013-.011-.006-.018-.004-.022.003-.041.02-.065.015-.006.014-.024.01-.03.023.035 0 .068-.012.102-.018.009-.002.014-.007.011-.016z" fill="#fddf79"/><path d="M18.615 6.12h-.041l.004.021c.014-.005.038.01.037-.02z" fill="#d1993e"/><path d="M16.933 9.579h.002l.015-.002c.005-.014.026-.02.02-.04a.095.095 0 00-.037.042z" fill="#cf2236"/><path fill="#93aab3" d="M19.525 6.212v.001l-.001.001.001-.002zM21.623 6.413a.134.134 0 00.005.006l.012-.008.008-.006.012-.007.014-.007a1.355 1.355 0 01-.005-.007.827.827 0 01-.014.007l-.012.008a.378.378 0 00-.008.006l-.011.009zM16.464 6.036l.008-.005-.005-.006-.008.005-.012.008-.008.006.005.005.008-.005.012-.008zM21.774 6.872l.008-.005-.005-.006-.008.005-.012.008a.278.278 0 01.005.006.883.883 0 01.012-.008zM17.817 6.004a.8.8 0 01.012-.007l-.005-.006-.012.008.005.005zM20.41 5.855l.007-.006a.833.833 0 00.013-.007l.007-.007c.01-.001.019-.002.023-.014-.013-.006-.02.003-.028.01l-.008.005-.012.008a.21.21 0 01-.007.006l-.004.007c.004.005.006.001.01-.002zM16.851 5.863l-.001.002.003-.002h-.002zM16.85 5.865v.001-.001zM21.595 7.817c.008-.003.015-.006.02-.014l-.005-.006a.029.029 0 00-.02.014l-.007.007.005.005a.182.182 0 01.007-.006zM19.978 6.003l-.002-.002-.002.002.003.002.001-.002zM19.97 6.015l-.002.002h.002v-.002z"/><path transform="rotate(-43.264 21.066 9.58)" fill="#fddf79" d="M21.065 9.579h.002v.002h-.002z"/><path fill="#93aab3" d="M16.144 6.41l.007-.005-.005-.005-.008.005-.007.006.006.006.007-.006z"/><path d="M20.327 9.937c-.004 0-.01 0-.012-.003-.01-.02-.023-.012-.036-.004-.039.02-.079 0-.116-.002-.025-.002-.053-.016-.082-.016h-2.183a.198.198 0 00-.09.017c-.014.007-.032.015-.047-.006-.01-.016-.03-.014-.045-.001a.13.13 0 01-.092.026.212.212 0 00-.127.028c-.02.011-.028.041-.012.06.036.042.09.04.138.052.014.003.066.004.078.011.005.003.01.008.015.005.026-.019.051-.01.075.003.033.018.061-.01.093-.008.126.006.252.006.378.01.259.011.519.006.778.003.26-.002.52.014.779-.012.03 0 .063-.007.09.002.05.018.094.005.14-.006.029-.006.063-.012.086.001.038.022.071.018.109.006.015-.006.037-.02.045-.014.03.017.057.005.084.003.05-.003.1-.012.146-.03.02-.006.041-.017.041-.042 0-.023-.02-.032-.036-.04a.414.414 0 00-.197-.043z" fill="#ccdde2"/><path d="M18.309 9.636c.013.022-.002.039-.014.05-.029.022-.03.05-.028.082v.056h1.698c-.004-.017.012-.026.015-.039a.506.506 0 01-.24-.074.095.095 0 01-.049-.082c-.015-.045-.005-.08.03-.11a.376.376 0 01.177-.068c.008-.002.017 0 .025-.007.005-.033.002-.066.002-.1-.011-.006-.023-.005-.036-.005l-.927-.003-.667.003v.194a.087.087 0 01.014.103zm.352-.227h.675c.02 0 .03.004.03.027a10.01 10.01 0 000 .275c0 .024-.01.03-.032.029-.025-.002-.051 0-.077 0 0 .018-.012.018-.025.018h-.493c-.013 0-.027.002-.02-.018-.027-.004-.063.012-.08-.008-.016-.019-.004-.053-.005-.081v-.216c0-.022.008-.026.027-.026z" fill="#fddf79"/><path d="M18.267 9.768c-.002-.032 0-.06.028-.083.012-.01.027-.027.014-.049-.015.006-.016.026-.033.03a.026.026 0 01-.003.005l-.005.008c-.01.037-.047.042-.074.06a.161.161 0 01-.112.018c-.027-.004-.037.016-.056.02-.033.008-.067.005-.099.005a.447.447 0 01-.162-.035.187.187 0 01-.104-.1c-.002-.004.003-.01.004-.016a.072.072 0 010-.066v-.001c0-.005 0-.01.006-.013h.001l.005-.008c.037-.048.09-.066.145-.08a.66.66 0 01.309-.005c.06.013.119.03.164.075V9.34c-.055-.005-.109.003-.163.004-.241.005-.482-.006-.723.007-.022.001-.032.005-.032.03.002.147.001.295.001.443h.89l-.001-.055zM20.167 9.458a.305.305 0 01.154.078l.006.008.006.013.001.001c.01.004.003.016.011.02.03.003.031.018.024.044-.005.014.003.033.005.05h0c-.018-.003-.023.009-.027.023-.004.015.002.04-.029.03-.006-.003-.005.005-.005.008-.001.007-.005.013-.01.012-.057-.01-.102.029-.156.036a.469.469 0 01-.134.004c-.001.01 0 .02-.016.02-.012-.001-.01-.012-.012-.02h-.006c-.003.014-.019.022-.014.038h.689v-.077c-.019-.005-.013-.021-.013-.033l.013-.262V9.38c.002-.021-.006-.027-.027-.03-.07-.01-.141-.004-.212-.005-.163-.002-.327 0-.49 0 0 .033.003.066-.003.1.082.002.164-.009.245.013z" fill="#f1be3c"/><path d="M19.382 6.983c.11.003.218.01.326.026.162.024.322.058.472.126a.062.062 0 00.042.002c.213-.046.423-.04.632.026.086.026.14.076.172.161.06.165.107.334.15.504.018 0 .016-.016.02-.026a1.9 1.9 0 00.108-.456c.01-.113.006-.223-.02-.334a.782.782 0 00-.109-.243c-.012-.008-.023-.018-.026-.033-.004 0-.007-.003-.007-.007-.004 0-.007-.002-.007-.007-.004 0-.006-.002-.006-.006-.004 0-.007-.003-.007-.007-.004 0-.006-.003-.006-.007-.005 0-.007-.002-.007-.007v.001c-.006-.003-.013-.005-.017-.01a.553.553 0 00-.347-.125.921.921 0 00-.294.045c-.254.074-.504.164-.763.22-.112.025-.224.052-.337.07l-.005.09c.012-.001.024-.004.036-.003z" fill="#fefefe"/><path d="M19.847 9.28c.065-.013.128-.003.19-.01.13-.016.261-.012.392-.013a.066.066 0 00.057-.033c.001-.02.001-.038-.013-.053-.002.005-.004.01-.004.015 0 .03-.015.044-.046.044l-.677.001c-.037 0-.039-.024-.047-.047h-.008c-.004.013.01.037-.013.036-.017 0-.027-.019-.027-.04 0-.016.004-.027.02-.038.062-.043.124-.089.184-.137.016-.012.033-.035.021-.058-.012-.024-.006-.04.01-.056.008-.008.014-.018.012-.03-.02.01-.034.027-.05.043a.489.489 0 01-.26.141.398.398 0 01-.259-.033c-.038-.019-.05-.06-.078-.086-.024-.023-.05-.046-.068-.075-.013-.021-.04-.03-.05-.054a.284.284 0 01-.017-.17c.002-.003.006-.006.006-.01.015-.064.076-.087.145-.058.04.017.062.051.095.075l.009.007c0 .005.002.007.007.007h-.001c0 .005.002.006.007.007 0 .004.002.007.006.006 0 .006 0 .01.007.008v-.001c-.001.01.004.014.013.013 0 0 .001 0 0 0 0 .006.001.01.007.007-.001.006.001.008.007.007-.006.008.002.01.007.013l.006.007c.017-.001.015-.013.015-.024v-.495c0-.018-.006-.03-.02-.04-.016-.008-.02.009-.03.014-.054.034-.104.076-.172.075a.091.091 0 01-.087-.119.28.28 0 01.045-.055c.066-.067.137-.13.198-.202-.055-.01-.109.003-.163.003-.076 0-.153.008-.23.004-.11-.007-.222-.002-.333-.005l-.04.003c.051.065.115.117.17.177.021.022.047.039.064.065.012.032.013.063-.01.092-.026.032-.056.042-.097.035a.282.282 0 01-.14-.071c-.009-.007-.016-.024-.03-.015-.015.009-.025.02-.025.04l.001.485c0 .01-.004.026.016.026l.008-.006.005-.007.005-.011c.02-.016.037-.042.07-.037.005 0 .01-.003.01-.01-.003-.037.027-.05.049-.07.002-.005.008-.006.013-.006l.013-.006c.015-.015.033-.018.052-.009.016.002.032.002.047.01l.008.004h.001l.006.007.006.006.002.001.005.008V8.58l.007.013.007.018v.002h.002c-.001.035.003.07-.004.104-.002.012-.011.019-.015.03-.005.03-.001.06-.012.09-.04.11-.12.17-.219.213-.095.041-.19.026-.283-.008a.624.624 0 01-.19-.119c-.006-.005-.012-.01-.02-.01.002.037.039.045.06.065.028.026.06.048.096.063.017.007.024.022.03.04.01.022.014.052.046.057.006.001.005.007.006.01a.093.093 0 01-.05.101c0 .007.026.003.007.02-.01.009.009.013.018.013.052-.002.104.01.156.007.01 0 .026-.006.03.012.04-.01.079.002.119 0 .028 0 .058-.012.085-.004.04.011.08.001.119.002h.235c.024.001.049-.006.072-.002.063.008.126-.005.189.004.026.004.052-.01.08-.005.056.01.114-.003.17.005.007-.021.028-.014.04-.015.066-.003.134.007.197-.007zm-1.003-.916c.004-.088.07-.159.16-.158a.156.156 0 01.153.157c0 .086-.07.157-.154.158-.084 0-.163-.076-.16-.157zm.423.812c-.005.027-.022.035-.048.035-.144-.001-.288-.002-.432 0-.033 0-.049-.009-.048-.041-.012 0-.02.025-.033.005-.009-.013-.006-.028.007-.039a.923.923 0 01.062-.048c.067-.046.125-.103.184-.159.034-.032.055-.033.087 0 .07.073.147.137.229.196l.014.014c.01.01.019.019.01.034-.01.018-.022.003-.032.003zM19.417 8.689zM19.43 8.709z" fill="#fddf79"/><path d="M20.218 7.514a1.204 1.204 0 00-.159.64v.01c.001.015.016.035.003.044-.016.01-.028-.012-.043-.019-.034-.016-.067-.034-.106-.04-.061-.008-.063-.008-.06.058.001.047-.006.083-.057.104-.039.016-.057.078-.042.118.007.02.024.013.036.005a.19.19 0 01.115-.027.143.143 0 01.09.038.12.12 0 01.037.084.754.754 0 00.133.013l.008-.002c-.003-.025.01-.04.026-.057.039-.04.075-.081.13-.095.063-.017.127-.015.183.027.03.024.048.021.052-.018.005-.053.039-.092.056-.138.003-.008.005-.016.014-.016.01 0 .012.008.016.015.019.032.018.068.02.103.017-.022.013-.074-.006-.108-.02-.036-.045-.068-.087-.072-.062-.006-.123-.004-.176.034a.393.393 0 01-.062.037c.025-.049.045-.099.064-.149a.63.63 0 00-.011-.51l-.005-.016a.719.719 0 00-.086-.154c-.009-.013-.019-.018-.028 0l-.02.028c0 .027-.023.042-.035.062zm-.2.89c-.006.008-.012.01-.022.004a.213.213 0 00-.105-.033c-.02 0-.037.007-.056.006-.011 0-.022 0-.026-.014-.006-.017.01-.016.018-.022.024-.015.053-.013.073-.023.057 0 .09.032.12.067.006.006.002.01-.002.015zm.242-.281c0-.026.008-.05.023-.071a.087.087 0 00.016-.07c-.006-.027.015-.052.02-.079.005-.03-.007-.062.01-.091.006-.01-.001-.02-.005-.029-.005-.014-.004-.028-.004-.043 0-.012.009-.017.018-.02.01-.003.02-.002.027.008.003.006.008.012.009.018.003.045.023.086.028.135-.014.056-.028.115-.045.174-.013.042-.03.082-.044.123-.007.02-.02.04-.042.032-.019-.007-.033-.027-.017-.052.007-.01.006-.023.006-.035z" fill="#f1be3c"/><path d="M20.032 8.529a.12.12 0 00-.038-.084.143.143 0 00-.089-.038.19.19 0 00-.115.027c-.012.008-.028.014-.036-.005-.015-.04.003-.102.042-.118.051-.021.058-.057.057-.104-.003-.066-.001-.066.06-.057.039.005.072.023.106.039.015.007.027.03.043.019.013-.009-.002-.029-.002-.044v-.01a1.202 1.202 0 01.158-.64c.012-.021.036-.036.035-.063a.633.633 0 00-.12.153.694.694 0 00-.098.494l.012.084c-.036-.028-.06-.057-.094-.074a.329.329 0 00-.16-.032c-.037 0-.104.069-.115.106a.498.498 0 00.027.353c.01.021.018.026.034.006l.01-.021c.03-.054.072-.087.135-.085.062.002.108.028.128.09l.02.003zM19.196 7.054c-.003.08-.007.162-.004.242.002.049-.002.098.008.146l.132.002c.008 0 .015-.001.02-.008-.009-.15-.011-.3-.006-.45l.005-.09.007-.12-.151.002c-.007.092-.008.184-.011.276z" fill="#fddf79"/><path d="M19.204 7.68v-.023a.351.351 0 01-.01-.094 4.465 4.465 0 01-.02-.474.01.01 0 00-.004 0c-.01.009-.006.022-.006.034 0 .109.003.218.01.327.004.083.017.165.016.249 0 .02 0 .036-.027.033-.014-.002-.021.006-.02.02.003.023-.01.027-.03.027h-.197c-.02 0-.032-.005-.027-.026.005-.019-.019-.038.002-.056a.185.185 0 01-.016-.086h-.023c-.024.004-.03-.007-.03-.03-.003-.06.008-.119.007-.178-.017.02-.011.046-.015.07.002.061-.011.122-.015.183l.002.026c-.001.024-.009.04-.038.037-.035-.003-.07 0-.106 0-.011 0-.023.002-.03-.009l-.012.089c-.001.012 0 .024-.008.035.06.008.12.003.181.003.201 0 .402-.003.603-.005-.009-.037-.003-.077-.015-.114-.045 0-.09-.002-.135.001-.032.002-.041-.01-.038-.039zM20.053 8.701c-.027.003-.054-.011-.081-.005.002.02-.012.035-.013.053.06.011.12.004.18.008-.024.002-.035.016-.037.039-.003.033-.033.046-.053.064-.053.051-.108.1-.165.146-.055.043-.11.086-.168.123-.02.012-.033.03-.025.055h.008c.004-.014.009-.027.026-.027a.058.058 0 01.022-.028c.123-.076.24-.16.347-.257.023-.021.042-.02.062.003.026.03.05.059.078.087.057.06.122.11.188.158.014.01.025.021.032.037.01-.001.017.004.019.014.014.015.014.034.013.053.022 0 .036-.012.04-.032a.049.049 0 00-.02-.053c-.055-.037-.11-.07-.158-.116-.035-.032-.07-.062-.098-.102-.014-.02-.032-.039-.047-.06-.01-.012-.005-.023-.001-.036.005-.017.018-.009.027-.01l.07.001c.002-.021-.022-.037-.013-.06l-.007-.03c-.044-.007-.09-.01-.135-.012-.03-.001-.062-.002-.091-.013z" fill="#d1993e"/><path d="M19.677 8.182c.012-.037.079-.105.116-.106a.328.328 0 01.16.032c.033.017.058.046.094.074l-.012-.084a.693.693 0 01.098-.494.638.638 0 01.12-.153l.02-.027a.73.73 0 00-.165.164.49.49 0 00-.116.338c.004.067.017.132.03.197.004.006.007.011.002.017l-.01-.008c-.026-.026-.051-.055-.086-.072-.11-.054-.229-.039-.28.097a.365.365 0 00-.017.194.703.703 0 00.096.243l.012-.053c-.016.02-.025.015-.034-.006a.498.498 0 01-.028-.353zM19.23 8.245c.068.001.118-.04.171-.074.01-.006.015-.023.03-.014s.021.021.021.04v.494c0 .01.002.023-.015.024.014.016.027.033.046.043v-.734c-.076.057-.15.11-.22.164-.027.02-.053.03-.083.014-.03-.015-.04-.043-.037-.076a.091.091 0 00.087.12z" fill="#fefefe"/><path d="M19.2 7.442l.002.122c.013.03.01.062.002.093v.023c-.004.029.006.041.037.04.045-.004.09-.002.136-.002.005-.034-.007-.067-.008-.101-.003-.06-.01-.121-.017-.182-.005.007-.012.01-.02.009l-.132-.002z" fill="#f1be3c"/><path d="M20.403 8.103c-.019.05-.04.1-.064.15a.385.385 0 00.062-.037c.053-.039.115-.04.176-.035.042.004.067.037.087.072.019.034.023.086.005.108a.312.312 0 01-.067.18c-.02.02-.032.046-.057.06-.007.005-.01.017-.021.011-.01-.005-.008-.015-.01-.024-.005-.038-.014-.076-.045-.104l-.006-.008c-.04-.031-.145-.004-.166.043a.199.199 0 00.005.004.175.175 0 01.044-.035c.07-.033.12-.011.142.062.008.024.014.049.012.075-.001.021.004.03.025.015a.397.397 0 00.157-.213v.001c.004 0 .005-.004.005-.008a.006.006 0 000-.005c.005-.04.012-.08.013-.122.002-.025.01-.05-.005-.074v-.01c-.01-.002-.017-.008-.02-.016-.037-.074-.12-.098-.206-.05a.466.466 0 00-.04.024c-.005.005-.01.006-.016 0l-.015.01c-.003.003-.004.01-.01.005l.004-.01c.01-.03.023-.058.033-.087a.582.582 0 00.042-.318.408.408 0 00-.08-.19l.005.016c.08.169.075.339.01.51z" fill="#fddf79"/><path d="M20.246 8.547a18.253 18.253 0 01-.073-.007l-.008.002c-.007.024-.027.01-.039.01-.023.002-.04.009-.054.026-.013.017-.029.028-.054.024.01.007.03.01.011.025a.052.052 0 00-.004.005c-.034.04-.034.041.015.056.007.003.011.006.013.013.03.01.06.012.091.013.046.003.09.005.136.012l.02.001c.05-.001.086-.036.086-.085 0-.05-.03-.08-.083-.081-.005 0-.012.002-.015-.007l.014-.031a.09.09 0 01-.005-.005c-.016.012-.023.037-.05.028zm-.04.12v-.004h.002v.002l-.002.001zm.086-.074c.014-.01.029-.025.041.002.036.007.037.034.033.062a.06.06 0 01-.057.05c-.02 0-.042-.004-.062-.006-.01-.001-.025.006-.03-.006-.003-.01.003-.022.01-.03.023-.024.039-.053.065-.072z" fill="#fddf79"/><path d="M18.608 7.834c-.007.004-.03-.003-.011.017l.023.023c.014 0 .027-.003.04-.002.111.002.222-.002.334.004.076.005.153-.004.23-.004.053 0 .107-.014.162-.003a.095.095 0 00.03-.033c-.008-.007-.017-.002-.025-.004l-.603.005c-.06 0-.12.005-.18-.003zM19.183 8.851a.345.345 0 01-.067-.223.284.284 0 00.018.17c.009.023.036.032.049.053zM19.587 9.046a.489.489 0 00.261-.142c.015-.016.03-.033.05-.043l.042-.08h-.02c-.013.018-.026.037-.04.054a.461.461 0 01-.444.179.381.381 0 01-.185-.087c.028.026.04.066.078.085a.4.4 0 00.258.034zM20.053 8.701c-.002-.007-.006-.01-.013-.013-.049-.015-.049-.015-.015-.056l.004-.005c.018-.015-.001-.018-.01-.025.024.004.04-.007.053-.024.014-.017.03-.024.054-.025.012-.001.032.013.04-.01a.745.745 0 01-.134-.014l-.02-.003-.023.002a.08.08 0 00-.08.083c0 .042.025.066.059.084.002-.001.003 0 .004.001.027-.006.054.008.081.005zM20.384 8.92c.044.041.091.077.149.097.04.014.081.03.123.028.046-.002.093-.003.14-.026.064-.033.125-.067.163-.132.005-.01.017-.02.004-.032a.276.276 0 01-.13.122.378.378 0 01-.418-.061c-.028-.024-.054-.05-.081-.074a.156.156 0 00.05.079zM20.91 8.173l-.084.319-.087.33c-.003.014-.01.03.014.025l.004-.011.105-.402c.023-.091.056-.18.058-.276v-.01c-.004.009-.008.017-.01.025zM20.469 8.143c.086-.048.17-.024.205.05.004.008.01.014.02.015.001-.017-.011-.028-.018-.041-.031-.062-.085-.085-.151-.067a.31.31 0 00-.112.067c.005.006.01.005.017 0a.466.466 0 01.039-.024zM20.705 8.35c.002-.02-.005-.038-.005-.057-.001.041-.008.081-.013.122a.147.147 0 00.018-.066zM20.702 8.274c0-.02-.018-.035-.008-.055.015.023.008.049.006.074 0-.006.003-.012.002-.019z" fill="#fefefe"/><path d="M19.94 8.782c.01-.008.012-.022.019-.033 0-.018.015-.034.013-.053-.001-.002-.002-.002-.004-.001l-.048.086h.02zM20.775 8.835c.04-.023.076-.054.12-.069.054-.017.085.009.075.063l-.007.026c.013.012.001.023-.004.032-.038.065-.099.1-.164.132-.046.022-.093.024-.14.026-.04.002-.082-.014-.122-.028a.436.436 0 01-.15-.096.156.156 0 01-.05-.08h.001c.002-.012-.007-.019-.015-.026l-.033-.06c-.01.023.015.04.013.061.023.07.066.123.125.166.058.042.12.072.19.09.015.005.033-.003.047.01a.406.406 0 00.205-.052c.083-.046.128-.114.122-.208-.005-.074-.037-.091-.104-.067a.345.345 0 00-.092.054c-.008.006-.018.013-.017.026h-.019c0 .004-.002.008-.003.011.01 0 .017-.002.022-.01z" fill="#fddf79"/><path d="M18.067 8.765c.018.015.028.036.041.054a.469.469 0 00.527.176.363.363 0 00.232-.247c.008-.044.024-.087.018-.133h-.002v-.003a.58.58 0 00-.006-.017l-.001-.001c-.006-.002-.007-.008-.007-.013l-.005-.007h-.002l-.005-.007h-.001l-.006-.006V8.56l-.009-.004c-.015-.008-.03-.008-.047-.01-.02-.01-.036-.006-.052.009a.895.895 0 00-.014.007h.001c-.005 0-.01 0-.013.006-.022.02-.052.033-.049.07 0 .006-.005.01-.01.009-.033-.005-.049.02-.07.037l-.005.011-.005.007-.008.006c-.01.024-.032.036-.052.057v-.736c.02.003.031.018.046.028.057.042.115.084.171.127.027.022.055.036.088.018.035-.019.04-.051.033-.086-.017-.026-.044-.043-.065-.065-.055-.06-.119-.112-.17-.177l-.023-.023c-.019-.02.004-.013.01-.017.008-.011.007-.023.009-.036l.01-.088c-.002-.04.007-.08.01-.121.003-.049.009-.097.014-.146l.01-.251c.004-.07-.006-.14-.005-.209-.288.005-.57.039-.837.154-.013.005-.023.003-.035 0a1.206 1.206 0 00-.648.03.234.234 0 00-.156.152c-.06.161-.105.327-.15.493l-.007.026c.012.052.04.098.055.148.023-.005.052-.024.068-.008.018.018-.003.046-.01.068-.026.083-.054.166-.079.25-.006.022-.011.005-.018.003-.009.003-.004.009-.003.014a.128.128 0 01.015.05c.004.051.05.072.093.044a.161.161 0 00.06-.086l.046-.134c.005-.015.011-.029.028-.034l.008-.002c.06.223.119.445.177.668.003.01.02.034-.015.027a.358.358 0 01-.01-.002l-.006-.008-.007-.007c-.002-.006-.007-.008-.013-.007-.032-.017-.063-.037-.096-.052-.043-.02-.06-.013-.086.025.003.086.057.138.126.173.16.082.324.053.464-.078.026-.024.047-.053.07-.08l.025-.054.007-.03c-.049.004-.084-.015-.099-.052a.085.085 0 01.027-.099.07.07 0 01.036-.015c.03-.004.033-.011.014-.036a.13.13 0 00-.098-.05c-.04-.002-.065.018-.082.063a.192.192 0 00-.014.054c-.001.02-.005.038-.009.06-.025-.016-.034-.045-.055-.065-.016-.014-.032-.027-.042-.045l-.007-.013-.01-.011c-.017-.02-.04-.034-.05-.06-.007-.007-.008-.015-.008-.023-.012-.009-.012-.023-.013-.036a.262.262 0 01.019-.239c.04-.064.095-.08.166-.053a.245.245 0 01.09.06l.007.007.012.01c.017-.012.003-.023-.001-.032a.985.985 0 01-.068-.22.483.483 0 01.07-.346.706.706 0 01.098-.165c.004-.005.007-.012.015-.006l.014.01c.004 0 .007.002.007.007.004 0 .006.002.007.006.036.018.06.05.086.08l.007.007.007.007.006.007c.007.009.02.014.02.027v.003l.007.01.007.006c.087.1.133.214.123.348a.906.906 0 01-.029.18c-.002.008-.009.018-.001.028 0-.001 0 0 0 0-.006-.002-.005.003-.005.006h.004l.002-.006.006-.001a.228.228 0 01.263-.096c.064.019.094.075.111.136.037.127.003.245-.053.358v.003c-.005.012-.007.026-.02.034 0 .007 0 .016-.007.016-.01.001-.004-.011-.008-.016-.016-.039-.03-.077-.062-.108-.062-.06-.206-.031-.217.06.014 0 .029 0 .042.005a.08.08 0 01.057.07c.005.037-.011.065-.045.083-.005.003-.013.003-.016.01l.002.007.03.047c.004.005.009.01.004.017zM17.23 8.835zM17.223 8.829z" fill="#cf2236"/><path d="M16.979 7.319a.234.234 0 01.155-.151c.214-.071.43-.078.648-.03.012.002.023.004.035-.001.268-.115.55-.149.838-.154 0-.029.003-.059-.007-.087l-.039-.007a6.862 6.862 0 01-.8-.203c-.149-.049-.297-.103-.454-.12a.578.578 0 00-.436.115c-.003.003-.007.003-.01.006-.026.021-.049.046-.073.069 0 .01-.009.017-.015.025a.636.636 0 00-.077.151c-.009.023-.014.048-.02.071-.012.044-.024.088-.028.135a1.15 1.15 0 00.013.295c.023.14.06.274.112.405l.008-.026c.044-.166.089-.332.15-.493z" fill="#fefefe"/><path d="M16.558 7.75c.032.056.053.119.104.164.012.01.024.022.04.017.019-.007.026-.024.027-.043 0-.011.001-.023-.001-.033-.014-.062-.023-.124-.032-.185a2.846 2.846 0 01-.033-.345c-.002-.05.007-.098.01-.147.006-.062.034-.116.05-.175.007-.023.012-.048.021-.07.012-.033.012-.07.029-.1.015-.03.025-.066.063-.077-.004-.018.009-.027.019-.037.016-.017.037-.018.054-.032.003-.003.007-.003.01-.006a.613.613 0 01.49-.123c.1.015.196.05.294.075.132.034.26.077.394.106l.45.09c.034.008.06-.004.067-.029.012-.043 0-.08-.033-.095-.08-.037-.166-.062-.248-.095-.115-.044-.23-.088-.342-.137l-.36-.159a1.122 1.122 0 00-.373-.093.775.775 0 00-.426.097.806.806 0 00-.275.242.917.917 0 00-.094.181c-.013.032-.027.064-.037.097-.02.071-.038.143-.044.218v.005c-.01.14.012.278.057.41.033.096.07.19.119.278zm-.048-.867c.01-.055.026-.107.041-.16a.59.59 0 01.182-.254c.045-.043.1-.075.151-.108.041-.026.09-.033.136-.043a.91.91 0 01.21-.023.621.621 0 01.212.039c.048.018.1.03.147.05.151.064.3.135.45.198.099.04.196.084.293.125.008.004.022.004.018.015s-.015.005-.024.003c-.12-.03-.243-.053-.359-.094-.102-.036-.207-.064-.31-.098a1.406 1.406 0 00-.317-.067.696.696 0 00-.338.049.608.608 0 00-.27.218c-.048.068-.073.145-.107.22-.045.1-.042.202-.044.33-.007.068.007.16.019.25.002.02-.009.024-.021.029-.015.006-.024 0-.029-.014a1.296 1.296 0 01-.062-.247c-.006-.044-.013-.088-.013-.132 0-.097.017-.191.035-.286zM18.092 9.19h.14c.023 0 .043-.005.042-.035-.003-.02-.019-.026-.033-.035-.039-.025-.079-.05-.117-.076a2.97 2.97 0 01-.221-.176c-.02-.017-.038-.016-.055.003l-.069.076a1.56 1.56 0 01-.208.18.048.048 0 00-.02.032c0 .033.024.032.047.032h.494z" fill="#f1be3c"/><path d="M18.66 7.192l-.01.252h.152a5.557 5.557 0 00-.007-.669l-.153.001c-.001.04.011.08.006.12.01.028.006.058.007.087-.001.07.008.14.005.209z" fill="#fddf79"/><path d="M18.355 9.283c-.009 0-.027-.004-.018-.012.02-.018-.007-.014-.006-.02a.093.093 0 00.05-.1c-.001-.005-.001-.01-.007-.011-.032-.006-.036-.036-.045-.058-.007-.018-.014-.032-.03-.04a.33.33 0 01-.097-.063c-.021-.02-.057-.028-.06-.065-.042-.039-.06-.091-.08-.142l.005-.007c.005-.007 0-.012-.004-.017-.01.01-.016.001-.022-.006-.012.012-.027.013-.043.013h-.124a.05.05 0 01.028.035c.008.035.032.06.058.082l.115.095c.071.058.142.117.22.166.034.021.038.033.02.07-.004.043-.026.067-.068.067-.123 0-.247.005-.37-.002-.095-.006-.19-.012-.285-.01-.023 0-.049.01-.066-.015-.032.008-.052-.014-.076-.028-.008-.005-.017-.008-.023.001-.011.017.013.064.034.066l.155.016c.058.005.115 0 .172 0 .107-.001.215-.001.323.004.143.006.287 0 .43 0-.004-.018-.02-.012-.03-.012-.052.004-.103-.009-.156-.007zM20.424 8.982a.323.323 0 01-.124-.166h-.07c-.01 0-.023-.008-.028.01-.004.012-.008.023.001.036.015.02.033.039.047.059.028.04.063.07.098.102.048.045.103.08.157.116a.05.05 0 01.022.053c-.004.02-.019.032-.04.032a.066.066 0 01-.058.033c-.13.001-.261-.003-.391.013-.063.008-.126-.003-.19.01-.064.014-.132.004-.198.007-.012.001-.033-.006-.039.016.148 0 .297.004.444-.003.096-.005.192-.003.288-.007.088-.003.175-.025.263-.016.02.002.022-.01.022-.025v-.114c-.002-.027-.004-.052.033-.055-.014-.014-.032-.006-.048-.01a.575.575 0 01-.19-.09z" fill="#f1be3c"/><path d="M17.996 8.655c-.02-.035-.055-.057-.077-.09-.009-.014-.025-.009-.04-.011-.015-.003-.035.011-.047-.012V8.54a13.8 13.8 0 01-.067.007c-.026.005-.04-.004-.056-.028-.031-.05-.082-.068-.139-.057-.046.009-.064.048-.076.089a.253.253 0 00-.01.045c-.002.022-.01.021-.025.01l-.019-.02c.021.02.03.049.056.066.003-.023.007-.042.008-.06a.195.195 0 01.014-.055c.017-.045.042-.065.082-.062a.128.128 0 01.098.049c.02.025.017.032-.014.036a.069.069 0 00-.036.015.085.085 0 00-.027.1c.015.036.05.055.099.05l.135-.01c.03-.003.062-.003.09-.014.007-.022.03-.01.043-.019.013-.009.016-.013.008-.028zm-.243.046c-.023.003-.045.012-.069.004a.07.07 0 01-.05-.056c-.006-.028.01-.046.032-.06.022-.018.034 0 .05.012.023.019.034.048.059.065.007.005.019.02.012.03-.007.01-.022.005-.034.005zM17.335 8.258c.015-.052.074-.086.116-.071h.06c.01-.01.012-.002.014.006a.19.19 0 01.109.045c.005.005.012.012.02.006.007-.007 0-.015-.004-.02a.919.919 0 01-.092-.292.548.548 0 01.032-.293c.007-.017.023-.033.016-.054a.483.483 0 00-.071.345.99.99 0 00.068.221c.004.009.018.02.002.032v.003c.002.004.003.009.009.004l-.01-.003c-.008-.001-.013-.005-.012-.014l-.007-.007c-.026-.003-.046-.02-.068-.03-.094-.043-.166-.003-.201.09-.022.058-.008.115-.005.172 0 .013 0 .027.013.036.008.005.006.015.007.022.01.027.033.042.05.06a.11.11 0 01.01.012c-.054-.082-.084-.17-.056-.27zM17.585 8.166z" fill="#fddf79"/><path d="M18.24 9.243c.034 0 .053-.01.065-.039-.003-.02-.003-.044-.031-.049 0 .03-.019.035-.042.035h-.14l-.494.001c-.023 0-.047.002-.047-.032-.041.006-.02.037-.025.058.018.016.038.019.061.02.218.005.436.005.654.006z" fill="#fefefe"/><path d="M17.427 9.062c-.008.003-.015.004-.016.013.013.007.012.02.014.032s-.01.037.012.033c.017-.003.028.012.043.004.022-.012.045-.024.065-.039.094-.07.18-.145.25-.24.013-.018.004-.03.004-.043 0-.014-.018-.006-.028-.006h-.067a.343.343 0 01-.142.179.564.564 0 01-.135.067z" fill="#f1be3c"/><path d="M17.256 9.041c.11.02.21-.006.301-.068.06-.04.113-.088.13-.163-.022.027-.043.056-.069.08-.14.13-.304.16-.464.078-.069-.035-.123-.087-.125-.173h-.006c-.004.001-.005.004-.004.008v.033c.012.026.015.057.033.082.05.07.12.108.204.123z" fill="#fefefe"/><path d="M17.557 8.973a.398.398 0 01-.301.068.303.303 0 01-.204-.123c-.018-.025-.02-.055-.034-.082-.014.04.005.075.024.107a.294.294 0 00.183.126.508.508 0 00.186.006c0-.01.008-.01.016-.013a.559.559 0 00.135-.068.344.344 0 00.143-.178c-.004-.02.019-.038.009-.06l-.027.054c-.017.075-.07.123-.13.163z" fill="#fddf79"/><path d="M18.047 8.684c.034-.018.05-.046.045-.083a.08.08 0 00-.057-.07c-.013-.004-.028-.004-.042-.005h-.02c-.046.013-.094.011-.14.016.01.023.031.009.047.012.014.002.03-.003.04.011.021.033.056.054.076.09.008.014.005.018-.008.027-.014.009-.036-.003-.042.02.027.005.054-.004.081-.007a.004.004 0 01.004 0c.002-.008.01-.008.016-.01z" fill="#fefefe"/><path d="M17.877 9.268c.123.007.247.003.37.002.042 0 .064-.024.067-.067l-.009.001c-.012.03-.032.04-.064.04-.218-.002-.436-.002-.654-.008-.023 0-.044-.003-.06-.02-.016.01 0 .019-.002.027.018.026.044.014.067.014.095 0 .19.006.285.011z" fill="#fddf79"/><path d="M17.262 8.819l-.177-.668a.45.45 0 00.017.141l.145.554c.034.007.017-.018.015-.027zM16.856 8.296c.025-.084.053-.166.079-.25.007-.022.027-.05.01-.068-.017-.016-.045.003-.069.008l-.13.047c-.01.004-.028.001-.023.017.005.019.021.004.03 0 .049-.015.096-.032.144-.049.009-.003.019-.006.026 0 .006.006.001.015-.001.022-.01.033-.023.065-.032.098-.017.06-.046.115-.052.178.006.002.011.019.018-.003z" fill="#fefefe"/><path d="M17.049 8.187l-.047.134a.162.162 0 01-.06.086c-.042.028-.089.008-.093-.044a.124.124 0 00-.015-.05c-.026.033-.01.091.028.113.055.033.118-.005.145-.07.027-.066.046-.135.07-.203-.017.005-.023.019-.029.034zM17.029 8.795c.026-.038.042-.045.085-.025.033.015.064.035.096.052.001-.012-.007-.018-.015-.023a.337.337 0 00-.103-.052c-.042-.012-.064.003-.069.048h.006zM18.033 8.701c-.003.015.005.028.008.041.006.007.011.016.022.006l-.03-.047z" fill="#fddf79"/><path d="M17.338 9.441c-.005 0-.01.003-.007.01.005.006.008 0 .012 0 0-.005 0-.01-.005-.01z" fill="#fefefe"/><path fill="#fddf79" d="M18.027 8.695l.006.006-.002-.006h-.004z"/><path fill="#fefefe" d="M20.668 9.451l-.002-.007-.006.006.008.001z"/><path d="M17.085 8.151l-.009.002c.002-.005.005-.006.009-.002z" fill="#fddf79"/><path d="M21.116 6.702c0 .005.002.007.006.007 0 .004.003.006.007.007 0 .004.002.006.007.006 0 .005.002.007.007.007 0 .005.002.007.006.007.003.016.014.025.027.033.013-.002.02.008.026.017.028.05.057.098.075.152.047.147.062.297.054.451-.008.155-.038.307-.055.46a.165.165 0 00.007.065c.006.023.024.023.04.014a.144.144 0 00.04-.037 1.755 1.755 0 00.232-.53.924.924 0 00.003-.453.85.85 0 00-.325-.524.797.797 0 00-.69-.139c-.17.04-.321.12-.478.187-.134.057-.27.114-.406.168-.087.035-.177.065-.265.098-.052.02-.07.072-.04.115.012.019.028.027.05.022l.239-.051c.137-.03.274-.06.41-.093.08-.02.159-.042.238-.065.101-.028.201-.06.307-.073a.617.617 0 01.42.09c.02.014.048.022.051.054v-.001c0 .004.002.006.007.006zm-.214-.21a.48.48 0 00-.169-.018 1.12 1.12 0 00-.37.063c-.087.027-.173.06-.26.08-.114.029-.227.055-.34.084a.042.042 0 01-.013 0c-.008 0-.02.005-.023-.007-.004-.013.01-.012.017-.015.062-.025.12-.056.182-.082.146-.063.29-.13.434-.196.105-.05.217-.077.33-.099a.75.75 0 01.277.015.55.55 0 01.186.06.727.727 0 01.27.27c.063.11.085.233.107.355a.878.878 0 01-.017.31.887.887 0 01-.04.146c-.004.011 0 .031-.022.025-.018-.005-.04-.01-.034-.037.006-.033.006-.066.006-.1 0-.116-.017-.23-.04-.345a.657.657 0 00-.057-.166c-.025-.05-.063-.093-.097-.137a.596.596 0 00-.327-.206z" fill="#f1be3c"/><path d="M19.103 5.815v.145l.14-.001c.009-.02.015-.044.01-.061-.017-.054-.034-.11-.071-.154-.025-.03-.04-.075-.092-.072v.12c.015.002.012.013.012.023z" fill="#fddf79"/><path d="M18.876 6.936c.011-.015.013-.037.032-.048l.007-.006.007-.007.012-.008.008-.005a.109.109 0 01.097-.011c.033.01.062.033.076.064l.01.02h.045c0-.01.004-.015.012-.02l.001-.105c-.005-.063.008-.126.007-.189 0-.016-.002-.029-.023-.026-.02.002-.026-.008-.024-.026.004-.025-.01-.03-.031-.028l-.03.001c.082.08.042.192-.04.22a.122.122 0 01-.126-.026c-.038-.034-.049-.078-.037-.127 0-.005.002-.009.003-.013-.06-.003-.058-.002-.06.055-.001.037.008.075-.006.111a.604.604 0 00.014.173l.046.001z" fill="#f1be3c"/><path d="M18.916 6.736c.036.032.08.041.127.025.082-.027.122-.14.04-.219-.052-.03-.103-.042-.154 0a.23.23 0 01.004.004c.034-.014.062-.014.08-.004.02.01.03.033.03.064-.002.03-.036.062-.068.062-.03 0-.064-.031-.065-.06 0-.015.002-.029.003-.043l.006-.007a.21.21 0 00.007-.006l.007-.006-.004-.005-.007.007-.007.006a.433.433 0 01-.007.007c-.013.008-.018.022-.026.035a.794.794 0 01-.003.013c-.011.049-.001.093.037.127z" fill="#93aab3"/><path d="M18.802 7.471l.012.002c.004-.024-.001-.05.015-.07.002-.014-.01-.025-.005-.038.004-.11.006-.22.002-.329-.008-.015-.002-.03-.004-.046-.004-.02.005-.036.008-.054a.604.604 0 01-.014-.174c-.014-.03-.008-.062-.015-.093l-.01.001c0 .035.003.07.004.105a5.556 5.556 0 01.007.696zM19.176 6.983l-.001.106c0 .158.002.316.02.474l.007.001-.002-.122c-.01-.048-.006-.097-.008-.146-.003-.08 0-.161.004-.242.003-.092.004-.184.01-.277l.003-.108h-.01c-.004.047-.003.095-.016.14l-.001.106c.003.023-.003.046-.006.068z" fill="#fefefe"/><path d="M18.8 6.669c0-.031.007-.063-.006-.094-.01-.006-.002-.019-.012-.03l.008.125.01-.001z" fill="#fddf79"/><path d="M19.35 6.14h.04c.014 0 .022-.004.02-.02h-.038c-.014 0-.023.004-.021.02z" fill="#f1be3c"/><path d="M19.205 6.602c0 .022-.013.044-.006.067h.01c0-.022.022-.046-.004-.067z" fill="#fddf79"/><path d="M19.26 6.122h-.464c-.008 0-.018-.005-.027.011.134.014.264.002.394.007l.125-.002c.002-.024-.017-.016-.028-.016z" fill="#fefefe"/><path d="M19.088 5.267a.099.099 0 00-.021-.13c-.026-.02-.058-.009-.088 0 .02 0 .038.005.046.022.01.02.01.044-.01.061-.019.016-.041.016-.061.004-.024-.015-.03-.038-.022-.064.003-.008.013-.013.01-.023-.004.002-.01.003-.014.007-.03.03-.033.067-.022.105.012.041.045.064.087.068.041.004.073-.016.095-.05z" fill="#93aab3"/><path d="M18.909 5.936l-.001-.17c-.008-.013-.02-.018-.034-.012-.074.03-.15.116-.118.205.047 0 .094 0 .141.002.02-.001.012-.016.012-.025zM16.847 8.608c0-.031-.023-.054-.052-.053-.026 0-.034.018-.038.043 0 .003-.005.002-.005.006 0 .003.004.002.004.005.002.029.012.046.041.045.028 0 .05-.02.05-.046zM19.09 5.792v.144c0 .009-.008.024.013.023v-.144c0-.01.002-.021-.012-.023z" fill="#fefefe"/><path d="M18.64 9.732c.017.02.052.004.08.008.179-.002.358-.002.537 0 .026 0 .052-.002.077 0 .022 0 .032-.005.031-.03a9.626 9.626 0 010-.274c0-.023-.008-.027-.029-.027h-.675c-.02 0-.027.004-.027.026v.216c0 .028-.01.062.005.081zm.688-.293l.002-.001a.426.426 0 01.007-.008c.002-.001.008 0 .006-.005l-.006.006a.426.426 0 00-.007.006v.001l-.002.003v-.002zm-.033.04l.002-.002.007-.006.006-.007.001-.001.001-.002v.002l-.001.001a.212.212 0 00-.007.007l-.007.007-.002.002-.044.05-.007-.008c.018-.013.029-.033.051-.042zm-.56.032l.007.006.007.007c.03.024.065.021.1.021h.379c-.006.021-.018.026-.036.026h-.384c-.03 0-.045-.024-.059-.046l-.007-.007-.007-.007-.002-.002.002.002zm-.051-.058l.003.004h.001l.007.007.007.007.006.006.007.007v.001l.002.002h-.001v-.002h-.001l-.007-.007-.007-.007-.006-.007-.007-.006v-.001l-.007-.003h.003z" fill="#4f6fb6"/><path d="M18.13 9.457a.66.66 0 00-.308.006c-.055.014-.108.032-.145.08l-.005.008c-.007.002-.007.008-.007.013l.005.068a.01.01 0 01.004.006l.004.006.001.001c.004 0 .006.002.006.006.005 0 .007.002.006.006l.002.001c.004 0 .005.002.005.006l.001.001c.01-.001.019 0 .02.013a.178.178 0 01.008.005c.002 0 .003.001.004.003.022.001.042.006.056.024l.005.002c.017-.003.032.004.047.008a.629.629 0 00.2.012.52.52 0 00.158-.031c.007-.003.015-.002.022-.002l.002-.001c.003-.007.007-.007.013-.006a.01.01 0 01.006-.002l.006-.005.002-.001c.002-.006.007-.006.012-.006h.001c0-.004.002-.006.005-.006l.001-.001.01-.005c.016-.004.017-.024.032-.03a.088.088 0 00-.014-.103.315.315 0 00-.164-.076zm-.031.114c-.021.01-.044.007-.06.008-.028 0-.05.002-.072-.007-.01-.005-.02-.011-.02-.023-.002-.014.01-.02.02-.023a.21.21 0 01.131 0c.01.004.022.008.022.022 0 .013-.01.019-.021.024zM19.7 9.639l.004.004.002.003.005.004.002.002.004.005.002.002c.001.003.002.004.005.005l.002.002.005.005h.002c.005 0 .01 0 .01.006l.003.002c.02.001.036.006.047.024a.01.01 0 01.005.003c.006-.002.01-.001.014.004l.007.002c.017-.002.032.004.048.008.024.006.049.002.073.005a.746.746 0 00.249-.013c.036-.01.074-.014.104-.04l.001-.001.005-.006h.002c.001-.016.01-.025.026-.027a.31.31 0 00.007-.08v-.001l-.007-.012v-.001l-.006-.008a.305.305 0 00-.154-.078c-.08-.022-.163-.011-.244-.014-.007.006-.016.005-.025.007a.375.375 0 00-.176.069c-.036.028-.046.064-.03.108l.009.01zm.186-.119a.271.271 0 01.17 0c.014.005.03.013.029.032-.001.018-.016.022-.03.028a.204.204 0 01-.087.01.192.192 0 01-.083-.01c-.013-.005-.025-.013-.025-.028 0-.017.012-.028.026-.032z" fill="#507e53"/><path d="M19.985 9.785h.028a.469.469 0 00.134-.004c.054-.007.1-.047.156-.036.005.001.009-.006.01-.012 0-.003-.001-.01.005-.009.031.01.025-.014.03-.03.003-.013.008-.025.026-.023l.002.002-.002-.002c-.002-.016-.01-.035-.005-.05.007-.025.006-.04-.024-.043.002.022 0 .043-.018.06-.016.002-.025.01-.027.026v.001l-.006.006h-.001c-.038.005-.066.031-.102.04h-.002c-.022.006-.041.021-.064.025-.062.01-.123-.004-.185-.011-.011-.001-.022.002-.033.001-.014-.001-.027-.002-.04-.006-.012-.003-.024.002-.037-.002l-.011-.006-.007-.002c-.003-.006-.008-.006-.014-.004a.008.008 0 00-.005-.003c-.01-.018-.028-.023-.047-.024l-.002-.002c-.002-.006-.006-.006-.011-.005l-.002-.002-.005-.004-.002-.003c-.003 0-.004-.002-.005-.004a.005.005 0 00-.002-.002l-.004-.005-.002-.002-.005-.004a.004.004 0 00-.002-.003L19.7 9.64l-.009-.01c0 .036.018.063.048.082a.504.504 0 00.24.074h.007zM18.74 9.758h.492c.013 0 .025 0 .025-.017-.179-.003-.358-.003-.538-.001-.006.02.008.019.02.019z" fill="#d1993e"/><path d="M17.665 9.565a.072.072 0 000 .066l.005.001-.005-.067zM18.273 9.67l.003-.004-.009.005h.006z" fill="#cf2236"/><path d="M18.266 9.672v.005h-.005l-.001.002-.012.005-.002.002-.006.004a.01.01 0 00-.006.003c-.006-.002-.01-.002-.013.005h-.002c-.035.024-.077.03-.118.038-.021.003-.042-.006-.063-.004-.056.003-.112 0-.168-.007-.01-.001-.02-.002-.03-.005-.012-.003-.025.002-.037-.002-.004-.001-.007-.004-.011-.006a.007.007 0 00-.005-.002c-.014-.018-.034-.023-.056-.024a.007.007 0 00-.005-.002l-.007-.005v-.001c-.001-.013-.01-.014-.02-.013 0-.005-.003-.006-.006-.006l-.002-.002c0-.003-.001-.005-.005-.005l-.001-.001-.006-.006v-.001l-.006-.006a.01.01 0 00-.003-.006.01.01 0 00-.005-.001c-.001.005-.006.012-.004.015.02.049.06.084.104.101.051.02.107.036.162.036.032 0 .065.002.1-.006.018-.004.028-.024.055-.02a.16.16 0 00.112-.019c.027-.017.063-.022.074-.059l.005-.008h-.006v.002z" fill="#d1993e"/><path d="M20.345 9.578c-.007-.004-.002-.016-.011-.02a.314.314 0 01-.007.08c.018-.017.02-.038.018-.06z" fill="#cf2236"/><path d="M19.997 9.805c.015 0 .015-.01.016-.02h-.028c.002.008 0 .019.012.02z" fill="#fddf79"/><path d="M19.003 8.52a.158.158 0 00.154-.157.156.156 0 00-.153-.156c-.09-.002-.156.07-.16.157-.004.081.075.157.159.156zm-.033-.279a.07.07 0 01.067.068.07.07 0 01-.067.07.07.07 0 01-.069-.067.07.07 0 01.069-.07z" fill="#93aab3"/><path d="M18.734 8.184l-.172-.127c-.014-.01-.026-.025-.045-.028v.736c.02-.021.042-.033.051-.057-.02 0-.015-.015-.015-.026v-.484c0-.02.01-.032.023-.04.015-.01.022.007.03.014.04.036.086.06.14.07.042.008.072-.002.097-.034.024-.029.023-.06.011-.092.007.035.003.067-.032.086-.033.018-.06.004-.088-.017z" fill="#fefefe"/><path d="M18.635 8.995a.47.47 0 01-.527-.176c-.013-.018-.023-.04-.041-.054-.002.003-.006.006-.005.007.02.051.038.103.08.142.008 0 .014.006.02.01a.624.624 0 00.19.12c.094.033.188.049.283.007.1-.043.18-.103.22-.213.01-.03.006-.06.012-.09a.363.363 0 01-.232.248zM18.881 8.718c.007-.033.003-.069.004-.103.006.046-.01.09-.019.133.004-.011.013-.018.015-.03z" fill="#fefefe"/><path d="M19.884 9.006c.057-.045.112-.095.165-.146.02-.018.05-.031.053-.064.003-.023.013-.037.037-.039-.06-.004-.12.003-.18-.008-.007.01-.008.025-.02.033l-.04.08c0 .011-.005.021-.013.029-.015.017-.022.032-.01.056.011.023-.005.046-.02.058-.06.048-.123.094-.186.138-.015.01-.019.021-.02.038 0 .02.01.04.028.04.023 0 .01-.024.013-.037-.008-.025.004-.043.025-.055.059-.037.113-.08.168-.123z" fill="#f1be3c"/><path d="M20.41 9.191h-.636c-.026 0-.043-.008-.049-.035-.017.001-.022.014-.026.028.008.023.01.048.047.047h.677c.03 0 .046-.014.046-.045 0-.005.002-.01.004-.015-.002-.01-.009-.015-.019-.014-.002.027-.019.034-.043.034z" fill="#fefefe"/><path d="M19.275 9.125a1.654 1.654 0 01-.23-.196c-.031-.033-.052-.032-.086 0-.06.056-.116.113-.184.159a.899.899 0 00-.062.048c-.013.01-.016.026-.007.039.013.02.021-.005.033-.005l.002-.01c-.008-.028.018-.037.032-.048.068-.05.136-.096.197-.154.019-.018.042-.022.06-.003.062.068.143.114.212.173.012.01.017.02.015.034.007.003.008.009.01.014.01 0 .022.015.032-.003.009-.015 0-.025-.01-.034-.004-.005-.009-.01-.014-.013z" fill="#d1993e"/><path d="M19.188 9.176a3.068 3.068 0 00-.377 0c-.024.001-.05.003-.07-.015l-.003.009c0 .032.016.042.048.041.145-.002.289-.001.433 0 .026 0 .043-.008.048-.035-.002-.005-.003-.011-.01-.014-.02.019-.046.015-.07.014z" fill="#fefefe"/><path d="M20.455 8.442c.018.007.033.016.054.009.025-.01.033.001.032.027 0 .041.02.061.06.064a.311.311 0 00.068-.18c-.001-.036 0-.072-.019-.104-.004-.007-.006-.015-.015-.015-.01 0-.012.008-.014.016-.018.046-.052.085-.057.138-.004.04-.022.042-.052.018-.056-.042-.12-.044-.184-.027-.054.014-.09.056-.128.095-.017.017-.03.032-.027.057l.073.007c.03-.096.108-.146.21-.105zM20.314 8.178c.014-.04.03-.081.043-.123.017-.058.031-.118.046-.174-.006-.049-.025-.09-.03-.135 0-.006-.005-.012-.008-.018-.006-.01-.016-.011-.026-.008-.01.003-.019.008-.019.02 0 .015 0 .029.005.043.003.009.01.019.005.029-.017.029-.006.061-.01.091-.005.028-.027.053-.021.08a.087.087 0 01-.016.069.123.123 0 00-.023.071c0 .012 0 .025-.006.036-.016.024-.001.044.017.05.022.009.035-.01.043-.03zM19.827 8.345c-.009.006-.023.005-.018.022.004.013.015.013.027.014.018 0 .036-.006.055-.006.04 0 .072.016.105.033.01.005.016.004.023-.004.003-.004.007-.009.002-.014-.03-.036-.064-.068-.121-.068-.02.01-.049.008-.073.023z" fill="#d1993e"/><path d="M18.836 7.034v.297h.039c-.004-.042.004-.08.035-.11.009-.01.015-.022.03-.024.036-.037.12-.027.157.02a.127.127 0 01-.027.19.13.13 0 01-.183-.05c-.01.042-.003.084-.004.126 0 .015.012.015.022.015h.217c.013 0 .023-.004.02-.019-.003-.026.013-.03.033-.03a4.637 4.637 0 01-.01-.326c0-.012-.005-.025.006-.035v-.104l-.001-.05-.046.002c.009.075-.015.126-.069.15a.126.126 0 01-.18-.116l.001-.033-.046-.001c-.003.018-.012.035-.008.054.025.009.007.03.014.044z" fill="#fddf79"/><path d="M18.852 7.612l.023-.001c.008-.023.01-.049.035-.061l.018-.017c.005 0 .01-.002.008-.008.002-.007.008-.007.014-.007.062-.04.15.003.172.075a.127.127 0 01-.057.146.123.123 0 01-.155-.022 1.686 1.686 0 01-.018-.02c-.022.018.002.037-.003.056-.004.02.008.026.027.026h.198c.02 0 .032-.004.03-.027-.002-.014.005-.022.019-.02.027.003.027-.013.027-.033 0-.083-.012-.166-.015-.25-.02 0-.036.004-.032.03.002.015-.008.019-.02.019h-.218c-.01 0-.022 0-.022-.015.001-.042-.006-.084.004-.125l-.012-.028h-.039c0 .013.002.027-.012.035-.005.013.007.024.005.038.002.06-.01.119-.007.179 0 .023.006.033.03.03zM18.763 7.719c.03.002.037-.013.038-.037l-.001-.026c-.012-.062 0-.123.002-.185v-.027h-.153c-.004.048-.01.096-.013.145-.003.04-.012.08-.01.121.008.01.02.008.03.008.036 0 .072-.002.107 0z" fill="#f1be3c"/><path d="M19.065 7.74c.05-.03.074-.09.057-.147-.021-.072-.11-.115-.172-.074.026.001.051-.001.073.021.023.024.025.05.015.076-.01.028-.048.046-.074.04-.027-.005-.053-.037-.054-.066v-.04c-.025.012-.027.038-.035.06 0 .03.003.06.017.087l.018.02a.123.123 0 00.155.022z" fill="#93aab3"/><path d="M18.814 7.473l-.012-.002c-.003.062-.014.123-.002.185.003-.061.016-.122.014-.183zM19.202 7.564a.197.197 0 00-.007-.001c0 .031 0 .063.01.094a.146.146 0 00-.003-.093z" fill="#fddf79"/><path d="M19.17 7.088h.005l.001-.105a.02.02 0 01-.005.001v.104z" fill="#cf2236"/><path d="M20.41 9.191c.025 0 .042-.007.044-.034a.087.087 0 00-.032-.037 1.47 1.47 0 01-.188-.158c-.027-.028-.052-.058-.077-.087-.02-.023-.04-.024-.063-.004a2.341 2.341 0 01-.347.257.058.058 0 00-.022.028c.006.027.023.034.049.034l.637.001zM20.509 8.45c-.02.009-.036-.001-.054-.008-.101-.041-.18.01-.209.105.028.009.036-.017.051-.028.021-.047.127-.074.166-.043.003.002.004.006.006.008.031.028.04.066.045.105.001.008 0 .018.01.023.011.006.014-.006.021-.01.025-.015.038-.04.057-.06-.041-.002-.061-.023-.06-.064 0-.025-.008-.037-.033-.027z" fill="#f1be3c"/><path d="M20.309 8.708a.06.06 0 00.057-.051c.004-.028.003-.055-.033-.062a.925.925 0 00-.087.106c.021.002.042.007.063.007z" fill="#d1993e"/><path d="M20.217 8.694c.005.013.02.006.03.007a.923.923 0 01.086-.106c-.012-.027-.027-.012-.041-.002-.027.02-.043.048-.064.072-.008.008-.014.02-.01.03zM20.206 8.663v.003h.003l-.001-.002-.002-.001zM17.485 8.596a.251.251 0 01.009-.045c.012-.041.03-.08.076-.089.057-.01.108.006.14.057.014.024.03.033.055.028-.016-.07-.114-.16-.208-.106-.013.007-.029.01-.044.012-.011.003-.023.001-.027-.012-.003-.012 0-.02.009-.03.036-.033.08-.035.124-.033.073.002.124.05.172.097.016.015.042.034.042.064v.003c.046-.005.094-.003.14-.016.029-.103.126-.145.222-.096l.024.012c.014.008.027 0 .037-.006.009-.005.003-.018.002-.028-.003-.028-.023-.05-.028-.077-.003-.016-.027-.016-.041-.023-.022-.011-.03-.025-.029-.048 0-.03-.002-.06 0-.09.003-.03-.013-.034-.036-.03a.622.622 0 00-.153.053c-.032.016-.033.017-.032-.019a1.262 1.262 0 00-.072-.48 1.01 1.01 0 00-.12-.247l-.001-.01c0-.004-.003-.006-.007-.007a1.1 1.1 0 01-.02-.016c-.008-.006-.012.001-.016.006a.706.706 0 00-.097.165c.007.021-.01.037-.016.054a.548.548 0 00-.032.293c.013-.003.04.006.036-.009-.005-.023.013-.054-.017-.07-.008-.005-.016-.013-.007-.017.04-.018.02-.054.026-.08a.338.338 0 01.054-.123c.008-.012.022-.017.038-.015.008.001.02-.002.022.01.003.009.006.022-.004.027-.023.013-.015.03-.009.046.012.03.027.06 0 .09-.003.002-.004.007-.003.009.031.049.006.106.026.157.022.053.026.11.046.166a.219.219 0 01-.003.117c-.004.016-.015.028-.033.026-.02-.002-.037-.012-.043-.032-.01-.035-.026-.07-.04-.102-.01-.026-.015-.057-.035-.081-.015-.018-.013-.045-.015-.066-.004-.03-.017-.032-.038-.033a.919.919 0 00.09.271c.004.006.013.014.005.02-.008.007-.015 0-.02-.005a.189.189 0 00-.109-.045c-.002-.008-.003-.016-.014-.006h-.06c-.023.011-.047.021-.067.04-.013.011-.014.019-.005.032.027.04.035.087.052.13.007.015.013.03.021.044.03.05.01.104-.054.109.01.018.027.03.042.044.007.006.012.014.02.02.013.012.022.012.025-.01zm.49-.21c.051-.059.128-.09.205-.045.013.007.02.016.02.031.001.025-.014.025-.03.019a.159.159 0 00-.165.025c-.011.009-.03.01-.04 0-.014-.01.003-.023.01-.03z" fill="#f1be3c"/><path d="M17.867 7.694c.057.155.078.316.072.48-.001.037 0 .035.031.02a.618.618 0 01.154-.054c.023-.004.04 0 .037.03-.003.03 0 .06-.001.09 0 .023.007.037.029.048.014.007.038.007.04.023.006.028.026.05.029.077 0 .01.007.023-.002.028-.01.006-.023.014-.037.006l-.024-.012c-.095-.049-.193-.007-.223.096h.02c.012-.091.156-.12.218-.06.032.031.046.07.062.108h.015c.013-.008.015-.022.02-.034v-.002c0-.041.019-.078.03-.116a.395.395 0 00.012-.154c-.008-.06-.024-.125-.078-.168-.041-.031-.088-.03-.137-.025a.257.257 0 00-.13.057c-.006.005-.011.008-.018.008l-.008.007h-.004c-.002.006-.002.013-.016.017l.011-.098c.005-.049.013-.098.016-.148a.254.254 0 00-.015-.106c-.006-.017-.004-.04-.01-.06a.713.713 0 00-.069-.142.035.035 0 01-.005-.025l-.007-.007-.007-.01v-.002c-.017-.002-.02-.014-.02-.028l-.006-.006a.265.265 0 00-.007-.008v.001l-.007-.008c-.026-.03-.05-.061-.086-.08l.001.01c.054.076.088.161.12.247zM17.886 7.585z" fill="#fddf79"/><path d="M18.004 8.132a.259.259 0 01.13-.057c.049-.006.096-.006.137.025.055.043.07.109.079.168a.395.395 0 01-.013.154c-.01.038-.03.075-.03.116.056-.114.09-.232.054-.36-.018-.06-.047-.116-.111-.135a.228.228 0 00-.264.096l-.006.001-.002.007.008-.007c.007 0 .012-.003.018-.008zM17.96 7.752c.006.02.004.042.01.06.013.035.018.07.015.106-.003.05-.01.099-.016.148l-.01.098c.013-.004.014-.011.015-.018 0-.003 0-.007.005-.006-.008-.01-.001-.02.001-.028a.906.906 0 00.029-.18.462.462 0 00-.123-.348c-.002.01 0 .018.005.025a.715.715 0 01.068.143zM17.517 8.136c.022.01.042.027.068.03a.247.247 0 00-.09-.06c-.07-.027-.125-.01-.166.053a.261.261 0 00-.018.239c-.003-.057-.017-.114.005-.171.035-.094.107-.134.2-.09zM18.28 8.59c.007 0 .008-.009.008-.015h-.016c.005.004-.002.016.008.016zM17.605 8.183a.563.563 0 00-.013-.01c0 .009.004.013.013.014v-.004z" fill="#fefefe"/><path d="M16.55 7.548c.005.013.014.02.029.014.012-.005.023-.01.02-.028-.01-.092-.024-.183-.018-.251.003-.128 0-.23.045-.33.033-.075.058-.151.105-.22a.61.61 0 01.271-.218.696.696 0 01.338-.049c.11.01.215.033.318.067.103.034.207.062.31.098.115.041.238.063.359.094.008.002.019.008.023-.002.004-.012-.01-.012-.017-.016l-.293-.125c-.152-.063-.3-.134-.45-.198-.048-.02-.1-.032-.148-.05a.619.619 0 00-.211-.039.91.91 0 00-.211.024c-.047.01-.095.016-.136.042-.052.034-.106.065-.15.108a.587.587 0 00-.182.254c-.016.053-.032.105-.042.16a1.59 1.59 0 00-.034.286c0 .044.006.088.012.132.012.085.034.167.063.247zm.033-.736a.447.447 0 01.16-.296c.018-.015.033-.033.051-.048a.647.647 0 01.372-.132.425.425 0 01.24.032c.01.006.026.01.025.027-.002.02-.02.022-.032.024-.03.004-.059.014-.09.01a.536.536 0 00-.245.013.455.455 0 00-.198.09.722.722 0 00-.217.295c-.008.024-.024.052-.052.046-.03-.007-.016-.04-.014-.06z" fill="#fddf79"/><path d="M17.597 7.985c.002.02 0 .048.015.066.02.023.024.055.035.08.014.034.03.068.04.103.006.02.022.03.043.032.018.002.029-.01.033-.026a.219.219 0 00.003-.117c-.02-.055-.024-.113-.046-.166-.02-.05.005-.108-.026-.157-.001-.002 0-.007.002-.01.028-.029.013-.059.001-.089-.006-.016-.014-.033.009-.046.01-.005.007-.018.004-.027-.003-.012-.014-.009-.022-.01-.016-.003-.03.003-.038.015a.338.338 0 00-.054.122c-.006.028.014.064-.026.081-.01.004-.001.012.007.016.03.017.012.048.017.071.004.015-.023.006-.036.01l.001.02c.021 0 .034.002.038.032zM17.452 8.433c-.008-.014-.014-.03-.02-.045-.018-.042-.026-.09-.053-.129-.009-.013-.008-.02.005-.033.02-.018.044-.028.067-.04-.042-.014-.1.02-.115.072-.03.1.001.188.055.27.003.004.004.01.007.013.065-.004.084-.058.055-.108zM17.619 8.378c-.044-.002-.088 0-.124.033-.01.01-.012.019-.009.03.004.013.016.015.027.013.015-.003.031-.005.044-.013.094-.054.192.037.209.106l.067-.007c0-.03-.026-.05-.042-.065-.048-.047-.1-.095-.172-.097zM17.634 8.649a.07.07 0 00.05.056c.024.008.046-.001.069-.004-.024-.041-.057-.075-.087-.111-.022.013-.038.031-.032.059z" fill="#d1993e"/><path d="M17.716 8.601c-.016-.012-.028-.03-.05-.012.03.037.063.07.087.112.012 0 .028.006.034-.004.007-.01-.005-.026-.012-.03-.025-.018-.035-.047-.059-.066z" fill="#f1be3c"/><path d="M17.614 8.19c-.005.005-.007 0-.009-.003l.009.003z" fill="#fefefe"/><path d="M21.327 6.835a.657.657 0 01.056.166c.023.114.041.229.04.346 0 .033 0 .066-.006.1-.005.025.016.031.034.036.021.006.019-.014.023-.025a.897.897 0 00.04-.146.878.878 0 00.016-.31c-.022-.123-.043-.245-.106-.356a.727.727 0 00-.27-.27.553.553 0 00-.186-.06.75.75 0 00-.277-.014c-.113.022-.225.05-.33.099-.145.067-.289.133-.435.196-.06.026-.12.057-.182.082-.007.003-.02.002-.016.015.003.012.015.007.023.008a.04.04 0 00.013-.001c.113-.03.226-.055.339-.083.088-.022.173-.055.26-.081.118-.036.237-.067.37-.063a.482.482 0 01.17.018c.129.035.243.098.326.206.035.044.073.087.098.137zm-.351-.38a.46.46 0 00-.18-.03.626.626 0 01-.19-.004c-.016-.004-.034-.008-.035-.029-.002-.022.017-.02.03-.027.063-.03.13-.028.205-.032a.674.674 0 01.534.27c.05.065.061.137.082.209.006.021.01.053-.013.064-.025.012-.034-.02-.05-.033-.021-.018-.021-.043-.03-.065-.035-.086-.101-.147-.164-.212a.447.447 0 00-.19-.11z" fill="#fddf79"/><path d="M19.055 7.087c.054-.025.078-.077.07-.151l-.01-.021a.127.127 0 00-.076-.064.108.108 0 00-.097.01l-.008.006-.012.008-.007.007a.426.426 0 01-.007.006c-.019.01-.02.033-.032.048v.034c0 .095.093.155.18.116zm-.141-.194l.006-.007.007-.006.012-.008.008-.005a.095.095 0 01.052-.002c.032.01.05.046.043.083-.008.031-.04.051-.078.047a.062.062 0 01-.054-.063c0-.013-.002-.027.004-.04z" fill="#93aab3"/><path d="M19.171 6.984h.005c.003-.023.01-.046.006-.069a.022.022 0 00-.012.02l.001.05z" fill="#d1993e"/><path d="M18.926 6.552l-.007.006-.006.007c-.001.014-.004.028-.003.043 0 .029.035.06.065.06.032 0 .066-.031.067-.062.002-.031-.009-.053-.028-.064-.02-.01-.047-.01-.08.004l-.008.006z" fill="#fefefe"/><path d="M18.836 7.034l-.01.002c.004.11.002.22-.002.329.013-.008.011-.022.012-.034v-.297z" fill="#d1993e"/><path d="M18.822 6.99c.002.015-.004.031.004.046l.01-.002c-.007-.014.01-.035-.014-.044z" fill="#93aab3"/><path d="M18.954 5.223a.05.05 0 00.061-.003c.02-.017.02-.041.01-.06-.008-.019-.026-.023-.046-.023-.005 0-.006-.006-.011-.005-.008.002-.016.008-.025.005.002.01-.008.015-.01.023-.01.026-.003.05.02.063zM18.943 5.137zM19.192 9.571c.018 0 .03-.005.036-.026h-.379c-.035 0-.07.003-.1-.02.014.022.029.045.059.046h.384zM19.295 9.48c-.022.009-.033.03-.05.042l.006.007.044-.05zM18.684 9.453h-.003l.006.004-.003-.004zM19.337 9.43l.006-.005c.002.006-.004.004-.006.005a.426.426 0 01-.007.007v.001a.426.426 0 01.007-.007zM19.328 9.439v.002l.002-.003h-.002zM18.695 9.464l.007.007.006.006.007.007-.006-.007-.007-.006-.007-.007-.006-.007h-.002.001l.007.007zM19.312 9.46v.003-.002z" fill="#fefefe"/><path fill="#fefefe" d="M19.304 9.47l.007-.006-.007.007-.007.006-.002.003.002-.002.007-.007zM18.718 9.487l-.003-.002.001.001.002.001zM18.742 9.518l.006.006h.001l-.007-.007-.007-.006-.002-.002.002.002.007.007zM17.967 9.526c-.01.004-.022.009-.02.023 0 .012.01.018.02.023.022.009.044.007.072.007.016 0 .038.002.06-.007.01-.005.02-.011.02-.024.001-.014-.01-.018-.021-.022a.21.21 0 00-.13 0z"/><path d="M18.22 9.699c-.008 0-.016 0-.023.002a.52.52 0 01-.159.03c.021 0 .042.008.063.005.04-.007.083-.013.118-.037zM17.84 9.72c-.016-.004-.031-.01-.048-.008.004.002.007.005.011.006.012.004.025 0 .036.002z" fill="#cf2236"/><path d="M18.038 9.732a.629.629 0 01-.199-.012 1.037 1.037 0 00.199.012zM18.266 9.672l-.005.006.005-.001v-.005z" fill="#cf2236"/><path d="M19.968 9.59c.031.001.06.001.087-.01.014-.006.029-.01.03-.028 0-.02-.015-.027-.03-.032a.271.271 0 00-.17 0c-.013.004-.025.015-.025.032 0 .016.012.023.025.028a.19.19 0 00.083.01z" fill="#fefefe"/><path d="M19.83 9.718c.013.004.025 0 .037.002-.016-.004-.031-.01-.048-.007l.011.005zM20.125 9.736c.023-.004.042-.018.064-.024a.746.746 0 01-.25.013c.063.007.124.022.186.011z" fill="#cf2236"/><path d="M19.907 9.726c.011.002.022-.002.033-.001-.024-.003-.049.001-.073-.005.013.004.026.005.04.006zM20.191 9.711c.036-.009.064-.035.102-.04-.03.027-.068.03-.104.04h.002z" fill="#cf2236"/><path d="M19.037 8.309a.07.07 0 00-.067-.068.07.07 0 00-.069.07.07.07 0 00.069.068.07.07 0 00.067-.07z" fill="#fefefe"/><path d="M19.188 9.176c.024.001.049.005.07-.014 0-.014-.004-.024-.016-.034-.07-.06-.15-.105-.212-.173-.018-.02-.041-.015-.06.003-.06.058-.13.105-.197.154-.014.011-.04.02-.032.049.02.018.046.016.07.015.126-.008.251-.008.377 0z" fill="#fddf79"/><path d="M19.07 7.406a.127.127 0 00.026-.189c-.037-.047-.12-.057-.156-.02.02-.001.04-.011.062 0 .034.017.05.045.039.082-.01.03-.04.049-.077.044-.032-.004-.054-.03-.054-.065v-.037c-.032.03-.04.068-.035.11l.012.027c.042.08.14.08.183.048z" fill="#93aab3"/><path d="M18.964 7.323c.036.005.068-.014.077-.044.01-.037-.005-.066-.039-.083-.021-.01-.041 0-.062 0-.015.003-.022.015-.03.025v.037c0 .035.022.061.054.065zM18.964 7.657c.026.005.063-.013.074-.04.01-.027.008-.053-.015-.076-.022-.023-.047-.02-.073-.022-.006-.001-.012-.001-.014.006.001.006-.003.008-.008.008l-.018.017v.04c0 .03.027.06.054.066z" fill="#fefefe"/><path d="M18.17 8.391c.016.006.031.006.03-.019.001-.015-.007-.023-.02-.03-.077-.046-.154-.015-.206.044-.006.008-.022.02-.009.03.01.01.029.01.04 0a.159.159 0 01.165-.025z" fill="#d1993e"/><path d="M16.65 6.827a.722.722 0 01.217-.295.455.455 0 01.197-.09c.081-.021.163-.03.246-.013.03.004.06-.006.089-.01.012-.002.03-.003.032-.024 0-.018-.014-.02-.025-.027a.426.426 0 00-.24-.032.648.648 0 00-.372.132c-.018.015-.033.033-.051.048a.448.448 0 00-.16.296c-.002.02-.016.054.015.06.027.007.043-.02.052-.046zM21.359 6.843c.016.014.025.045.05.033.023-.01.02-.043.013-.064-.02-.072-.033-.144-.082-.208a.674.674 0 00-.534-.27c-.076.003-.142.001-.204.032-.014.006-.033.004-.031.026.001.021.019.025.035.03a.62.62 0 00.19.003.457.457 0 01.18.03.447.447 0 01.19.111c.061.065.128.126.163.212.009.022.008.047.03.065zM19.041 6.948c.009-.036-.01-.073-.042-.083a.095.095 0 00-.053.002l-.008.005-.011.009-.007.005-.006.007c-.006.013-.005.026-.004.04 0 .032.023.059.054.062.037.005.07-.016.077-.047z" fill="#fefefe"/></g></g></svg>