<svg xmlns="http://www.w3.org/2000/svg" width="38" height="24" aria-labelledby="pi-sendle"><title id="pi-sendle">Sendle</title><path d="M35 0H3C1.3 0 0 1.3 0 3v18c0 1.7 1.4 3 3 3h32c1.7 0 3-1.3 3-3V3c0-1.7-1.4-3-3-3z" style="isolation:isolate" fill="#010101" opacity=".07"/><path d="M35 1c1.1 0 2 .9 2 2v18c0 1.1-.9 2-2 2H3c-1.1 0-2-.9-2-2V3c0-1.1.9-2 2-2h32" fill="#fff"/><g id="Canvas"><g id="Group_3" stroke-width="0"><g id="logo-chevron"><path d="M30.59 10.21l1.49 2.58-1.49 2.58h1.82l1.49-2.58-1.49-2.58h-1.82z" fill="#ec691d"/><path d="M30.59 10.21l1.49 2.58h1.82l-1.49-2.58h-1.82z" fill="#f28d47"/></g><g id="logo-text" fill="#34434f"><path d="M27.16 12.17c.12-.49.61-.88 1.17-.88s1.05.39 1.16.88h-2.33zm3.87.67c0-1.55-1.15-2.84-2.72-2.84-1.26 0-2.24.89-2.61 2.05V8.99c0-.27-.2-.48-.46-.49h-1.01v6.87h.98c.29 0 .5-.29.5-.57v-1.33c.37 1.16 1.38 2.05 2.64 2.05 1.16 0 2.07-.76 2.52-1.74H29.3c-.25.25-.52.48-.93.48-.6 0-1.11-.36-1.2-.97h3.85c.03-.14.04-.29.04-.44zM20.86 14.04c-.77 0-1.28-.58-1.28-1.32s.56-1.28 1.3-1.28 1.3.55 1.3 1.28c0 .76-.55 1.32-1.32 1.32zm-11.3-1.87c.12-.49.61-.88 1.16-.88s1.05.39 1.17.88H9.56zm12.57-3.19v1.63c-.49-.43-.93-.61-1.53-.61-1.3 0-2.22.88-2.48 2.05 0-.58-.12-1.21-.6-1.6-.33-.28-.88-.44-1.32-.44-.62 0-1.08.21-1.4.7h-.04c0-.29-.21-.49-.49-.49h-.86v1.93c-.37-1.22-1.33-2.14-2.67-2.14-1.51 0-2.71 1.27-2.71 2.76v.17c-.64-.87-2.34-.7-2.34-1.35 0-.23.23-.31.43-.31.27 0 .47.05.48.42h1.51c-.1-1.1-.94-1.68-1.97-1.68s-1.99.64-1.99 1.71c0 .72.61 1.11 1.22 1.33.22.08.44.15.66.23.28.11.69.22.69.59 0 .27-.31.39-.54.39-.31 0-.54-.11-.58-.48H4.07c.12 1.23 1.02 1.74 2.09 1.74 1 0 2-.57 2.09-1.63.43.94 1.38 1.63 2.48 1.63 1.16 0 2.06-.76 2.51-1.74h-1.57c-.25.25-.52.48-.93.48-.6 0-1.11-.36-1.2-.97h3.87v2.09h1.47v-2.85c0-.61.19-1.08.9-1.08s.82.49.82 1.06v2.28c0 .29.21.57.49.57h.98v-1.94c.25 1.18 1.19 2.08 2.52 2.08.59 0 1.21-.14 1.53-.73v.04c0 .27.27.54.56.54h.92V8.49h-.99c-.29 0-.48.21-.49.49z"/></g></g></g><path fill="none" d="M3.06 7.6h31.88v8.81H3.06z"/></svg>