<svg xmlns="http://www.w3.org/2000/svg" role="img" viewBox="0 0 38 24" width="38" height="24" aria-labelledby="pi-sendle"><title id="pi-sendle">Sendle</title><style type="text/css">.st13{fill:#34434f}</style><path fill="#fff" d="M0 0h38v24H0z"/><g id="Canvas_00000016765736509532049770000014814593815227038646_"><g id="Group_3_00000095334845687600140590000007771026571175757445_"><g id="logo-chevron_00000101800458923040502370000013252643540262169473_"><path d="M31.62 10.05l1.62 2.81-1.62 2.81h1.98l1.62-2.81-1.62-2.81h-1.98z" fill="#ec691d"/><path d="M31.62 10.05l1.62 2.81h1.98l-1.62-2.81h-1.98z" fill="#f28d47"/></g><g id="logo-text_00000132781083485435018790000014796753384960508039_"><path class="st13" d="M27.88 12.19c.13-.53.67-.96 1.27-.96s1.14.42 1.27.96h-2.54zm4.21.72c0-1.68-1.25-3.09-2.96-3.09-1.37 0-2.44.96-2.84 2.23V8.71a.509.509 0 00-.5-.53h-1.1v7.48h1.07c.31 0 .54-.31.54-.62v-1.45c.4 1.26 1.5 2.23 2.87 2.23 1.26 0 2.26-.82 2.74-1.89H30.2c-.27.27-.57.52-1.02.52-.65 0-1.21-.39-1.31-1.06h4.19c.02-.16.03-.32.03-.48zM21.03 14.22c-.84 0-1.4-.63-1.4-1.44 0-.82.61-1.4 1.42-1.4s1.41.6 1.41 1.4c0 .83-.59 1.44-1.43 1.44zm-12.3-2.03c.13-.53.67-.96 1.27-.96s1.14.42 1.27.96H8.73zm13.68-3.48v1.77c-.53-.46-1.02-.67-1.66-.67-1.42 0-2.42.96-2.7 2.23 0-.64-.13-1.31-.65-1.74-.36-.3-.96-.48-1.43-.48-.67 0-1.17.23-1.53.76h-.05a.51.51 0 00-.53-.53h-.93v2.1c-.4-1.33-1.45-2.33-2.9-2.33-1.64 0-2.95 1.38-2.95 3V13c-.7-.95-2.55-.76-2.55-1.47 0-.25.25-.34.47-.34.29 0 .51.06.52.46h1.64c-.11-1.2-1.03-1.83-2.14-1.83-1.08 0-2.17.69-2.17 1.86 0 .78.67 1.21 1.33 1.45.24.09.48.17.72.25.3.12.75.24.75.64 0 .29-.33.43-.58.43-.33 0-.58-.12-.64-.52H2.78c.13 1.34 1.11 1.89 2.27 1.89 1.09 0 2.18-.62 2.27-1.78.47 1.02 1.5 1.78 2.7 1.78 1.26 0 2.24-.82 2.73-1.89h-1.71c-.27.27-.57.52-1.02.52-.65 0-1.21-.39-1.31-1.06h4.21v2.27h1.6v-3.1c0-.67.2-1.17.98-1.17.75 0 .89.53.89 1.16v2.49c0 .31.22.62.53.62h1.07v-2.11c.27 1.28 1.3 2.27 2.74 2.27.64 0 1.31-.15 1.67-.79v.04c0 .29.29.59.6.59h1V8.18h-1.08c-.3 0-.51.22-.51.53z"/></g></g></g><path fill="none" d="M3.06 7.6h31.88v8.81H3.06z"/></svg>