<svg xmlns="http://www.w3.org/2000/svg" width="38" height="24" aria-labelledby="pi-smsaexpress"><title id="pi-smsaexpress">SMSA Express</title><path d="M35 0H3C1.3 0 0 1.3 0 3v18c0 1.7 1.4 3 3 3h32c1.7 0 3-1.3 3-3V3c0-1.7-1.4-3-3-3z" fill="#010101" isolation="isolate" opacity=".07"/><path d="M35 1c1.1 0 2 .9 2 2v18c0 1.1-.9 2-2 2H3c-1.1 0-2-.9-2-2V3c0-1.1.9-2 2-2h32" fill="#fff"/><path d="M17.05 8.25c1.76-.06 2.86.67 2.9 2.23v5.27h-2.46v-4.73c.04-.65-.62-.73-.85-.72h-.78v5.46h-2.45V10.3H11.8v5.45H9.35v-5.44h-3.1c-.36.14-.26.3.04.52.67.58 1.62 1.13 1.93 1.93.31.8.08 1.56-.4 2.14-.41.5-1.02.81-1.79.84H3.01v-2.07H5.2c.44-.2.09-.55-.49-.97-1.07-.78-1.68-1.59-1.71-2.41-.02-1.02.65-1.95 2.77-2.05h11.27z" fill="#400099" fill-rule="evenodd"/><path d="M23.72 8.23h-.02c-2.12.1-2.8 1.03-2.77 2.05.02.82.63 1.63 1.71 2.41.58.42.93.78.49.97h-3.19v2.07h4.02c.76-.02 1.38-.35 1.79-.84.48-.58.71-1.34.39-2.14-.32-.81-1.25-1.36-1.93-1.94-.29-.22-.4-.38-.04-.52h3.79c-.82 1.03-1.09 3.21.16 4.45.94 1.03 2.86 1.49 4.41.18v.82h2.46V8.23H23.71zM32.55 13l-.78-.8-1.47 1.46-1.17-1.17 1.47-1.46-.72-.72h2.67v2.7z" fill="#fc6719" fill-rule="evenodd"/></svg>