<svg xmlns="http://www.w3.org/2000/svg" width="38" height="24" aria-labelledby="pi-swish"><title id="pi-swish">Swish</title><defs><linearGradient id="Dégradé_sans_nom_222" data-name="Dégradé sans nom 222" x1="9.32" y1="8.24" x2="9.32" y2="14.26" gradientUnits="userSpaceOnUse"><stop offset=".03" stop-color="#feee1e"/><stop offset="1" stop-color="#ff1f31"/></linearGradient><linearGradient id="Dégradé_sans_nom_136" data-name="Dégradé sans nom 136" x1="9.01" y1="9.91" x2="9.01" y2="16.97" gradientUnits="userSpaceOnUse"><stop offset="0" stop-color="#fbcb00"/><stop offset=".48" stop-color="#f36094"/><stop offset="1" stop-color="#661eec"/></linearGradient><linearGradient id="Dégradé_sans_nom_155" data-name="Dégradé sans nom 155" x1="6.47" y1="9.44" x2="6.47" y2="15.7" gradientUnits="userSpaceOnUse"><stop offset=".19" stop-color="#78f6ff"/><stop offset="1" stop-color="#6624ec"/></linearGradient><linearGradient id="Dégradé_sans_nom_180" data-name="Dégradé sans nom 180" x1="6.79" y1="6.14" x2="6.79" y2="12.37" gradientUnits="userSpaceOnUse"><stop offset=".15" stop-color="#fee92c"/><stop offset=".57" stop-color="#6ed665"/><stop offset="1" stop-color="#5373ed"/></linearGradient></defs><path d="M35 0H3C1.3 0 0 1.3 0 3v18c0 1.7 1.4 3 3 3h32c1.7 0 3-1.3 3-3V3c0-1.7-1.4-3-3-3z" fill="#010101" isolation="isolate" opacity=".07"/><path d="M35 1c1.1 0 2 .9 2 2v18c0 1.1-.9 2-2 2H3c-1.1 0-2-.9-2-2V3c0-1.1.9-2 2-2h32" fill="#fff"/><path d="M34.16 9.78c0-.12.02-.22.06-.33.04-.1.1-.19.17-.26s.16-.13.26-.18c.1-.04.2-.07.32-.07s.22.02.32.07c.1.04.19.1.26.18s.13.16.17.26.06.21.06.33-.02.22-.06.33-.1.19-.17.26c-.07.08-.16.13-.26.18-.1.04-.21.07-.32.07s-.22-.02-.32-.07-.18-.1-.26-.18a.899.899 0 01-.17-.26.88.88 0 01-.06-.33zm.17 0c0 .1.02.18.05.27.03.08.08.15.14.21.06.06.13.11.2.14.08.04.16.05.25.05s.18-.02.26-.05c.08-.03.15-.08.21-.14.06-.06.1-.13.14-.21s.05-.17.05-.27-.02-.18-.05-.27c-.03-.08-.08-.15-.14-.21s-.13-.11-.21-.14c-.08-.03-.16-.05-.26-.05s-.18.02-.25.05c-.08.03-.15.08-.2.14a.77.77 0 00-.14.21c-.03.08-.05.17-.05.27zm.36-.36c0-.05.03-.08.08-.08h.26c.08 0 .15.02.2.07.05.05.07.11.07.19 0 .03 0 .06-.01.09 0 .03-.02.05-.04.07l-.05.05c-.02.02-.04.02-.05.03s0 0 0 .01v.01s0 .01.01.02l.12.23s.02.05 0 .06c0 .02-.02.02-.05.02h-.03s-.07-.02-.09-.05l-.13-.28h-.14v.26s-.02.07-.07.07h-.02s-.07-.02-.07-.07v-.71zm.3.33s.08-.01.1-.04c.02-.03.04-.06.04-.11s-.01-.08-.04-.1a.153.153 0 00-.1-.04h-.14v.29h.14zm-6.64.55c.26 0 .48.03.66.1.18.07.32.13.42.18.09.05.14.11.15.18s0 .16-.04.24l-.08.14c-.05.09-.1.14-.17.16-.07.02-.15 0-.25-.04-.09-.04-.19-.08-.31-.13s-.26-.06-.42-.06-.3.03-.39.1c-.09.07-.14.16-.14.28 0 .11.05.19.14.26.09.07.21.12.36.17.14.05.3.1.46.16.16.06.32.13.46.22s.26.21.36.35c.09.14.14.32.14.54 0 .17-.03.33-.1.47-.07.14-.17.27-.3.38s-.28.19-.47.25c-.18.06-.38.09-.61.09-.31 0-.58-.05-.79-.14-.21-.09-.38-.18-.5-.26-.09-.05-.13-.11-.14-.19s.01-.16.07-.24l.09-.14c.06-.08.12-.13.19-.14.07-.01.15.01.25.06.09.05.21.11.35.17.14.06.31.09.51.09.17 0 .3-.04.39-.11s.14-.17.14-.29c0-.11-.05-.19-.14-.25-.09-.06-.21-.12-.36-.17-.14-.05-.3-.11-.46-.17a2.47 2.47 0 01-.46-.23 1.33 1.33 0 01-.36-.35.995.995 0 01-.14-.55c0-.19.04-.35.12-.5.08-.15.18-.27.32-.36s.29-.17.47-.22c.18-.05.37-.08.57-.08zm-11.26 0c.26 0 .48.03.66.1.18.07.32.13.42.18.09.05.14.11.15.18s0 .16-.04.24l-.08.14c-.05.09-.1.14-.17.16-.07.02-.15 0-.25-.04-.09-.04-.19-.08-.31-.13s-.26-.06-.42-.06-.3.03-.39.1c-.09.07-.14.16-.14.28 0 .11.05.19.14.26.09.07.21.12.36.17.14.05.3.1.46.16.16.06.32.13.46.22s.26.21.36.35c.09.14.14.32.14.54 0 .17-.03.33-.1.47s-.17.27-.3.38-.28.19-.47.25c-.18.06-.38.09-.61.09-.31 0-.58-.05-.79-.14-.21-.09-.38-.18-.5-.26-.09-.05-.13-.11-.14-.19s.01-.16.07-.24l.09-.14c.06-.08.12-.13.19-.14.07-.01.15.01.25.06.09.05.21.11.35.17.14.06.31.09.51.09.17 0 .3-.04.39-.11.1-.07.14-.17.14-.29 0-.11-.05-.19-.14-.25-.09-.06-.21-.12-.36-.17-.14-.05-.3-.11-.46-.17a2.47 2.47 0 01-.46-.23 1.33 1.33 0 01-.36-.35.995.995 0 01-.14-.55c0-.19.04-.35.12-.5.08-.15.18-.27.32-.36s.29-.17.47-.22c.18-.05.37-.08.57-.08zM30.9 8.87c.21 0 .32.11.32.32v1.69c0 .04 0 .07-.01.1v.09h.02c.05-.09.11-.18.19-.28s.18-.18.3-.25c.11-.08.24-.14.39-.18.14-.05.3-.07.47-.07.43 0 .76.12 1 .35.23.23.35.61.35 1.12v2.17c0 .21-.11.32-.32.32h-.33c-.21 0-.32-.11-.32-.32v-1.97c0-.24-.04-.43-.12-.57-.08-.14-.24-.22-.48-.22-.17 0-.32.03-.46.1s-.26.16-.35.27-.17.25-.22.41c-.05.16-.08.33-.08.51v1.48c0 .21-.11.32-.32.32h-.33c-.21 0-.32-.11-.32-.32V9.19c0-.21.11-.32.32-.32h.33zm-5.03 1.52c.21 0 .31.11.31.32v3.23c0 .21-.1.32-.31.32h-.33c-.21 0-.31-.11-.31-.32v-3.23c0-.21.1-.32.31-.32h.33zm-6.43 0c.19 0 .31.09.34.28l.62 2.26c.01.06.02.11.03.15 0 .05.02.09.03.13.01.05.02.09.02.13h.02s.01-.08.02-.13c.01-.04.02-.08.03-.13 0-.05.02-.1.03-.15l.65-2.26c.04-.18.15-.27.35-.27h.29c.19 0 .3.09.35.27l.64 2.26c.02.06.03.11.03.15 0 .05.02.09.03.13.01.05.02.09.02.13h.02s.01-.08.02-.13c.01-.04.02-.08.03-.13 0-.05.02-.1.03-.15l.61-2.26c.05-.19.16-.28.35-.28h.35c.12 0 .2.03.24.1.05.07.05.15.02.26L23.62 14c-.05.18-.17.27-.36.27h-.51c-.19 0-.31-.09-.36-.27l-.58-1.93c-.02-.05-.03-.1-.04-.15s-.02-.1-.03-.14c-.01-.05-.02-.09-.02-.13h-.02s-.02.08-.03.13c-.01.04-.02.09-.03.14s-.02.1-.04.15L21.02 14c-.05.18-.16.27-.35.27h-.52c-.18 0-.3-.09-.35-.27l-1-3.25c-.03-.11-.02-.19.03-.26s.13-.1.24-.1h.36z" fill="#4a4a49"/><g fill-rule="evenodd"><path d="M5.74 16.52c2.01.96 4.49.49 5.99-1.3a4.998 4.998 0 00-.62-7.05L9.7 9.85a3.905 3.905 0 01.48 5.51c-1.11 1.32-2.93 1.76-4.45 1.17" fill="url(#Dégradé_sans_nom_222)"/><path d="M5.74 16.52c2.01.96 4.49.49 5.99-1.3.18-.22.35-.45.49-.69a4.37 4.37 0 00-2.51-4.69 3.914 3.914 0 01.48 5.51c-1.11 1.32-2.93 1.76-4.45 1.17" fill="url(#Dégradé_sans_nom_136)"/><path d="M10.06 7.48a5.003 5.003 0 00-5.99 1.3 4.998 4.998 0 00.62 7.05l1.41-1.68a3.905 3.905 0 01-.48-5.51c1.11-1.32 2.93-1.76 4.45-1.17" fill="url(#Dégradé_sans_nom_155)"/><path d="M10.06 7.48a5.003 5.003 0 00-5.99 1.3c-.18.22-.35.45-.49.69a4.37 4.37 0 002.51 4.69 3.914 3.914 0 01-.48-5.51c1.11-1.32 2.93-1.76 4.45-1.17" fill="url(#Dégradé_sans_nom_180)"/></g></svg>