<svg xmlns="http://www.w3.org/2000/svg" width="38" height="24" aria-labelledby="pi-ups"><title id="pi-ups">UPS</title><path d="M35 0H3C1.3 0 0 1.3 0 3v18c0 1.7 1.4 3 3 3h32c1.7 0 3-1.3 3-3V3c0-1.7-1.4-3-3-3z" style="isolation:isolate" fill="#010101" opacity=".07"/><path d="M35 1c1.1 0 2 .9 2 2v18c0 1.1-.9 2-2 2H3c-1.1 0-2-.9-2-2V3c0-1.1.9-2 2-2h32" fill="#fff"/><path d="M12.23 8.57l.06 7.02 1.58 1.95 4.73 2.5 5.81-2.84 1.21-2.87-.12-9.3-4.39-.12-4.57.74-4.17 2.41-.12.53z" fill="#2f180f" fill-rule="evenodd"/><path d="M19 3.5c-2.75 0-5.16.53-7.14 1.59v8.41c0 1.77.66 3.25 1.92 4.28 1.17.96 4.78 2.54 5.22 2.73.42-.18 4.07-1.79 5.22-2.73 1.26-1.03 1.92-2.51 1.92-4.28V5.09C24.16 4.04 21.75 3.5 19 3.5zm4.08 1.63c.82.01 1.63.06 2.41.13v8.23c0 1.58-.57 2.86-1.68 3.77-.99.81-3.97 2.15-4.81 2.52-.84-.37-3.83-1.73-4.81-2.52-1.1-.9-1.68-2.2-1.68-3.77V8.68c3.16-2.9 7.01-3.6 10.56-3.56zm-3.89 3.83c-.68 0-1.22.15-1.67.44v8.1h1.24v-2.62c.12.04.3.07.56.07 1.38 0 2.17-1.24 2.17-3.06s-.82-2.94-2.3-2.94zm4.24 0c-.82.02-1.67.62-1.67 1.62 0 .66.19 1.16 1.21 1.76.55.32.77.53.78.92.01.43-.29.69-.74.69-.4 0-.87-.22-1.19-.51v1.14c.39.23.87.39 1.37.39 1.23 0 1.78-.87 1.8-1.66.02-.72-.18-1.27-1.22-1.88-.46-.27-.83-.45-.82-.9.01-.44.38-.6.73-.59.43 0 .85.24 1.11.51V9.37c-.22-.17-.68-.42-1.36-.4zm-10.28.13V13c0 1.32.62 1.98 1.85 1.98.76 0 1.4-.18 1.87-.5V9.09h-1.24v4.68c-.14.09-.34.15-.59.15-.57 0-.65-.52-.65-.87V9.09h-1.24zm6.04.87c.72 0 1.02.58 1.02 1.97 0 1.36-.34 2.01-1.06 2.01-.17 0-.31-.04-.4-.08v-3.82c.1-.05.27-.09.44-.09z" fill="#fbb913"/></svg>