<svg xmlns="http://www.w3.org/2000/svg" width="38" height="24" aria-labelledby="pi-usps_symbol"><title id="pi-usps_symbol">USPS</title><path d="M35 0H3C1.3 0 0 1.3 0 3v18c0 1.7 1.4 3 3 3h32c1.7 0 3-1.3 3-3V3c0-1.7-1.4-3-3-3z" style="isolation:isolate" fill="#010101" opacity=".07"/><path d="M35 1c1.1 0 2 .9 2 2v18c0 1.1-.9 2-2 2H3c-1.1 0-2-.9-2-2V3c0-1.1.9-2 2-2h32" fill="#fff"/><path d="M27 18.75c0 .69-.56 1.25-1.25 1.25h-13.5c-.69 0-1.25-.56-1.25-1.25V5.25c0-.69.56-1.25 1.25-1.25h13.5c.69 0 1.25.56 1.25 1.25v13.5z" fill="#323266"/><path d="M23.62 15.99L25.32 8H14.2l-1.7 7.99h11.12z" fill="#fff"/><path d="M14.44 8.32s6.18 1.27 6.3 1.29c1.42.25 1.38.53 1.38.53.99 0 1.12.03 1.29.18.52.44-.33 1.73-.33 1.73-.12.09-9.32 3.64-9.32 3.64h9.62l1.57-7.4H14.43v.03" fill="#333367"/><path d="M21.63 10.72c-.14.07-.5.11-.68.12-.17.01-.21.03-.21.09s.02.09.26.09c.54 0 1.51-.2 1.81-.11.16.05.03.32-.1.69-.05.14.05.13.1.07s.31-.52.34-.76c.04-.33-.25-.38-.64-.38h-.63s-.06.02-.1.07c-.03.04-.06.07-.15.12" fill="#333367"/><path d="M14.08 10l-1.21 5.69s3.7-1.82 4.15-2.05c.93-.48 2.21-1.11 3.39-1.51.23-.08 1.19-.38 1.76-.47.22-.04.31-.07.31-.12 0-.12-.23-.12-.6-.11-1.13.05-3.31.92-3.93 1.25l-.71-2.19h4.51c.2-.57-2.67-.49-2.76-.49h-4.92" fill="#333367"/></svg>