<svg xmlns="http://www.w3.org/2000/svg" role="img" viewBox="0 0 38 24" width="38" height="24" aria-labelledby="pi-usps"><title id="pi-usps">USPS</title><style type="text/css">.st1{fill:#fff}</style><path fill="#333367" d="M0 0h38v24H0z"/><path class="st1" d="M21.32 4.78c1.61.38 1.65.77 1.65.77 1.04 0 1.31 0 1.5.19.6.56-.42 1.94-.42 1.94-.13.08-11.63 4.59-11.63 4.59h12.11l1.94-9.15h-13s7.67 1.62 7.85 1.66"/><path class="st1" d="M22.51 6.12c-.17.08-.67.17-.83.19-.17.02-.25.02-.25.06 0 .06.23.04.31.04.38 0 1.86-.1 2.21-.04.27.04-.04.58-.13.92-.02.13.06.06.1 0 .1-.17.4-.71.42-.92.04-.42-.25-.48-.75-.48h-.77c-.06 0-.08.02-.1.06-.06.06-.17.13-.21.17"/><path class="st1" d="M17.72 9.2l-6.19 3.06 1.5-7.03h6.25c.1 0 3.36 0 3.42.65h-5.63l.88 2.67c1-.48 3.46-1.48 4.94-1.54.63-.02.88.08.75.17-.08.04-.69.13-1.17.25-.83.21-.88.21-1.75.5-.98.33-1.79.71-3 1.27"/><g><path class="st1" d="M10.14 20.88c-1.75 0-2.79-.69-2.45-2.25l.95-4.48h1.46s-.89 4.14-.86 4.05c-.23 1.03 0 1.65 1.12 1.65 1.07 0 1.62-.62 1.84-1.65.14-.59.86-4.05.86-4.05h1.46c-.98 4.48 0 0-.97 4.48-.34 1.55-1.67 2.25-3.41 2.25M22.36 18.24c-.23 0-.71-.03-.95-.08l.18-.95c.18.02.42.05.65.05 1 0 1.36-.68 1.43-1.09.15-.72-.21-.98-.74-.98h-1.19l-1.18 5.57H19.1l1.4-6.61h3.17c1.43 0 1.6 1.25 1.42 2.08-.27 1.24-1.44 2.01-2.73 2.01M19.26 15.21H17.7c-.8 0-1.15.17-1.22.48-.23 1.06 2.63 1.89 2.36 3.52-.15.91-.94 1.56-2.76 1.56h-2.23l.23-1.06h1.78c.56 0 1.24.03 1.36-.53.21-.95-2.6-1.89-2.39-3.47.14-.95.98-1.56 2.69-1.56h1.96l-.22 1.06zM30.15 15.21h-1.56c-.8 0-1.15.17-1.22.48-.23 1.06 2.63 1.89 2.36 3.52-.15.91-.94 1.56-2.76 1.56h-2.23l.23-1.06h1.8c.56 0 1.24.03 1.36-.53.21-.95-2.6-1.89-2.39-3.47.14-.95.98-1.56 2.69-1.56h1.96l-.24 1.06z"/></g></svg>