<svg xmlns="http://www.w3.org/2000/svg" width="38" height="24" aria-labelledby="pi-usps"><title id="pi-usps">USPS</title><path d="M35 0H3C1.3 0 0 1.3 0 3v18c0 1.7 1.4 3 3 3h32c1.7 0 3-1.3 3-3V3c0-1.7-1.4-3-3-3z" style="isolation:isolate" fill="#010101" opacity=".07"/><path d="M35 1c1.1 0 2 .9 2 2v18c0 1.1-.9 2-2 2H3c-1.1 0-2-.9-2-2V3c0-1.1.9-2 2-2h32" fill="#333367"/><path d="M21.16 5.3c1.49.35 1.53.72 1.53.72.97 0 1.22 0 1.39.17.56.52-.39 1.8-.39 1.8-.12.08-10.79 4.25-10.79 4.25h11.24l1.8-8.49H13.87s7.12 1.51 7.29 1.55" fill="#fff"/><path d="M22.26 6.54c-.15.08-.62.15-.77.17-.15.02-.23.02-.23.06 0 .06.21.04.29.04.35 0 1.72-.1 2.05-.04.25.04-.04.54-.12.85-.02.12.06.06.1 0 .1-.15.37-.66.39-.85.04-.39-.23-.44-.7-.44h-.72c-.06 0-.08.02-.1.06-.06.06-.15.12-.19.15" fill="#fff"/><path d="M17.81 9.4l-5.74 2.84 1.39-6.52h5.8c.1 0 3.11 0 3.17.6h-5.22l.81 2.48c.93-.44 3.21-1.37 4.58-1.43.58-.02.81.08.7.15-.08.04-.64.12-1.08.23-.77.19-.81.19-1.62.46-.91.31-1.66.66-2.78 1.18M10.78 20.24c-1.62 0-2.59-.64-2.27-2.09.53-2.49.88-4.16.88-4.16h1.36s-.83 3.84-.8 3.75c-.21.95 0 1.53 1.04 1.53s1.5-.57 1.71-1.53c.13-.55.8-3.75.8-3.75h1.36c-.91 4.16 0 0-.9 4.16-.34 1.43-1.57 2.09-3.18 2.09M22.11 17.79c-.21 0-.66-.03-.88-.07l.17-.88c.17.01.39.04.6.04.92 0 1.26-.63 1.33-1.01.14-.67-.2-.91-.69-.91h-1.11l-1.09 5.17h-1.36l1.3-6.14h2.94c1.33 0 1.48 1.16 1.32 1.93-.25 1.15-1.33 1.86-2.54 1.86M19.24 14.98H17.8c-.74 0-1.06.15-1.13.45-.21.98 2.44 1.75 2.19 3.26-.14.84-.87 1.44-2.56 1.44h-2.07l.21-.98h1.65c.52 0 1.15.03 1.26-.49.2-.88-2.41-1.75-2.21-3.22.13-.88.91-1.44 2.49-1.44h1.82l-.2.98zM29.34 14.98H27.9c-.74 0-1.06.15-1.13.45-.21.98 2.44 1.75 2.19 3.26-.14.84-.87 1.44-2.56 1.44h-2.07l.21-.98h1.67c.52 0 1.15.03 1.26-.49.2-.88-2.41-1.75-2.21-3.22.13-.88.91-1.44 2.49-1.44h1.82l-.21.98z" fill="#fff"/></svg>