<svg xmlns="http://www.w3.org/2000/svg" role="img" viewBox="0 0 38 24" width="38" height="24" aria-labelledby="pi-canadapost"><title id="pi-canadapost">CanadaPost</title>
<style type="text/css">
	.st0{fill:#CE0F4C;}
	.st1{fill:#FFFFFF;}
	.st2{fill:#C7BCAF;}
	.st3{fill:#EFDC00;}
	.st4{fill-rule:evenodd;clip-rule:evenodd;fill:#254F9E;}
	.st5{fill:#FDCD00;}
	.st6{fill:#193D6B;}
	.st7{fill:url(#SVGID_1_);}
	.st8{fill:#444244;}
	.st9{fill:url(#SVGID_00000073698698721015562510000016342725107454951314_);}
	.st10{fill:none;}
	.st11{fill:#EC691D;}
	.st12{fill:#F28D47;}
	.st13{fill:#34434F;}
	.st14{fill:url(#SVGID_00000070805179128830607080000000016832940092050831_);}
	.st15{fill:url(#SVGID_00000167379064571262322980000004371227476817544625_);}
	.st16{fill:#107BC0;}
	.st17{fill:#1C468F;}
	.st18{fill:#E52332;}
</style>
<g id="layer1" transform="translate(332.58671,42.22381)">
	<path id="path2440" class="st17" d="M-294.59-42.22h-38v24h38V-42.22z"/>
	<path id="path2442" class="st1" d="M-317.28-30.21c0-0.04,0-0.09,0-0.13h-15.31v0.22h15.31
		C-317.28-30.14-317.28-30.18-317.28-30.21z"/>
	<path id="path2444" class="st1" d="M-309.91-30.34c0,0.04,0,0.08,0,0.13c0,0.03,0,0.06,0,0.1h15.32v-0.22H-309.91z"/>
	<g>
		<path id="path2446" class="st18" d="M-306.63-30.22c0,3.84-3.11,6.96-6.96,6.96c-3.84,0-6.96-3.11-6.96-6.96
			c0-3.84,3.11-6.96,6.96-6.96C-309.74-37.18-306.63-34.07-306.63-30.22z"/>
		<path id="path2448" class="st1" d="M-315.79-29.32l0.49-0.49l5.51-0.25l0.25-0.25h-5.43l-2.96-3.46l9.87,3.29l-3.29,3.29h-6.58
			l0.66-0.66l5.51-0.25l0.24-0.25h-5.26l0.49-0.49l5.51-0.25l0.25-0.25H-315.79z"/>
	</g>
	<g>
		<path id="path2496" class="st1" d="M-306.96-39.03c-0.11,0.03-0.23,0.05-0.35,0.05c-0.49,0-0.84-0.25-0.84-0.76
			c0-0.52,0.32-0.82,0.84-0.82c0.1,0,0.23,0.02,0.35,0.06l-0.02,0.26c-0.12-0.07-0.22-0.08-0.33-0.08c-0.32,0-0.51,0.24-0.51,0.55
			c0,0.31,0.19,0.55,0.52,0.55c0.12,0,0.26-0.03,0.33-0.06L-306.96-39.03z"/>
		<path id="path2498" class="st1" d="M-305.74-40.53h0.35l0.6,1.53h-0.34l-0.13-0.35h-0.62l-0.13,0.35h-0.32L-305.74-40.53z
			 M-305.58-40.23L-305.58-40.23l-0.23,0.63h0.45L-305.58-40.23z"/>
		<path id="path2500" class="st1" d="M-304.07-40.53h0.38l0.58,1.14h0v-1.14h0.29v1.53h-0.37l-0.58-1.14h0v1.14h-0.29V-40.53z"/>
		<path id="path2502" class="st1" d="M-301.49-40.53h0.35l0.6,1.53h-0.34l-0.13-0.35h-0.62l-0.13,0.35h-0.32L-301.49-40.53z
			 M-301.32-40.23L-301.32-40.23l-0.23,0.63h0.45L-301.32-40.23z"/>
		<path id="path2504" class="st1" d="M-299.8-40.53h0.42c0.47,0,0.88,0.16,0.88,0.76c0,0.61-0.41,0.76-0.88,0.76h-0.42V-40.53z
			 M-299.49-39.25h0.17c0.26,0,0.5-0.19,0.5-0.52c0-0.33-0.25-0.52-0.5-0.52h-0.17V-39.25z"/>
		<path id="path2506" class="st1" d="M-297.23-40.53h0.35l0.6,1.53h-0.34l-0.13-0.35h-0.62l-0.13,0.35h-0.32L-297.23-40.53z
			 M-297.06-40.23L-297.06-40.23l-0.23,0.63h0.45L-297.06-40.23z"/>
	</g>
	<g>
		<path id="path2508" class="st1" d="M-303.31-21.47h0.39c0.33,0,0.64,0.1,0.64,0.46c0,0.36-0.26,0.49-0.59,0.49H-303v0.58h-0.31
			V-21.47z M-303-20.76h0.11c0.15,0,0.29-0.05,0.29-0.23c0-0.18-0.13-0.24-0.29-0.24H-303V-20.76z"/>
		<path id="path2510" class="st1" d="M-300.84-21.49c0.48,0,0.75,0.32,0.75,0.79c0,0.46-0.26,0.79-0.75,0.79
			c-0.49,0-0.75-0.33-0.75-0.79C-301.59-21.18-301.33-21.49-300.84-21.49z M-300.84-20.15c0.31,0,0.43-0.28,0.43-0.55
			c0-0.27-0.12-0.55-0.43-0.55s-0.43,0.28-0.43,0.55C-301.27-20.43-301.16-20.15-300.84-20.15z"/>
		<path id="path2512" class="st1" d="M-298.45-21.19c-0.1-0.04-0.2-0.07-0.31-0.07c-0.11,0-0.24,0.05-0.24,0.21
			c0,0.26,0.67,0.15,0.67,0.67c0,0.33-0.27,0.46-0.57,0.46c-0.17,0-0.24-0.02-0.39-0.06l0.03-0.28c0.11,0.06,0.23,0.09,0.35,0.09
			c0.12,0,0.27-0.06,0.27-0.2c0-0.29-0.67-0.17-0.67-0.68c0-0.34,0.27-0.47,0.53-0.47c0.13,0,0.25,0.02,0.37,0.05L-298.45-21.19z"/>
		<path id="path2514" class="st1" d="M-297.15-21.23h-0.51v-0.24h1.38v0.24h-0.51v1.29h-0.36V-21.23z"/>
	</g>
	<g>
		<path id="path2516" class="st1" d="M-330.86-40.53h0.39c0.33,0,0.64,0.1,0.64,0.46c0,0.36-0.26,0.49-0.59,0.49h-0.13v0.58h-0.31
			V-40.53z M-330.55-39.83h0.11c0.15,0,0.29-0.05,0.29-0.23c0-0.18-0.13-0.24-0.29-0.24h-0.11V-39.83z"/>
		<path id="path2518" class="st1" d="M-328.4-40.56c0.48,0,0.75,0.32,0.75,0.79c0,0.46-0.26,0.79-0.75,0.79
			c-0.49,0-0.75-0.33-0.75-0.79C-329.14-40.24-328.88-40.56-328.4-40.56z M-328.4-39.22c0.31,0,0.43-0.28,0.43-0.55
			c0-0.27-0.12-0.54-0.43-0.54c-0.3,0-0.43,0.28-0.43,0.54C-328.82-39.5-328.71-39.22-328.4-39.22z"/>
		<path id="path2520" class="st1" d="M-326-40.25c-0.1-0.04-0.2-0.07-0.31-0.07c-0.11,0-0.24,0.05-0.24,0.21
			c0,0.26,0.67,0.15,0.67,0.67c0,0.33-0.26,0.46-0.57,0.46c-0.17,0-0.24-0.02-0.39-0.06l0.03-0.28c0.11,0.06,0.23,0.09,0.35,0.09
			c0.12,0,0.27-0.06,0.27-0.2c0-0.29-0.67-0.17-0.67-0.68c0-0.34,0.26-0.47,0.53-0.47c0.13,0,0.25,0.02,0.37,0.05L-326-40.25z"/>
		<path id="path2522" class="st1" d="M-324.78-40.29h-0.44v-0.24h1.18v0.24h-0.44v1.29h-0.31V-40.29z"/>
		<path id="path2524" class="st1" d="M-323.29-40.53h0.9v0.24h-0.6v0.38h0.54v0.24h-0.54v0.43h0.6v0.24h-0.91V-40.53z"/>
		<path id="path2526" class="st1" d="M-320.7-40.25c-0.1-0.04-0.2-0.07-0.31-0.07c-0.1,0-0.24,0.05-0.24,0.21
			c0,0.26,0.67,0.15,0.67,0.67c0,0.33-0.26,0.46-0.57,0.46c-0.17,0-0.24-0.02-0.39-0.06l0.03-0.28c0.11,0.06,0.23,0.09,0.35,0.09
			c0.12,0,0.27-0.06,0.27-0.2c0-0.29-0.67-0.17-0.67-0.68c0-0.34,0.26-0.47,0.53-0.47c0.13,0,0.25,0.02,0.37,0.05L-320.7-40.25z"/>
	</g>
	<g>
		<path id="path2528" class="st1" d="M-329.67-19.99c-0.11,0.03-0.23,0.05-0.35,0.05c-0.49,0-0.84-0.25-0.84-0.76
			c0-0.52,0.32-0.82,0.84-0.82c0.1,0,0.23,0.02,0.35,0.06l-0.02,0.26c-0.12-0.07-0.22-0.08-0.33-0.08c-0.32,0-0.51,0.24-0.51,0.55
			c0,0.31,0.19,0.54,0.52,0.54c0.12,0,0.26-0.03,0.33-0.06L-329.67-19.99z"/>
		<path id="path2530" class="st1" d="M-328.46-21.49h0.35l0.6,1.53h-0.34l-0.13-0.35h-0.62l-0.13,0.35h-0.32L-328.46-21.49z
			 M-328.29-21.19L-328.29-21.19l-0.23,0.63h0.45L-328.29-21.19z"/>
		<path id="path2532" class="st1" d="M-326.79-21.49h0.38l0.58,1.14h0v-1.14h0.29v1.53h-0.37l-0.58-1.14h0v1.14h-0.29V-21.49z"/>
		<path id="path2534" class="st1" d="M-324.21-21.49h0.35l0.6,1.53h-0.34l-0.13-0.35h-0.62l-0.13,0.35h-0.32L-324.21-21.49z
			 M-324.04-21.19L-324.04-21.19l-0.23,0.63h0.45L-324.04-21.19z"/>
		<path id="path2536" class="st1" d="M-322.51-21.49h0.42c0.47,0,0.88,0.16,0.88,0.76c0,0.61-0.41,0.76-0.88,0.76h-0.42V-21.49z
			 M-322.21-20.21h0.17c0.26,0,0.5-0.19,0.5-0.52c0-0.33-0.25-0.52-0.5-0.52h-0.17V-20.21z"/>
		<path id="path2538" class="st1" d="M-319.95-21.49h0.35l0.6,1.53h-0.34l-0.13-0.35h-0.62l-0.13,0.35h-0.32L-319.95-21.49z
			 M-319.78-21.19L-319.78-21.19l-0.23,0.63h0.45L-319.78-21.19z"/>
	</g>
</g>
</svg>
