<svg xmlns="http://www.w3.org/2000/svg" role="img" viewBox="0 0 38 24" width="38" height="24" aria-labelledby="pi-fedex"><title id="pi-fedex">Fedex</title>
<style type="text/css">
	.st0{fill:#CE0F4C;}
	.st1{fill:#FFFFFF;}
	.st2{fill:#C7BCAF;}
	.st3{fill:#EFDC00;}
	.st4{fill-rule:evenodd;clip-rule:evenodd;fill:#254F9E;}
	.st5{fill:#FDCD00;}
	.st6{fill:#193D6B;}
	.st7{fill:url(#SVGID_1_);}
	.st8{fill:#444244;}
	.st9{fill:url(#SVGID_00000048480246566251160210000007114910940629288883_);}
	.st10{fill:#EC691D;}
	.st11{fill:#F28D47;}
	.st12{fill:#34434F;}
	.st13{fill:none;}
	.st14{fill:url(#SVGID_00000127013961225986475320000003854460356088146054_);}
	.st15{fill:url(#SVGID_00000047023997366774072470000007474397550468179850_);}
	.st16{fill:#107BC0;}
	.st17{fill:#1C468F;}
	.st18{fill:#E52332;}
	.st19{fill:#EB5C1D;}
	.st20{fill:#2E276D;}
</style>
<rect x="-130.36" y="-1.06" class="st0" width="38" height="24"/>
<g id="layer1_00000016058516515497884960000011840437279808027565_" transform="translate(-118.69745,430.82084)">
	<g id="g407_00000000182892630254610670000002300159625675005867_" transform="matrix(8.24357,0,0,-8.24357,-1244.409,955.76124)">
		<g id="g82_00000018221882978879569850000016670259953534003084_" transform="translate(205.7088,145.9246)">
			<path id="path84_00000155141259680972332900000005320443188935704997_" class="st1" d="M-53.71,21.46
				c-0.17,0.03-0.28-0.06-0.28-0.2v-0.48l-0.26,0.16v0.32c0,0.29,0.2,0.49,0.54,0.45V21.46z"/>
		</g>
		<path id="path86_00000170990349620832951790000005240831799944701598_" class="st2" d="M152.31,167.39h-0.25v0.25h0.25V167.39z"/>
		<g id="g88_00000046298974921464860650000016564216670696041913_" transform="translate(176.2576,105.2889)">
			<path id="path90_00000049944809506721803980000013137132378849850005_" class="st1" d="M-25.48,60.42h0.12v0.31
				c0,0.03,0.01,0.06,0.03,0.08c0.02,0.02,0.05,0.03,0.08,0.03c0.03,0,0.06-0.01,0.06-0.01v0.12c0,0-0.04,0.01-0.07,0.01
				c-0.14,0-0.22-0.1-0.22-0.22V60.42z"/>
		</g>
		<g id="g92_00000019659382629291702590000004306208564390617008_" transform="translate(186.0788,106.4444)">
			<path id="path94_00000015340440874244629460000016184742186979466640_" class="st1" d="M-34.89,59.31
				c-0.03,0.03-0.04,0.07-0.04,0.12v0.18c0,0.05,0.01,0.09,0.04,0.12c0.03,0.03,0.07,0.05,0.13,0.05h0.19v-0.12h-0.19
				c-0.02,0-0.03,0-0.04-0.01c-0.01-0.01-0.01-0.02-0.01-0.04v-0.04h0.2v-0.11h-0.2v-0.04c0-0.02,0-0.04,0.01-0.04
				c0.01-0.01,0.02-0.01,0.04-0.01h0.19v-0.12h-0.19h0C-34.82,59.26-34.87,59.28-34.89,59.31"/>
		</g>
		<g id="g96_00000135673527831585109900000000407859377973560485_" transform="translate(197.2103,106.4256)">
			<path id="path98_00000137103362719887628430000008661553258032115862_" class="st1" d="M-45.57,59.33
				c-0.03,0.03-0.04,0.07-0.04,0.12v0.36h0.12v-0.36c0-0.02,0-0.04,0.01-0.04c0.01-0.01,0.02-0.01,0.04-0.01h0.16l-0.04-0.12h-0.12
				h0C-45.49,59.28-45.54,59.3-45.57,59.33"/>
		</g>
		<g id="g100_00000031205005827231928270000000186348603031944358_" transform="translate(220.7446,105.2966)">
			<path id="path102_00000127025610868348814590000004631065276895583105_" class="st1" d="M-68.13,60.41v0.2l-0.18,0.33h0.13
				l0.1-0.2l0.1,0.2h0.13l-0.18-0.33v-0.2H-68.13z"/>
		</g>
		<g id="g104_00000080198467804403077340000002054758184732654465_" transform="translate(209.9902,110.4251)">
			<path id="path106_00000113350112510275712760000012190675848932390561_" class="st1" d="M-57.82,55.5l0.06,0.18l0.06-0.18H-57.82
				z M-57.66,55.74c-0.03,0.07-0.06,0.07-0.08,0.07h-0.03c-0.02,0-0.06,0-0.08-0.07c-0.04-0.11-0.16-0.45-0.16-0.45h0.12l0.03,0.1
				h0.19l0.03-0.1h0.12L-57.66,55.74z"/>
		</g>
		<g id="g108_00000166655477965163433130000002592869509933960875_" transform="translate(217.7796,122.5175)">
			<path id="path110_00000076577268825807843930000008263842789264076723_" class="st1" d="M-65.28,43.9l0.02,0.07l0.02-0.07H-65.28
				z M-65.23,43.99c-0.01,0.03-0.02,0.03-0.03,0.03h-0.01c-0.01,0-0.02,0-0.03-0.03c-0.01-0.04-0.06-0.17-0.06-0.17h0.05l0.01,0.04
				h0.07l0.01-0.04h0.05L-65.23,43.99z"/>
		</g>
		<g id="g112_00000065072231771533360690000018399392079663161996_" transform="translate(181.968,120.7368)">
			<path id="path114_00000159454680986699762670000014934202193417304971_" class="st1" d="M-30.95,45.61L-30.95,45.61L-30.95,45.61
				z M-30.99,45.61v0.13c0,0.02-0.01,0.03-0.03,0.03c-0.02,0-0.03-0.01-0.03-0.03v-0.13h-0.04v0.13c0,0.02-0.01,0.03-0.03,0.03
				c-0.02,0-0.03-0.01-0.03-0.03v-0.13h-0.04v0.13c0,0.04,0.03,0.07,0.07,0.07c0.02,0,0.04-0.01,0.05-0.02
				c0.01,0.01,0.03,0.02,0.05,0.02c0.04,0,0.07-0.03,0.07-0.07v-0.12v0H-30.99z"/>
		</g>
		<g id="g116_00000040576047667492074580000016078001796207984781_" transform="translate(187.2723,122.9987)">
			<path id="path118_00000049903675101063767560000004133077179278759841_" class="st1" d="M-36.04,43.44
				c0-0.03,0.02-0.06,0.05-0.06c0.03,0,0.05,0.03,0.05,0.06c0,0.03-0.02,0.06-0.05,0.06C-36.02,43.5-36.04,43.47-36.04,43.44
				 M-36.08,43.44c0,0.06,0.04,0.1,0.09,0.1c0.05,0,0.09-0.04,0.09-0.1c0-0.06-0.04-0.1-0.09-0.1
				C-36.04,43.34-36.08,43.39-36.08,43.44"/>
		</g>
		<g id="g120_00000111175719210095336630000017878696911607290778_" transform="translate(197.9778,124.9385)">
			<path id="path122_00000038378230444515941140000006028021720307100852_" class="st1" d="M-46.3,41.58
				c0.01-0.01,0.02-0.03,0.02-0.05V41.4h-0.04v0.13c0,0.02-0.01,0.03-0.03,0.03c-0.02,0-0.03-0.01-0.03-0.03V41.4h-0.04v0.13
				c0,0.02,0.01,0.04,0.02,0.05c0.01,0.01,0.03,0.02,0.05,0.02C-46.33,41.6-46.31,41.6-46.3,41.58"/>
		</g>
		<g id="g124_00000078725658421606539490000006880983297436262294_" transform="translate(204.7421,124.3351)">
			<path id="path126_00000028300640212829730980000007301948899301675654_" class="st1" d="M-52.79,42.16h-0.03l0-0.11h0.03
				c0.04,0,0.04,0.03,0.04,0.06C-52.74,42.13-52.75,42.16-52.79,42.16 M-52.79,42.01h-0.07v0.19h0.07c0.03,0,0.05-0.01,0.06-0.03
				c0.02-0.02,0.02-0.04,0.02-0.07c0-0.03-0.01-0.05-0.02-0.07C-52.74,42.02-52.76,42.01-52.79,42.01L-52.79,42.01"/>
		</g>
		<path id="path128_00000057134592625616729580000016305896194725223845_" class="st1" d="M152.21,166.54h0.04v-0.19h-0.04V166.54z"
			/>
		<g id="g130_00000004515366896298760490000016413652656818304438_" transform="translate(225.7742,120.6442)">
			<path id="path132_00000000931881459355269740000000114039229560980352_" class="st1" d="M-72.95,45.7
				c-0.02,0-0.04,0.01-0.05,0.02c-0.01,0.01-0.02,0.03-0.02,0.05v0.13h0.04v-0.13c0-0.02,0-0.02,0.02-0.02h0.06V45.7H-72.95z"/>
		</g>
		<g id="g134_00000084492137544010166130000014406987187520371643_" transform="translate(203.5711,158.0667)">
			<path id="path136_00000024001214703888120100000006261008464594304390_" class="st2" d="M-51.66,9.82c0-0.08-0.07-0.15-0.15-0.15
				c-0.08,0-0.15,0.07-0.15,0.15c0,0.08,0.07,0.15,0.15,0.15C-51.73,9.98-51.66,9.91-51.66,9.82"/>
		</g>
	</g>
</g>
<g id="layer1_00000116934061140431816060000017640252691864470956_" transform="translate(40.766277,-34.512127)">
	
		<rect id="rect4496_00000064352081565794465880000017894333062974929305_" x="-129.54" y="33.45" class="st3" width="38" height="24"/>
	
		<g id="g10_00000121253781250393989380000014037348107639833998_" transform="matrix(0.28623924,0,0,-0.28573313,-35.053431,71.300443)">
		<g id="g12_00000177468398261489384080000003790365480703376516_" transform="scale(0.1)">
			<path id="path16_00000056414082321037811980000008781128170649986185_" class="st4" d="M-2732.41,876.58
				c-0.19-12.74,3.14-23.73,17.06-23.73c10.39,0,16.86,4.91,18.24,14.12h34.52c-1.18-12.75-9.22-21.97-18.63-27.46
				c-8.63-5.49-19.61-7.65-31.18-7.65c-39.42,0-55.1,16.87-55.1,55.5c0,31.18,23.33,48.83,52.95,48.83
				c40.01,0,52.75-22.95,52.75-59.62H-2732.41z M-2697.11,896.59c0,5.3-1.58,10.59-4.51,14.7c-2.94,4.12-7.26,6.67-12.94,6.27
				c-12.94-0.58-16.08-9.8-17.06-20.98H-2697.11"/>
			<path id="path18_00000060030693301905777940000000400060633445964715_" class="st4" d="M-3199.73,834.82v141.59h65.11
				c34.71,0,57.46-11.18,57.46-45.49c0-34.32-22.75-45.5-57.46-45.5h-25.89v-50.59H-3199.73z M-3140.3,912.87
				c15.49,0.59,21.97,7.65,21.97,18.05c0,10.39-6.47,17.45-21.97,18.04h-20.2v-36.08H-3140.3"/>
			<path id="path20_00000045608266648831835590000005366347320964208038_" class="st4" d="M-2961.31,884.04
				c0-36.27-26.48-52.16-57.27-52.16c-30.78,0-57.26,15.89-57.26,52.16c0,36.28,26.48,52.17,57.26,52.17
				C-2987.78,936.2-2961.31,920.32-2961.31,884.04z M-3018.58,853.45c15.7,0,19.03,16.67,19.03,30.59s-3.33,30.59-19.03,30.59
				c-15.68,0-19.02-16.67-19.02-30.59S-3034.26,853.45-3018.58,853.45"/>
			<path id="path22_00000109734349863609127890000011480745410273988017_" class="st4" d="M-2896.39,902.87
				c0,3.33-0.59,6.27-2.35,8.23c-1.96,2.16-5.1,3.53-10.2,3.53c-5.49,0-8.82-3.13-8.82-8.83c0-7.25,15.1-6.86,38.44-14.12
				c11.77-3.72,19.81-10.98,19.81-27.06c0-26.08-24.52-32.75-47.07-32.75c-24.12,0-47.65,4.9-47.46,34.91h35.3
				c-0.59-2.94,0.4-6.28,2.55-8.82c2.16-2.55,5.29-4.51,8.82-4.51c7.26,0,12.55,2.74,12.55,9.02c0,17.46-58.24,7.06-58.24,42.75
				c0,24.31,25.89,30.98,45.49,30.98c23.34,0,44.91-6.08,46.48-33.33L-2896.39,902.87"/>
			<path id="path24_00000165209849851072714320000018355308450009911204_" class="st4" d="M-2834.98,933.27v14.91l37.25,14.12
				v-29.03h21.58v-23.53h-21.58v-39.02c0-2.55-1.56-15.3,7.07-15.3c4.9,0,10,0,14.31,0.59v-22.15c-8.43-1.58-14.51-1.97-20.01-1.97
				c-25.29,0-40.59,3.53-38.63,33.73v44.13h-19.22v23.53H-2834.98"/>
			<path id="path26_00000150070673707294285250000008596900839106459816_" class="st4" d="M-2645.73,934.26h18.69V835.5h-18.69
				V934.26z M-2647.5,977.54h22.23v-20.27h-22.23V977.54"/>
			<path id="path28_00000114760759299016439540000000156814336578862742_" class="st4" d="M-2597.06,934.26v21.05l18.68,5.9v-26.95
				l22.83,0.59v-13.97l-22.83,0.2v-63.75c0-7.07,5.52-10.42,12.2-10.42c2.96,0,6.88,0.38,9.84,1.17v-14.36
				c-4.33-0.2-8.46-1.19-12.79-1.19c-4.52,0-8.06,0.2-12.59,0.99c-2.94,0.59-7.86,2.17-11.01,6.49c-3.34,4.72-4.32,5.11-4.32,18.29
				v62.77l-16.92-0.2v13.97L-2597.06,934.26"/>
			<path id="path30_00000095325794945928686560000010286884801251051188_" class="st4" d="M-2482.18,896.48
				c0,17.12-0.98,27.16-20.85,27.16c-9.44,0-18.29-5.52-18.49-15.75h-19.68c0.98,21.64,17.9,29.32,37.37,29.32
				c20.27,0,40.33-6.1,40.33-33.64v-47.22c0-4.32,0.2-12.59,0.79-20.85h-12.59c-1.78,0-5.12-0.98-5.31,1.38
				c-0.39,4.52-0.79,8.85-0.99,13.38h-0.4c-6.09-12.4-17.11-17.72-30.68-17.72c-17.12,0-34.43,8.86-34.43,28.13
				c0,27.75,24.6,35.81,48,35.81H-2482.18z M-2500.86,883.5c-11.42-0.59-26.57-4.72-26.57-19.08c0-12.2,8.46-18.29,19.47-18.29
				c22.04,0,26.17,19.08,25.77,37.38H-2500.86"/>
			<path id="path32_00000007421325813408048360000003639923396103119032_" class="st4" d="M-2444.9,977.54h18.68V835.5h-18.68
				V977.54"/>
			<path id="path34_00000072260051480160240330000008289062386281041326_" class="st4" d="M-2402.98,934.26h18.7V835.5h-18.7V934.26
				z M-2404.75,977.54h22.23v-20.27h-22.23V977.54"/>
			<path id="path36_00000181087535107199673950000001827276020567800719_" class="st4" d="M-2302.5,896.48
				c0,17.12-0.98,27.16-20.85,27.16c-9.44,0-18.29-5.52-18.49-15.75h-19.68c0.99,21.64,17.91,29.32,37.38,29.32
				c20.26,0,40.33-6.1,40.33-33.64v-47.22c0-4.32,0.19-12.59,0.79-20.85h-12.59c-1.77,0-5.12-0.98-5.31,1.38
				c-0.39,4.52-0.78,8.85-0.98,13.38h-0.4c-6.09-12.4-17.11-17.72-30.69-17.72c-17.11,0-34.42,8.86-34.42,28.13
				c0,27.75,24.59,35.81,48,35.81H-2302.5z M-2321.19,883.5c-11.41-0.59-26.56-4.72-26.56-19.08c0-12.2,8.46-18.29,19.48-18.29
				c22.03,0,26.16,19.08,25.77,37.38H-2321.19"/>
			<path id="path38_00000083808632289792779960000016122181154904333459_" class="st4" d="M-2246.18,919.69h0.39
				c6.3,12.39,20.07,17.52,29.9,17.52c6.88,0,37.38-1.77,37.38-33.45V835.5h-18.69v62.16c0,16.33-6.88,25.19-22.62,25.19
				c-0.01,0-10.24,0.59-18.11-7.28c-2.75-2.75-7.87-7.09-7.87-26.36V835.5h-18.68v98.76h18.29V919.69"/>
			<path id="path40_00000088841479654250627940000010508807974215132830_" class="st4" d="M-2144.05,881.33
				c-1.38-17.31,5.71-35.21,24.79-35.21c14.55,0,21.84,5.7,24,20.07h19.67c-2.95-22.43-20.26-33.65-43.87-33.65
				c-31.67,0-44.26,22.43-44.26,51.54c0,28.93,14.55,53.13,45.83,53.13c29.51-0.6,43.48-19.28,43.48-46.63v-9.25H-2144.05z
				 M-2094.08,894.32c0.4,16.53-7.08,29.32-25.18,29.32c-15.54,0-24.79-13.19-24.79-29.32H-2094.08"/>
		</g>
	</g>
</g>
<rect x="-88.77" y="-27.39" class="st5" width="38" height="24"/>
<g id="layer1_00000093856258748047536340000013126458632190656415_" transform="translate(-22.745446,-140.77167)">
	<g>
		<path id="path849_00000091006760309363514570000011194915468429874600_" class="st6" d="M-47.68,124.37
			c0,0.36,0.29,0.65,0.65,0.65s0.65-0.29,0.65-0.65c0-0.36-0.29-0.65-0.65-0.65S-47.68,124.01-47.68,124.37 M-43.16,122.41
			c-0.18,1.3-1.02,2.39-2.17,2.92c-0.48,0.22-1.01,0.34-1.57,0.34h-0.13c-0.72,0-1.3-0.58-1.3-1.3c0-0.72,0.58-1.3,1.3-1.3
			c0.72,0,1.3,0.58,1.3,1.3c0,0.16-0.03,0.31-0.08,0.46c0.26-0.1,0.51-0.23,0.73-0.39c0,0,0-0.04,0-0.07c0-1.08-0.87-1.96-1.95-1.96
			c-1.08,0-1.95,0.88-1.95,1.96c0,1.08,0.87,1.96,1.95,1.96c0.8,0,1.55-0.21,2.2-0.57c1.22-0.68,2.1-1.9,2.3-3.34L-43.16,122.41z
			 M-49.63,122.41h-1.9c0.21,1.44,1.08,2.66,2.3,3.34c-0.25-0.4-0.4-0.88-0.4-1.39V122.41z M-41.82,121.76
			c0,2.88-2.33,5.21-5.2,5.21c-2.87,0-5.2-2.33-5.2-5.21h3.25v0.88c0.48-0.54,1.17-0.88,1.95-0.88c1.26,0,2.32,0.9,2.55,2.1
			c0.43-0.53,0.69-1.2,0.7-1.93v-0.17H-41.82z"/>
		<path id="path853_00000057839467264371654810000001447576829397078445_" class="st6" d="M-47.02,119.71h-0.33v-1.21
			c-0.36,0-0.65,0.29-0.65,0.65c0,0.24,0.13,0.44,0.32,0.56h-0.84c-0.08-0.17-0.13-0.36-0.13-0.56c0-0.23,0.06-0.44,0.16-0.63
			c-0.05-0.01-0.11-0.02-0.16-0.02c-0.36,0-0.65,0.29-0.65,0.65c0,0.24,0.13,0.44,0.32,0.56h-0.84c-0.08-0.17-0.13-0.36-0.13-0.56
			c0-0.72,0.58-1.3,1.3-1.3c0.24,0,0.46,0.06,0.65,0.17c0.19-0.11,0.41-0.17,0.65-0.17c0.11,0,0.22,0.01,0.33,0.04
			c0.1-0.03,0.21-0.04,0.32-0.04c0.24,0,0.46,0.06,0.65,0.17c0.19-0.11,0.41-0.17,0.65-0.17c0.72,0,1.3,0.58,1.3,1.3
			c0,0.2-0.05,0.39-0.13,0.56h-0.84c0.19-0.11,0.32-0.32,0.32-0.56c0-0.36-0.29-0.65-0.65-0.65c-0.06,0-0.11,0.01-0.16,0.02
			c0.1,0.19,0.16,0.4,0.16,0.63c0,0.2-0.05,0.39-0.13,0.56h-0.84c0.19-0.11,0.32-0.32,0.32-0.56c0-0.36-0.29-0.65-0.65-0.65v1.21
			H-47.02z"/>
		<path id="path857_00000125584007942190374750000004017544429720090245_" class="st6" d="M-49.83,120.28
			c0-0.22,0.18-0.39,0.39-0.39c0.22,0,0.39,0.18,0.39,0.39c0,0.22-0.18,0.39-0.39,0.39C-49.65,120.68-49.83,120.5-49.83,120.28"/>
		<path id="path861_00000170959039503179811370000006248939609962081958_" class="st6" d="M-45.01,120.28
			c0-0.22,0.18-0.39,0.39-0.39c0.22,0,0.39,0.18,0.39,0.39c0,0.22-0.18,0.39-0.39,0.39C-44.83,120.68-45.01,120.5-45.01,120.28"/>
		<path id="path865_00000057141968613423140790000009546657122577858746_" class="st6" d="M-46.21,120.28
			c0-0.22,0.18-0.39,0.39-0.39s0.39,0.18,0.39,0.39c0,0.22-0.18,0.39-0.39,0.39S-46.21,120.5-46.21,120.28"/>
		<path id="path869_00000103237718480607720960000018148134172183335310_" class="st6" d="M-47.42,120.28
			c0-0.22,0.18-0.39,0.39-0.39c0.22,0,0.39,0.18,0.39,0.39c0,0.22-0.18,0.39-0.39,0.39C-47.24,120.68-47.42,120.5-47.42,120.28"/>
		<path id="path873_00000015318280650842030120000013330418688093670289_" class="st6" d="M-48.62,120.28
			c0-0.22,0.18-0.39,0.39-0.39c0.22,0,0.39,0.18,0.39,0.39c0,0.22-0.18,0.39-0.39,0.39C-48.45,120.68-48.62,120.5-48.62,120.28"/>
		<path id="path875_00000022530118156132085490000003385613077440647813_" class="st6" d="M-48.98,120.89h3.9v0.65h-3.9V120.89z"/>
		<path id="path887_00000062175864713632521140000016847083525355946903_" class="st6" d="M-47.13,117.14v-0.15h-0.22v-0.22h0.22
			v-0.22h0.22v0.22h0.22v0.22h-0.22v0.15c0.13,0.04,0.22,0.17,0.22,0.31c0,0.18-0.15,0.33-0.33,0.33c-0.18,0-0.33-0.15-0.33-0.33
			C-47.35,117.3-47.26,117.18-47.13,117.14"/>
	</g>
	<g>
		<path id="path891_00000139999301312534647520000000448747231383152520_" class="st6" d="M-55.53,132.46
			c-0.6,0.36-1.32,0.64-1.89,0.66c-0.62,0.03-1.3-0.08-1.49-0.7c-0.28-0.91,0.28-2.07,1.01-2.46c1.01-0.54,1.85-0.25,2.14,0.05
			l0.21-1.09c-0.43-0.19-1.01-0.27-1.23-0.27c-1.52,0-2.26,0.74-2.72,1.36c-0.51,0.69-1.2,2.44,0.08,3.65
			c0.38,0.36,1.08,0.58,1.73,0.54c1.04-0.07,1.68-0.37,2.28-0.81c0.03,0.07,0.07,0.13,0.1,0.18c0.27,0.38,0.75,0.57,1.45,0.57
			c1.16,0,1.93-0.46,2.17-1.77l0.07-0.44c0.01-0.04,0.02-0.09,0.02-0.14c0.02-0.13,0.03-0.28,0.03-0.41c0-0.99-0.61-1.43-1.68-1.43
			c-1.15,0-1.9,0.45-2.16,1.77c0.63-0.41,1.25-0.84,2.06-0.84c0.45,0,0.58,0.18,0.58,0.51c0,0.11-0.01,0.22-0.04,0.4
			c0,0.01,0,0.03-0.01,0.04l-0.08,0.43c-0.14,0.7-0.33,0.95-0.88,0.95c-0.41,0-0.57-0.14-0.57-0.5c-0.01-0.12,0.02-0.36,0.04-0.45
			c0.02-0.09,0.13-0.6,0.13-0.6S-54.93,132.1-55.53,132.46"/>
		<path id="path895_00000038404815906448625600000016312698406442933123_" class="st6" d="M-48.33,129.99
			c-0.43,0-0.95,0.07-1.4,0.43l0.06-0.33h-1.12l-0.7,3.96h1.22l0.51-2.87c0.33-0.1,0.82-0.18,1.26-0.18L-48.33,129.99z"/>
		<path id="path899_00000084506815603257188090000002200523170562853044_" class="st6" d="M-45.51,129.99
			c-0.43,0-0.94,0.07-1.4,0.43l0.06-0.33h-1.12l-0.7,3.96h1.22l0.51-2.87c0.33-0.1,0.82-0.18,1.26-0.18L-45.51,129.99z"/>
		<path id="path903_00000151534024050035106290000010415733939882981280_" class="st6" d="M-35.29,130.8c0.3,0,0.78,0.03,1.27,0.08
			l0.12-0.73c-0.3-0.08-0.82-0.16-1.42-0.16c-0.93,0-1.82,0.2-1.82,1.24c0,0.58,0.33,0.92,0.93,1.16l0.3,0.12
			c0.43,0.18,0.52,0.24,0.52,0.43c0,0.34-0.32,0.41-0.7,0.41c-0.59,0-0.82-0.05-1.34-0.07l-0.12,0.73c0.21,0.06,0.84,0.15,1.4,0.15
			c1.13,0,1.99-0.34,1.99-1.37c0-0.55-0.28-0.86-0.97-1.13l-0.33-0.13c-0.33-0.14-0.46-0.2-0.46-0.37
			C-35.93,130.81-35.58,130.8-35.29,130.8"/>
		<path id="path907_00000128461344468524798770000011364175674462663339_" class="st6" d="M-38.86,131.86l-0.09,0.43
			c-0.14,0.7-0.33,0.95-0.87,0.95c-0.41,0-0.57-0.14-0.57-0.5c0-0.14,0.01-0.28,0.04-0.45l0.09-0.43c0.13-0.7,0.33-0.95,0.86-0.95
			c0.45,0,0.57,0.18,0.57,0.51C-38.83,131.54-38.83,131.66-38.86,131.86 M-39.3,129.99c-1.16,0-1.9,0.45-2.16,1.76l-0.08,0.38
			c-0.05,0.24-0.05,0.42-0.05,0.61c0,0.95,0.57,1.42,1.67,1.42c1.17,0,1.93-0.46,2.17-1.77l0.07-0.44c0.02-0.15,0.06-0.38,0.06-0.55
			C-37.62,130.42-38.22,129.99-39.3,129.99"/>
		<path id="path911_00000152265561980552304610000000370786408395931553_" class="st6" d="M-43.06,131.74h-1.43l0.02-0.06
			c0.07-0.43,0.25-0.84,0.85-0.84c0.47,0,0.6,0.23,0.6,0.53C-43.02,131.47-43.04,131.59-43.06,131.74 M-43.51,129.99
			c-1.16,0-1.98,0.48-2.21,1.87l-0.03,0.21c-0.04,0.24-0.07,0.47-0.07,0.66c0,1,0.61,1.43,1.75,1.43c0.71,0,1.29-0.1,1.61-0.17
			l0.13-0.8c-0.75,0.05-1.09,0.07-1.51,0.07c-0.64,0-0.82-0.16-0.82-0.48c0-0.09,0.02-0.2,0.05-0.38h2.61
			c0.08-0.41,0.12-0.68,0.12-0.96C-41.87,130.58-42.34,129.99-43.51,129.99"/>
	</g>
</g>
<rect y="-27.39" class="st1" width="38" height="24"/>
<rect x="43.94" y="-27.39" class="st1" width="38" height="24"/>
<rect x="-45.17" y="-27.39" class="st1" width="38" height="24"/>
<rect x="0" y="0" class="st1" width="38" height="24"/>
<rect x="-130.36" y="-27.39" class="st1" width="38" height="24"/>
<g>
	<linearGradient id="SVGID_1_" gradientUnits="userSpaceOnUse" x1="-107.3975" y1="-22.1416" x2="-115.6243" y2="-15.571">
		<stop  offset="2.064656e-07" style="stop-color:#449ED7"/>
		<stop  offset="1" style="stop-color:#1E6BAB"/>
	</linearGradient>
	<path class="st7" d="M-115.76-21.94c0.39-0.21,0.76-0.42,1.13-0.62c1-0.54,2-1.08,2.99-1.63c0.19-0.11,0.35-0.11,0.54,0
		c1.34,0.74,2.68,1.47,4.03,2.2c0.03,0.01,0.05,0.03,0.09,0.06c-0.3,0.17-0.58,0.34-0.87,0.51c-0.69,0.4-1.37,0.8-2.06,1.19
		c-0.22,0.13-0.22,0.51-0.01,0.66c0.18,0.13,0.32,0.13,0.52,0.01c0.84-0.5,1.69-0.99,2.54-1.48c0.03-0.02,0.06-0.04,0.1-0.04
		c0.03,0.05,0.01,0.1,0.01,0.15c0,1.49,0,2.99,0,4.48c0,0.2-0.07,0.34-0.25,0.44c-0.62,0.36-1.22,0.73-1.84,1.08
		c-0.47,0.27-0.93,0.56-1.4,0.83c-0.32,0.18-0.64,0.37-0.96,0.56c-0.13,0.08-0.24,0.07-0.38-0.01c-1.05-0.62-2.1-1.24-3.16-1.86
		c-0.36-0.21-0.71-0.42-1.07-0.63c-0.14-0.08-0.21-0.19-0.21-0.36c0-1.55,0-3.1,0-4.64c0-0.01,0-0.03,0.01-0.07
		c0.26,0.15,0.52,0.3,0.77,0.45c1.09,0.63,2.18,1.27,3.27,1.9c0.11,0.07,0.16,0.14,0.16,0.27c-0.01,1.11,0,2.23,0,3.34
		c0,0.26,0.31,0.45,0.55,0.34c0.21-0.09,0.28-0.22,0.28-0.45c-0.01-1.22-0.01-2.44,0-3.66c0-0.17-0.06-0.26-0.2-0.35
		c-1.51-0.87-3.01-1.74-4.51-2.62C-115.68-21.89-115.71-21.9-115.76-21.94z"/>
	<g>
		<path class="st8" d="M-107.67-8.74c0-0.7,0-1.39,0-2.09c0-0.08,0.02-0.13,0.1-0.15c0.65-0.22,1.31-0.32,1.99-0.14
			c0.69,0.18,1.12,0.72,1.15,1.44c0.02,0.41-0.04,0.81-0.26,1.17c-0.28,0.45-0.71,0.65-1.22,0.72c-0.12,0.02-0.37,0-0.37,0
			s-0.03-0.48-0.02-0.72c0.09-0.02,0.21-0.06,0.32-0.09c0.48-0.13,0.68-0.53,0.64-1.01c-0.04-0.5-0.36-0.79-0.88-0.8
			c-0.15,0-0.3,0.02-0.44,0.04c-0.1,0.02-0.13,0.06-0.13,0.16c0,1.18,0,2.37,0.01,3.55c0,0.12-0.03,0.15-0.15,0.14
			c-0.21-0.01-0.43-0.01-0.64,0c-0.1,0-0.12-0.03-0.12-0.12C-107.67-7.34-107.67-8.04-107.67-8.74z"/>
		<path class="st8" d="M-124.22-10.23c0-0.76,0-1.51,0-2.27c0-0.11,0.03-0.13,0.13-0.13c0.22,0.01,0.43,0.01,0.65,0
			c0.09,0,0.11,0.03,0.11,0.12c0,0.45,0,0.89,0,1.34c0,0.08,0.01,0.11,0.1,0.08c0.33-0.11,0.67-0.14,1.02-0.08
			c0.56,0.09,0.91,0.46,0.95,1.03c0.03,0.37,0.01,0.74,0.01,1.11c0,0.36,0,0.73,0,1.09c0,0.09-0.03,0.11-0.11,0.11
			c-0.23-0.01-0.45-0.01-0.68,0c-0.1,0-0.12-0.03-0.12-0.12c0-0.62,0-1.24,0-1.86c0-0.39-0.17-0.57-0.56-0.58
			c-0.17,0-0.35,0.02-0.52,0.06c-0.09,0.02-0.11,0.06-0.11,0.15c0,0.74,0,1.48,0,2.23c0,0.11-0.03,0.13-0.14,0.13
			c-0.22-0.01-0.43-0.01-0.65,0c-0.09,0-0.11-0.03-0.11-0.11C-124.22-8.71-124.22-9.47-124.22-10.23z"/>
		<path class="st8" d="M-100.6-9.49c0,1.01-0.72,1.72-1.72,1.72c-1,0-1.72-0.72-1.72-1.71c0-1.01,0.72-1.72,1.73-1.72
			C-101.31-11.2-100.6-10.49-100.6-9.49z M-101.5-9.51c-0.01-0.06-0.01-0.14-0.03-0.22c-0.07-0.4-0.35-0.66-0.74-0.7
			c-0.36-0.03-0.69,0.18-0.81,0.53c-0.09,0.26-0.09,0.53-0.01,0.8c0.11,0.35,0.39,0.55,0.75,0.56c0.36,0,0.64-0.19,0.77-0.54
			C-101.52-9.21-101.5-9.35-101.5-9.51z"/>
		<path class="st8" d="M-108.05-9.49c0,1-0.72,1.72-1.73,1.72c-1,0-1.72-0.72-1.72-1.72c0-1,0.71-1.71,1.72-1.72
			C-108.77-11.2-108.05-10.49-108.05-9.49z M-110.6-9.47c0.01,0.1,0.01,0.21,0.04,0.32c0.1,0.38,0.4,0.61,0.78,0.61
			c0.38,0,0.68-0.23,0.78-0.61c0.05-0.19,0.06-0.39,0.02-0.58c-0.06-0.31-0.22-0.55-0.53-0.66c-0.3-0.1-0.57-0.05-0.81,0.16
			C-110.53-10.03-110.59-9.76-110.6-9.47z"/>
		<path class="st8" d="M-115.25-9.49c0,1.01-0.72,1.72-1.73,1.72c-1,0-1.72-0.72-1.72-1.73c0-1,0.72-1.71,1.73-1.7
			C-115.96-11.2-115.25-10.49-115.25-9.49z M-116.99-8.54c0.36,0.01,0.65-0.19,0.77-0.53c0.08-0.21,0.09-0.43,0.05-0.65
			c-0.07-0.41-0.35-0.67-0.75-0.71c-0.37-0.03-0.7,0.2-0.82,0.58c-0.08,0.26-0.08,0.52,0.01,0.77
			C-117.61-8.75-117.34-8.55-116.99-8.54z"/>
		<path class="st8" d="M-114.84-9.38c0-0.47,0-0.94,0-1.41c0-0.09,0.02-0.13,0.11-0.16c0.6-0.19,1.21-0.3,1.84-0.22
			c0.64,0.08,1.02,0.48,1.03,1.13c0.01,0.7,0,1.41,0.01,2.11c0,0.07-0.02,0.09-0.09,0.09c-0.23,0-0.47-0.01-0.7,0
			c-0.08,0-0.11-0.02-0.1-0.11c0-0.59,0-1.19,0-1.78c0-0.03,0-0.07,0-0.1c0-0.38-0.2-0.58-0.59-0.57c-0.17,0-0.35,0.03-0.52,0.07
			c-0.08,0.02-0.1,0.05-0.1,0.13c0,0.75,0,1.49,0,2.24c0,0.1-0.02,0.13-0.12,0.13c-0.21-0.01-0.43-0.01-0.64,0
			c-0.1,0-0.14-0.02-0.13-0.13C-114.84-8.44-114.84-8.91-114.84-9.38z"/>
		<path class="st8" d="M-97.45-10.54c0-0.56,0-1.13,0-1.69c0-0.09,0.02-0.12,0.11-0.12c0.23,0.01,0.45,0.01,0.68,0
			c0.09,0,0.12,0.02,0.11,0.11c-0.01,0.33,0,0.66,0,0.99c0,0.1,0.03,0.12,0.12,0.12c0.31-0.01,0.62,0,0.93,0
			c0.08,0,0.11,0.02,0.11,0.11c-0.01,0.17-0.01,0.35,0,0.52c0,0.09-0.02,0.12-0.11,0.11c-0.31-0.01-0.63,0-0.94,0
			c-0.09,0-0.1,0.03-0.1,0.11c0,0.39,0,0.79,0,1.18c0,0.36,0.19,0.54,0.54,0.55c0.19,0,0.38-0.01,0.57-0.07
			c0.07-0.02,0.1,0,0.1,0.07c0,0.22,0,0.43,0,0.65c0,0.06-0.01,0.08-0.07,0.09c-0.41,0.06-0.81,0.09-1.22-0.02
			c-0.47-0.12-0.75-0.46-0.79-0.96c-0.04-0.48-0.01-0.97-0.02-1.45C-97.45-10.34-97.45-10.44-97.45-10.54z"/>
		<path class="st8" d="M-98.1-10.2c-0.31-0.2-0.62-0.33-0.97-0.32c-0.08,0-0.15,0.01-0.22,0.04c-0.09,0.04-0.15,0.11-0.16,0.21
			c-0.01,0.11,0.04,0.19,0.13,0.24c0.11,0.06,0.24,0.09,0.36,0.12c0.19,0.04,0.38,0.09,0.56,0.18c0.37,0.18,0.51,0.48,0.51,0.88
			c0,0.39-0.15,0.7-0.51,0.88c-0.41,0.2-0.85,0.19-1.28,0.11c-0.18-0.03-0.34-0.09-0.5-0.17c-0.04-0.02-0.08-0.04-0.08-0.1
			c0-0.25,0-0.5,0-0.76c0.27,0.19,0.55,0.31,0.86,0.35c0.14,0.02,0.27,0.02,0.4-0.01c0.12-0.03,0.22-0.1,0.23-0.24
			c0.01-0.13-0.05-0.22-0.19-0.28c-0.14-0.06-0.29-0.08-0.44-0.12c-0.09-0.02-0.19-0.05-0.28-0.08c-0.44-0.16-0.64-0.44-0.64-0.9
			c0-0.47,0.21-0.81,0.63-0.96c0.52-0.19,1.03-0.15,1.52,0.09c0.05,0.02,0.08,0.05,0.08,0.11C-98.1-10.69-98.1-10.46-98.1-10.2z"/>
		<path class="st8" d="M-124.66-8.85c0,0.28,0,0.53,0,0.79c0,0.04-0.02,0.06-0.05,0.08c-0.68,0.38-2.12,0.34-2.54-0.83
			c-0.26-0.74-0.06-1.58,0.5-2.02c0.52-0.42,1.39-0.49,1.97-0.17c0.04,0.02,0.09,0.04,0.09,0.11c0,0.25,0,0.51,0,0.76
			c-0.06,0-0.09-0.05-0.13-0.07c-0.33-0.21-0.69-0.26-1.06-0.15c-0.27,0.08-0.46,0.27-0.53,0.54c-0.21,0.77,0.28,1.35,1.08,1.26
			C-125.1-8.59-124.88-8.7-124.66-8.85z"/>
		<path class="st8" d="M-120.74-9.06c0.01-0.32-0.03-0.72,0.02-1.11c0.07-0.58,0.39-0.91,0.96-1c0.35-0.06,0.69-0.04,1.04,0.01
			c0.06,0.01,0.08,0.03,0.08,0.09c0,0.22,0,0.44,0,0.66c0,0.07-0.02,0.08-0.09,0.06c-0.22-0.06-0.44-0.08-0.67-0.05
			c-0.26,0.03-0.41,0.18-0.43,0.43c-0.03,0.27-0.01,0.55-0.01,0.83c0,0.39,0,0.79,0,1.18c0,0.08-0.02,0.11-0.1,0.11
			c-0.23-0.01-0.46-0.01-0.69,0c-0.09,0-0.11-0.03-0.11-0.12C-120.73-8.3-120.74-8.64-120.74-9.06z"/>
	</g>
</g>
<g>
	
		<linearGradient id="SVGID_00000015315937489208194520000005134370310194426522_" gradientUnits="userSpaceOnUse" x1="-198.7101" y1="-43.1102" x2="-205.6318" y2="-37.582">
		<stop  offset="2.064656e-07" style="stop-color:#449ED7"/>
		<stop  offset="1" style="stop-color:#1E6BAB"/>
	</linearGradient>
	<path style="fill:url(#SVGID_00000015315937489208194520000005134370310194426522_);" d="M-205.75-42.94
		c0.33-0.18,0.64-0.35,0.95-0.52c0.84-0.46,1.68-0.91,2.52-1.37c0.16-0.09,0.29-0.09,0.46,0c1.13,0.62,2.26,1.23,3.39,1.85
		c0.02,0.01,0.04,0.03,0.08,0.05c-0.25,0.15-0.49,0.29-0.73,0.43c-0.58,0.34-1.15,0.67-1.73,1.01c-0.19,0.11-0.18,0.43-0.01,0.55
		c0.15,0.11,0.27,0.11,0.44,0.01c0.71-0.42,1.42-0.83,2.13-1.25c0.02-0.01,0.05-0.04,0.08-0.03c0.02,0.04,0.01,0.08,0.01,0.12
		c0,1.26,0,2.51,0,3.77c0,0.17-0.06,0.29-0.21,0.37c-0.52,0.3-1.03,0.61-1.55,0.91c-0.4,0.22-0.78,0.47-1.18,0.7
		c-0.27,0.15-0.54,0.31-0.8,0.47c-0.11,0.07-0.21,0.06-0.32,0c-0.88-0.52-1.77-1.04-2.66-1.56c-0.3-0.18-0.6-0.35-0.9-0.53
		c-0.12-0.07-0.18-0.16-0.18-0.3c0-1.3,0-2.61,0-3.91c0-0.01,0-0.02,0.01-0.06c0.22,0.13,0.44,0.25,0.65,0.38
		c0.92,0.53,1.84,1.07,2.75,1.6c0.1,0.06,0.14,0.12,0.14,0.23c0,0.94,0,1.88,0,2.81c0,0.22,0.26,0.38,0.47,0.29
		c0.17-0.08,0.24-0.18,0.23-0.38c-0.01-1.03-0.01-2.05,0-3.08c0-0.14-0.05-0.22-0.17-0.29c-1.27-0.73-2.53-1.47-3.8-2.2
		C-205.68-42.9-205.7-42.91-205.75-42.94z"/>
	<path class="st8" d="M-176.02-39.05c0-0.7,0-1.39,0-2.09c0-0.08,0.02-0.13,0.1-0.15c0.65-0.22,1.31-0.32,1.99-0.14
		c0.69,0.18,1.12,0.72,1.15,1.44c0.02,0.41-0.04,0.81-0.26,1.17c-0.28,0.45-0.71,0.65-1.22,0.72c-0.12,0.02-0.37,0-0.37,0
		s-0.03-0.48-0.02-0.72c0.09-0.02,0.21-0.06,0.32-0.09c0.48-0.13,0.68-0.53,0.64-1.01c-0.04-0.5-0.36-0.79-0.88-0.8
		c-0.15,0-0.3,0.02-0.44,0.04c-0.1,0.02-0.13,0.06-0.13,0.16c0,1.18,0,2.37,0.01,3.55c0,0.12-0.03,0.15-0.15,0.14
		c-0.21-0.01-0.43-0.01-0.64,0c-0.1,0-0.12-0.03-0.12-0.12C-176.02-37.65-176.02-38.35-176.02-39.05z"/>
	<path class="st8" d="M-192.57-40.55c0-0.76,0-1.51,0-2.27c0-0.11,0.03-0.13,0.13-0.13c0.22,0.01,0.43,0.01,0.65,0
		c0.09,0,0.11,0.03,0.11,0.12c0,0.45,0,0.89,0,1.34c0,0.08,0.01,0.11,0.1,0.08c0.33-0.11,0.67-0.14,1.02-0.08
		c0.56,0.09,0.91,0.46,0.95,1.03c0.03,0.37,0.01,0.74,0.01,1.11c0,0.36,0,0.73,0,1.09c0,0.09-0.03,0.11-0.11,0.11
		c-0.23-0.01-0.45-0.01-0.68,0c-0.1,0-0.12-0.03-0.12-0.12c0-0.62,0-1.24,0-1.86c0-0.39-0.17-0.57-0.56-0.58
		c-0.17,0-0.35,0.02-0.52,0.06c-0.09,0.02-0.11,0.06-0.11,0.15c0,0.74,0,1.48,0,2.23c0,0.11-0.03,0.13-0.14,0.13
		c-0.22-0.01-0.43-0.01-0.65,0c-0.09,0-0.11-0.03-0.11-0.11C-192.57-39.03-192.57-39.79-192.57-40.55z"/>
	<path class="st8" d="M-168.95-39.81c0,1.01-0.72,1.72-1.72,1.72c-1,0-1.72-0.72-1.72-1.71c0-1.01,0.72-1.72,1.73-1.72
		C-169.66-41.52-168.95-40.8-168.95-39.81z M-169.84-39.83c-0.01-0.06-0.01-0.14-0.03-0.22c-0.07-0.4-0.35-0.66-0.74-0.7
		c-0.36-0.03-0.69,0.18-0.81,0.53c-0.09,0.26-0.09,0.53-0.01,0.8c0.11,0.35,0.39,0.55,0.75,0.56c0.36,0,0.64-0.19,0.77-0.54
		C-169.87-39.53-169.85-39.67-169.84-39.83z"/>
	<path class="st8" d="M-176.4-39.8c0,1-0.72,1.72-1.73,1.72c-1,0-1.72-0.72-1.72-1.72c0-1,0.71-1.71,1.72-1.72
		C-177.12-41.52-176.4-40.81-176.4-39.8z M-178.95-39.78c0.01,0.1,0.01,0.21,0.04,0.32c0.1,0.38,0.4,0.61,0.78,0.61
		c0.38,0,0.68-0.23,0.78-0.61c0.05-0.19,0.06-0.39,0.02-0.58c-0.06-0.31-0.22-0.55-0.53-0.66c-0.3-0.1-0.57-0.05-0.81,0.16
		C-178.88-40.34-178.94-40.08-178.95-39.78z"/>
	<path class="st8" d="M-183.6-39.8c0,1.01-0.72,1.72-1.73,1.72c-1,0-1.72-0.72-1.72-1.73c0-1,0.72-1.71,1.73-1.7
		C-184.31-41.52-183.6-40.8-183.6-39.8z M-185.34-38.86c0.36,0.01,0.65-0.19,0.77-0.53c0.08-0.21,0.09-0.43,0.05-0.65
		c-0.07-0.41-0.35-0.67-0.75-0.71c-0.37-0.03-0.7,0.2-0.82,0.58c-0.08,0.26-0.08,0.52,0.01,0.77
		C-185.96-39.06-185.69-38.87-185.34-38.86z"/>
	<path class="st8" d="M-183.19-39.7c0-0.47,0-0.94,0-1.41c0-0.09,0.02-0.13,0.11-0.16c0.6-0.19,1.21-0.3,1.84-0.22
		c0.64,0.08,1.02,0.48,1.03,1.13c0.01,0.7,0,1.41,0.01,2.11c0,0.07-0.02,0.09-0.09,0.09c-0.23,0-0.47-0.01-0.7,0
		c-0.08,0-0.11-0.02-0.1-0.11c0-0.59,0-1.19,0-1.78c0-0.03,0-0.07,0-0.1c0-0.38-0.2-0.58-0.59-0.57c-0.17,0-0.35,0.03-0.52,0.07
		c-0.08,0.02-0.1,0.05-0.1,0.13c0,0.75,0,1.49,0,2.24c0,0.1-0.02,0.13-0.12,0.13c-0.21-0.01-0.43-0.01-0.64,0
		c-0.1,0-0.14-0.02-0.13-0.13C-183.19-38.75-183.19-39.23-183.19-39.7z"/>
	<path class="st8" d="M-165.8-40.85c0-0.56,0-1.13,0-1.69c0-0.09,0.02-0.12,0.11-0.12c0.23,0.01,0.45,0.01,0.68,0
		c0.09,0,0.12,0.02,0.11,0.11c-0.01,0.33,0,0.66,0,0.99c0,0.1,0.03,0.12,0.12,0.12c0.31-0.01,0.62,0,0.93,0
		c0.08,0,0.11,0.02,0.11,0.11c-0.01,0.17-0.01,0.35,0,0.52c0,0.09-0.02,0.12-0.11,0.11c-0.31-0.01-0.63,0-0.94,0
		c-0.09,0-0.1,0.03-0.1,0.11c0,0.39,0,0.79,0,1.18c0,0.36,0.19,0.54,0.54,0.55c0.19,0,0.38-0.01,0.57-0.07c0.07-0.02,0.1,0,0.1,0.07
		c0,0.22,0,0.43,0,0.65c0,0.06-0.01,0.08-0.07,0.09c-0.41,0.06-0.81,0.09-1.22-0.02c-0.47-0.12-0.75-0.46-0.79-0.96
		c-0.04-0.48-0.01-0.97-0.02-1.45C-165.8-40.65-165.8-40.75-165.8-40.85z"/>
	<path class="st8" d="M-166.45-40.52c-0.31-0.2-0.62-0.33-0.97-0.32c-0.08,0-0.15,0.01-0.22,0.04c-0.09,0.04-0.15,0.11-0.16,0.21
		c-0.01,0.11,0.04,0.19,0.13,0.24c0.11,0.06,0.24,0.09,0.36,0.12c0.19,0.04,0.38,0.09,0.56,0.18c0.37,0.18,0.51,0.48,0.51,0.88
		c0,0.39-0.15,0.7-0.51,0.88c-0.41,0.2-0.85,0.19-1.28,0.11c-0.18-0.03-0.34-0.09-0.5-0.17c-0.04-0.02-0.08-0.04-0.08-0.1
		c0-0.25,0-0.5,0-0.76c0.27,0.19,0.55,0.31,0.86,0.35c0.14,0.02,0.27,0.02,0.4-0.01c0.12-0.03,0.22-0.1,0.23-0.24
		c0.01-0.13-0.05-0.22-0.19-0.28c-0.14-0.06-0.29-0.08-0.44-0.12c-0.09-0.02-0.19-0.05-0.28-0.08c-0.44-0.16-0.64-0.44-0.64-0.9
		c0-0.47,0.21-0.81,0.63-0.96c0.52-0.19,1.03-0.15,1.52,0.09c0.05,0.02,0.08,0.05,0.08,0.11C-166.45-41-166.45-40.77-166.45-40.52z"
		/>
	<path class="st8" d="M-193.01-39.16c0,0.28,0,0.53,0,0.79c0,0.04-0.02,0.06-0.05,0.08c-0.68,0.38-2.12,0.34-2.54-0.83
		c-0.26-0.74-0.06-1.58,0.5-2.02c0.52-0.42,1.39-0.49,1.97-0.17c0.04,0.02,0.09,0.04,0.09,0.11c0,0.25,0,0.51,0,0.76
		c-0.06,0-0.09-0.05-0.13-0.07c-0.33-0.21-0.69-0.26-1.06-0.15c-0.27,0.08-0.46,0.27-0.53,0.54c-0.21,0.77,0.28,1.35,1.08,1.26
		C-193.45-38.91-193.23-39.01-193.01-39.16z"/>
	<path class="st8" d="M-189.09-39.37c0.01-0.32-0.03-0.72,0.02-1.11c0.07-0.58,0.39-0.91,0.96-1c0.35-0.06,0.69-0.04,1.04,0.01
		c0.06,0.01,0.08,0.03,0.08,0.09c0,0.22,0,0.44,0,0.66c0,0.07-0.02,0.08-0.09,0.06c-0.22-0.06-0.44-0.08-0.67-0.05
		c-0.26,0.03-0.41,0.18-0.43,0.43c-0.03,0.27-0.01,0.55-0.01,0.83c0,0.39,0,0.79,0,1.18c0,0.08-0.02,0.11-0.1,0.11
		c-0.23-0.01-0.46-0.01-0.69,0c-0.09,0-0.11-0.03-0.11-0.12C-189.08-38.61-189.09-38.96-189.09-39.37z"/>
</g>
<g id="Canvas_00000016765736509532049770000014814593815227038646_">
	<g id="Group_3_00000095334845687600140590000007771026571175757445_">
		<g id="logo-chevron_00000101800458923040502370000013252643540262169473_">
			<path class="st10" d="M75.56-17.34l1.62,2.81l-1.62,2.81h1.98l1.62-2.81l-1.62-2.81H75.56z"/>
			<path class="st11" d="M75.56-17.34l1.62,2.81h1.98l-1.62-2.81H75.56z"/>
		</g>
		<g id="logo-text_00000132781083485435018790000014796753384960508039_">
			<path class="st12" d="M71.82-15.21c0.13-0.53,0.67-0.96,1.27-0.96s1.14,0.42,1.27,0.96H71.82z M76.03-14.48
				c0-1.68-1.25-3.09-2.96-3.09c-1.37,0-2.44,0.96-2.84,2.23v-3.34c0.01-0.29-0.22-0.53-0.5-0.53c-0.01,0-0.02,0-0.04,0h-1.06v7.48
				h1.07c0.31,0,0.54-0.31,0.54-0.62v-1.45c0.4,1.26,1.5,2.23,2.87,2.23c1.26,0,2.26-0.82,2.74-1.89h-1.71
				c-0.27,0.27-0.57,0.52-1.02,0.52c-0.65,0-1.21-0.39-1.31-1.06h4.19C76.02-14.16,76.03-14.32,76.03-14.48L76.03-14.48z"/>
			<path class="st12" d="M64.97-13.17c-0.84,0-1.4-0.63-1.4-1.44s0.61-1.4,1.42-1.4c0.81,0,1.41,0.6,1.41,1.4
				C66.4-13.78,65.8-13.17,64.97-13.17z M52.67-15.21c0.13-0.53,0.67-0.96,1.27-0.96c0.6,0,1.14,0.42,1.27,0.96H52.67z M66.34-18.68
				v1.77c-0.53-0.46-1.02-0.67-1.66-0.67c-1.42,0-2.42,0.96-2.7,2.23c0-0.64-0.13-1.31-0.65-1.74c-0.36-0.3-0.96-0.48-1.43-0.48
				c-0.67,0-1.17,0.23-1.53,0.76h-0.05v0c0-0.31-0.22-0.53-0.53-0.53h-0.93v2.1c-0.4-1.33-1.45-2.33-2.9-2.33
				c-1.64,0-2.95,1.38-2.95,3c0,0.06,0,0.12,0,0.18c-0.7-0.95-2.55-0.76-2.55-1.47c0-0.25,0.25-0.34,0.47-0.34
				c0.29,0,0.51,0.06,0.52,0.46h1.64c-0.11-1.2-1.03-1.83-2.14-1.83c-1.08,0-2.17,0.69-2.17,1.86c0,0.78,0.67,1.21,1.33,1.45
				c0.24,0.09,0.48,0.17,0.72,0.25c0.3,0.12,0.75,0.24,0.75,0.64c0,0.29-0.33,0.43-0.58,0.43c-0.33,0-0.58-0.12-0.64-0.52h-1.66
				c0.13,1.34,1.11,1.89,2.27,1.89c1.09,0,2.18-0.62,2.27-1.78c0.47,1.02,1.5,1.78,2.7,1.78c1.26,0,2.24-0.82,2.73-1.89h-1.71
				c-0.27,0.27-0.57,0.52-1.02,0.52c-0.65,0-1.21-0.39-1.31-1.06h4.21v2.27h1.6v-3.1c0-0.67,0.2-1.17,0.98-1.17
				c0.75,0,0.89,0.53,0.89,1.16v2.49c0,0.31,0.22,0.62,0.53,0.62h1.07v-2.11c0.27,1.28,1.3,2.27,2.74,2.27
				c0.64,0,1.31-0.15,1.67-0.79v0.04c0,0.29,0.29,0.59,0.6,0.59h1v-7.47h-1.08C66.56-19.21,66.35-18.99,66.34-18.68L66.34-18.68z"/>
		</g>
	</g>
</g>
<rect x="47" y="-19.8" class="st13" width="31.88" height="8.81"/>
<linearGradient id="SVGID_00000012449625432339888290000003995023625529560232_" gradientUnits="userSpaceOnUse" x1="-30.6864" y1="40.0423" x2="-21.7843" y2="45.5683" gradientTransform="matrix(1 0 0 -1 0 23.8758)">
	<stop  offset="0" style="stop-color:#EC670D"/>
	<stop  offset="0.168" style="stop-color:#ED6D0B"/>
	<stop  offset="0.3875" style="stop-color:#EF7B0F"/>
	<stop  offset="0.6356" style="stop-color:#F3920B"/>
	<stop  offset="0.9028" style="stop-color:#F9AF0D"/>
	<stop  offset="1" style="stop-color:#FBBA13"/>
</linearGradient>
<path style="fill:url(#SVGID_00000012449625432339888290000003995023625529560232_);" d="M-24.37-19.46c-0.04,0.03-0.11,0.02-0.15,0
	l-0.25-0.15c-0.02-0.01-0.04-0.03-0.05-0.06c0,0,0,0,0,0c-0.02-0.03-0.03-0.05-0.03-0.08l-0.01-0.29c0-0.05,0.03-0.11,0.07-0.13
	l3.01-1.75l-4.22-2.3c-0.05-0.03-0.11-0.04-0.17-0.04s-0.12,0.01-0.17,0.04l-4.22,2.3l4.73,2.75c0.04,0.02,0.08,0.08,0.08,0.13v4.02
	c0,0.05-0.04,0.11-0.08,0.13l-0.25,0.14c-0.02,0.01-0.05,0.02-0.08,0.02c0,0,0,0-0.01,0c-0.03,0-0.06-0.01-0.08-0.02l-0.26-0.14
	c-0.04-0.02-0.08-0.08-0.08-0.13v-3.58c0-0.03-0.02-0.06-0.04-0.07l-4.17-2.43v4.75c0,0.11,0.08,0.24,0.17,0.29l4.29,2.53
	c0.05,0.03,0.11,0.04,0.17,0.04c0.06,0,0.12-0.01,0.17-0.04l4.29-2.53c0.09-0.05,0.17-0.18,0.17-0.29v-4.75L-24.37-19.46z"/>
<linearGradient id="SVGID_00000142872125933576343870000006393945091328369543_" gradientUnits="userSpaceOnUse" x1="14.4813" y1="40.0423" x2="23.3834" y2="45.5683" gradientTransform="matrix(1 0 0 -1 0 23.8758)">
	<stop  offset="0" style="stop-color:#AA1E3C"/>
	<stop  offset="0.0456" style="stop-color:#AE1E38"/>
	<stop  offset="0.1984" style="stop-color:#BA1D2E"/>
	<stop  offset="0.3613" style="stop-color:#C41C24"/>
	<stop  offset="0.5371" style="stop-color:#CB1A1E"/>
	<stop  offset="0.7347" style="stop-color:#D01919"/>
	<stop  offset="1" style="stop-color:#D11917"/>
</linearGradient>
<path style="fill:url(#SVGID_00000142872125933576343870000006393945091328369543_);" d="M20.8-19.46c-0.04,0.03-0.11,0.02-0.15,0
	l-0.25-0.15c-0.02-0.01-0.04-0.03-0.05-0.06c0,0,0,0,0,0c-0.02-0.03-0.03-0.05-0.03-0.08l-0.01-0.29c0-0.05,0.03-0.11,0.07-0.13
	l3.01-1.75l-4.22-2.3c-0.05-0.03-0.11-0.04-0.17-0.04s-0.12,0.01-0.17,0.04l-4.22,2.3l4.73,2.75c0.04,0.02,0.08,0.08,0.08,0.13v4.02
	c0,0.05-0.04,0.11-0.08,0.13l-0.25,0.14c-0.02,0.01-0.05,0.02-0.08,0.02c0,0,0,0-0.01,0c-0.03,0-0.06-0.01-0.08-0.02l-0.26-0.14
	c-0.04-0.02-0.08-0.08-0.08-0.13v-3.58c0-0.03-0.02-0.06-0.04-0.07l-4.17-2.43v4.75c0,0.11,0.08,0.24,0.17,0.29l4.29,2.53
	c0.05,0.03,0.11,0.04,0.17,0.04c0.06,0,0.12-0.01,0.17-0.04l4.29-2.53c0.09-0.05,0.17-0.18,0.17-0.29v-4.75L20.8-19.46z"/>
<g>
	<path class="st8" d="M-36.23-10.96c-0.28-0.17-0.56-0.24-0.94-0.24c-1,0-1.73,0.69-1.73,1.72c0,1.03,0.68,1.71,1.74,1.71
		c0.34,0,0.66-0.07,0.96-0.24v-0.83c-0.25,0.19-0.52,0.29-0.83,0.29c-0.6,0-0.97-0.38-0.97-0.94c0-0.59,0.39-0.93,0.94-0.93
		c0.3,0,0.57,0.08,0.84,0.3L-36.23-10.96L-36.23-10.96z"/>
	<path class="st8" d="M-30.81-8.6L-30.81-8.6c-0.33-0.03-0.49-0.21-0.49-0.55v-3.48h-0.88v3.53c0,0.96,0.54,1.28,1.38,1.28
		L-30.81-8.6L-30.81-8.6z"/>
	<path class="st8" d="M-34.25-11.2c-0.98,0-1.72,0.69-1.72,1.72s0.74,1.72,1.72,1.72c0.98,0,1.72-0.69,1.72-1.72
		C-32.53-10.51-33.27-11.2-34.25-11.2z M-34.25-8.53c-0.48,0-0.83-0.36-0.83-0.95c0-0.59,0.35-0.95,0.83-0.95s0.83,0.36,0.83,0.95
		C-33.43-8.9-33.77-8.53-34.25-8.53z"/>
	<path class="st8" d="M-28.97-8.07C-28.71-7.9-28.3-7.8-27.9-7.8c0.77,0,1.3-0.32,1.3-1.04c0-0.59-0.29-0.91-1.14-1.07
		c-0.31-0.07-0.43-0.16-0.43-0.33c0-0.15,0.13-0.28,0.42-0.28c0.34,0,0.63,0.11,0.94,0.32V-11c-0.29-0.16-0.58-0.24-0.97-0.24
		c-0.71,0-1.25,0.33-1.25,1.05c0,0.6,0.31,0.89,1.05,1.03c0.36,0.07,0.5,0.15,0.5,0.35c0,0.21-0.18,0.29-0.46,0.29
		c-0.32,0-0.74-0.14-1.05-0.37L-28.97-8.07L-28.97-8.07z"/>
	<polygon class="st8" points="-30.4,-7.84 -29.52,-7.84 -29.52,-8.12 -29.52,-11.14 -30.4,-11.14 	"/>
	<path class="st8" d="M-29.96-12.45c-0.24,0-0.44,0.2-0.44,0.44c0,0.24,0.2,0.44,0.44,0.44s0.44-0.2,0.44-0.44
		C-29.52-12.25-29.72-12.45-29.96-12.45"/>
	<path class="st8" d="M-15.16-11.2c-0.98,0-1.72,0.69-1.72,1.72s0.74,1.72,1.72,1.72c0.98,0,1.72-0.69,1.72-1.72
		C-13.44-10.51-14.18-11.2-15.16-11.2z M-15.16-8.53c-0.48,0-0.83-0.36-0.83-0.95c0-0.59,0.35-0.95,0.83-0.95s0.83,0.36,0.83,0.95
		C-14.34-8.9-14.68-8.53-15.16-8.53z"/>
	<path class="st8" d="M-26.3-8.07c0.27,0.17,0.67,0.27,1.07,0.27c0.77,0,1.3-0.32,1.3-1.04c0-0.59-0.29-0.91-1.14-1.07
		c-0.31-0.07-0.43-0.16-0.43-0.33c0-0.15,0.13-0.28,0.42-0.28c0.34,0,0.63,0.11,0.94,0.32V-11c-0.29-0.16-0.58-0.24-0.97-0.24
		c-0.71,0-1.25,0.33-1.25,1.05c0,0.6,0.31,0.89,1.05,1.03c0.36,0.07,0.5,0.15,0.5,0.35c0,0.21-0.18,0.29-0.46,0.29
		c-0.32,0-0.74-0.14-1.05-0.37L-26.3-8.07L-26.3-8.07z"/>
	<polygon class="st8" points="-23.55,-7.84 -22.66,-7.84 -22.66,-8.12 -22.66,-11.14 -23.55,-11.14 	"/>
	<path class="st8" d="M-23.11-12.45c-0.24,0-0.44,0.2-0.44,0.44c0,0.24,0.2,0.44,0.44,0.44c0.24,0,0.44-0.2,0.44-0.44
		C-22.66-12.25-22.86-12.45-23.11-12.45"/>
	<path class="st8" d="M-18.13-9.9c0-0.35-0.15-0.52-0.5-0.52c-0.24,0-0.47,0.05-0.62,0.13c0.03,0.07,0.07,0.18,0.07,0.34v2.11h-0.89
		V-9.9c0-0.35-0.16-0.52-0.5-0.52c-0.21,0-0.38,0.03-0.55,0.08v2.5h-0.88v-3.07c0.46-0.18,0.99-0.29,1.48-0.29
		c0.38,0,0.71,0.1,0.91,0.26c0.29-0.13,0.63-0.26,1.11-0.26c0.78,0,1.27,0.3,1.27,1.27v2.09h-0.89L-18.13-9.9L-18.13-9.9z"/>
</g>
<g>
	<path class="st8" d="M23.37-11.11c0-0.5,0-1.01,0-1.51c0.3,0,0.59,0,0.88,0c0,1.56,0,3.13,0,4.69c-0.07,0.02-0.14,0.03-0.2,0.05
		c-0.43,0.08-0.86,0.12-1.29,0.1c-0.29-0.01-0.57-0.07-0.83-0.19c-0.47-0.22-0.76-0.59-0.86-1.1c-0.07-0.34-0.06-0.67,0.04-1
		c0.18-0.57,0.57-0.93,1.15-1.08c0.32-0.08,0.64-0.08,0.96-0.01C23.26-11.15,23.31-11.13,23.37-11.11z M23.37-9.45
		c0-0.27,0-0.54,0-0.81c0-0.07,0.02-0.07-0.07-0.1c-0.24-0.08-0.48-0.1-0.73-0.05c-0.33,0.07-0.54,0.27-0.62,0.6
		c-0.06,0.22-0.05,0.43,0.02,0.65c0.07,0.23,0.21,0.4,0.42,0.51c0.09,0.05,0.19,0.08,0.3,0.1c0.18,0.03,0.35,0.02,0.53,0.01
		c0.04,0,0.08-0.01,0.12-0.02c0.02,0,0.03-0.01,0.03-0.03c0-0.01,0-0.03,0-0.04C23.37-8.91,23.37-9.18,23.37-9.45z"/>
	<path class="st8" d="M16.1-11.11c0-0.51,0-1.01,0-1.51c0.29,0,0.58,0,0.87,0c0.01,0.04,0.02,4.58,0,4.69
		c-0.05,0.01-0.1,0.03-0.15,0.04c-0.22,0.05-0.45,0.08-0.68,0.1c-0.22,0.02-0.44,0.03-0.66,0.02c-0.31-0.01-0.61-0.07-0.89-0.21
		c-0.41-0.2-0.67-0.53-0.78-0.96c-0.1-0.37-0.1-0.74,0.02-1.11c0.18-0.57,0.56-0.93,1.14-1.08c0.32-0.08,0.64-0.08,0.96-0.01
		C15.99-11.15,16.04-11.13,16.1-11.11z M16.1-9.45c0-0.27,0-0.55,0-0.82c0-0.06,0-0.06-0.05-0.08c-0.01,0-0.02-0.01-0.02-0.01
		c-0.23-0.08-0.47-0.1-0.72-0.05c-0.3,0.06-0.51,0.24-0.61,0.54c-0.07,0.21-0.07,0.42-0.02,0.63c0.07,0.3,0.25,0.51,0.54,0.63
		c0.2,0.08,0.41,0.08,0.61,0.07c0.08-0.01,0.16-0.02,0.23-0.03c0.02,0,0.03-0.01,0.03-0.04c0-0.01,0-0.03,0-0.04
		C16.1-8.91,16.1-9.18,16.1-9.45z"/>
	<path class="st8" d="M18.38-6.52c-0.3,0-0.59,0-0.89,0c0-1.47,0-2.94,0-4.41c0.01-0.01,0.03-0.01,0.05-0.02
		c0.26-0.1,0.52-0.16,0.79-0.21c0.17-0.03,0.34-0.04,0.5-0.05c0.33-0.01,0.65,0.03,0.96,0.16c0.51,0.22,0.81,0.59,0.91,1.13
		c0.06,0.35,0.04,0.7-0.07,1.04c-0.16,0.52-0.51,0.85-1.03,1.01c-0.23,0.07-0.47,0.1-0.71,0.1c-0.01,0-0.02,0-0.03,0
		c0,0-0.01,0-0.01-0.01c0-0.25,0-0.5,0-0.76c0.03,0,0.06-0.01,0.08-0.01c0.12-0.01,0.24-0.03,0.35-0.08
		c0.25-0.1,0.41-0.28,0.49-0.53c0.06-0.2,0.07-0.41,0.03-0.61c-0.07-0.32-0.27-0.52-0.58-0.61c-0.13-0.04-0.27-0.05-0.41-0.04
		c-0.12,0.01-0.25,0.02-0.37,0.06c-0.02,0.01-0.04,0.01-0.07,0.02C18.38-9.06,18.38-7.79,18.38-6.52z"/>
</g>
<rect x="86.42" y="-27.39" class="st1" width="38" height="24"/>
<line class="st13" x1="89.48" y1="-10.99" x2="89.48" y2="-19.8"/>
<path class="st16" d="M118.86-19.77c0.59,0.01,1.05,0.5,1.04,1.09c-0.01,0.59-0.5,1.05-1.09,1.04c-0.58-0.01-1.04-0.49-1.04-1.07
	C117.77-19.31,118.26-19.77,118.86-19.77z M97.78-19.72v2.3h-1.47v-0.93h-3.54v2.3h3.22v1.31h-3.22v2.32h3.54v-0.93h1.47v2.3h-7.42
	v-1.37h0.82v-5.93h-0.82v-1.37H97.78z M102.97-13.6l2.37-6.12h0.91l-3.44,8.71h-0.95l-3.46-8.71h2.22L102.97-13.6z M108.14-15.54
	v-3.11h4.63c0.78,0,1.22,0.13,1.52,0.41c0.27,0.25,0.42,0.6,0.42,1.08c0,0.49-0.13,0.89-0.41,1.18c-0.28,0.3-0.71,0.46-1.5,0.46
	L108.14-15.54L108.14-15.54z M116.79-11.05l-3.06-3.54c1.3-0.13,2.29-1.08,2.29-2.6c0-0.77-0.23-1.36-0.67-1.78
	c-0.54-0.51-1.32-0.75-2.57-0.75h-5.9v8.66h1.26v-3.44h4.18l2.92,3.44H116.79L116.79-11.05z M119.81-12.22
	c0,0.51,0.21,0.71,0.68,0.95v0.22h-3.16v-0.22c0.47-0.23,0.68-0.44,0.68-0.95v-3.32c0-0.45-0.08-0.7-0.68-1.09v-0.22h2.48
	L119.81-12.22z"/>
<line class="st13" x1="-42.11" y1="16.4" x2="-42.11" y2="7.6"/>
<g id="layer1_00000144311973165461303450000003517536939460171692_" transform="translate(332.58671,42.22381)">
	<path id="path2440_00000152963932189052983440000007115183960531839654_" class="st17" d="M-339.75-42.22h-38v24h38V-42.22z"/>
	<path id="path2442_00000161617853027013670610000006627595664832709045_" class="st1" d="M-362.44-30.21c0-0.04,0-0.09,0-0.13
		h-15.31v0.22h15.31C-362.44-30.14-362.44-30.18-362.44-30.21z"/>
	<path id="path2444_00000153681108501299150170000012228158414375386499_" class="st1" d="M-355.08-30.34c0,0.04,0,0.08,0,0.13
		c0,0.03,0,0.06,0,0.1h15.32v-0.22H-355.08z"/>
	<g>
		<path id="path2446_00000130623840669562022040000016719447734659762070_" class="st18" d="M-351.8-30.22
			c0,3.84-3.11,6.96-6.96,6.96c-3.84,0-6.96-3.11-6.96-6.96c0-3.84,3.11-6.96,6.96-6.96C-354.91-37.18-351.8-34.07-351.8-30.22z"/>
		<path id="path2448_00000122678253265385174680000006363732532635436166_" class="st1" d="M-360.96-29.32l0.49-0.49l5.51-0.25
			l0.25-0.25h-5.43l-2.96-3.46l9.87,3.29l-3.29,3.29h-6.58l0.66-0.66l5.51-0.25l0.24-0.25h-5.26l0.49-0.49l5.51-0.25l0.25-0.25
			H-360.96z"/>
	</g>
	<g>
		<path id="path2496_00000124142266004888119670000013354640224258484374_" class="st1" d="M-352.12-39.03
			c-0.11,0.03-0.23,0.05-0.35,0.05c-0.49,0-0.84-0.25-0.84-0.76c0-0.52,0.32-0.82,0.84-0.82c0.1,0,0.23,0.02,0.35,0.06l-0.02,0.26
			c-0.12-0.07-0.22-0.08-0.33-0.08c-0.32,0-0.51,0.24-0.51,0.55c0,0.31,0.19,0.55,0.52,0.55c0.12,0,0.26-0.03,0.33-0.06
			L-352.12-39.03z"/>
		<path id="path2498_00000122712395068997143910000016473450638435837364_" class="st1" d="M-350.91-40.53h0.35l0.6,1.53h-0.34
			l-0.13-0.35h-0.62l-0.13,0.35h-0.32L-350.91-40.53z M-350.74-40.23L-350.74-40.23l-0.23,0.63h0.45L-350.74-40.23z"/>
		<path id="path2500_00000029044642255691106110000013288987086526587324_" class="st1" d="M-349.24-40.53h0.38l0.58,1.14h0v-1.14
			h0.29v1.53h-0.37l-0.58-1.14h0v1.14h-0.29V-40.53z"/>
		<path id="path2502_00000160182709937906280160000012432409458455287462_" class="st1" d="M-346.66-40.53h0.35l0.6,1.53h-0.34
			l-0.13-0.35h-0.62l-0.13,0.35h-0.32L-346.66-40.53z M-346.49-40.23L-346.49-40.23l-0.23,0.63h0.45L-346.49-40.23z"/>
		<path id="path2504_00000064341003945296288580000018302388678937602696_" class="st1" d="M-344.97-40.53h0.42
			c0.47,0,0.88,0.16,0.88,0.76c0,0.61-0.41,0.76-0.88,0.76h-0.42V-40.53z M-344.66-39.25h0.17c0.26,0,0.5-0.19,0.5-0.52
			c0-0.33-0.25-0.52-0.5-0.52h-0.17V-39.25z"/>
		<path id="path2506_00000176042671029366991800000004253719755588187525_" class="st1" d="M-342.4-40.53h0.35l0.6,1.53h-0.34
			l-0.13-0.35h-0.62l-0.13,0.35h-0.32L-342.4-40.53z M-342.23-40.23L-342.23-40.23l-0.23,0.63h0.45L-342.23-40.23z"/>
	</g>
	<g>
		<path id="path2508_00000047021949433774272500000002608876192746335627_" class="st1" d="M-348.48-21.47h0.39
			c0.33,0,0.64,0.1,0.64,0.46c0,0.36-0.26,0.49-0.59,0.49h-0.13v0.58h-0.31V-21.47z M-348.17-20.76h0.11c0.15,0,0.29-0.05,0.29-0.23
			c0-0.18-0.13-0.24-0.29-0.24h-0.11V-20.76z"/>
		<path id="path2510_00000138568965798934338030000006476913282811705263_" class="st1" d="M-346.01-21.49
			c0.48,0,0.75,0.32,0.75,0.79c0,0.46-0.26,0.79-0.75,0.79c-0.49,0-0.75-0.33-0.75-0.79C-346.76-21.18-346.5-21.49-346.01-21.49z
			 M-346.01-20.15c0.31,0,0.43-0.28,0.43-0.55c0-0.27-0.12-0.55-0.43-0.55c-0.3,0-0.43,0.28-0.43,0.55
			C-346.44-20.43-346.32-20.15-346.01-20.15z"/>
		<path id="path2512_00000181807824138035577210000008785345665328175024_" class="st1" d="M-343.61-21.19
			c-0.1-0.04-0.2-0.07-0.31-0.07c-0.11,0-0.24,0.05-0.24,0.21c0,0.26,0.67,0.15,0.67,0.67c0,0.33-0.27,0.46-0.57,0.46
			c-0.17,0-0.24-0.02-0.39-0.06l0.03-0.28c0.11,0.06,0.23,0.09,0.35,0.09c0.12,0,0.27-0.06,0.27-0.2c0-0.29-0.67-0.17-0.67-0.68
			c0-0.34,0.27-0.47,0.53-0.47c0.13,0,0.25,0.02,0.37,0.05L-343.61-21.19z"/>
		<path id="path2514_00000023275410815459539430000010476445235922873483_" class="st1" d="M-342.32-21.23h-0.51v-0.24h1.38v0.24
			h-0.51v1.29h-0.36V-21.23z"/>
	</g>
	<g>
		<path id="path2516_00000110468052215200942930000001730579384227949223_" class="st1" d="M-376.03-40.53h0.39
			c0.33,0,0.64,0.1,0.64,0.46c0,0.36-0.26,0.49-0.59,0.49h-0.13v0.58h-0.31V-40.53z M-375.72-39.83h0.11c0.15,0,0.29-0.05,0.29-0.23
			c0-0.18-0.13-0.24-0.29-0.24h-0.11V-39.83z"/>
		<path id="path2518_00000153707511900058343200000016605295591218125982_" class="st1" d="M-373.56-40.56
			c0.48,0,0.75,0.32,0.75,0.79c0,0.46-0.26,0.79-0.75,0.79c-0.49,0-0.75-0.33-0.75-0.79C-374.31-40.24-374.05-40.56-373.56-40.56z
			 M-373.56-39.22c0.31,0,0.43-0.28,0.43-0.55c0-0.27-0.12-0.54-0.43-0.54c-0.3,0-0.43,0.28-0.43,0.54
			C-373.99-39.5-373.88-39.22-373.56-39.22z"/>
		<path id="path2520_00000167370435760421211660000015163949256717923460_" class="st1" d="M-371.17-40.25
			c-0.1-0.04-0.2-0.07-0.31-0.07c-0.11,0-0.24,0.05-0.24,0.21c0,0.26,0.67,0.15,0.67,0.67c0,0.33-0.26,0.46-0.57,0.46
			c-0.17,0-0.24-0.02-0.39-0.06l0.03-0.28c0.11,0.06,0.23,0.09,0.35,0.09c0.12,0,0.27-0.06,0.27-0.2c0-0.29-0.67-0.17-0.67-0.68
			c0-0.34,0.26-0.47,0.53-0.47c0.13,0,0.25,0.02,0.37,0.05L-371.17-40.25z"/>
		<path id="path2522_00000044865632220519801170000010088427112682513852_" class="st1" d="M-369.94-40.29h-0.44v-0.24h1.18v0.24
			h-0.44v1.29h-0.31V-40.29z"/>
		<path id="path2524_00000072968958095622800910000011668375762538204554_" class="st1" d="M-368.46-40.53h0.9v0.24h-0.6v0.38h0.54
			v0.24h-0.54v0.43h0.6v0.24h-0.91V-40.53z"/>
		<path id="path2526_00000119828698156053474580000011974815725112099753_" class="st1" d="M-365.87-40.25
			c-0.1-0.04-0.2-0.07-0.31-0.07c-0.1,0-0.24,0.05-0.24,0.21c0,0.26,0.67,0.15,0.67,0.67c0,0.33-0.26,0.46-0.57,0.46
			c-0.17,0-0.24-0.02-0.39-0.06l0.03-0.28c0.11,0.06,0.23,0.09,0.35,0.09c0.12,0,0.27-0.06,0.27-0.2c0-0.29-0.67-0.17-0.67-0.68
			c0-0.34,0.26-0.47,0.53-0.47c0.13,0,0.25,0.02,0.37,0.05L-365.87-40.25z"/>
	</g>
	<g>
		<path id="path2528_00000162330467511541573910000014012268321529697934_" class="st1" d="M-374.84-19.99
			c-0.11,0.03-0.23,0.05-0.35,0.05c-0.49,0-0.84-0.25-0.84-0.76c0-0.52,0.32-0.82,0.84-0.82c0.1,0,0.23,0.02,0.35,0.06l-0.02,0.26
			c-0.12-0.07-0.22-0.08-0.33-0.08c-0.32,0-0.51,0.24-0.51,0.55c0,0.31,0.19,0.54,0.52,0.54c0.12,0,0.26-0.03,0.33-0.06
			L-374.84-19.99z"/>
		<path id="path2530_00000104705976327617586400000012678322862197409200_" class="st1" d="M-373.63-21.49h0.35l0.6,1.53h-0.34
			l-0.13-0.35h-0.62l-0.13,0.35h-0.32L-373.63-21.49z M-373.46-21.19L-373.46-21.19l-0.23,0.63h0.45L-373.46-21.19z"/>
		<path id="path2532_00000069358540594803814780000008052477524467621537_" class="st1" d="M-371.95-21.49h0.38l0.58,1.14h0v-1.14
			h0.29v1.53h-0.37l-0.58-1.14h0v1.14h-0.29V-21.49z"/>
		<path id="path2534_00000032630549845372660430000017351985652212743816_" class="st1" d="M-369.37-21.49h0.35l0.6,1.53h-0.34
			l-0.13-0.35h-0.62l-0.13,0.35h-0.32L-369.37-21.49z M-369.2-21.19L-369.2-21.19l-0.23,0.63h0.45L-369.2-21.19z"/>
		<path id="path2536_00000075135864589057247010000005060052103990652323_" class="st1" d="M-367.68-21.49h0.42
			c0.47,0,0.88,0.16,0.88,0.76c0,0.61-0.41,0.76-0.88,0.76h-0.42V-21.49z M-367.38-20.21h0.17c0.26,0,0.5-0.19,0.5-0.52
			c0-0.33-0.25-0.52-0.5-0.52h-0.17V-20.21z"/>
		<path id="path2538_00000009571721395271280210000017457474274776230811_" class="st1" d="M-365.12-21.49h0.35l0.6,1.53h-0.34
			l-0.13-0.35h-0.62l-0.13,0.35h-0.32L-365.12-21.49z M-364.95-21.19L-364.95-21.19l-0.23,0.63h0.45L-364.95-21.19z"/>
	</g>
</g>
<g id="g6" transform="translate(-0.81,-0.35400034)">
	<polygon id="polygon10" class="st19" points="28.3,9.93 29.41,11.15 30.48,9.93 32.76,9.93 30.53,12.44 32.79,14.96 30.42,14.96 
		29.32,13.73 28.23,14.96 25.94,14.96 28.18,12.45 25.94,9.93 	"/>
	<polygon id="polygon12" class="st19" points="25.94,9.93 25.94,11.63 23.4,11.63 23.4,13.19 25.94,13.19 25.94,14.96 21.53,14.96 
		21.53,7.03 25.94,7.03 25.94,8.8 23.4,8.8 23.4,9.93 	"/>
	<path id="path14" class="st20" d="M19.68,7.03v3.25h-0.02c-0.41-0.47-0.92-0.64-1.52-0.64c-1.22,0-2.14,0.83-2.46,1.93
		c-0.37-1.21-1.32-1.95-2.73-1.95c-1.14,0-2.05,0.51-2.52,1.35V9.93H8.07V8.8h2.58V7.03H5.96v7.93h2.11v-3.33h2.1
		c-0.06,0.24-0.1,0.51-0.1,0.78c0,1.65,1.26,2.82,2.88,2.82c1.36,0,2.25-0.64,2.72-1.8h-1.81c-0.24,0.35-0.43,0.45-0.92,0.45
		c-0.57,0-1.05-0.49-1.05-1.08h3.68c0.16,1.31,1.18,2.45,2.59,2.45c0.61,0,1.16-0.3,1.5-0.8h0.02v0.51h1.86V7.03H19.68z
		 M11.95,11.65c0.12-0.5,0.51-0.83,1-0.83c0.54,0,0.91,0.32,1.01,0.83C13.99,11.65,11.95,11.65,11.95,11.65z M18.55,13.76
		c-0.68,0-1.11-0.64-1.11-1.3c0-0.71,0.37-1.4,1.11-1.4c0.77,0,1.07,0.68,1.07,1.4C19.62,13.13,19.3,13.76,18.55,13.76z"/>
	<path id="path16" class="st20" d="M21.53,18.93v-2.84h1.57v0.21h-1.31v1.05h1.26v0.21h-1.26v1.16h1.37v0.21L21.53,18.93
		L21.53,18.93z"/>
	<path id="path18" class="st20" d="M23.35,18.93l0.77-1.02l-0.73-0.97h0.29l0.59,0.79l0.58-0.79h0.29l-0.74,0.97l0.77,1.02h-0.3
		l-0.64-0.84l-0.6,0.84C23.65,18.93,23.35,18.93,23.35,18.93z"/>
	<path id="path20" class="st20" d="M25.68,19.67h-0.24v-2.14c0-0.2,0-0.4-0.01-0.59h0.24l0.01,0.3c0.15-0.24,0.35-0.35,0.64-0.35
		c0.61,0,0.87,0.51,0.87,1.04c0,0.53-0.26,1.04-0.87,1.04c-0.28,0-0.49-0.11-0.63-0.33C25.68,18.64,25.68,19.67,25.68,19.67z
		 M26.93,17.94c0-0.42-0.18-0.84-0.65-0.84c-0.44,0-0.6,0.37-0.6,0.84c0,0.48,0.16,0.84,0.6,0.84
		C26.76,18.78,26.93,18.36,26.93,17.94z"/>
	<path id="path22" class="st20" d="M28.42,17.13c-0.4,0-0.53,0.33-0.53,0.68v1.12h-0.24v-1.4c0-0.19,0-0.39-0.01-0.58h0.24
		l0.02,0.29C28,17,28.2,16.9,28.46,16.9c0.04,0,0.07,0,0.11,0.01v0.24C28.52,17.14,28.48,17.13,28.42,17.13z"/>
	<path id="path24" class="st20" d="M28.87,17.98c0,0.45,0.21,0.82,0.65,0.82c0.34,0,0.49-0.22,0.55-0.45h0.23
		c-0.11,0.42-0.36,0.63-0.81,0.63c-0.6,0-0.87-0.45-0.87-1c0-0.57,0.28-1.08,0.9-1.08c0.63,0,0.8,0.55,0.8,1.08
		C30.31,17.98,28.87,17.98,28.87,17.98z M28.87,17.8h1.19c0-0.39-0.18-0.72-0.56-0.72C29.16,17.08,28.92,17.34,28.87,17.8z"/>
	<path id="path26" class="st20" d="M31.25,18.98c-0.41,0-0.71-0.19-0.71-0.63h0.24c0,0.3,0.2,0.45,0.49,0.45
		c0.27,0,0.48-0.13,0.48-0.4c0-0.24-0.25-0.3-0.51-0.38c-0.31-0.09-0.66-0.19-0.66-0.57c0-0.43,0.36-0.55,0.69-0.55
		c0.38,0,0.67,0.15,0.68,0.56h-0.24c-0.01-0.24-0.18-0.37-0.44-0.37c-0.2,0-0.44,0.08-0.44,0.34c0,0.24,0.24,0.3,0.5,0.37
		c0.31,0.09,0.66,0.18,0.66,0.57C32,18.81,31.65,18.98,31.25,18.98z"/>
	<path id="path28" class="st20" d="M32.91,18.98c-0.41,0-0.71-0.19-0.71-0.63h0.24c0,0.3,0.2,0.45,0.49,0.45
		c0.27,0,0.48-0.13,0.48-0.4c0-0.24-0.25-0.3-0.51-0.38c-0.31-0.09-0.66-0.19-0.66-0.57c0-0.43,0.36-0.55,0.69-0.55
		c0.38,0,0.67,0.15,0.68,0.56h-0.24c-0.01-0.24-0.18-0.37-0.44-0.37c-0.2,0-0.44,0.08-0.44,0.34c0,0.24,0.24,0.3,0.5,0.37
		c0.31,0.09,0.66,0.18,0.66,0.57C33.66,18.81,33.31,18.98,32.91,18.98L32.91,18.98z"/>
</g>
</svg>
