<svg xmlns="http://www.w3.org/2000/svg" role="img" viewBox="0 0 38 24" width="38" height="24" aria-labelledby="pi-mondial-relay"><title id="pi-mondial-relay">MondialRelay</title>
<style type="text/css">
	.st0{fill:#CE0F4C;}
	.st1{fill:#FFFFFF;}
	.st2{fill:#C7BCAF;}
	.st3{fill:#EFDC00;}
	.st4{fill-rule:evenodd;clip-rule:evenodd;fill:#254F9E;}
</style>
<rect class="st0" width="38" height="24"/>
<g id="layer1_00000016058516515497884960000011840437279808027565_" transform="translate(-118.69745,430.82084)">
	<g id="g407_00000000182892630254610670000002300159625675005867_" transform="matrix(8.24357,0,0,-8.24357,-1244.409,955.76124)">
		<g id="g82_00000018221882978879569850000016670259953534003084_" transform="translate(205.7088,145.9246)">
			<path id="path84_00000155141259680972332900000005320443188935704997_" class="st1" d="M-37.92,21.28
				c-0.15,0.03-0.25-0.05-0.25-0.18v-0.42l-0.23,0.14v0.29c0,0.26,0.18,0.44,0.48,0.4V21.28z"/>
		</g>
		<path id="path86_00000170990349620832951790000005240831799944701598_" class="st2" d="M168.07,167.2h-0.22v0.22h0.22V167.2z"/>
		<g id="g88_00000046298974921464860650000016564216670696041913_" transform="translate(176.2576,105.2889)">
			<path id="path90_00000049944809506721803980000013137132378849850005_" class="st1" d="M-9.55,60.42h0.1v0.27
				c0,0.03,0.01,0.05,0.03,0.07c0.02,0.02,0.04,0.03,0.07,0.03c0.02,0,0.05-0.01,0.05-0.01v0.1c0,0-0.04,0.01-0.06,0.01
				c-0.12,0-0.19-0.09-0.19-0.2V60.42z"/>
		</g>
		<g id="g92_00000019659382629291702590000004306208564390617008_" transform="translate(186.0788,106.4444)">
			<path id="path94_00000015340440874244629460000016184742186979466640_" class="st1" d="M-19.01,59.31
				c-0.03,0.03-0.04,0.07-0.04,0.11v0.16c0,0.04,0.01,0.08,0.04,0.11c0.03,0.03,0.06,0.04,0.11,0.04h0.17v-0.1h-0.17
				c-0.02,0-0.03,0-0.04-0.01c-0.01-0.01-0.01-0.02-0.01-0.04v-0.03h0.18v-0.1h-0.18v-0.03c0-0.02,0-0.03,0.01-0.04
				c0.01-0.01,0.02-0.01,0.04-0.01h0.17v-0.1h-0.17h0C-18.94,59.27-18.98,59.28-19.01,59.31"/>
		</g>
		<g id="g96_00000135673527831585109900000000407859377973560485_" transform="translate(197.2103,106.4256)">
			<path id="path98_00000137103362719887628430000008661553258032115862_" class="st1" d="M-29.73,59.33
				c-0.03,0.03-0.04,0.06-0.04,0.11v0.32h0.1v-0.32c0-0.02,0-0.03,0.01-0.04c0.01-0.01,0.02-0.01,0.04-0.01h0.14l-0.04-0.1h-0.11h0
				C-29.67,59.28-29.7,59.3-29.73,59.33"/>
		</g>
		<g id="g100_00000031205005827231928270000000186348603031944358_" transform="translate(220.7446,105.2966)">
			<path id="path102_00000127025610868348814590000004631065276895583105_" class="st1" d="M-52.4,60.41v0.18l-0.16,0.29h0.12
				l0.09-0.18l0.09,0.18h0.12l-0.16-0.29v-0.18H-52.4z"/>
		</g>
		<g id="g104_00000080198467804403077340000002054758184732654465_" transform="translate(209.9902,110.4251)">
			<path id="path106_00000113350112510275712760000012190675848932390561_" class="st1" d="M-42.04,55.47l0.05,0.16l0.05-0.16
				H-42.04z M-41.9,55.69c-0.02,0.07-0.06,0.07-0.07,0.07H-42c-0.02,0-0.05,0-0.07-0.07c-0.03-0.1-0.14-0.4-0.14-0.4h0.11l0.03,0.09
				h0.17l0.03-0.09h0.11L-41.9,55.69z"/>
		</g>
		<g id="g108_00000166655477965163433130000002592869509933960875_" transform="translate(217.7796,122.5175)">
			<path id="path110_00000076577268825807843930000008263842789264076723_" class="st1" d="M-49.54,43.83l0.02,0.06l0.02-0.06
				H-49.54z M-49.49,43.9c-0.01,0.02-0.02,0.02-0.03,0.02h-0.01c-0.01,0-0.02,0-0.03-0.02c-0.01-0.04-0.05-0.15-0.05-0.15h0.04
				l0.01,0.03h0.06l0.01-0.03h0.04L-49.49,43.9z"/>
		</g>
		<g id="g112_00000065072231771533360690000018399392079663161996_" transform="translate(181.968,120.7368)">
			<path id="path114_00000159454680986699762670000014934202193417304971_" class="st1" d="M-15.05,45.54L-15.05,45.54L-15.05,45.54
				z M-15.08,45.54v0.11c0,0.01-0.01,0.02-0.03,0.02c-0.02,0-0.02-0.01-0.02-0.02v-0.11h-0.04v0.11c0,0.01-0.01,0.02-0.02,0.02
				c-0.02,0-0.02-0.01-0.03-0.02v-0.11h-0.04v0.11c0,0.03,0.03,0.06,0.06,0.06c0.02,0,0.03-0.01,0.04-0.02
				c0.01,0.01,0.03,0.02,0.04,0.02c0.04,0,0.06-0.03,0.06-0.06v-0.11v0H-15.08z"/>
		</g>
		<g id="g116_00000040576047667492074580000016078001796207984781_" transform="translate(187.2723,122.9987)">
			<path id="path118_00000049903675101063767560000004133077179278759841_" class="st1" d="M-20.16,43.36
				c0-0.03,0.02-0.05,0.05-0.05c0.02,0,0.05,0.02,0.05,0.05c0,0.03-0.02,0.05-0.05,0.05C-20.14,43.41-20.16,43.39-20.16,43.36
				 M-20.19,43.36c0,0.05,0.04,0.09,0.08,0.09c0.05,0,0.08-0.04,0.08-0.09c0-0.05-0.04-0.09-0.08-0.09
				C-20.16,43.27-20.19,43.31-20.19,43.36"/>
		</g>
		<g id="g120_00000111175719210095336630000017878696911607290778_" transform="translate(197.9778,124.9385)">
			<path id="path122_00000038378230444515941140000006028021720307100852_" class="st1" d="M-30.47,41.49
				c0.01-0.01,0.02-0.03,0.02-0.05v-0.11h-0.04v0.11c0,0.02-0.01,0.02-0.03,0.02c-0.02,0-0.02-0.01-0.02-0.02v-0.11h-0.04v0.11
				c0,0.02,0.01,0.03,0.02,0.05c0.01,0.01,0.03,0.02,0.05,0.02C-30.5,41.51-30.48,41.5-30.47,41.49"/>
		</g>
		<g id="g124_00000078725658421606539490000006880983297436262294_" transform="translate(204.7421,124.3351)">
			<path id="path126_00000028300640212829730980000007301948899301675654_" class="st1" d="M-36.98,42.07h-0.03l0-0.1h0.03
				c0.03,0,0.04,0.03,0.04,0.05C-36.95,42.05-36.95,42.07-36.98,42.07 M-36.98,41.94h-0.06v0.17h0.06c0.02,0,0.04-0.01,0.06-0.02
				c0.01-0.01,0.02-0.04,0.02-0.06c0-0.03-0.01-0.05-0.02-0.06C-36.94,41.95-36.96,41.94-36.98,41.94L-36.98,41.94"/>
		</g>
		<path id="path128_00000057134592625616729580000016305896194725223845_" class="st1" d="M167.98,166.45h0.04v-0.17h-0.04V166.45z"
			/>
		<g id="g130_00000004515366896298760490000016413652656818304438_" transform="translate(225.7742,120.6442)">
			<path id="path132_00000000931881459355269740000000114039229560980352_" class="st1" d="M-57.24,45.63
				c-0.02,0-0.03,0.01-0.04,0.02c-0.01,0.01-0.01,0.02-0.01,0.04v0.12h0.04v-0.12c0-0.01,0-0.02,0.02-0.02h0.05v-0.04H-57.24z"/>
		</g>
		<g id="g134_00000084492137544010166130000014406987187520371643_" transform="translate(203.5711,158.0667)">
			<path id="path136_00000024001214703888120100000006261008464594304390_" class="st2" d="M-35.86,9.58c0-0.07-0.06-0.13-0.13-0.13
				s-0.13,0.06-0.13,0.13c0,0.07,0.06,0.13,0.13,0.13S-35.86,9.66-35.86,9.58"/>
		</g>
	</g>
</g>
</svg>
