<svg xmlns="http://www.w3.org/2000/svg" role="img" viewBox="0 0 38 24" width="38" height="24" aria-labelledby="pi-chronopost"><title id="pi-chronopost">Chronopost</title>
<style type="text/css">
	.st0{fill:#CE0F4C;}
	.st1{fill:#FFFFFF;}
	.st2{fill:#C7BCAF;}
	.st3{fill:#EFDC00;}
	.st4{fill-rule:evenodd;clip-rule:evenodd;fill:#254F9E;}
	.st5{fill:#FDCD00;}
	.st6{fill:#193D6B;}
	.st7{fill:url(#SVGID_1_);}
	.st8{fill:#444244;}
	.st9{fill:url(#SVGID_00000135648725999900842470000015996979143456227465_);}
</style>
<g>
	<linearGradient id="SVGID_1_" gradientUnits="userSpaceOnUse" x1="22.9627" y1="5.2497" x2="14.736" y2="11.8203">
		<stop  offset="2.064656e-07" style="stop-color:#449ED7"/>
		<stop  offset="1" style="stop-color:#1E6BAB"/>
	</linearGradient>
	<path class="st7" d="M14.6,5.46c0.39-0.21,0.76-0.42,1.13-0.62c1-0.54,2-1.08,2.99-1.63c0.19-0.11,0.35-0.11,0.54,0
		c1.34,0.74,2.68,1.47,4.03,2.2c0.03,0.01,0.05,0.03,0.09,0.06c-0.3,0.17-0.58,0.34-0.87,0.51c-0.69,0.4-1.37,0.8-2.06,1.19
		c-0.22,0.13-0.22,0.51-0.01,0.66c0.18,0.13,0.32,0.13,0.52,0.01c0.84-0.5,1.69-0.99,2.54-1.48c0.03-0.02,0.06-0.04,0.1-0.04
		c0.03,0.05,0.01,0.1,0.01,0.15c0,1.49,0,2.99,0,4.48c0,0.2-0.07,0.34-0.25,0.44c-0.62,0.36-1.22,0.73-1.84,1.08
		c-0.47,0.27-0.93,0.56-1.4,0.83c-0.32,0.18-0.64,0.37-0.96,0.56c-0.13,0.08-0.24,0.07-0.38-0.01c-1.05-0.62-2.1-1.24-3.16-1.86
		c-0.36-0.21-0.71-0.42-1.07-0.63c-0.14-0.08-0.21-0.19-0.21-0.36c0-1.55,0-3.1,0-4.64c0-0.01,0-0.03,0.01-0.07
		c0.26,0.15,0.52,0.3,0.77,0.45c1.09,0.63,2.18,1.27,3.27,1.9c0.11,0.07,0.16,0.14,0.16,0.27c-0.01,1.11,0,2.23,0,3.34
		c0,0.26,0.31,0.45,0.55,0.34c0.21-0.09,0.28-0.22,0.28-0.45c-0.01-1.22-0.01-2.44,0-3.66c0-0.17-0.06-0.26-0.2-0.35
		c-1.51-0.87-3.01-1.74-4.51-2.62C14.68,5.5,14.65,5.49,14.6,5.46z"/>
	<g>
		<path class="st8" d="M22.69,18.65c0-0.7,0-1.39,0-2.09c0-0.08,0.02-0.13,0.1-0.15c0.65-0.22,1.31-0.32,1.99-0.14
			c0.69,0.18,1.12,0.72,1.15,1.44c0.02,0.41-0.04,0.81-0.26,1.17c-0.28,0.45-0.71,0.65-1.22,0.72c-0.12,0.02-0.37,0-0.37,0
			s-0.03-0.48-0.02-0.72c0.09-0.02,0.21-0.06,0.32-0.09c0.48-0.13,0.68-0.53,0.64-1.01c-0.04-0.5-0.36-0.79-0.88-0.8
			c-0.15,0-0.3,0.02-0.44,0.04c-0.1,0.02-0.13,0.06-0.13,0.16c0,1.18,0,2.37,0.01,3.55c0,0.12-0.03,0.15-0.15,0.14
			c-0.21-0.01-0.43-0.01-0.64,0c-0.1,0-0.12-0.03-0.12-0.12C22.69,20.05,22.69,19.35,22.69,18.65z"/>
		<path class="st8" d="M6.14,17.16c0-0.76,0-1.51,0-2.27c0-0.11,0.03-0.13,0.13-0.13c0.22,0.01,0.43,0.01,0.65,0
			c0.09,0,0.11,0.03,0.11,0.12c0,0.45,0,0.89,0,1.34c0,0.08,0.01,0.11,0.1,0.08c0.33-0.11,0.67-0.14,1.02-0.08
			c0.56,0.09,0.91,0.46,0.95,1.03c0.03,0.37,0.01,0.74,0.01,1.11c0,0.36,0,0.73,0,1.09c0,0.09-0.03,0.11-0.11,0.11
			c-0.23-0.01-0.45-0.01-0.68,0c-0.1,0-0.12-0.03-0.12-0.12c0-0.62,0-1.24,0-1.86c0-0.39-0.17-0.57-0.56-0.58
			c-0.17,0-0.35,0.02-0.52,0.06c-0.09,0.02-0.11,0.06-0.11,0.15c0,0.74,0,1.48,0,2.23c0,0.11-0.03,0.13-0.14,0.13
			c-0.22-0.01-0.43-0.01-0.65,0c-0.09,0-0.11-0.03-0.11-0.11C6.14,18.68,6.14,17.92,6.14,17.16z"/>
		<path class="st8" d="M29.76,17.9c0,1.01-0.72,1.72-1.72,1.72c-1,0-1.72-0.72-1.72-1.71c0-1.01,0.72-1.72,1.73-1.72
			C29.05,16.19,29.76,16.9,29.76,17.9z M28.87,17.88c-0.01-0.06-0.01-0.14-0.03-0.22c-0.07-0.4-0.35-0.66-0.74-0.7
			c-0.36-0.03-0.69,0.18-0.81,0.53c-0.09,0.26-0.09,0.53-0.01,0.8c0.11,0.35,0.39,0.55,0.75,0.56c0.36,0,0.64-0.19,0.77-0.54
			C28.84,18.18,28.86,18.04,28.87,17.88z"/>
		<path class="st8" d="M22.31,17.9c0,1-0.72,1.72-1.73,1.72c-1,0-1.72-0.72-1.72-1.72c0-1,0.71-1.71,1.72-1.72
			C21.59,16.19,22.31,16.9,22.31,17.9z M19.76,17.92c0.01,0.1,0.01,0.21,0.04,0.32c0.1,0.38,0.4,0.61,0.78,0.61
			c0.38,0,0.68-0.23,0.78-0.61c0.05-0.19,0.06-0.39,0.02-0.58c-0.06-0.31-0.22-0.55-0.53-0.66c-0.3-0.1-0.57-0.05-0.81,0.16
			C19.83,17.36,19.77,17.63,19.76,17.92z"/>
		<path class="st8" d="M15.11,17.9c0,1.01-0.72,1.72-1.73,1.72c-1,0-1.72-0.72-1.72-1.73c0-1,0.72-1.71,1.73-1.7
			C14.4,16.19,15.11,16.9,15.11,17.9z M13.37,18.85c0.36,0.01,0.65-0.19,0.77-0.53c0.08-0.21,0.09-0.43,0.05-0.65
			c-0.07-0.41-0.35-0.67-0.75-0.71c-0.37-0.03-0.7,0.2-0.82,0.58c-0.08,0.26-0.08,0.52,0.01,0.77
			C12.75,18.64,13.02,18.84,13.37,18.85z"/>
		<path class="st8" d="M15.52,18.01c0-0.47,0-0.94,0-1.41c0-0.09,0.02-0.13,0.11-0.16c0.6-0.19,1.21-0.3,1.84-0.22
			c0.64,0.08,1.02,0.48,1.03,1.13c0.01,0.7,0,1.41,0.01,2.11c0,0.07-0.02,0.09-0.09,0.09c-0.23,0-0.47-0.01-0.7,0
			c-0.08,0-0.11-0.02-0.1-0.11c0-0.59,0-1.19,0-1.78c0-0.03,0-0.07,0-0.1c0-0.38-0.2-0.58-0.59-0.57c-0.17,0-0.35,0.03-0.52,0.07
			c-0.08,0.02-0.1,0.05-0.1,0.13c0,0.75,0,1.49,0,2.24c0,0.1-0.02,0.13-0.12,0.13c-0.21-0.01-0.43-0.01-0.64,0
			c-0.1,0-0.14-0.02-0.13-0.13C15.52,18.95,15.52,18.48,15.52,18.01z"/>
		<path class="st8" d="M32.91,16.85c0-0.56,0-1.13,0-1.69c0-0.09,0.02-0.12,0.11-0.12c0.23,0.01,0.45,0.01,0.68,0
			c0.09,0,0.12,0.02,0.11,0.11c-0.01,0.33,0,0.66,0,0.99c0,0.1,0.03,0.12,0.12,0.12c0.31-0.01,0.62,0,0.93,0
			c0.08,0,0.11,0.02,0.11,0.11c-0.01,0.17-0.01,0.35,0,0.52c0,0.09-0.02,0.12-0.11,0.11c-0.31-0.01-0.63,0-0.94,0
			c-0.09,0-0.1,0.03-0.1,0.11c0,0.39,0,0.79,0,1.18c0,0.36,0.19,0.54,0.54,0.55c0.19,0,0.38-0.01,0.57-0.07
			c0.07-0.02,0.1,0,0.1,0.07c0,0.22,0,0.43,0,0.65c0,0.06-0.01,0.08-0.07,0.09c-0.41,0.06-0.81,0.09-1.22-0.02
			c-0.47-0.12-0.75-0.46-0.79-0.96c-0.04-0.48-0.01-0.97-0.02-1.45C32.91,17.06,32.91,16.95,32.91,16.85z"/>
		<path class="st8" d="M32.26,17.19c-0.31-0.2-0.62-0.33-0.97-0.32c-0.08,0-0.15,0.01-0.22,0.04c-0.09,0.04-0.15,0.11-0.16,0.21
			c-0.01,0.11,0.04,0.19,0.13,0.24c0.11,0.06,0.24,0.09,0.36,0.12c0.19,0.04,0.38,0.09,0.56,0.18c0.37,0.18,0.51,0.48,0.51,0.88
			c0,0.39-0.15,0.7-0.51,0.88c-0.41,0.2-0.85,0.19-1.28,0.11c-0.18-0.03-0.34-0.09-0.5-0.17c-0.04-0.02-0.08-0.04-0.08-0.1
			c0-0.25,0-0.5,0-0.76c0.27,0.19,0.55,0.31,0.86,0.35c0.14,0.02,0.27,0.02,0.4-0.01c0.12-0.03,0.22-0.1,0.23-0.24
			c0.01-0.13-0.05-0.22-0.19-0.28c-0.14-0.06-0.29-0.08-0.44-0.12c-0.09-0.02-0.19-0.05-0.28-0.08c-0.44-0.16-0.64-0.44-0.64-0.9
			c0-0.47,0.21-0.81,0.63-0.96c0.52-0.19,1.03-0.15,1.52,0.09c0.05,0.02,0.08,0.05,0.08,0.11C32.26,16.7,32.26,16.93,32.26,17.19z"
			/>
		<path class="st8" d="M5.7,18.54c0,0.28,0,0.53,0,0.79c0,0.04-0.02,0.06-0.05,0.08c-0.68,0.38-2.12,0.34-2.54-0.83
			c-0.26-0.74-0.06-1.58,0.5-2.02c0.52-0.42,1.39-0.49,1.97-0.17c0.04,0.02,0.09,0.04,0.09,0.11c0,0.25,0,0.51,0,0.76
			c-0.06,0-0.09-0.05-0.13-0.07c-0.33-0.21-0.69-0.26-1.06-0.15c-0.27,0.08-0.46,0.27-0.53,0.54c-0.21,0.77,0.28,1.35,1.08,1.26
			C5.26,18.8,5.48,18.7,5.7,18.54z"/>
		<path class="st8" d="M9.62,18.33c0.01-0.32-0.03-0.72,0.02-1.11c0.07-0.58,0.39-0.91,0.96-1c0.35-0.06,0.69-0.04,1.04,0.01
			c0.06,0.01,0.08,0.03,0.08,0.09c0,0.22,0,0.44,0,0.66c0,0.07-0.02,0.08-0.09,0.06C11.42,17,11.2,16.97,10.97,17
			c-0.26,0.03-0.41,0.18-0.43,0.43c-0.03,0.27-0.01,0.55-0.01,0.83c0,0.39,0,0.79,0,1.18c0,0.08-0.02,0.11-0.1,0.11
			c-0.23-0.01-0.46-0.01-0.69,0c-0.09,0-0.11-0.03-0.11-0.12C9.63,19.09,9.62,18.75,9.62,18.33z"/>
	</g>
</g>
</svg>
