<svg xmlns="http://www.w3.org/2000/svg" role="img" viewBox="0 0 38 24" width="38" height="24" aria-labelledby="pi-colissimo"><title id="pi-colissimo">Colissimo</title>
<style type="text/css">
	.st0{fill:#CE0F4C;}
	.st1{fill:#FFFFFF;}
	.st2{fill:#C7BCAF;}
	.st3{fill:#EFDC00;}
	.st4{fill-rule:evenodd;clip-rule:evenodd;fill:#254F9E;}
	.st5{fill:#FDCD00;}
	.st6{fill:#193D6B;}
	.st7{fill:url(#SVGID_1_);}
	.st8{fill:#444244;}
	.st9{fill:url(#SVGID_00000080180670139692067900000004683745609965352321_);}
	.st10{fill:none;}
	.st11{fill:#EC691D;}
	.st12{fill:#F28D47;}
	.st13{fill:#34434F;}
	.st14{fill:url(#SVGID_00000016775223145816878970000004430559973302586004_);}
	.st15{fill:url(#SVGID_00000032617044420316526340000007466866764045232517_);}
	.st16{fill:#107BC0;}
</style>
<rect class="st1" width="38" height="24"/>
<linearGradient id="SVGID_1_" gradientUnits="userSpaceOnUse" x1="14.4813" y1="67.4336" x2="23.3834" y2="72.9596" gradientTransform="matrix(1 0 0 -1 0 78.6584)">
	<stop  offset="0" style="stop-color:#EC670D"/>
	<stop  offset="0.168" style="stop-color:#ED6D0B"/>
	<stop  offset="0.3875" style="stop-color:#EF7B0F"/>
	<stop  offset="0.6356" style="stop-color:#F3920B"/>
	<stop  offset="0.9028" style="stop-color:#F9AF0D"/>
	<stop  offset="1" style="stop-color:#FBBA13"/>
</linearGradient>
<path class="st7" d="M20.8,7.94c-0.04,0.03-0.11,0.02-0.15,0L20.4,7.78c-0.02-0.01-0.04-0.03-0.05-0.06c0,0,0,0,0,0
	c-0.02-0.03-0.03-0.05-0.03-0.08l-0.01-0.29c0-0.05,0.03-0.11,0.07-0.13l3.01-1.75l-4.22-2.3C19.12,3.14,19.06,3.12,19,3.12
	s-0.12,0.01-0.17,0.04l-4.22,2.3l4.73,2.75c0.04,0.02,0.08,0.08,0.08,0.13v4.02c0,0.05-0.04,0.11-0.08,0.13l-0.25,0.14
	c-0.02,0.01-0.05,0.02-0.08,0.02c0,0,0,0-0.01,0c-0.03,0-0.06-0.01-0.08-0.02l-0.26-0.14c-0.04-0.02-0.08-0.08-0.08-0.13V8.79
	c0-0.03-0.02-0.06-0.04-0.07l-4.17-2.43v4.75c0,0.11,0.08,0.24,0.17,0.29l4.29,2.53c0.05,0.03,0.11,0.04,0.17,0.04
	c0.06,0,0.12-0.01,0.17-0.04l4.29-2.53c0.09-0.05,0.17-0.18,0.17-0.29V6.29L20.8,7.94z"/>
<g>
	<path class="st8" d="M8.94,16.43C8.66,16.26,8.38,16.19,8,16.19c-1,0-1.73,0.69-1.73,1.72c0,1.03,0.68,1.71,1.74,1.71
		c0.34,0,0.66-0.07,0.96-0.24v-0.83c-0.25,0.19-0.52,0.29-0.83,0.29c-0.6,0-0.97-0.38-0.97-0.94c0-0.59,0.39-0.93,0.94-0.93
		c0.3,0,0.57,0.08,0.84,0.3L8.94,16.43L8.94,16.43z"/>
	<path class="st8" d="M14.35,18.8L14.35,18.8c-0.33-0.03-0.49-0.21-0.49-0.55v-3.48h-0.88v3.53c0,0.96,0.54,1.28,1.38,1.28
		L14.35,18.8L14.35,18.8z"/>
	<path class="st8" d="M10.92,16.19c-0.98,0-1.72,0.69-1.72,1.72c0,1.02,0.74,1.72,1.72,1.72c0.98,0,1.72-0.69,1.72-1.72
		C12.64,16.88,11.9,16.19,10.92,16.19z M10.92,18.86c-0.48,0-0.83-0.36-0.83-0.95c0-0.59,0.35-0.95,0.83-0.95
		c0.48,0,0.83,0.36,0.83,0.95C11.74,18.5,11.4,18.86,10.92,18.86z"/>
	<path class="st8" d="M16.2,19.32c0.27,0.17,0.67,0.27,1.07,0.27c0.77,0,1.3-0.32,1.3-1.04c0-0.59-0.29-0.91-1.14-1.07
		c-0.31-0.07-0.43-0.16-0.43-0.33c0-0.15,0.13-0.28,0.42-0.28c0.34,0,0.63,0.11,0.94,0.32V16.4c-0.29-0.16-0.58-0.24-0.97-0.24
		c-0.71,0-1.25,0.33-1.25,1.05c0,0.6,0.31,0.89,1.05,1.03c0.36,0.07,0.5,0.15,0.5,0.35c0,0.21-0.18,0.29-0.46,0.29
		c-0.32,0-0.74-0.14-1.05-0.37L16.2,19.32L16.2,19.32z"/>
	<polygon class="st8" points="14.76,19.55 15.65,19.55 15.65,19.27 15.65,16.25 14.76,16.25 	"/>
	<path class="st8" d="M15.21,14.94c-0.24,0-0.44,0.2-0.44,0.44s0.2,0.44,0.44,0.44s0.44-0.2,0.44-0.44
		C15.65,15.14,15.45,14.94,15.21,14.94"/>
	<path class="st8" d="M30,16.19c-0.98,0-1.72,0.69-1.72,1.72c0,1.02,0.74,1.72,1.72,1.72c0.98,0,1.72-0.69,1.72-1.72
		C31.73,16.88,30.98,16.19,30,16.19z M30,18.86c-0.48,0-0.83-0.36-0.83-0.95c0-0.59,0.35-0.95,0.83-0.95s0.83,0.36,0.83,0.95
		C30.83,18.5,30.48,18.86,30,18.86z"/>
	<path class="st8" d="M18.87,19.32c0.27,0.17,0.67,0.27,1.07,0.27c0.77,0,1.3-0.32,1.3-1.04c0-0.59-0.29-0.91-1.14-1.07
		c-0.31-0.07-0.43-0.16-0.43-0.33c0-0.15,0.13-0.28,0.42-0.28c0.34,0,0.63,0.11,0.94,0.32V16.4c-0.29-0.16-0.58-0.24-0.97-0.24
		c-0.71,0-1.25,0.33-1.25,1.05c0,0.6,0.31,0.89,1.05,1.03c0.36,0.07,0.5,0.15,0.5,0.35c0,0.21-0.18,0.29-0.46,0.29
		c-0.32,0-0.74-0.14-1.05-0.37L18.87,19.32L18.87,19.32z"/>
	<polygon class="st8" points="21.62,19.55 22.51,19.55 22.51,19.27 22.51,16.25 21.62,16.25 	"/>
	<path class="st8" d="M22.06,14.94c-0.24,0-0.44,0.2-0.44,0.44s0.2,0.44,0.44,0.44c0.24,0,0.44-0.2,0.44-0.44
		C22.51,15.14,22.31,14.94,22.06,14.94"/>
	<path class="st8" d="M27.03,17.49c0-0.35-0.15-0.52-0.5-0.52c-0.24,0-0.47,0.05-0.62,0.13c0.03,0.07,0.07,0.18,0.07,0.34v2.11
		h-0.89v-2.05c0-0.35-0.16-0.52-0.5-0.52c-0.21,0-0.38,0.03-0.55,0.08v2.5h-0.88v-3.07c0.46-0.18,0.99-0.29,1.48-0.29
		c0.38,0,0.71,0.1,0.91,0.26c0.29-0.13,0.63-0.26,1.11-0.26c0.78,0,1.27,0.3,1.27,1.27v2.09h-0.89L27.03,17.49L27.03,17.49z"/>
</g>
</svg>
