<svg xmlns="http://www.w3.org/2000/svg" role="img" viewBox="0 0 38 24" width="38" height="24" aria-labelledby="pi-correos"><title id="pi-correos">Correos</title>
<style type="text/css">
	.st0{fill:#CE0F4C;}
	.st1{fill:#FFFFFF;}
	.st2{fill:#C7BCAF;}
	.st3{fill:#EFDC00;}
	.st4{fill-rule:evenodd;clip-rule:evenodd;fill:#254F9E;}
	.st5{fill:#FDCD00;}
	.st6{fill:#193D6B;}
	.st7{fill:url(#SVGID_1_);}
	.st8{fill:#444244;}
	.st9{fill:url(#SVGID_00000044900405410818004570000007543415221098913452_);}
</style>
<rect class="st5" width="38" height="24"/>
<g id="layer1_00000093856258748047536340000013126458632190656415_" transform="translate(-22.745446,-140.77167)">
	<g>
		<path id="path849_00000091006760309363514570000011194915468429874600_" class="st6" d="M41.1,151.76c0,0.36,0.29,0.65,0.65,0.65
			c0.36,0,0.65-0.29,0.65-0.65c0-0.36-0.29-0.65-0.65-0.65C41.39,151.11,41.1,151.4,41.1,151.76 M45.61,149.8
			c-0.18,1.3-1.02,2.39-2.17,2.92c-0.48,0.22-1.01,0.34-1.57,0.34h-0.13c-0.72,0-1.3-0.58-1.3-1.3c0-0.72,0.58-1.3,1.3-1.3
			c0.72,0,1.3,0.58,1.3,1.3c0,0.16-0.03,0.31-0.08,0.46c0.26-0.1,0.51-0.23,0.73-0.39c0,0,0-0.04,0-0.07c0-1.08-0.87-1.96-1.95-1.96
			s-1.95,0.88-1.95,1.96c0,1.08,0.87,1.96,1.95,1.96c0.8,0,1.55-0.21,2.2-0.57c1.22-0.68,2.1-1.9,2.3-3.34L45.61,149.8z
			 M39.14,149.8h-1.9c0.21,1.44,1.08,2.66,2.3,3.34c-0.25-0.4-0.4-0.88-0.4-1.39V149.8z M46.95,149.15c0,2.88-2.33,5.21-5.2,5.21
			c-2.87,0-5.2-2.33-5.2-5.21h3.25v0.88c0.48-0.54,1.17-0.88,1.95-0.88c1.26,0,2.32,0.9,2.55,2.1c0.43-0.53,0.69-1.2,0.7-1.93v-0.17
			L46.95,149.15z"/>
		<path id="path853_00000057839467264371654810000001447576829397078445_" class="st6" d="M41.75,147.1h-0.33v-1.21
			c-0.36,0-0.65,0.29-0.65,0.65c0,0.24,0.13,0.44,0.32,0.56h-0.84c-0.08-0.17-0.13-0.36-0.13-0.56c0-0.23,0.06-0.44,0.16-0.63
			c-0.05-0.01-0.11-0.02-0.16-0.02c-0.36,0-0.65,0.29-0.65,0.65c0,0.24,0.13,0.44,0.32,0.56h-0.84c-0.08-0.17-0.13-0.36-0.13-0.56
			c0-0.72,0.58-1.3,1.3-1.3c0.24,0,0.46,0.06,0.65,0.17c0.19-0.11,0.41-0.17,0.65-0.17c0.11,0,0.22,0.01,0.33,0.04
			c0.1-0.03,0.21-0.04,0.32-0.04c0.24,0,0.46,0.06,0.65,0.17c0.19-0.11,0.41-0.17,0.65-0.17c0.72,0,1.3,0.58,1.3,1.3
			c0,0.2-0.05,0.39-0.13,0.56h-0.84c0.19-0.11,0.32-0.32,0.32-0.56c0-0.36-0.29-0.65-0.65-0.65c-0.06,0-0.11,0.01-0.16,0.02
			c0.1,0.19,0.16,0.4,0.16,0.63c0,0.2-0.05,0.39-0.13,0.56h-0.84c0.19-0.11,0.32-0.32,0.32-0.56c0-0.36-0.29-0.65-0.65-0.65v1.21
			H41.75z"/>
		<path id="path857_00000125584007942190374750000004017544429720090245_" class="st6" d="M38.94,147.67c0-0.22,0.18-0.39,0.39-0.39
			c0.22,0,0.39,0.18,0.39,0.39c0,0.22-0.18,0.39-0.39,0.39C39.12,148.07,38.94,147.89,38.94,147.67"/>
		<path id="path861_00000170959039503179811370000006248939609962081958_" class="st6" d="M43.76,147.67c0-0.22,0.18-0.39,0.39-0.39
			c0.22,0,0.39,0.18,0.39,0.39c0,0.22-0.18,0.39-0.39,0.39C43.94,148.07,43.76,147.89,43.76,147.67"/>
		<path id="path865_00000057141968613423140790000009546657122577858746_" class="st6" d="M42.56,147.67c0-0.22,0.18-0.39,0.39-0.39
			s0.39,0.18,0.39,0.39c0,0.22-0.18,0.39-0.39,0.39S42.56,147.89,42.56,147.67"/>
		<path id="path869_00000103237718480607720960000018148134172183335310_" class="st6" d="M41.35,147.67c0-0.22,0.18-0.39,0.39-0.39
			c0.22,0,0.39,0.18,0.39,0.39c0,0.22-0.18,0.39-0.39,0.39C41.53,148.07,41.35,147.89,41.35,147.67"/>
		<path id="path873_00000015318280650842030120000013330418688093670289_" class="st6" d="M40.15,147.67c0-0.22,0.18-0.39,0.39-0.39
			c0.22,0,0.39,0.18,0.39,0.39c0,0.22-0.18,0.39-0.39,0.39C40.32,148.07,40.15,147.89,40.15,147.67"/>
		<path id="path875_00000022530118156132085490000003385613077440647813_" class="st6" d="M39.79,148.28h3.9v0.65h-3.9V148.28z"/>
		<path id="path887_00000062175864713632521140000016847083525355946903_" class="st6" d="M41.64,144.53v-0.15h-0.22v-0.22h0.22
			v-0.22h0.22v0.22h0.22v0.22h-0.22v0.15c0.13,0.04,0.22,0.17,0.22,0.31c0,0.18-0.15,0.33-0.33,0.33c-0.18,0-0.33-0.15-0.33-0.33
			C41.42,144.69,41.51,144.57,41.64,144.53"/>
	</g>
	<g>
		<path id="path891_00000139999301312534647520000000448747231383152520_" class="st6" d="M33.24,159.85
			c-0.6,0.36-1.32,0.64-1.89,0.66c-0.62,0.03-1.3-0.08-1.49-0.7c-0.28-0.91,0.28-2.07,1.01-2.46c1.01-0.54,1.85-0.25,2.14,0.05
			l0.21-1.09c-0.43-0.19-1.01-0.27-1.23-0.27c-1.52,0-2.26,0.74-2.72,1.36c-0.51,0.69-1.2,2.44,0.08,3.65
			c0.38,0.36,1.08,0.58,1.73,0.54c1.04-0.07,1.68-0.37,2.28-0.81c0.03,0.07,0.07,0.13,0.1,0.18c0.27,0.38,0.75,0.57,1.45,0.57
			c1.16,0,1.93-0.46,2.17-1.77l0.07-0.44c0.01-0.04,0.02-0.09,0.02-0.14c0.02-0.13,0.03-0.28,0.03-0.41c0-0.99-0.61-1.43-1.68-1.43
			c-1.15,0-1.9,0.45-2.16,1.77c0.63-0.41,1.25-0.84,2.06-0.84c0.45,0,0.58,0.18,0.58,0.51c0,0.11-0.01,0.22-0.04,0.4
			c0,0.01,0,0.03-0.01,0.04l-0.08,0.43c-0.14,0.7-0.33,0.95-0.88,0.95c-0.41,0-0.57-0.14-0.57-0.5c-0.01-0.12,0.02-0.36,0.04-0.45
			c0.02-0.09,0.13-0.6,0.13-0.6S33.84,159.49,33.24,159.85"/>
		<path id="path895_00000038404815906448625600000016312698406442933123_" class="st6" d="M40.44,157.38c-0.43,0-0.95,0.07-1.4,0.43
			l0.06-0.33h-1.12l-0.7,3.96h1.22l0.51-2.87c0.33-0.1,0.82-0.18,1.26-0.18L40.44,157.38z"/>
		<path id="path899_00000084506815603257188090000002200523170562853044_" class="st6" d="M43.26,157.38c-0.43,0-0.94,0.07-1.4,0.43
			l0.06-0.33H40.8l-0.7,3.96h1.22l0.51-2.87c0.33-0.1,0.82-0.18,1.26-0.18L43.26,157.38z"/>
		<path id="path903_00000151534024050035106290000010415733939882981280_" class="st6" d="M53.48,158.19c0.3,0,0.78,0.03,1.27,0.08
			l0.12-0.73c-0.3-0.08-0.82-0.16-1.42-0.16c-0.93,0-1.82,0.2-1.82,1.24c0,0.58,0.33,0.92,0.93,1.16l0.3,0.12
			c0.43,0.18,0.52,0.24,0.52,0.43c0,0.34-0.32,0.41-0.7,0.41c-0.59,0-0.82-0.05-1.34-0.07l-0.12,0.73c0.21,0.06,0.84,0.15,1.4,0.15
			c1.13,0,1.99-0.34,1.99-1.37c0-0.55-0.28-0.86-0.97-1.13l-0.33-0.13c-0.33-0.14-0.46-0.2-0.46-0.37
			C52.84,158.2,53.19,158.19,53.48,158.19"/>
		<path id="path907_00000128461344468524798770000011364175674462663339_" class="st6" d="M49.91,159.25l-0.09,0.43
			c-0.14,0.7-0.33,0.95-0.87,0.95c-0.41,0-0.57-0.14-0.57-0.5c0-0.14,0.01-0.28,0.04-0.45l0.09-0.43c0.13-0.7,0.33-0.95,0.86-0.95
			c0.45,0,0.57,0.18,0.57,0.51C49.94,158.93,49.94,159.05,49.91,159.25 M49.47,157.38c-1.16,0-1.9,0.45-2.16,1.76l-0.08,0.38
			c-0.05,0.24-0.05,0.42-0.05,0.61c0,0.95,0.57,1.42,1.67,1.42c1.17,0,1.93-0.46,2.17-1.77l0.07-0.44c0.02-0.15,0.06-0.38,0.06-0.55
			C51.15,157.81,50.55,157.38,49.47,157.38"/>
		<path id="path911_00000152265561980552304610000000370786408395931553_" class="st6" d="M45.71,159.13h-1.43l0.02-0.06
			c0.07-0.43,0.25-0.84,0.85-0.84c0.47,0,0.6,0.23,0.6,0.53C45.75,158.86,45.74,158.98,45.71,159.13 M45.26,157.38
			c-1.16,0-1.98,0.48-2.21,1.87l-0.03,0.21c-0.04,0.24-0.07,0.47-0.07,0.66c0,1,0.61,1.43,1.75,1.43c0.71,0,1.29-0.1,1.61-0.17
			l0.13-0.8c-0.75,0.05-1.09,0.07-1.51,0.07c-0.64,0-0.82-0.16-0.82-0.48c0-0.09,0.02-0.2,0.05-0.38h2.61
			c0.08-0.41,0.12-0.68,0.12-0.96C46.9,157.97,46.43,157.38,45.26,157.38"/>
	</g>
</g>
</svg>
