<svg xmlns="http://www.w3.org/2000/svg" role="img" viewBox="0 0 38 24" width="38" height="24" aria-labelledby="pi-dpd"><title id="pi-dpd">Dpd</title>
<style type="text/css">
	.st0{fill:#CE0F4C;}
	.st1{fill:#FFFFFF;}
	.st2{fill:#C7BCAF;}
	.st3{fill:#EFDC00;}
	.st4{fill-rule:evenodd;clip-rule:evenodd;fill:#254F9E;}
	.st5{fill:#FDCD00;}
	.st6{fill:#193D6B;}
	.st7{fill:url(#SVGID_1_);}
	.st8{fill:#444244;}
	.st9{fill:url(#SVGID_00000173150956558769472920000016731904480796840615_);}
	.st10{fill:none;}
	.st11{fill:#EC691D;}
	.st12{fill:#F28D47;}
	.st13{fill:#34434F;}
	.st14{fill:url(#SVGID_00000092454439747963789140000006014083760956847507_);}
	.st15{fill:url(#SVGID_00000183240609033874235820000003013021988700463757_);}
	.st16{fill:#107BC0;}
</style>
<rect class="st1" width="38" height="24"/>
<linearGradient id="SVGID_1_" gradientUnits="userSpaceOnUse" x1="14.4813" y1="67.4336" x2="23.3834" y2="72.9596" gradientTransform="matrix(1 0 0 -1 0 78.6584)">
	<stop  offset="0" style="stop-color:#AA1E3C"/>
	<stop  offset="0.0456" style="stop-color:#AE1E38"/>
	<stop  offset="0.1984" style="stop-color:#BA1D2E"/>
	<stop  offset="0.3613" style="stop-color:#C41C24"/>
	<stop  offset="0.5371" style="stop-color:#CB1A1E"/>
	<stop  offset="0.7347" style="stop-color:#D01919"/>
	<stop  offset="1" style="stop-color:#D11917"/>
</linearGradient>
<path class="st7" d="M20.8,7.94c-0.04,0.03-0.11,0.02-0.15,0L20.4,7.78c-0.02-0.01-0.04-0.03-0.05-0.06c0,0,0,0,0,0
	c-0.02-0.03-0.03-0.05-0.03-0.08l-0.01-0.29c0-0.05,0.03-0.11,0.07-0.13l3.01-1.75l-4.22-2.3C19.12,3.14,19.06,3.12,19,3.12
	s-0.12,0.01-0.17,0.04l-4.22,2.3l4.73,2.75c0.04,0.02,0.08,0.08,0.08,0.13v4.02c0,0.05-0.04,0.11-0.08,0.13l-0.25,0.14
	c-0.02,0.01-0.05,0.02-0.08,0.02c0,0,0,0-0.01,0c-0.03,0-0.06-0.01-0.08-0.02l-0.26-0.14c-0.04-0.02-0.08-0.08-0.08-0.13V8.79
	c0-0.03-0.02-0.06-0.04-0.07l-4.17-2.43v4.75c0,0.11,0.08,0.24,0.17,0.29l4.29,2.53c0.05,0.03,0.11,0.04,0.17,0.04
	c0.06,0,0.12-0.01,0.17-0.04l4.29-2.53c0.09-0.05,0.17-0.18,0.17-0.29V6.29L20.8,7.94z"/>
<g>
	<path class="st8" d="M23.37,16.28c0-0.5,0-1.01,0-1.51c0.3,0,0.59,0,0.88,0c0,1.56,0,3.13,0,4.69c-0.07,0.02-0.14,0.03-0.2,0.05
		c-0.43,0.08-0.86,0.12-1.29,0.1c-0.29-0.01-0.57-0.07-0.83-0.19c-0.47-0.22-0.76-0.59-0.86-1.1c-0.07-0.34-0.06-0.67,0.04-1
		c0.18-0.57,0.57-0.93,1.15-1.08c0.32-0.08,0.64-0.08,0.96-0.01C23.26,16.24,23.31,16.26,23.37,16.28z M23.37,17.94
		c0-0.27,0-0.54,0-0.81c0-0.07,0.02-0.07-0.07-0.1c-0.24-0.08-0.48-0.1-0.73-0.05c-0.33,0.07-0.54,0.27-0.62,0.6
		c-0.06,0.22-0.05,0.43,0.02,0.65c0.07,0.23,0.21,0.4,0.42,0.51c0.09,0.05,0.19,0.08,0.3,0.1c0.18,0.03,0.35,0.02,0.53,0.01
		c0.04,0,0.08-0.01,0.12-0.02c0.02,0,0.03-0.01,0.03-0.03c0-0.01,0-0.03,0-0.04C23.37,18.48,23.37,18.21,23.37,17.94z"/>
	<path class="st8" d="M16.1,16.28c0-0.51,0-1.01,0-1.51c0.29,0,0.58,0,0.87,0c0.01,0.04,0.02,4.58,0,4.69
		c-0.05,0.01-0.1,0.03-0.15,0.04c-0.22,0.05-0.45,0.08-0.68,0.1c-0.22,0.02-0.44,0.03-0.66,0.02c-0.31-0.01-0.61-0.07-0.89-0.21
		c-0.41-0.2-0.67-0.53-0.78-0.96c-0.1-0.37-0.1-0.74,0.02-1.11c0.18-0.57,0.56-0.93,1.14-1.08c0.32-0.08,0.64-0.08,0.96-0.01
		C15.99,16.24,16.04,16.26,16.1,16.28z M16.1,17.94c0-0.27,0-0.55,0-0.82c0-0.06,0-0.06-0.05-0.08c-0.01,0-0.02-0.01-0.02-0.01
		c-0.23-0.08-0.47-0.1-0.72-0.05c-0.3,0.06-0.51,0.24-0.61,0.54c-0.07,0.21-0.07,0.42-0.02,0.63c0.07,0.3,0.25,0.51,0.54,0.63
		c0.2,0.08,0.41,0.08,0.61,0.07c0.08-0.01,0.16-0.02,0.23-0.03c0.02,0,0.03-0.01,0.03-0.04c0-0.01,0-0.03,0-0.04
		C16.1,18.48,16.1,18.21,16.1,17.94z"/>
	<path class="st8" d="M18.38,20.87c-0.3,0-0.59,0-0.89,0c0-1.47,0-2.94,0-4.41c0.01-0.01,0.03-0.01,0.05-0.02
		c0.26-0.1,0.52-0.16,0.79-0.21c0.17-0.03,0.34-0.04,0.5-0.05c0.33-0.01,0.65,0.03,0.96,0.16c0.51,0.22,0.81,0.59,0.91,1.13
		c0.06,0.35,0.04,0.7-0.07,1.04c-0.16,0.52-0.51,0.85-1.03,1.01c-0.23,0.07-0.47,0.1-0.71,0.1c-0.01,0-0.02,0-0.03,0
		c0,0-0.01,0-0.01-0.01c0-0.25,0-0.5,0-0.76c0.03,0,0.06-0.01,0.08-0.01c0.12-0.01,0.24-0.03,0.35-0.08
		c0.25-0.1,0.41-0.28,0.49-0.53c0.06-0.2,0.07-0.41,0.03-0.61c-0.07-0.32-0.27-0.52-0.58-0.61c-0.13-0.04-0.27-0.05-0.41-0.04
		c-0.12,0.01-0.25,0.02-0.37,0.06c-0.02,0.01-0.04,0.01-0.07,0.02C18.38,18.33,18.38,19.6,18.38,20.87z"/>
</g>
</svg>
