<svg xmlns="http://www.w3.org/2000/svg" role="img" viewBox="0 0 38 24" width="38" height="24" aria-labelledby="pi-evri"><title id="pi-evri">Evri</title>
<style type="text/css">
	.st0{fill:#CE0F4C;}
	.st1{fill:#FFFFFF;}
	.st2{fill:#C7BCAF;}
	.st3{fill:#EFDC00;}
	.st4{fill-rule:evenodd;clip-rule:evenodd;fill:#254F9E;}
	.st5{fill:#FDCD00;}
	.st6{fill:#193D6B;}
	.st7{fill:url(#SVGID_1_);}
	.st8{fill:#444244;}
	.st9{fill:url(#SVGID_00000039099772884950372990000000710010289030720674_);}
	.st10{fill:none;}
	.st11{fill:#EC691D;}
	.st12{fill:#F28D47;}
	.st13{fill:#34434F;}
	.st14{fill:url(#SVGID_00000026863991474949503000000017148383423427031433_);}
	.st15{fill:url(#SVGID_00000054241376391529063870000003308493077244544643_);}
	.st16{fill:#107BC0;}
</style>
<path class="st16" d="M32.44,7.62c0.59,0.01,1.05,0.5,1.04,1.09c-0.01,0.59-0.5,1.05-1.09,1.04c-0.58-0.01-1.04-0.49-1.04-1.07
	C31.35,8.08,31.84,7.62,32.44,7.62z M11.36,7.68v2.3H9.88V9.04H6.34v2.3h3.22v1.31H6.34v2.32h3.54v-0.93h1.47v2.3H3.93v-1.37h0.82
	V9.04H3.93V7.68H11.36z M16.55,13.79l2.37-6.12h0.91l-3.44,8.71h-0.95l-3.46-8.71h2.22L16.55,13.79z M21.71,11.85V8.73h4.63
	c0.78,0,1.22,0.13,1.52,0.41c0.27,0.25,0.42,0.6,0.42,1.08c0,0.49-0.13,0.89-0.41,1.18c-0.28,0.3-0.71,0.46-1.5,0.46L21.71,11.85
	L21.71,11.85z M30.36,16.34L27.3,12.8c1.3-0.13,2.29-1.08,2.29-2.6c0-0.77-0.23-1.36-0.67-1.78c-0.54-0.51-1.32-0.75-2.57-0.75h-5.9
	v8.66h1.26v-3.44h4.18l2.92,3.44H30.36L30.36,16.34z M33.39,15.18c0,0.51,0.21,0.71,0.68,0.95v0.22H30.9v-0.22
	c0.47-0.23,0.68-0.44,0.68-0.95v-3.32c0-0.45-0.08-0.7-0.68-1.09v-0.22h2.48L33.39,15.18z"/>
</svg>
