<?xml version="1.0" encoding="utf-8"?>
<!-- Generator: Adobe Illustrator 28.1.0, SVG Export Plug-In . SVG Version: 6.00 Build 0)  -->
<svg xmlns="http://www.w3.org/2000/svg" role="img" viewBox="0 0 38 24" width="38" height="24" aria-labelledby="pi-poste-italiane"><title id="pi-poste-italiane">PosteItaliane</title>
<style type="text/css">
	.st0{fill:#CE0F4C;}
	.st1{fill:#FFFFFF;}
	.st2{fill:#C7BCAF;}
	.st3{fill:#EFDC00;}
	.st4{fill-rule:evenodd;clip-rule:evenodd;fill:#254F9E;}
</style>
<g id="layer1_00000148643587365501448870000016268537436849381284_" transform="translate(40.766277,-34.512127)">
	<rect id="rect4496" x="-40.77" y="34.51" class="st3" width="38" height="24"/>
	<g id="g10" transform="matrix(0.28623924,0,0,-0.28573313,-35.053431,71.300443)">
		<g id="g12" transform="scale(0.1)">
			<path id="path16" class="st4" d="M375.46,841.36c-0.18-11.86,2.92-22.08,15.88-22.08c9.67,0,15.69,4.57,16.97,13.15h32.12
				c-1.1-11.87-8.59-20.44-17.34-25.55c-8.03-5.11-18.26-7.12-29.02-7.12c-36.68,0-51.29,15.7-51.29,51.65
				c0,29.02,21.72,45.45,49.28,45.45c37.24,0,49.1-21.36,49.1-55.49L375.46,841.36z M408.31,859.98c0,4.93-1.47,9.86-4.2,13.69
				c-2.74,3.83-6.75,6.21-12.05,5.84c-12.05-0.54-14.96-9.12-15.88-19.52H408.31"/>
			<path id="path18" class="st4" d="M-59.48,802.49v131.78h60.6c32.3,0,53.48-10.41,53.48-42.34c0-31.94-21.18-42.35-53.48-42.35
				h-24.09v-47.09H-59.48z M-4.17,875.13c14.42,0.55,20.44,7.12,20.44,16.8c0,9.67-6.02,16.24-20.44,16.79h-18.8v-33.58H-4.17"/>
			<path id="path20" class="st4" d="M162.42,848.3c0-33.76-24.64-48.55-53.3-48.55c-28.65,0-53.29,14.79-53.29,48.55
				c0,33.77,24.64,48.55,53.29,48.55C137.78,896.85,162.42,882.07,162.42,848.3z M109.12,819.83c14.61,0,17.71,15.51,17.71,28.47
				c0,12.96-3.1,28.47-17.71,28.47c-14.6,0-17.7-15.52-17.7-28.47C91.42,835.34,94.52,819.83,109.12,819.83"/>
			<path id="path22" class="st4" d="M222.84,865.83c0,3.1-0.55,5.84-2.19,7.66c-1.83,2.01-4.74,3.29-9.49,3.29
				c-5.11,0-8.21-2.92-8.21-8.21c0-6.75,14.05-6.39,35.77-13.14c10.95-3.46,18.43-10.22,18.43-25.19
				c0-24.28-22.82-30.48-43.81-30.48c-22.45,0-44.35,4.56-44.17,32.49h32.85c-0.55-2.74,0.37-5.84,2.37-8.21
				c2.01-2.37,4.93-4.2,8.21-4.2c6.76,0,11.68,2.55,11.68,8.39c0,16.25-54.21,6.57-54.21,39.79c0,22.63,24.09,28.84,42.34,28.84
				c21.72,0,41.8-5.66,43.26-31.02L222.84,865.83"/>
			<path id="path24" class="st4" d="M279.99,894.11v13.87l34.67,13.14v-27.01h20.08v-21.9h-20.08v-36.32
				c0-2.37-1.45-14.24,6.58-14.24c4.56,0,9.31,0,13.32,0.54v-20.62c-7.85-1.47-13.51-1.83-18.63-1.83
				c-23.54,0-37.78,3.28-35.95,31.39v41.07h-17.89v21.9H279.99"/>
			<path id="path26" class="st4" d="M456.14,895.04h17.39v-91.91h-17.39V895.04z M454.49,935.32h20.69v-18.86h-20.69V935.32"/>
			<path id="path28" class="st4" d="M501.43,895.04v19.59l17.38,5.49v-25.08l21.25,0.55v-13l-21.25,0.19v-59.33
				c0-6.58,5.14-9.7,11.36-9.7c2.75,0,6.41,0.36,9.16,1.09v-13.36c-4.03-0.18-7.88-1.1-11.91-1.1c-4.21,0-7.5,0.19-11.72,0.92
				c-2.74,0.54-7.32,2.02-10.25,6.04c-3.11,4.39-4.02,4.76-4.02,17.03v58.42l-15.75-0.19v13L501.43,895.04"/>
			<path id="path30" class="st4" d="M608.35,859.88c0,15.94-0.91,25.28-19.41,25.28c-8.78,0-17.03-5.14-17.2-14.65h-18.31
				c0.91,20.14,16.66,27.29,34.78,27.29c18.86,0,37.54-5.68,37.54-31.31v-43.95c0-4.02,0.19-11.72,0.73-19.41h-11.72
				c-1.66,0-4.77-0.91-4.95,1.28c-0.36,4.21-0.73,8.23-0.92,12.45h-0.37c-5.67-11.54-15.92-16.49-28.56-16.49
				c-15.93,0-32.04,8.25-32.04,26.18c0,25.82,22.9,33.33,44.68,33.33H608.35z M590.97,847.79c-10.63-0.55-24.73-4.39-24.73-17.76
				c0-11.35,7.87-17.03,18.12-17.03c20.51,0,24.36,17.76,23.99,34.79H590.97"/>
			<path id="path32" class="st4" d="M643.05,935.32h17.38V803.12h-17.38V935.32"/>
			<path id="path34" class="st4" d="M682.06,895.04h17.4v-91.91h-17.4V895.04z M680.42,935.32h20.69v-18.86h-20.69V935.32"/>
			<path id="path36" class="st4" d="M775.58,859.88c0,15.94-0.91,25.28-19.41,25.28c-8.79,0-17.03-5.14-17.2-14.65h-18.32
				c0.92,20.14,16.67,27.29,34.79,27.29c18.86,0,37.54-5.68,37.54-31.31v-43.95c0-4.02,0.18-11.72,0.73-19.41h-11.72
				c-1.65,0-4.76-0.91-4.95,1.28c-0.36,4.21-0.73,8.23-0.91,12.45h-0.37c-5.67-11.54-15.92-16.49-28.56-16.49
				c-15.92,0-32.04,8.25-32.04,26.18c0,25.82,22.88,33.33,44.68,33.33H775.58z M758.18,847.79c-10.62-0.55-24.72-4.39-24.72-17.76
				c0-11.35,7.87-17.03,18.13-17.03c20.51,0,24.35,17.76,23.99,34.79H758.18"/>
			<path id="path38" class="st4" d="M828,881.48h0.36c5.86,11.53,18.68,16.3,27.83,16.3c6.41,0,34.79-1.65,34.79-31.13v-63.53h-17.4
				v57.85c0,15.2-6.41,23.44-21.05,23.44c-0.01,0-9.53,0.55-16.85-6.78c-2.56-2.56-7.32-6.6-7.32-24.53v-49.98h-17.39v91.91H828
				L828,881.48"/>
			<path id="path40" class="st4" d="M923.05,845.78c-1.29-16.11,5.31-32.77,23.07-32.77c13.55,0,20.33,5.31,22.34,18.68h18.31
				c-2.74-20.87-18.86-31.32-40.83-31.32c-29.48,0-41.19,20.87-41.19,47.97c0,26.92,13.55,49.45,42.66,49.45
				c27.47-0.55,40.47-17.95,40.47-43.4v-8.61H923.05z M969.56,857.86c0.37,15.38-6.59,27.29-23.44,27.29
				c-14.46,0-23.07-12.27-23.07-27.29H969.56"/>
		</g>
	</g>
</g>
</svg>
