<svg xmlns="http://www.w3.org/2000/svg" role="img" viewBox="0 0 38 24" width="38" height="24" aria-labelledby="pi-sendle"><title id="pi-sendle">Sendle</title>
<style type="text/css">
	.st0{fill:#CE0F4C;}
	.st1{fill:#FFFFFF;}
	.st2{fill:#C7BCAF;}
	.st3{fill:#EFDC00;}
	.st4{fill-rule:evenodd;clip-rule:evenodd;fill:#254F9E;}
	.st5{fill:#FDCD00;}
	.st6{fill:#193D6B;}
	.st7{fill:url(#SVGID_1_);}
	.st8{fill:#444244;}
	.st9{fill:url(#SVGID_00000006674808771772931990000015938010313602690965_);}
	.st10{fill:none;}
	.st11{fill:#EC691D;}
	.st12{fill:#F28D47;}
	.st13{fill:#34434F;}
	.st14{fill:url(#SVGID_00000072962780695706833430000000384285307359647396_);}
	.st15{fill:url(#SVGID_00000183213958636930023410000000638201045765358252_);}
	.st16{fill:#107BC0;}
</style>
<g id="Canvas_00000016765736509532049770000014814593815227038646_">
	<g id="Group_3_00000095334845687600140590000007771026571175757445_">
		<g id="logo-chevron_00000101800458923040502370000013252643540262169473_">
			<path class="st11" d="M31.62,10.05l1.62,2.81l-1.62,2.81h1.98l1.62-2.81l-1.62-2.81H31.62z"/>
			<path class="st12" d="M31.62,10.05l1.62,2.81h1.98l-1.62-2.81H31.62z"/>
		</g>
		<g id="logo-text_00000132781083485435018790000014796753384960508039_">
			<path class="st13" d="M27.88,12.19c0.13-0.53,0.67-0.96,1.27-0.96s1.14,0.42,1.27,0.96H27.88z M32.09,12.91
				c0-1.68-1.25-3.09-2.96-3.09c-1.37,0-2.44,0.96-2.84,2.23V8.71c0.01-0.29-0.22-0.53-0.5-0.53c-0.01,0-0.02,0-0.04,0h-1.06v7.48
				h1.07c0.31,0,0.54-0.31,0.54-0.62v-1.45c0.4,1.26,1.5,2.23,2.87,2.23c1.26,0,2.26-0.82,2.74-1.89h-1.71
				c-0.27,0.27-0.57,0.52-1.02,0.52c-0.65,0-1.21-0.39-1.31-1.06h4.19C32.08,13.23,32.09,13.07,32.09,12.91L32.09,12.91z"/>
			<path class="st13" d="M21.03,14.22c-0.84,0-1.4-0.63-1.4-1.44c0-0.82,0.61-1.4,1.42-1.4s1.41,0.6,1.41,1.4
				C22.46,13.61,21.87,14.22,21.03,14.22z M8.73,12.19c0.13-0.53,0.67-0.96,1.27-0.96c0.6,0,1.14,0.42,1.27,0.96H8.73z M22.41,8.71
				v1.77c-0.53-0.46-1.02-0.67-1.66-0.67c-1.42,0-2.42,0.96-2.7,2.23c0-0.64-0.13-1.31-0.65-1.74c-0.36-0.3-0.96-0.48-1.43-0.48
				c-0.67,0-1.17,0.23-1.53,0.76h-0.05v0c0-0.31-0.22-0.53-0.53-0.53h-0.93v2.1c-0.4-1.33-1.45-2.33-2.9-2.33
				c-1.64,0-2.95,1.38-2.95,3c0,0.06,0,0.12,0,0.18c-0.7-0.95-2.55-0.76-2.55-1.47c0-0.25,0.25-0.34,0.47-0.34
				c0.29,0,0.51,0.06,0.52,0.46h1.64c-0.11-1.2-1.03-1.83-2.14-1.83c-1.08,0-2.17,0.69-2.17,1.86c0,0.78,0.67,1.21,1.33,1.45
				c0.24,0.09,0.48,0.17,0.72,0.25c0.3,0.12,0.75,0.24,0.75,0.64c0,0.29-0.33,0.43-0.58,0.43c-0.33,0-0.58-0.12-0.64-0.52H2.78
				c0.13,1.34,1.11,1.89,2.27,1.89c1.09,0,2.18-0.62,2.27-1.78c0.47,1.02,1.5,1.78,2.7,1.78c1.26,0,2.24-0.82,2.73-1.89h-1.71
				c-0.27,0.27-0.57,0.52-1.02,0.52c-0.65,0-1.21-0.39-1.31-1.06h4.21v2.27h1.6v-3.1c0-0.67,0.2-1.17,0.98-1.17
				c0.75,0,0.89,0.53,0.89,1.16v2.49c0,0.31,0.22,0.62,0.53,0.62h1.07v-2.11c0.27,1.28,1.3,2.27,2.74,2.27
				c0.64,0,1.31-0.15,1.67-0.79v0.04c0,0.29,0.29,0.59,0.6,0.59h1V8.18h-1.08C22.62,8.18,22.41,8.4,22.41,8.71L22.41,8.71z"/>
		</g>
	</g>
</g>
<rect x="3.06" y="7.6" class="st10" width="31.88" height="8.81"/>
</svg>
