<svg xmlns="http://www.w3.org/2000/svg" role="img" viewBox="0 0 38 24" width="38" height="24" aria-labelledby="pi-correos"><title id="pi-correos">Correos</title><style type="text/css">.st6{fill:#193d6b}</style><path fill="#fdcd00" d="M0 0h38v24H0z"/><g id="layer1_00000093856258748047536340000013126458632190656415_"><g transform="translate(-22.745 -140.772)"><path id="path849_00000091006760309363514570000011194915468429874600_" class="st6" d="M41.1 151.76c0 .36.29.65.65.65.36 0 .65-.29.65-.65 0-.36-.29-.65-.65-.65-.36 0-.65.29-.65.65m4.51-1.96a3.796 3.796 0 01-2.17 2.92c-.48.22-1.01.34-1.57.34h-.13c-.72 0-1.3-.58-1.3-1.3 0-.72.58-1.3 1.3-1.3.72 0 1.3.58 1.3 1.3 0 .16-.03.31-.08.46.26-.1.51-.23.73-.39v-.07c0-1.08-.87-1.96-1.95-1.96s-1.95.88-1.95 1.96.87 1.96 1.95 1.96a4.55 4.55 0 004.5-3.91l-.63-.01zm-6.47 0h-1.9a4.577 4.577 0 002.3 3.34c-.25-.4-.4-.88-.4-1.39v-1.95zm7.81-.65c0 2.88-2.33 5.21-5.2 5.21s-5.2-2.33-5.2-5.21h3.25v.88a2.597 2.597 0 014.5 1.22c.43-.53.69-1.2.7-1.93v-.17h1.95z"/><path id="path853_00000057839467264371654810000001447576829397078445_" class="st6" d="M41.75 147.1h-.33v-1.21a.649.649 0 00-.33 1.21h-.84c-.08-.17-.13-.36-.13-.56 0-.23.06-.44.16-.63a.649.649 0 00-.49 1.19h-.84a1.297 1.297 0 011.17-1.86c.24 0 .46.06.65.17.19-.11.41-.17.65-.17.11 0 .22.01.33.04.1-.03.21-.04.32-.04.24 0 .46.06.65.17.19-.11.41-.17.65-.17a1.297 1.297 0 011.17 1.86h-.84a.649.649 0 00-.49-1.19c.1.19.16.4.16.63 0 .2-.05.39-.13.56h-.84a.649.649 0 00-.33-1.21v1.21h-.32z"/><path id="path857_00000125584007942190374750000004017544429720090245_" class="st6" d="M38.94 147.67a.39.39 0 11.39.39.384.384 0 01-.39-.39"/><path id="path861_00000170959039503179811370000006248939609962081958_" class="st6" d="M43.76 147.67a.39.39 0 11.39.39.384.384 0 01-.39-.39"/><path id="path865_00000057141968613423140790000009546657122577858746_" class="st6" d="M42.56 147.67c0-.22.18-.39.39-.39s.39.18.39.39a.39.39 0 01-.78 0"/><path id="path869_00000103237718480607720960000018148134172183335310_" class="st6" d="M41.35 147.67a.39.39 0 11.39.39.384.384 0 01-.39-.39"/><path id="path873_00000015318280650842030120000013330418688093670289_" class="st6" d="M40.15 147.67a.39.39 0 11.39.39.378.378 0 01-.39-.39"/><path id="path875_00000022530118156132085490000003385613077440647813_" class="st6" d="M39.79 148.28h3.9v.65h-3.9v-.65z"/><path id="path887_00000062175864713632521140000016847083525355946903_" class="st6" d="M41.64 144.53v-.15h-.22v-.22h.22v-.22h.22v.22h.22v.22h-.22v.15c.13.04.22.17.22.31 0 .18-.15.33-.33.33-.18 0-.33-.15-.33-.33 0-.15.09-.27.22-.31"/></g><g transform="translate(-22.745 -140.772)"><path id="path891_00000139999301312534647520000000448747231383152520_" class="st6" d="M33.24 159.85c-.6.36-1.32.64-1.89.66-.62.03-1.3-.08-1.49-.7-.28-.91.28-2.07 1.01-2.46 1.01-.54 1.85-.25 2.14.05l.21-1.09c-.43-.19-1.01-.27-1.23-.27-1.52 0-2.26.74-2.72 1.36-.51.69-1.2 2.44.08 3.65.38.36 1.08.58 1.73.54 1.04-.07 1.68-.37 2.28-.81.03.07.07.13.1.18.27.38.75.57 1.45.57 1.16 0 1.93-.46 2.17-1.77l.07-.44a.59.59 0 00.02-.14c.02-.13.03-.28.03-.41 0-.99-.61-1.43-1.68-1.43-1.15 0-1.9.45-2.16 1.77.63-.41 1.25-.84 2.06-.84.45 0 .58.18.58.51 0 .11-.01.22-.04.4 0 .01 0 .03-.01.04l-.08.43c-.14.7-.33.95-.88.95-.41 0-.57-.14-.57-.5-.01-.12.02-.36.04-.45l.13-.6s-.75.44-1.35.8"/><path id="path895_00000038404815906448625600000016312698406442933123_" class="st6" d="M40.44 157.38c-.43 0-.95.07-1.4.43l.06-.33h-1.12l-.7 3.96h1.22l.51-2.87c.33-.1.82-.18 1.26-.18l.17-1.01z"/><path id="path899_00000084506815603257188090000002200523170562853044_" class="st6" d="M43.26 157.38c-.43 0-.94.07-1.4.43l.06-.33H40.8l-.7 3.96h1.22l.51-2.87c.33-.1.82-.18 1.26-.18l.17-1.01z"/><path id="path903_00000151534024050035106290000010415733939882981280_" class="st6" d="M53.48 158.19c.3 0 .78.03 1.27.08l.12-.73c-.3-.08-.82-.16-1.42-.16-.93 0-1.82.2-1.82 1.24 0 .58.33.92.93 1.16l.3.12c.43.18.52.24.52.43 0 .34-.32.41-.7.41-.59 0-.82-.05-1.34-.07l-.12.73c.21.06.84.15 1.4.15 1.13 0 1.99-.34 1.99-1.37 0-.55-.28-.86-.97-1.13l-.33-.13c-.33-.14-.46-.2-.46-.37-.01-.35.34-.36.63-.36"/><path id="path907_00000128461344468524798770000011364175674462663339_" class="st6" d="M49.91 159.25l-.09.43c-.14.7-.33.95-.87.95-.41 0-.57-.14-.57-.5 0-.14.01-.28.04-.45l.09-.43c.13-.7.33-.95.86-.95.45 0 .57.18.57.51 0 .12 0 .24-.03.44m-.44-1.87c-1.16 0-1.9.45-2.16 1.76l-.08.38c-.05.24-.05.42-.05.61 0 .95.57 1.42 1.67 1.42 1.17 0 1.93-.46 2.17-1.77l.07-.44c.02-.15.06-.38.06-.55 0-.98-.6-1.41-1.68-1.41"/><path id="path911_00000152265561980552304610000000370786408395931553_" class="st6" d="M45.71 159.13h-1.43l.02-.06c.07-.43.25-.84.85-.84.47 0 .6.23.6.53 0 .1-.01.22-.04.37m-.45-1.75c-1.16 0-1.98.48-2.21 1.87l-.03.21c-.04.24-.07.47-.07.66 0 1 .61 1.43 1.75 1.43.71 0 1.29-.1 1.61-.17l.13-.8c-.75.05-1.09.07-1.51.07-.64 0-.82-.16-.82-.48 0-.09.02-.2.05-.38h2.61c.08-.41.12-.68.12-.96.01-.86-.46-1.45-1.63-1.45"/></g></g></svg>