<svg xmlns="http://www.w3.org/2000/svg" role="img" viewBox="0 0 38 24" width="38" height="24" aria-labelledby="pi-dhl"><title id="pi-dhl">DHL</title><style type="text/css">.st132{fill:#d21130}</style><path fill="#ffcc07" d="M0 24V0h38v24"/><path class="st132" d="M6.68 9.31l-1.21 1.65h6.62c.33 0 .33.13.17.35-.17.22-.44.62-.61.84-.09.12-.24.33.27.33h2.71s.44-.59.8-1.09c.5-.67.04-2.08-1.73-2.08H6.68z"/><path class="st132" d="M4.98 14.69l2.44-3.31h3.03c.33 0 .33.13.17.35-.17.22-.45.61-.62.84-.09.12-.24.33.27.33h4.05c-.34.46-1.43 1.8-3.39 1.8-1.6-.01-5.95-.01-5.95-.01zM18.94 12.89l-1.32 1.8h-3.49l1.32-1.8h3.49zM24.29 12.48h-8.54l2.34-3.17h3.49l-1.34 1.82h1.55l1.34-1.82h3.49zM23.99 12.89l-1.32 1.8h-3.49l1.32-1.8h3.49zM0 13.6h5.14l-.28.38H0zM0 12.89h5.66l-.28.38H0zM0 14.31h4.62l-.28.38H0zM38 13.98h-5.12l.28-.38H38zM38 14.69h-5.64l.28-.38H38zM33.68 12.89H38v.38h-4.6zM31.45 9.31l-2.33 3.17h-3.7l2.33-3.17h3.7zM25.12 12.89s-.25.35-.38.52c-.44.59-.05 1.28 1.38 1.28h5.6l1.32-1.8h-7.92z"/></svg>